<?xml version="1.0" encoding="UTF-8" standalone="no"?>
<!-- Created with Inkscape (http://www.inkscape.org/) -->

<svg
   width="7.2352171mm"
   height="7.2352014mm"
   viewBox="0 0 7.2352172 7.2352014"
   version="1.1"
   id="svg1"
   inkscape:version="1.3.2 (091e20e, 2023-11-25, custom)"
   sodipodi:docname="Exprtise Zoho Menu Webpage.svg"
   xml:space="preserve"
   xmlns:inkscape="http://www.inkscape.org/namespaces/inkscape"
   xmlns:sodipodi="http://sodipodi.sourceforge.net/DTD/sodipodi-0.dtd"
   xmlns="http://www.w3.org/2000/svg"
   xmlns:svg="http://www.w3.org/2000/svg"><sodipodi:namedview
     id="namedview1"
     pagecolor="#505050"
     bordercolor="#eeeeee"
     borderopacity="1"
     inkscape:showpageshadow="0"
     inkscape:pageopacity="0"
     inkscape:pagecheckerboard="0"
     inkscape:deskcolor="#d1d1d1"
     inkscape:document-units="mm"
     inkscape:zoom="1.0447106"
     inkscape:cx="646.59055"
     inkscape:cy="27.280282"
     inkscape:window-width="1920"
     inkscape:window-height="991"
     inkscape:window-x="-9"
     inkscape:window-y="-9"
     inkscape:window-maximized="1"
     inkscape:current-layer="layer1"
     showguides="true"><sodipodi:guide
       position="69.67872,304.23726"
       orientation="0,-1"
       id="guide15"
       inkscape:locked="false" /><sodipodi:guide
       position="-40.15024,193.89367"
       orientation="1,0"
       id="guide126"
       inkscape:locked="false" /><sodipodi:guide
       position="-104.51475,212.15483"
       orientation="1,0"
       id="guide134"
       inkscape:locked="false" /><sodipodi:guide
       position="19.39715,196.20272"
       orientation="1,0"
       id="guide135"
       inkscape:locked="false" /><sodipodi:guide
       position="65.64022,268.13629"
       orientation="1,0"
       id="guide151"
       inkscape:locked="false" /><inkscape:page
       x="1.866668e-07"
       y="-1.4032772e-05"
       width="7.2352171"
       height="7.2352009"
       id="page1"
       margin="0"
       bleed="0" /></sodipodi:namedview><defs
     id="defs1" /><g
     inkscape:label="Layer 1"
     inkscape:groupmode="layer"
     id="layer1"
     transform="translate(-367.7761,-168.20309)"><circle
       style="fill:#ffffff;stroke-width:0.0526406"
       id="circle4"
       cx="371.39371"
       cy="171.82069"
       r="3.6176021" /><path
       style="fill:#0078d4;fill-opacity:1;stroke-width:0.0376163"
       d="m 370.27886,174.18744 c -0.0191,-0.0191 -0.0199,-0.0332 -0.0199,-0.35676 0,-0.32981 3.3e-4,-0.33724 0.0209,-0.35581 0.0204,-0.0184 0.053,-0.019 1.11366,-0.019 1.06058,0 1.09333,6.6e-4 1.11365,0.019 0.0205,0.0186 0.0209,0.026 0.0209,0.35581 0,0.32358 -6.7e-4,0.33763 -0.0199,0.35676 -0.0196,0.0197 -0.0333,0.0199 -1.11469,0.0199 -1.08154,0 -1.09503,-2.3e-4 -1.1147,-0.0199 z m 0.43339,-0.13391 c 0.0243,-0.0243 0.0244,-0.0254 0.0244,-0.22394 0,-0.18623 -9.4e-4,-0.20083 -0.0199,-0.21941 -0.0302,-0.0303 -0.0828,-0.0298 -0.11446,10e-4 -0.0181,0.0176 -0.0203,0.035 -0.0232,0.18964 -0.002,0.0936 -6.7e-4,0.18535 0.003,0.20381 0.0131,0.0697 0.0832,0.096 0.13024,0.0489 z m 0.34059,0.005 c 0.03,-0.028 0.0343,-0.0641 0.0305,-0.25724 -0.003,-0.15466 -0.005,-0.17203 -0.0233,-0.18963 -0.0317,-0.0308 -0.0842,-0.0313 -0.11446,-0.001 -0.0186,0.0186 -0.0199,0.0332 -0.0199,0.21941 0,0.19855 1.1e-4,0.19962 0.0244,0.22394 0.0299,0.0299 0.0734,0.0318 0.10261,0.005 z m 1.06592,-0.0887 c 0.0394,-0.028 0.071,-0.0883 0.071,-0.13525 0,-0.15543 -0.20271,-0.22917 -0.29778,-0.10832 -0.0664,0.0845 -0.0348,0.21308 0.0639,0.25891 0.0429,0.02 0.12404,0.0123 0.16286,-0.0154 z m -2.5634,-0.23236 c -0.0966,-0.10179 -0.33196,-0.39079 -0.32933,-0.40449 0.003,-0.013 0.0194,-0.0166 0.09,-0.0189 l 0.0869,-0.003 v -0.60021 c 0,-0.56883 7.1e-4,-0.60106 0.0183,-0.61667 0.0153,-0.0138 0.0423,-0.0165 0.16488,-0.0165 0.082,0 0.15515,0.005 0.16592,0.0103 0.0186,0.01 0.0192,0.0274 0.0192,0.61669 v 0.60639 l 0.092,0.003 c 0.0798,0.003 0.092,0.005 0.092,0.0202 0,0.0168 -0.34834,0.43548 -0.36234,0.43548 -0.004,0 -0.0208,-0.0146 -0.0377,-0.0323 z m 3.47613,0.0167 c -0.0138,-0.0139 -0.0156,-0.0835 -0.0156,-0.61669 v -0.60106 l -0.0919,-0.003 c -0.0733,-0.002 -0.0926,-0.006 -0.0949,-0.0181 -0.003,-0.0205 0.34686,-0.4326 0.36824,-0.4326 0.023,0 0.36828,0.40859 0.36404,0.43076 -0.003,0.0144 -0.0172,0.0176 -0.0902,0.02 l -0.0869,0.003 v 0.59677 c 0,0.5835 -3.2e-4,0.59722 -0.0199,0.61668 -0.0181,0.0181 -0.0333,0.0199 -0.16848,0.0199 -0.1218,0 -0.1514,-0.003 -0.16423,-0.0156 z m -2.74632,-0.47276 -0.0263,-0.0206 v -0.33728 c 0,-0.33415 1.8e-4,-0.33747 0.0218,-0.35758 0.0217,-0.0202 0.0286,-0.0203 1.11282,-0.0203 1.08424,0 1.09118,1.2e-4 1.11282,0.0203 0.0216,0.0201 0.0218,0.0234 0.0218,0.35758 v 0.33728 l -0.0263,0.0206 c -0.0262,0.0206 -0.0287,0.0206 -1.10838,0.0206 -1.07972,0 -1.08222,-4e-5 -1.10838,-0.0206 z m 0.41099,-0.12332 c 0.0154,-0.008 0.0309,-0.0218 0.0344,-0.0307 0.003,-0.009 0.007,-0.10328 0.007,-0.20983 0,-0.1924 -1.4e-4,-0.19388 -0.0244,-0.21814 -0.0309,-0.0309 -0.0662,-0.0311 -0.10196,-3.3e-4 l -0.028,0.024 v 0.19838 c 0,0.21027 0.003,0.22272 0.0494,0.24172 0.0285,0.0116 0.0328,0.0112 0.0642,-0.005 z m 0.36398,-0.0162 c 0.0186,-0.0183 0.02,-0.0327 0.02,-0.2192 v -0.19963 l -0.0279,-0.024 c -0.0356,-0.0307 -0.071,-0.0305 -0.10196,3.3e-4 -0.0243,0.0243 -0.0244,0.0255 -0.0244,0.22203 0,0.14313 0.004,0.2019 0.0124,0.2132 0.0331,0.0414 0.0841,0.0444 0.12192,0.007 z m 1.01064,-0.0588 c 0.0399,-0.0111 0.0928,-0.061 0.10843,-0.10271 0.0617,-0.16381 -0.14587,-0.30059 -0.26916,-0.17731 -0.0872,0.0873 -0.0651,0.22104 0.045,0.27105 0.0465,0.0212 0.0664,0.0227 0.11568,0.009 z m -1.79192,-0.71664 c -0.0191,-0.0191 -0.0199,-0.0332 -0.0199,-0.35675 0,-0.31369 9.5e-4,-0.33798 0.0183,-0.35332 0.0162,-0.0147 0.0565,-0.0165 0.36826,-0.0165 h 0.35004 v -0.0697 -0.0697 h 0.39811 0.39811 v 0.0697 0.0697 h 0.35177 c 0.32817,0 0.35289,0.001 0.36825,0.0182 0.0146,0.0162 0.0165,0.0555 0.0165,0.35332 0,0.32185 -6.6e-4,0.33591 -0.02,0.35503 -0.0197,0.0197 -0.0333,0.0199 -1.11471,0.0199 -1.08152,0 -1.09503,-2.3e-4 -1.1147,-0.0199 z m 0.43478,-0.13112 c 0.0226,-0.0212 0.0231,-0.0255 0.0231,-0.2208 0,-0.19079 -7.2e-4,-0.20014 -0.0217,-0.2222 -0.0229,-0.0244 -0.0657,-0.0302 -0.0974,-0.0133 -0.0316,0.017 -0.0402,0.0668 -0.0402,0.23493 0,0.16337 0.008,0.20776 0.0372,0.23056 0.0254,0.0193 0.0735,0.0148 0.099,-0.009 z m 0.33117,0.0119 c 0.0317,-0.0169 0.0401,-0.0668 0.0401,-0.23409 0,-0.16733 -0.008,-0.21716 -0.0401,-0.2341 -0.0301,-0.0162 -0.0716,-0.011 -0.096,0.0119 -0.0226,0.0212 -0.023,0.0255 -0.023,0.2208 0,0.19079 7.2e-4,0.20014 0.0217,0.2222 0.0229,0.0244 0.0657,0.0302 0.0974,0.0133 z m 1.04942,-0.0838 c 0.0183,-0.008 0.0462,-0.0308 0.0619,-0.0515 0.0245,-0.0322 0.0287,-0.0466 0.0287,-0.0999 0,-0.0696 -0.0169,-0.10164 -0.0746,-0.14084 -0.0402,-0.0274 -0.11531,-0.0301 -0.1662,-0.006 -0.0785,0.0372 -0.11252,0.15392 -0.0673,0.23068 0.0411,0.0699 0.13902,0.10023 0.21756,0.0674 z m -1.85021,-0.8322 c -0.32052,-0.0653 -0.51143,-0.40148 -0.39844,-0.70161 0.0445,-0.11825 0.13727,-0.22665 0.2398,-0.28022 l 0.0541,-0.0283 1.5e-4,-0.0647 c 6.5e-4,-0.22905 0.12652,-0.48726 0.31044,-0.63635 0.0796,-0.0645 0.21072,-0.13251 0.31217,-0.16188 0.10368,-0.03 0.3304,-0.0322 0.43227,-0.004 0.12003,0.0331 0.25984,0.10733 0.33516,0.17798 0.0246,0.0231 0.0379,0.0285 0.0597,0.0243 0.0154,-0.003 0.0662,-0.0128 0.1127,-0.0219 0.29009,-0.0567 0.60237,0.0829 0.76896,0.34375 0.057,0.0893 0.0823,0.15789 0.11261,0.30554 0.003,0.0123 0.0106,0.0224 0.018,0.0224 0.0304,0 0.15536,0.0726 0.20212,0.11743 0.29016,0.27821 0.19531,0.73937 -0.18228,0.88607 l -0.0685,0.0266 -1.1346,0.002 c -0.62404,0.001 -1.15252,-0.002 -1.17442,-0.006 z m 0.27245,-1.01077 c 0.0111,-0.0141 0.0204,-0.0478 0.0241,-0.0865 0.02,-0.21332 0.19,-0.38268 0.40441,-0.4027 0.0533,-0.005 0.0703,-0.0111 0.0928,-0.0335 0.0354,-0.0355 0.0347,-0.0631 -0.003,-0.10064 -0.0299,-0.0298 -0.0315,-0.0302 -0.10082,-0.0234 -0.21628,0.0213 -0.39491,0.14453 -0.49174,0.33918 -0.0377,0.0758 -0.0686,0.21682 -0.0591,0.26957 0.0124,0.0692 0.0913,0.0916 0.13335,0.038 z"
       id="path13" /><circle
       style="fill:none;stroke:#0078d4;stroke-width:0.152929;stroke-dasharray:none;stroke-opacity:1"
       id="circle13"
       cx="371.39371"
       cy="171.82069"
       r="3.248013" /></g></svg>
