<?xml version="1.0" encoding="UTF-8" standalone="no"?>
<!-- Created with Inkscape (http://www.inkscape.org/) -->

<svg
   width="27.600677"
   height="24.871826"
   viewBox="0 0 7.3026791 6.5806706"
   version="1.1"
   id="svg1"
   xml:space="preserve"
   inkscape:version="1.3.2 (091e20e, 2023-11-25, custom)"
   sodipodi:docname="Expertise ERP icon.svg"
   xmlns:inkscape="http://www.inkscape.org/namespaces/inkscape"
   xmlns:sodipodi="http://sodipodi.sourceforge.net/DTD/sodipodi-0.dtd"
   xmlns="http://www.w3.org/2000/svg"
   xmlns:svg="http://www.w3.org/2000/svg"><sodipodi:namedview
     id="namedview1"
     pagecolor="#ffffff"
     bordercolor="#eeeeee"
     borderopacity="1"
     inkscape:showpageshadow="0"
     inkscape:pageopacity="0"
     inkscape:pagecheckerboard="0"
     inkscape:deskcolor="#d1d1d1"
     inkscape:document-units="mm"
     inkscape:zoom="2.5573507"
     inkscape:cx="288.77541"
     inkscape:cy="35.388185"
     inkscape:window-width="1920"
     inkscape:window-height="991"
     inkscape:window-x="-9"
     inkscape:window-y="-9"
     inkscape:window-maximized="1"
     inkscape:current-layer="layer1" /><defs
     id="defs1" /><g
     inkscape:label="Layer 1"
     inkscape:groupmode="layer"
     id="layer1"
     transform="translate(-108.06536,-36.759533)"><path
       style="fill:#1d8bf2;fill-opacity:1;stroke-width:0.0457218"
       d="m 109.51031,43.308039 c -0.0946,-0.05352 -0.14463,-0.139065 -0.14463,-0.247138 0,-0.208677 0.21336,-0.341898 0.39786,-0.248411 0.0662,0.03353 0.12984,0.103235 0.14406,0.157681 l 0.009,0.03629 0.23774,0.0038 0.23774,0.0038 0.008,-0.0285 c 0.003,-0.01567 0.005,-0.327678 0.003,-0.693344 l -0.003,-0.664845 -0.22078,-0.0033 -0.22077,-0.0033 v 0.36077 c 0,0.26447 -0.003,0.364646 -0.0146,0.375289 -0.0106,0.01071 -0.11964,0.01452 -0.41495,0.01452 h -0.40043 l -0.0283,0.06351 c -0.0155,0.03493 -0.0274,0.06759 -0.0265,0.07259 6.5e-4,0.0051 -0.003,0.0077 -0.009,0.006 -0.006,-0.0017 -0.029,0.01331 -0.0514,0.03326 -0.0225,0.01996 -0.0518,0.03781 -0.065,0.03969 -0.0133,0.0019 -0.0444,0.0066 -0.0691,0.01061 -0.15429,0.02478 -0.31191,-0.112202 -0.31191,-0.271073 0,-0.07151 0.0131,-0.111916 0.0568,-0.175455 0.11534,-0.167642 0.39086,-0.138383 0.47626,0.05057 l 0.0277,0.06138 h 0.36078 0.36076 V 41.943474 41.62461 l -0.31152,-0.0072 c -0.25047,-0.0057 -0.33232,-0.01191 -0.41781,-0.03153 -0.50958,-0.117016 -0.89231,-0.490441 -1.02715,-1.00221 -0.0243,-0.09218 -0.0279,-0.134492 -0.0278,-0.329556 5e-5,-0.206718 0.003,-0.232832 0.0331,-0.342152 0.0182,-0.0651 0.0521,-0.159624 0.0754,-0.210067 0.0233,-0.05044 0.0388,-0.09789 0.0345,-0.105446 -0.004,-0.0075 -0.003,-0.0098 0.003,-0.0052 0.005,0.0047 0.0374,-0.03283 0.0715,-0.0835 0.034,-0.05067 0.10783,-0.138937 0.16391,-0.19614 0.056,-0.0572 0.10054,-0.109451 0.0988,-0.116104 -0.003,-0.0067 6.4e-4,-0.0081 0.006,-0.0033 0.005,0.0048 0.044,-0.01583 0.0871,-0.04592 0.0909,-0.06353 0.24,-0.140705 0.3157,-0.16338 0.029,-0.0087 0.0551,-0.02186 0.0578,-0.02931 0.003,-0.0074 -0.003,-0.0486 -0.0132,-0.09146 -0.023,-0.09798 -0.0237,-0.306314 -0.002,-0.41227 0.11521,-0.543573 0.68382,-0.895549 1.21042,-0.74927 0.0466,0.01294 0.0937,0.027 0.10477,0.03124 0.014,0.0054 0.0227,-5.05e-4 0.0288,-0.01967 0.004,-0.01507 0.0299,-0.06204 0.0558,-0.104389 0.0259,-0.04235 0.0439,-0.08226 0.0399,-0.08871 -0.003,-0.0065 -0.003,-0.01021 0.004,-0.0084 0.007,0.0018 0.0399,-0.03363 0.0742,-0.07881 0.0817,-0.107456 0.24772,-0.272062 0.33882,-0.335963 0.0399,-0.02793 0.0697,-0.05516 0.0664,-0.06049 -0.003,-0.0053 3.8e-4,-0.01363 0.008,-0.01844 0.009,-0.0055 0.0109,-0.0035 0.006,0.0052 -0.013,0.02099 4.9e-4,0.01705 0.0512,-0.01502 0.14308,-0.09032 0.34231,-0.170574 0.53271,-0.214588 0.15139,-0.03499 0.48769,-0.04425 0.64271,-0.01769 0.37984,0.06508 0.69916,0.23159 0.95768,0.499377 0.16105,0.166824 0.16694,0.173196 0.16016,0.173196 -0.003,0 0.009,0.01933 0.0266,0.04296 0.0391,0.05132 0.12937,0.207599 0.16378,0.283659 0.0656,0.145123 0.12649,0.377514 0.13782,0.52623 0.0105,0.137151 0.007,0.131639 0.0888,0.123032 0.0939,-0.0098 0.33262,0.01172 0.46061,0.04156 0.12744,0.02972 0.3005,0.102372 0.43603,0.183054 0.3985,0.237237 0.67872,0.642215 0.75554,1.091917 0.0383,0.224468 0.0215,0.518335 -0.0423,0.737931 -0.0279,0.09596 -0.0286,0.09789 -0.0914,0.229848 -0.0252,0.05323 -0.0455,0.103945 -0.0448,0.112706 6.4e-4,0.0088 -0.003,0.01286 -0.006,0.0091 -0.003,-0.0038 -0.0368,0.03807 -0.0735,0.09295 -0.0366,0.05487 -0.12154,0.154743 -0.18855,0.221938 -0.13812,0.138508 -0.23578,0.209823 -0.4201,0.306777 -0.0377,0.0198 -0.0712,0.04297 -0.0747,0.05152 -0.004,0.01126 -0.007,0.01149 -0.008,8.28e-4 -6.3e-4,-0.01025 -0.0183,-0.0072 -0.0584,0.01 -0.0802,0.03447 -0.27744,0.07921 -0.41687,0.09458 -0.0646,0.0072 -0.22095,0.01295 -0.34742,0.01295 h -0.22993 l -0.003,0.320584 -0.003,0.320585 0.36624,-7e-6 0.36625,-8e-6 0.008,-0.03855 c 0.004,-0.02374 0.0325,-0.06374 0.0723,-0.104157 0.0355,-0.03608 0.0646,-0.06222 0.0646,-0.05807 0,0.0041 0.0177,1.61e-4 0.0393,-0.0089 0.0856,-0.03573 0.22591,-4.54e-4 0.29652,0.07456 0.0991,0.105287 0.10014,0.269714 0.003,0.380823 -0.0717,0.08142 -0.1833,0.11109 -0.29443,0.07825 -0.0642,-0.01898 -0.16962,-0.121722 -0.18047,-0.175968 l -0.008,-0.03917 h -0.40408 c -0.32207,0 -0.4068,-0.0033 -0.41747,-0.01614 -0.009,-0.01078 -0.0144,-0.134096 -0.0166,-0.371989 l -0.003,-0.355852 -0.22077,-0.0033 -0.22078,-0.0033 v 0.696246 0.696247 l 0.24064,-0.0013 0.24065,-0.0013 0.0196,-0.05146 c 0.0743,-0.194471 0.32886,-0.237675 0.47131,-0.07998 0.11883,0.131531 0.0761,0.351515 -0.0844,0.434224 -0.0665,0.03428 -0.1809,0.03498 -0.24647,0.0016 -0.0622,-0.03175 -0.12896,-0.101613 -0.14581,-0.152666 l -0.0135,-0.04099 h -0.27542 c -0.25147,0 -0.27717,-0.0019 -0.29544,-0.02213 -0.0182,-0.02007 -0.02,-0.08968 -0.02,-0.750027 v -0.727904 h -0.21775 -0.21774 v 0.330255 c 0,0.240734 -0.003,0.334188 -0.0145,0.344771 -0.0222,0.02222 -0.0678,0.01727 -0.0818,-0.0089 -0.008,-0.01445 -0.0126,-0.146376 -0.0126,-0.344772 v -0.321371 h -0.24194 -0.24195 v 0.63424 c 0,0.560453 -0.003,0.636452 -0.0189,0.65325 -0.0223,0.02229 -0.0347,0.02351 -0.0665,0.0065 -0.0226,-0.01214 -0.0234,-0.03216 -0.0234,-0.65325 v -0.640728 h -0.24195 -0.24194 v 0.330254 c 0,0.346926 -0.003,0.359288 -0.0545,0.359288 -0.0526,0 -0.0545,-0.01235 -0.0545,-0.359561 v -0.330214 l -0.22078,0.0033 -0.22078,0.0033 -0.003,0.731882 c -0.003,0.670969 -0.004,0.733141 -0.0235,0.747004 -0.0149,0.01103 -0.0934,0.01512 -0.29016,0.01512 h -0.26971 l -0.0189,0.0452 c -0.0104,0.02486 -0.0291,0.05616 -0.0418,0.06956 -0.0127,0.0134 -0.0232,0.02981 -0.0236,0.03646 -4e-4,0.0067 -0.004,0.01235 -0.01,0.01265 -0.005,3.2e-4 -0.0319,0.01255 -0.06,0.02722 -0.0739,0.03872 -0.18466,0.03683 -0.25754,-0.0045 z m 0.21739,-0.09325 c 0.0792,-0.04007 0.1065,-0.149081 0.0601,-0.239964 -0.0562,-0.110228 -0.22919,-0.111024 -0.29324,-0.0014 -0.0455,0.07795 -0.0194,0.187328 0.0556,0.233086 0.0445,0.02712 0.13211,0.03119 0.17748,0.0083 z m 3.91625,-0.0083 c 0.0799,-0.0487 0.10175,-0.164305 0.0452,-0.238494 -0.0171,-0.02238 -0.0369,-0.03702 -0.0442,-0.03254 -0.008,0.0049 -0.01,0.0024 -0.004,-0.0058 0.005,-0.0085 -0.003,-0.0187 -0.023,-0.02606 -0.0828,-0.03147 -0.18176,0.0031 -0.21986,0.07679 -0.0421,0.08148 -0.0103,0.189224 0.0687,0.232368 0.0448,0.0245 0.13249,0.02144 0.17785,-0.0062 z m -4.71486,-0.739561 c 0.0567,-0.03186 0.0852,-0.07946 0.0852,-0.142081 0,-0.06935 -0.0162,-0.103519 -0.0679,-0.142899 -0.0827,-0.06304 -0.20518,-0.0356 -0.25288,0.05663 -0.0247,0.04785 -0.023,0.125851 0.003,0.152159 0.0117,0.01164 0.0203,0.02428 0.0192,0.02809 -0.008,0.02918 0.0683,0.07327 0.12731,0.07337 0.0224,4.1e-5 0.061,-0.01132 0.0858,-0.02526 z m 5.50188,0.0012 c 0.0609,-0.03713 0.0898,-0.09215 0.084,-0.159665 -0.007,-0.0745 -0.035,-0.115606 -0.10028,-0.144516 -0.068,-0.03005 -0.12191,-0.02105 -0.18065,0.03014 -0.0547,0.04772 -0.0751,0.121153 -0.0499,0.180379 0.023,0.05388 0.0773,0.10946 0.0989,0.101143 0.01,-0.0038 0.0177,-0.0016 0.0177,0.005 0,0.02087 0.0896,0.01232 0.13015,-0.01241 z"
       id="path19" /></g></svg>
