<?xml version="1.0" encoding="UTF-8" standalone="no"?>
<!-- Created with Inkscape (http://www.inkscape.org/) -->

<svg
   version="1.1"
   id="svg1"
   width="620.31348"
   height="199.30321"
   viewBox="0 0 620.31348 199.30321"
   sodipodi:docname="new KAEC-Logo.svg"
   inkscape:version="1.3.2 (091e20e, 2023-11-25, custom)"
   xml:space="preserve"
   xmlns:inkscape="http://www.inkscape.org/namespaces/inkscape"
   xmlns:sodipodi="http://sodipodi.sourceforge.net/DTD/sodipodi-0.dtd"
   xmlns:xlink="http://www.w3.org/1999/xlink"
   xmlns="http://www.w3.org/2000/svg"
   xmlns:svg="http://www.w3.org/2000/svg"><defs
     id="defs1"><linearGradient
       id="linearGradient14"
       gradientUnits="userSpaceOnUse"
       x1="801.94659"
       y1="120.52783"
       x2="550.04114"
       y2="255.31934"><stop
         offset="0"
         style="stop-color:#5da174;stop-opacity:1"
         id="stop13" /><stop
         offset="1"
         style="stop-color:#0083b3;stop-opacity:1"
         id="stop14" /></linearGradient><linearGradient
       id="linearGradient31"
       gradientUnits="userSpaceOnUse"
       x1="801.94659"
       y1="120.52783"
       x2="550.04114"
       y2="255.31934"><stop
         offset="0"
         style="stop-color:#2994a0;stop-opacity:1"
         id="stop30" /><stop
         offset="1"
         style="stop-color:#8fbb59;stop-opacity:1"
         id="stop31" /></linearGradient><linearGradient
       id="linearGradient29"
       gradientUnits="userSpaceOnUse"
       x1="801.94659"
       y1="120.52783"
       x2="550.04114"
       y2="255.31934"><stop
         offset="0"
         style="stop-color:#2893a1;stop-opacity:1"
         id="stop28" /><stop
         offset="1"
         style="stop-color:#a2c638;stop-opacity:1"
         id="stop29" /></linearGradient><clipPath
       id="SVGID_5_"><path
         id="use6"
         d="m 535.5,177.1 c -1.4,0.5 -0.9,2.9 0.8,2.4 0.9,-0.2 268.2,-81.9 268.2,-81.9 v -25.9 0 c -1.4,0.6 -268.1,105.1 -269,105.4" /></clipPath><linearGradient
       id="SVGID_2_"
       gradientUnits="userSpaceOnUse"
       x1="498.74039"
       y1="155.1275"
       x2="748.70758"
       y2="155.1275"
       gradientTransform="matrix(0.30103819,0,0,0.30103819,-247.40338,31.345503)"><stop
         offset="0"
         style="stop-color:#0789ad;stop-opacity:1"
         id="stop3" /><stop
         offset="1"
         style="stop-color:#89b860;stop-opacity:1"
         id="stop4" /></linearGradient><linearGradient
       id="SVGID_1_"
       gradientUnits="userSpaceOnUse"
       x1="801.94659"
       y1="120.52783"
       x2="550.04114"
       y2="255.31934"><stop
         offset="0"
         style="stop-color:#0074bd;stop-opacity:1"
         id="stop1" /><stop
         offset="1"
         style="stop-color:#3D934F"
         id="stop2" /></linearGradient><linearGradient
       inkscape:collect="always"
       xlink:href="#linearGradient47"
       id="linearGradient20"
       x1="543.07068"
       y1="176.90128"
       x2="797.41095"
       y2="90.281548"
       gradientUnits="userSpaceOnUse" /><linearGradient
       inkscape:collect="always"
       xlink:href="#linearGradient14"
       id="linearGradient21"
       x1="-84.067329"
       y1="78.0448"
       x2="-5.2181506"
       y2="78.0448"
       gradientUnits="userSpaceOnUse" /><linearGradient
       inkscape:collect="always"
       xlink:href="#SVGID_2_"
       id="linearGradient22"
       x1="-7.5466709"
       y1="83.782768"
       x2="-79.055687"
       y2="93.982544"
       gradientUnits="userSpaceOnUse" /><linearGradient
       inkscape:collect="always"
       xlink:href="#linearGradient31"
       id="linearGradient23"
       x1="-7.7369156"
       y1="95.373405"
       x2="-79.277412"
       y2="99.364632"
       gradientUnits="userSpaceOnUse" /><linearGradient
       inkscape:collect="always"
       xlink:href="#linearGradient29"
       id="linearGradient24"
       x1="800.30682"
       y1="267.46014"
       x2="520.92224"
       y2="281.78506"
       gradientUnits="userSpaceOnUse" /><linearGradient
       inkscape:collect="always"
       xlink:href="#SVGID_1_"
       id="linearGradient25"
       gradientUnits="userSpaceOnUse"
       x1="534.68719"
       y1="125.63406"
       x2="804.5"
       y2="125.63406" /><linearGradient
       inkscape:collect="always"
       xlink:href="#SVGID_1_"
       id="linearGradient26"
       gradientUnits="userSpaceOnUse"
       x1="534.68719"
       y1="125.63406"
       x2="804.5"
       y2="125.63406" /><linearGradient
       inkscape:collect="always"
       xlink:href="#SVGID_1_"
       id="linearGradient1"
       gradientUnits="userSpaceOnUse"
       x1="792.37122"
       y1="19.618345"
       x2="537.51953"
       y2="135.99571" /></defs><sodipodi:namedview
     id="namedview1"
     pagecolor="#505050"
     bordercolor="#eeeeee"
     borderopacity="1"
     inkscape:showpageshadow="0"
     inkscape:pageopacity="0"
     inkscape:pagecheckerboard="0"
     inkscape:deskcolor="#d1d1d1"
     showgrid="false"
     showguides="true"
     inkscape:zoom="0.37112088"
     inkscape:cx="1731.2419"
     inkscape:cy="-467.50267"
     inkscape:window-width="1920"
     inkscape:window-height="991"
     inkscape:window-x="-9"
     inkscape:window-y="-9"
     inkscape:window-maximized="1"
     inkscape:current-layer="g1"><sodipodi:guide
       position="511.23888,198.60972"
       orientation="0,-1"
       id="guide7"
       inkscape:locked="false" /><sodipodi:guide
       position="306.41618,2.3609916"
       orientation="0,-1"
       id="guide8"
       inkscape:locked="false" /></sodipodi:namedview><g
     inkscape:groupmode="layer"
     inkscape:label="Image"
     id="g1"
     transform="translate(-883.46082,-0.46770751)"><g
       id="g7"
       transform="matrix(1.6089167,0,0,1.6089167,263.32164,532.17513)"
       inkscape:export-filename="..\Client Logos\KAEC\KAEC.svg"
       inkscape:export-xdpi="300"
       inkscape:export-ydpi="300"><path
         d="m 725.49025,-243.28355 c -7.21247,-2.37863 -11.16565,-4.91979 -16.4621,-10.58213 -16.85408,-18.01835 -16.00032,-48.73422 1.82313,-65.59091 12.23388,-11.57028 30.22711,-14.28534 45.88308,-6.92343 5.53801,2.60412 14.5478,10.21864 13.9283,11.7713 -0.47395,1.18776 -13.07765,11.53589 -14.05039,11.53589 -0.51167,0 -1.17142,-0.62832 -1.46612,-1.39629 -0.29468,-0.76796 -2.83071,-2.71237 -5.63562,-4.32089 -4.03045,-2.31135 -6.24683,-2.9265 -10.56986,-2.93364 -6.80112,-0.0113 -9.29755,0.91865 -14.08984,5.24821 -9.78638,8.8414 -10.959,27.61123 -2.42403,38.80114 3.06915,4.02387 11.00397,7.88193 16.21068,7.88193 4.61102,0 12.57223,-3.56178 15.80357,-7.0704 1.28297,-1.39307 2.62561,-2.53285 2.98366,-2.53285 1.48535,0 13.44665,9.79245 13.44665,11.00845 0,2.27611 -9.82188,10.32133 -16.35749,13.39864 -8.1012,3.81445 -20.43096,4.53877 -29.02362,1.70495 z m -243.28059,-39.53769 c 0,-26.8299 0.34093,-40.15341 1.06831,-41.74983 1.48768,-3.26508 4.73545,-4.48132 11.96674,-4.48132 h 6.20907 v 42.81816 42.81817 h -9.62206 -9.62206 z m 38.83638,27.13704 c -4.12114,-6.74746 -9.96475,-16.3057 -12.98579,-21.24052 l -5.49281,-8.9724 10.91906,-17.96936 c 6.00545,-9.88315 12.19,-19.48484 13.74344,-21.33709 l 2.8244,-3.36772 9.75484,-0.3307 c 5.40572,-0.18327 9.75487,0.0566 9.75487,0.53795 0,0.47777 -5.62889,10.07721 -12.50866,21.33212 -6.87978,11.25489 -12.50868,20.7077 -12.50868,21.00624 0,1.48213 22.66649,37.64143 23.22255,37.04635 0.35521,-0.38009 7.2598,-17.72655 15.34354,-38.54767 11.81119,-30.42183 15.17466,-38.16961 17.12626,-39.45044 1.78172,-1.16932 4.61498,-1.59385 10.63746,-1.59385 h 8.20891 l 16.55361,42.33706 16.55364,42.33707 -9.71859,0.27594 c -5.34521,0.15177 -10.00883,-0.0647 -10.36361,-0.48112 -0.3548,-0.41637 -5.51224,-14.3963 -11.46102,-31.06653 -5.94874,-16.67021 -11.11208,-30.6162 -11.47406,-30.99108 -0.36198,-0.37489 -3.29189,6.64847 -6.51095,15.60744 l -5.85279,16.28908 11.27251,0.26894 11.27246,0.26893 -2.9138,7.4571 -2.91381,7.45711 h -11.23166 -11.2317 l -2.67963,7.69764 -2.67964,7.69765 H 547.1227 528.53901 Z m 114.15433,-28.02381 c 0,-38.25608 0.0941,-40.43644 1.83825,-42.59171 l 1.83825,-2.27157 28.47122,-0.2816 c 19.83703,-0.1962 28.47122,0.032 28.47122,0.75271 0,0.56886 -1.33042,4.48426 -2.95656,8.7009 l -2.95655,7.6666 h -18.21196 -18.21195 v 9.14094 9.14096 h 14.31449 14.31453 l -2.93853,7.69765 -2.93849,7.69764 h -11.41211 -11.41212 l 0.27665,8.90042 0.27666,8.9004 22.7705,0.25778 22.77051,0.25777 -3.19505,7.92097 -3.19505,7.92099 -28.95696,0.25463 -28.95695,0.25468 z"
         style="fill:#646363;fill-opacity:1;stroke-width:0.9622"
         id="path1-9" /><g
         id="g2"
         transform="matrix(0.9531327,0,0,0.9531327,475.71904,-358.28827)"><polygon
           class="st0"
           points="804.5,51.8 804.5,0 508.4,0 508.4,172.7 "
           id="polygon44"
           style="fill:url(#linearGradient1);fill-opacity:1"
           transform="matrix(0.30103817,0,0,0.30103817,-247.40336,31.345502)" /><path
           class="st1"
           d="m -5.2181508,66.296034 c -0.3010383,0.09031 -78.3301312,22.818693 -78.6010652,22.909004 -0.451558,0.120415 -0.210727,0.692388 0.120415,0.571972 0.240831,-0.06021 78.4806502,-15.955022 78.4806502,-15.955022 z"
           id="path45"
           style="fill:url(#linearGradient21);fill-opacity:1;stroke-width:0.301038" /><polygon
           class="st2"
           points="508.4,296 508.4,296.1 804.5,296.1 804.5,244 804.5,243.9 508.4,243.9 "
           id="polygon45"
           style="fill:url(#linearGradient24);fill-opacity:1"
           transform="matrix(0.30103817,0,0,0.30103817,-247.40336,31.345502)" /><g
           id="g48"
           transform="matrix(0.30103817,0,0,0.30103817,-247.56015,31.345502)"
           style="fill:url(#linearGradient20)"><g
             id="g47"
             style="fill:url(#linearGradient26);fill-opacity:1"><defs
               id="defs46"
               style="fill:url(#linearGradient20)" /><clipPath
               id="clipPath46"
               style="fill:url(#linearGradient20)"><path
                 id="use46"
                 d="m 535.5,177.1 c -1.4,0.5 -0.9,2.9 0.8,2.4 0.9,-0.2 268.2,-81.9 268.2,-81.9 v -25.9 0 c -1.4,0.6 -268.1,105.1 -269,105.4"
                 style="fill:url(#linearGradient20)" /></clipPath><linearGradient
               id="linearGradient47"
               gradientUnits="userSpaceOnUse"
               x1="194.1945"
               y1="-183.3457"
               x2="205.24049"
               y2="-183.3457"
               gradientTransform="matrix(24.7236,-10.5409,10.5409,24.7236,-2421.3252,6800.5181)"
               style="fill:url(#linearGradient20)"><stop
                 offset="0"
                 style="stop-color:#89C765;fill:url(#linearGradient20)"
                 id="stop46" /><stop
                 offset="1"
                 style="stop-color:#409A54;fill:url(#linearGradient20)"
                 id="stop47" /></linearGradient><polygon
               class="st3"
               points="495,88.4 762.9,-25.8 843.5,163.4 575.7,277.6 "
               clip-path="url(#SVGID_5_)"
               id="polygon47"
               style="fill:url(#linearGradient25);fill-opacity:1" /></g></g><path
           class="st4"
           d="m -5.2181508,92.576665 v 0 c -0.4515574,0.03011 -78.3301312,6.351902 -78.4806502,6.351902 -0.481661,0.06019 -0.361246,0.571971 0.03011,0.571971 h 78.4505462 z"
           id="path48"
           style="fill:url(#linearGradient23);fill-opacity:1;stroke-width:0.301038" /><path
           class="st5"
           d="m -5.2181508,79.240674 c -0.2107269,0.03011 -77.5474322,14.690663 -77.8484692,14.720767 -0.451559,0.06021 -0.39135,0.571972 0.03011,0.571972 0.150518,0 77.8183652,-7.465747 77.8183652,-7.465747 z"
           id="path49"
           style="fill:url(#linearGradient22);fill-opacity:1;stroke-width:0.301038" /></g><g
         id="g3"
         transform="matrix(0.56261588,0,0,0.56261588,546.1999,-423.28047)"><path
           class="st7"
           d="m 340.0548,378.44556 c -1.56693,0 -2.77227,1.2656 -2.77227,2.77227 0,1.56693 1.2656,2.77226 2.77227,2.77226 1.50666,0 2.77226,-1.2656 2.77226,-2.77226 0.0603,-1.56693 -1.20533,-2.77227 -2.77226,-2.77227"
           id="path45-3"
           style="fill:#58595b;stroke-width:0.602666" /><path
           class="st7"
           d="m 323.84309,354.2184 c 1.50666,0 2.77226,-1.2656 2.77226,-2.77226 0,-1.56693 -1.2656,-2.77226 -2.77226,-2.77226 -1.56693,0 -2.77226,1.2656 -2.77226,2.77226 -0.0603,1.50666 1.20533,2.77226 2.77226,2.77226"
           id="path46-7"
           style="fill:#58595b;stroke-width:0.602666" /><path
           class="st7"
           d="m 332.70227,378.44556 c -1.50666,0 -2.77226,1.2656 -2.77226,2.77227 0,1.56693 1.2656,2.77226 2.77226,2.77226 1.50667,0 2.77227,-1.2656 2.77227,-2.77226 0,-1.56693 -1.2656,-2.77227 -2.77227,-2.77227"
           id="path47"
           style="fill:#58595b;stroke-width:0.602666" /><path
           class="st7"
           d="m 337.8852,370.91224 h -11.02878 v -14.64478 l -5.06239,1.38614 v 13.25864 H 284.73008 V 351.5064 l -3.2544,-2.29012 c -2.41066,3.07359 -18.07997,4.03786 -18.07997,16.15144 0,7.65386 6.50879,10.78772 12.11358,10.78772 l 3.31466,-4.7008 c -5.24319,0 -10.06451,-1.6272 -10.06451,-6.38826 0,-5.06238 8.25652,-7.59358 10.84798,-8.31678 v 13.13811 c 0,3.73653 1.74773,6.26773 5.54452,6.26773 h 34.77382 c 2.1696,0 3.91733,-0.48214 4.64053,-1.86827 0,0 0.84373,1.86827 4.51999,1.86827 h 6.93065 c 1.92854,0 6.93066,-1.02454 6.93066,-5.7856 v -14.10238 l -5.06239,1.38614 z"
           id="path48-1"
           style="fill:#58595b;stroke-width:0.602666" /><path
           class="st7"
           d="m 282.19888,346.38375 c 1.56693,0 2.83253,-1.2656 2.83253,-2.83254 0,-1.56692 -1.2656,-2.83252 -2.83253,-2.83252 -1.56693,0 -2.83253,1.2656 -2.83253,2.83252 0,1.56694 1.2656,2.83254 2.83253,2.83254"
           id="path49-6"
           style="fill:#58595b;stroke-width:0.602666" /><path
           class="st7"
           d="m 275.62982,346.38375 c 1.56694,0 2.83254,-1.2656 2.83254,-2.83254 0,-1.56692 -1.2656,-2.83252 -2.83254,-2.83252 -1.56692,0 -2.83252,1.2656 -2.83252,2.83252 0,1.56694 1.2656,2.83254 2.83252,2.83254"
           id="path50"
           style="fill:#58595b;stroke-width:0.602666" /><path
           class="st7"
           d="m 386.70113,352.5912 c -3.97759,0.24107 -12.35465,2.3504 -12.35465,11.08906 0,4.51999 2.35039,7.29225 2.35039,7.29225 h -9.76318 v -6.68959 c 0,-10.36585 -7.47306,-11.93278 -11.93278,-11.93278 h -2.65173 l -0.84373,5.30346 h 3.55572 c 5.72533,0 6.8704,3.25439 6.8704,8.07572 v 5.18292 h -14.40372 l -1.2656,5.2432 h 14.64479 c 3.37492,0 4.51999,-1.56694 4.51999,-1.56694 0,0 0.66293,1.56694 3.01332,1.56694 h 10.42613 c 3.07359,0 4.27892,0.48213 5.96638,0.84373 1.4464,0.3616 2.65174,0.60267 4.39946,0.60267 3.31467,0 8.01545,-1.4464 8.01545,-8.37706 v -9.70292 c 0,-1.808 1.02454,-2.3504 1.80801,-2.22986 l 0.48213,-3.67626 c -0.12053,0 -8.37705,-1.32587 -12.83678,-1.02454 m 5.36373,13.80105 c 0,3.79679 -1.74774,5.60479 -5.2432,5.60479 -2.95306,0 -7.29225,-1.9888 -7.29225,-7.41279 0,-4.58025 2.95306,-7.11145 8.73865,-7.11145 1.68746,0 3.73653,0.30133 3.73653,0.30133 z"
           id="path51"
           style="fill:#58595b;stroke-width:0.602666" /></g><g
         id="g4"
         transform="matrix(0.3480417,0,0,0.3480417,551.24995,-397.87325)"><polygon
           class="st7"
           points="468.5,168.7 468.5,111.9 460.1,114.1 460.1,168.7 "
           id="polygon51"
           style="fill:#58595b"
           transform="translate(-79.685423,367.59961)" /><path
           class="st7"
           d="m 228.61458,502.59961 v -5.6 h -8.2 c 0,0 -3.7,-5.5 6.8,-6.9 l -0.3,-5.8 c 0,0 -13,0.5 -13,9.4 0,2.2 0.9,3.3 0.9,3.3 h -2.7 l -2.6,5.6 h 11.1 z"
           id="path52"
           style="fill:#58595b" /><path
           class="st7"
           d="m 245.51458,536.29961 c 4.7,0 8.7,-0.9 9.9,-3.5 0,0 1.6,3.5 8,3.5 h 8.7 c 9.2,0 10.9,-3.4 10.9,-3.4 0,0 1.7,3.5 6.4,3.4 h 22.8 c 5.1,0 7.1,0.7 9.9,1.4 2.4,0.6 4.4,1 7.3,1 3.9,0 8.8,-1.2 11.4,-5.9 1.3,1.6 3.5,3.4 7.1,3.4 h 10.5 c 8.8,0 10.9,-1.9 10.9,-10.1 v -44.6 l -8.4,2 v 44 h -14.3 c -2.3,0 -3.4,-1.4 -3.9,-3.1 v -15.8 c 0,-3 1.7,-3.9 3,-3.7 l 0.8,-6.1 c 0,0 -13.7,-2.2 -21.1,-1.7 -6.6,0.4 -20.5,3.9 -20.5,18.4 0,7.5 3.9,12.1 3.9,12.1 h -25.7 v -46 l -8.1,2 v 44 h -18.6 v -46 l -8,2 v 44 h -49.5 c -12.1,-0.1 -12.8,-10.1 -5.2,-20.6 l -5.1,-6.8 c -4.1,5.8 -8,13.1 -8,19.7 0,12.8 9.6,16.4 17.2,16.4 z m 88.7,-16.2 c 0,6.3 -2.9,9.3 -8.7,9.3 -4.9,0 -12.1,-3.3 -12.1,-12.3 0,-7.6 4.9,-11.8 14.5,-11.8 2.8,0 6.2,0.5 6.2,0.5 v 14.3 z"
           id="path53"
           style="fill:#58595b" /></g><g
         id="g5"
         transform="matrix(0.34905474,0,0,0.34905474,545.01622,-398.16236)"><polygon
           class="st7"
           points="118.8,111.9 110.5,114.1 110.5,168.7 118.8,168.7 "
           id="polygon53"
           style="fill:#58595b"
           transform="translate(-79.685423,367.59961)" /><path
           class="st7"
           d="m 11.314577,527.69961 h -19.4 v -45.6 l -8.4,1.8 v 43.8 h -28 v -32.1 l -5.2,-3.8 c -4,5.1 -30,6.7 -30,26.8 0,12.7 10.8,17.9 20.1,17.9 l 5.5,-7.8 c -8.7,0 -16.7,-2.7 -16.7,-10.6 0,-8.4 13.7,-12.6 17.9,-13.8 v 21.8 c 0,6.2 2.9,10.3 9.2,10.3 h 27.2 v 0 c 4.4,-0.2 6.2,-1.7 7.4,-4.4 0,0 1.4,4.4 7.1,4.4 h 10.6 c 9,0 11,-1.9 11,-10.3 v -43.9 l -8.4,2 z"
           id="path54"
           style="fill:#58595b" /><path
           class="st7"
           d="m 110.01458,539.49961 c -2.5,0 -4.6,2.1 -4.6,4.6 0,2.6 2.1,4.7 4.6,4.7 2.6,0 4.6,-2.1 4.6,-4.7 0,-2.5 -2.1,-4.6 -4.6,-4.6"
           id="path55"
           style="fill:#58595b" /><path
           class="st7"
           d="m 136.91458,518.89961 c 0,-7.2 5.1,-12.6 14,-12.6 1.4,0 2.6,0.1 3.4,0.2 l 3.1,-9.5 c -3.7,-0.3 -13,-0.6 -20.1,3.5 -6,3.5 -9.1,9.4 -9.1,17.5 0,5.7 2.5,9.6 2.5,9.6 h -16 v -24.4 l -8.5,2.3 v 22.2 H 91.414577 v -11.1 c 0,-17.8 -13.9,-19.7 -19.8,-19.7 h -4.4 l -1.4,8.8 h 5.8 c 9.5,0 11.4,5.4 11.4,13.4 v 8.6 h -23.9 l -2.1,8.7 h 24.3 c 3,0 5.3,-0.7 6.8,-1.9 l 0.8,-0.7 0.6,0.8 c 0.7,0.9 1.5,1.8 4.4,1.8 h 0.1 9.300003 c 3.7,0 6.1,-1.2 7.3,-3.6 0,0 1,3.6 8,3.6 h 42 v -8.7 h -21 c 0,0 -2.7,-2.6 -2.7,-8.8"
           id="path56"
           style="fill:#58595b" /></g><g
         id="g6"
         transform="matrix(0.33313765,0,0,0.33313765,379.63749,-415.64076)"><path
           class="st7"
           d="m 143.61458,575.59961 h -4.4 l -1.4,8.8 h 5 c 9.5,0 11.5,5.4 11.5,13.4 v 7.5 h -20.5 l -2.1,8.7 h 31 v -18.8 c -0.1,-17 -12,-19.6 -19.1,-19.6"
           id="path57"
           style="fill:#58595b" /><path
           class="st7"
           d="m 117.61458,617.49961 c -2.5,0 -4.6,2.1 -4.6,4.6 0,2.5 2.1,4.6 4.6,4.6 2.6,0 4.6,-2.1 4.6,-4.6 0,-2.5 -2.1,-4.6 -4.6,-4.6"
           id="path58"
           style="fill:#58595b" /><path
           class="st7"
           d="m 105.41458,617.49961 c -2.6,0 -4.6,2.1 -4.6,4.6 0,2.5 2.1,4.6 4.6,4.6 2.5,0 4.6,-2.1 4.6,-4.6 0,-2.5 -2.1,-4.6 -4.6,-4.6"
           id="path59"
           style="fill:#58595b" /><path
           class="st7"
           d="M 114.21458,605.49961 H 52.614577 v -32.1 l -5.2,-3.8 c -4,5.1 -30,6.7 -30,26.8 0,12.7 10.8,17.9 20.1,17.9 l 5.5,-7.8 c -8.7,0 -16.7,-2.7 -16.7,-10.6 0,-8.4 13.7,-12.6 18,-13.8 v 21.8 c 0,6.2 2.9,10.4 9.2,10.4 h 57.600003 c 3.2,0 11.5,-1.7 11.5,-9.6 v -23.5 l -8.4,2.3 z"
           id="path60"
           style="fill:#58595b" /><path
           class="st7"
           d="m 260.51458,576.79961 c 2.6,0 4.7,-2.1 4.7,-4.6 0,-2.6 -2.1,-4.6 -4.7,-4.6 -2.6,0 -4.6,2.1 -4.6,4.6 0,2.5 2,4.6 4.6,4.6"
           id="path61"
           style="fill:#58595b" /><path
           class="st7"
           d="m 272.21458,576.79961 c 2.6,0 4.6,-2.1 4.6,-4.6 0,-2.6 -2.1,-4.6 -4.6,-4.6 -2.5,0 -4.6,2.1 -4.6,4.6 0,2.5 2.1,4.6 4.6,4.6"
           id="path62"
           style="fill:#58595b" /><polygon
           class="st7"
           points="460.1,191.9 460.1,246.6 468.5,246.6 468.5,189.7 "
           id="polygon62"
           style="fill:#58595b"
           transform="translate(-79.685423,367.59961)" /><path
           class="st7"
           d="m 360.91458,605.49961 h -13 v -34 l -8.3,2.1 v 31.9 h -9.6 l -1.9,8.7 h 30.2 c 9,0 11,-2 11,-10.3 v -43.9 l -8.4,2.2 z"
           id="path63"
           style="fill:#58595b" /><path
           class="st7"
           d="m 48.614577,564.79961 c 2.6,0 4.7,-2.1 4.7,-4.7 0,-2.6 -2.1,-4.7 -4.7,-4.7 -2.6,0 -4.7,2.1 -4.7,4.7 0,2.6 2.1,4.7 4.7,4.7"
           id="path64"
           style="fill:#58595b" /><path
           class="st7"
           d="m 37.714577,564.79961 c 2.6,0 4.7,-2.1 4.7,-4.7 0,-2.6 -2.1,-4.7 -4.7,-4.7 -2.6,0 -4.7,2.1 -4.7,4.7 0,2.6 2.1,4.7 4.7,4.7"
           id="path65"
           style="fill:#58595b" /><path
           class="st7"
           d="m 299.11458,568.39961 c 2.5,0 4.6,-2.1 4.6,-4.6 0,-2.5 -2.1,-4.6 -4.6,-4.6 -2.5,0 -4.6,2.1 -4.6,4.6 0.1,2.6 2.1,4.6 4.6,4.6"
           id="path66"
           style="fill:#58595b" /><path
           class="st7"
           d="m 310.81458,568.39961 c 2.5,0 4.6,-2.1 4.6,-4.6 0,-2.5 -2.1,-4.6 -4.6,-4.6 -2.5,0 -4.6,2.1 -4.6,4.6 0,2.6 2.1,4.6 4.6,4.6"
           id="path67"
           style="fill:#58595b" /><path
           class="st7"
           d="m 309.71458,614.19961 c 2.7,0 4.1,2.1 4.1,2.1 l 6.3,-2.2 v -39.2 c -1.7,-0.5 -7.1,-2.4 -14.1,-2.4 -12.2,0 -21.7,6.6 -21.7,19.4 0,6.6 3.3,11 6.1,13.6 h -20.2 v -24.3 l -8.4,2.3 v 22 h -14.8 v -11.1 c 0,-17.2 -11,-19.8 -17.6,-19.8 -15,0 -26.1,15.6 -26.1,15.6 v -9.7 l -8.4,3.2 v 21.7 h -12.9 v -45.4 l -8.3,3.2 v 40.6 c 0,8.3 2.2,10.4 11,10.4 h 73.9 c 3.6,0 6.1,-1.3 7.3,-3.7 0,0 1.4,3.7 8,3.7 z m -70.8,-8.7 h -35.4 v -5.4 c 0,0 12.7,-16.7 25.7,-16.7 8.5,0 9.7,6.8 9.7,13.4 z m 72.9,-23.3 v 23.3 h -6.3 c -7.1,0 -11.7,-6.8 -11.7,-12.4 0,-8 6.1,-11.7 12.6,-11.7 4.3,0 5.4,0.8 5.4,0.8"
           id="path68"
           style="fill:#58595b" /></g></g></g></svg>
