<?xml version="1.0" encoding="UTF-8" standalone="no"?>
<!-- Created with Inkscape (http://www.inkscape.org/) -->

<svg
   width="8.4666662mm"
   height="8.4666672mm"
   viewBox="0 0 8.4666662 8.4666672"
   version="1.1"
   id="svg1"
   xml:space="preserve"
   xmlns="http://www.w3.org/2000/svg"
   xmlns:svg="http://www.w3.org/2000/svg"><defs
     id="defs1" /><g
     id="layer1"
     transform="translate(642.69173,205.93424)"><rect
       style="fill:#f2f2f2;stroke:none;stroke-width:0.206225;stroke-dasharray:0.41245, 0.206225;stroke-dashoffset:0"
       id="rect29"
       width="8.4666662"
       height="8.4666662"
       x="-642.69171"
       y="-205.93425"
       rx="1.8139653"
       ry="1.8139653" /><g
       id="g48"
       transform="matrix(0.95247697,0,0,0.95247697,-30.34148,-9.6435701)"
       style="fill:#009ca6;fill-opacity:1"><path
         id="path46"
         style="fill:#009ca6;fill-opacity:1;stroke:none;stroke-width:0.115907;stroke-dasharray:none;stroke-dashoffset:0;stroke-opacity:1"
         d="m -638.45863,-204.93374 a 3.2938001,3.2938001 0 0 0 -3.29334,3.29385 3.2938001,3.2938001 0 0 0 3.29334,3.29386 3.2938001,3.2938001 0 0 0 3.29385,-3.29386 3.2938001,3.2938001 0 0 0 -3.29385,-3.29385 z m 0,0.48679 a 2.806747,2.806747 0 0 1 2.80706,2.80706 2.806747,2.806747 0 0 1 -2.80706,2.80655 2.806747,2.806747 0 0 1 -2.80655,-2.80655 2.806747,2.806747 0 0 1 2.80655,-2.80706 z" /><path
         style="fill:#009ca6;fill-opacity:1;stroke-width:0.0932497"
         d="m -640.1197,-200.52148 c 0.0113,-0.0455 0.0335,-0.0769 0.073,-0.10302 0.0516,-0.0339 -0.0159,-0.0315 0.87664,-0.0344 l 1.49825,-0.002 0.0302,-0.0159 c 0.0363,-0.0183 0.05,-0.0373 0.05,-0.071 4e-5,-0.0515 -0.006,-0.0608 -0.27204,-0.32223 -0.28435,-0.28147 -0.27518,-0.2697 -0.27518,-0.3544 0,-0.0463 9e-4,-0.0551 0.0137,-0.081 0.0313,-0.0637 0.096,-0.10424 0.16723,-0.10468 0.041,-1.8e-4 0.0673,0.006 0.10057,0.0278 0.0137,0.006 0.24897,0.23637 0.52535,0.50796 0.35771,0.35149 0.50685,0.50134 0.5175,0.51998 0.0183,0.0321 0.0284,0.0826 0.0237,0.1174 -0.006,0.0491 -0.0273,0.0812 -0.094,0.14653 -0.0694,0.0678 -0.87661,0.83408 -0.93379,0.88637 -0.0252,0.0232 -0.0469,0.0378 -0.0689,0.0463 -0.0899,0.0353 -0.19499,-0.005 -0.2375,-0.0919 -0.0137,-0.0265 -0.0137,-0.035 -0.0137,-0.0814 0,-0.0562 0.009,-0.0828 0.038,-0.11786 0.006,-0.009 0.10813,-0.1058 0.22366,-0.21525 0.11559,-0.10968 0.22595,-0.21592 0.24533,-0.23647 0.078,-0.0826 0.0814,-0.14539 0.009,-0.17884 l -0.0298,-0.0137 -1.50863,-0.002 c -0.90304,-0.002 -0.83545,-1.9e-4 -0.88702,-0.0344 -0.0412,-0.0273 -0.0642,-0.0612 -0.0746,-0.1099 -0.006,-0.0335 -0.006,-0.0478 9e-4,-0.0814 z"
         id="path47" /><path
         style="fill:#009ca6;fill-opacity:1;stroke-width:0.0932497"
         d="m -636.79706,-202.7147 c -0.0113,-0.0455 -0.0335,-0.0769 -0.073,-0.10302 -0.0516,-0.0339 0.0159,-0.0315 -0.87664,-0.0344 l -1.49825,-0.002 -0.0302,-0.0159 c -0.0363,-0.0183 -0.05,-0.0373 -0.05,-0.071 -4e-5,-0.0515 0.006,-0.0608 0.27204,-0.32223 0.28435,-0.28147 0.27518,-0.26969 0.27518,-0.35439 0,-0.0462 -9e-4,-0.0552 -0.0137,-0.081 -0.0313,-0.0637 -0.096,-0.10424 -0.16723,-0.10468 -0.041,-1.8e-4 -0.0673,0.006 -0.10057,0.0278 -0.0137,0.006 -0.24897,0.23638 -0.52535,0.50796 -0.35771,0.35149 -0.50685,0.50134 -0.5175,0.51998 -0.0183,0.0321 -0.0284,0.0826 -0.0237,0.1174 0.006,0.0491 0.0273,0.0813 0.094,0.14654 0.0694,0.0677 0.87661,0.83407 0.93379,0.88636 0.0252,0.0232 0.0469,0.0378 0.0689,0.0462 0.0899,0.0353 0.19499,-0.004 0.2375,-0.0919 0.0137,-0.0265 0.0137,-0.035 0.0137,-0.0814 0,-0.0562 -0.009,-0.0828 -0.038,-0.11786 -0.006,-0.009 -0.10813,-0.1058 -0.22366,-0.21525 -0.11559,-0.10968 -0.22595,-0.21592 -0.24533,-0.23646 -0.078,-0.0826 -0.0814,-0.1454 -0.009,-0.17884 l 0.0298,-0.0137 1.50863,-0.002 c 0.90304,-0.002 0.83545,-1.9e-4 0.88702,-0.0344 0.0412,-0.0274 0.0642,-0.0612 0.0746,-0.10991 0.006,-0.0335 0.006,-0.0478 -9e-4,-0.0814 z"
         id="path48" /></g></g></svg>
