<?xml version="1.0" encoding="UTF-8" standalone="no"?>
<!-- Created with Inkscape (http://www.inkscape.org/) -->

<svg
   width="8.4666662mm"
   height="8.4666672mm"
   viewBox="0 0 8.4666662 8.4666672"
   version="1.1"
   id="svg1"
   xml:space="preserve"
   xmlns="http://www.w3.org/2000/svg"
   xmlns:svg="http://www.w3.org/2000/svg"><defs
     id="defs1" /><g
     id="layer1"
     transform="translate(642.69173,188.50604)"><rect
       style="fill:#f2f2f2;stroke:none;stroke-width:0.206225;stroke-dasharray:0.41245, 0.206225;stroke-dashoffset:0"
       id="rect30"
       width="8.4666662"
       height="8.4666662"
       x="-642.69171"
       y="-188.50603"
       rx="1.8139653"
       ry="1.8139653" /><path
       style="fill:#009ca6;fill-opacity:1;stroke-width:0.0443837"
       d="m -638.64112,-181.23079 c -0.20077,-0.13666 -0.519,-0.40464 -0.70801,-0.5962 l -0.0995,-0.10091 h -0.51789 -0.51789 l -0.0284,0.0612 c -0.0884,0.19032 -0.33582,0.31862 -0.54531,0.28273 -0.29234,-0.0501 -0.49083,-0.32113 -0.44232,-0.60402 0.0442,-0.2579 0.26667,-0.44505 0.52822,-0.44438 0.17938,4.5e-4 0.36745,0.11565 0.45026,0.27579 l 0.0394,0.0763 0.36706,4e-5 0.36705,4e-5 -0.0633,-0.0856 c -0.15812,-0.2138 -0.32967,-0.49802 -0.43889,-0.72713 l -0.0543,-0.11401 -0.34337,-0.003 c -0.32562,-0.003 -0.34504,-0.005 -0.37577,-0.0276 -0.0477,-0.0356 -0.0747,-0.0765 -0.0826,-0.12503 -0.01,-0.0617 0.0296,-0.13845 0.0885,-0.17153 0.0431,-0.0242 0.0601,-0.0257 0.30532,-0.0257 0.14283,0 0.25969,-0.004 0.25969,-0.008 0,-0.004 -0.0134,-0.0468 -0.0298,-0.0943 -0.0164,-0.0475 -0.0475,-0.15093 -0.069,-0.22987 l -0.0392,-0.14353 -0.39986,-0.006 c -0.38065,-0.006 -0.40142,-0.007 -0.43227,-0.0301 -0.0593,-0.0443 -0.0808,-0.0842 -0.0808,-0.14986 0,-0.0441 0.007,-0.0709 0.0262,-0.0975 0.0514,-0.072 0.0688,-0.0748 0.46149,-0.0748 h 0.35496 l -0.008,-0.0499 c -0.038,-0.2369 -0.0566,-0.7711 -0.0308,-0.88264 0.0194,-0.0835 0.0565,-0.10664 0.30091,-0.18763 0.1222,-0.0405 0.28968,-0.0991 0.37216,-0.1301 l 0.14999,-0.0565 -0.003,-0.21856 -0.003,-0.21855 -0.29572,-0.003 -0.29572,-0.003 -0.0376,0.0706 c -0.0524,0.0983 -0.13854,0.18032 -0.24431,0.23259 -0.0866,0.0428 -0.091,0.0437 -0.22462,0.0437 -0.13337,0 -0.13813,-9.4e-4 -0.22383,-0.0433 -0.40448,-0.19991 -0.40448,-0.74694 0,-0.94685 0.0857,-0.0423 0.0905,-0.0433 0.22383,-0.0433 0.13359,0 0.138,9.4e-4 0.22462,0.0437 0.10571,0.0522 0.19192,0.13428 0.24421,0.23239 l 0.0375,0.0704 h 0.41445 c 0.41134,0 0.41476,2.2e-4 0.45436,0.0266 0.0743,0.0496 0.081,0.0788 0.081,0.35206 1e-5,0.13402 0.003,0.24367 0.006,0.24367 0.0174,0 0.3057,-0.15207 0.41446,-0.21864 0.18401,-0.11265 0.29879,-0.19778 0.41453,-0.30746 0.1639,-0.15533 0.20681,-0.15574 0.36887,-0.004 0.12303,0.11551 0.24659,0.20689 0.42634,0.31532 0.11088,0.0669 0.3909,0.21435 0.40701,0.21435 0.003,0 0.006,-0.10965 0.006,-0.24366 2e-5,-0.27331 0.007,-0.30246 0.081,-0.35207 0.0396,-0.0264 0.043,-0.0266 0.45436,-0.0266 h 0.41445 l 0.0367,-0.0688 c 0.0519,-0.0974 0.14143,-0.18272 0.24581,-0.23431 0.0857,-0.0423 0.0905,-0.0433 0.22383,-0.0433 0.13337,0 0.13813,9.4e-4 0.22384,0.0433 0.40211,0.19874 0.40251,0.74791 9.3e-4,0.94649 -0.0781,0.0386 -0.0982,0.0434 -0.19974,0.0474 -0.0929,0.004 -0.1262,-3e-5 -0.18823,-0.021 -0.13076,-0.0442 -0.2411,-0.13821 -0.30679,-0.26146 l -0.0363,-0.0682 -0.29572,0.003 -0.29572,0.003 -0.003,0.21889 -0.003,0.2189 0.19108,0.0704 c 0.1051,0.0387 0.27019,0.0958 0.36687,0.12679 0.19868,0.0637 0.24647,0.0953 0.26493,0.17525 0.026,0.11276 0.008,0.6459 -0.0306,0.88367 l -0.008,0.0499 h 0.35692 c 0.40344,0 0.41437,0.002 0.46565,0.0893 0.0467,0.0793 0.0229,0.17042 -0.0608,0.23291 -0.0309,0.0231 -0.0516,0.0245 -0.43227,0.0301 l -0.39986,0.006 -0.0389,0.14092 c -0.0214,0.0775 -0.0525,0.18015 -0.069,0.22811 -0.0165,0.048 -0.0301,0.0916 -0.0301,0.0969 0,0.005 0.11647,0.01 0.25882,0.01 0.30462,0 0.33031,0.007 0.37549,0.10018 0.0409,0.0846 0.0194,0.16018 -0.0634,0.22203 -0.0307,0.023 -0.0502,0.0244 -0.37524,0.0276 l -0.34283,0.003 -0.064,0.13104 c -0.11803,0.24158 -0.2693,0.49101 -0.43091,0.71056 l -0.0627,0.0851 0.36706,-4e-5 0.36706,-4e-5 0.0394,-0.0763 c 0.0828,-0.16014 0.27087,-0.27534 0.45025,-0.27579 0.26053,-4.7e-4 0.48417,0.18749 0.52822,0.44438 0.0485,0.28289 -0.14998,0.55395 -0.44232,0.60403 -0.20949,0.0359 -0.45693,-0.0924 -0.54531,-0.28274 l -0.0284,-0.0612 h -0.51625 -0.51626 l -0.16012,0.1556 c -0.22179,0.21551 -0.51205,0.45573 -0.67575,0.55923 -0.0887,0.0561 -0.14705,0.052 -0.24944,-0.0177 z m 0.89122,-1.60784 c 0.075,-0.0256 0.14308,-0.0881 0.18182,-0.167 l 0.033,-0.0672 v -0.57542 c 0,-0.56422 -4.7e-4,-0.57648 -0.0253,-0.63009 -0.0288,-0.0624 -0.10457,-0.14096 -0.15666,-0.16254 l -0.0353,-0.0146 v -0.10766 c 0,-0.2079 -0.075,-0.38866 -0.22241,-0.53607 -0.29594,-0.29594 -0.76236,-0.29594 -1.0583,0 -0.14742,0.14741 -0.22241,0.32817 -0.22241,0.53607 v 0.10766 l -0.0353,0.0146 c -0.0521,0.0216 -0.12782,0.10015 -0.15665,0.16254 -0.0248,0.0536 -0.0253,0.0659 -0.0253,0.63009 v 0.57542 l 0.028,0.0621 c 0.0328,0.0727 0.11066,0.14614 0.18126,0.17115 0.0753,0.0267 1.43542,0.0276 1.51347,9.4e-4 z m -1.36462,-0.80377 v -0.46972 h 0.61064 0.61065 v 0.46972 0.46973 h -0.61065 -0.61064 z m 0.71338,0.20174 c 0.0592,-0.0422 0.0762,-0.0943 0.0716,-0.21967 -0.004,-0.11764 -0.0173,-0.14809 -0.084,-0.19791 -0.0431,-0.0322 -0.13753,-0.0322 -0.18066,0 -0.0705,0.0527 -0.0799,0.0778 -0.0799,0.21377 0,0.11069 0.003,0.12965 0.0261,0.16189 0.0546,0.0765 0.17069,0.0962 0.24697,0.0419 z m -0.50003,-1.13238 c 0.007,-0.16483 0.0861,-0.28666 0.23096,-0.3578 0.0569,-0.0279 0.0809,-0.0326 0.16633,-0.0326 0.0854,0 0.10943,0.005 0.16633,0.0326 0.1442,0.0708 0.222,0.19144 0.23077,0.3578 l 0.005,0.0969 h -0.40195 -0.40194 z"
       id="path44" /></g></svg>
