<?xml version="1.0" encoding="UTF-8" standalone="no"?>
<!-- Created with Inkscape (http://www.inkscape.org/) -->

<svg
   width="8.4666662mm"
   height="8.4666672mm"
   viewBox="0 0 8.4666662 8.4666672"
   version="1.1"
   id="svg1"
   xml:space="preserve"
   xmlns="http://www.w3.org/2000/svg"
   xmlns:svg="http://www.w3.org/2000/svg"><defs
     id="defs1" /><g
     id="layer1"
     transform="translate(764.47151,188.50604)"><rect
       style="fill:#f2f2f2;fill-opacity:1;stroke:none;stroke-width:0.206225;stroke-dasharray:0.41245, 0.206225;stroke-dashoffset:0"
       id="rect12"
       width="8.4666662"
       height="8.4666662"
       x="-764.4715"
       y="-188.50603"
       rx="1.8139653"
       ry="1.8139653" /><path
       style="fill:#009ca6;fill-opacity:1;stroke-width:0.821247"
       d="m -763.28974,-181.56761 v -0.25318 h 3.05155 3.05155 v 0.25318 0.25319 h -3.05155 -3.05155 z m 0.22961,-0.56967 c 0.007,-0.18011 0.0328,-0.26298 0.11382,-0.36956 0.061,-0.0803 0.17094,-0.15957 0.26222,-0.18913 0.0876,-0.0284 0.60394,-0.0412 0.73566,-0.0182 0.17918,0.0312 0.33427,0.14651 0.40749,0.30299 0.0422,0.0902 0.0628,0.20111 0.0632,0.34058 l 2.7e-4,0.0899 h -0.79451 -0.79452 z m 1.82634,-0.0333 c 0.006,-0.13489 0.0157,-0.21498 0.0349,-0.27651 0.0664,-0.21327 0.24262,-0.38836 0.45942,-0.45654 0.0896,-0.0282 0.11753,-0.0298 0.5013,-0.0298 0.35648,0 0.41626,0.003 0.48639,0.0245 0.23528,0.072 0.41921,0.26114 0.48162,0.49522 0.0107,0.04 0.0178,0.1399 0.0179,0.24985 l 1.6e-4,0.18323 h -0.99479 -0.99479 z m 2.23487,0.0857 c 0,-0.27991 0.10163,-0.47203 0.30363,-0.574 0.11898,-0.06 0.21535,-0.0715 0.54554,-0.0648 0.32723,0.007 0.37807,0.0168 0.49698,0.1 0.15912,0.11116 0.22584,0.24848 0.23634,0.48643 l 0.007,0.15658 h -0.79469 -0.79471 z m -2.41858,-0.43887 c -0.0778,-0.14895 -0.26602,-0.29412 -0.43734,-0.33725 l -0.0642,-0.0162 0.0455,-0.0481 c 0.0692,-0.0733 0.098,-0.12102 0.13,-0.21526 0.0241,-0.071 0.0281,-0.10625 0.0228,-0.20167 -0.0103,-0.18514 -0.0986,-0.34192 -0.24438,-0.43352 l -0.0592,-0.0372 0.003,-1.2526 0.003,-1.25259 0.0378,-0.11328 c 0.13671,-0.40957 0.46401,-0.7026 0.87195,-0.78065 0.0764,-0.0146 0.23979,-0.0189 0.72379,-0.0189 h 0.62512 v 1.55242 c 0,0.85383 -0.003,1.55243 -0.007,1.55243 -0.003,0 -0.0351,-0.0219 -0.07,-0.0487 -0.32109,-0.24638 -0.79682,-0.14221 -0.99243,0.2173 -0.13754,0.2528 -0.0853,0.58818 0.12339,0.7924 l 0.077,0.0753 -0.0554,0.009 c -0.15318,0.0236 -0.32594,0.11084 -0.44688,0.22563 -0.0811,0.077 -0.1794,0.23042 -0.20954,0.32706 -0.014,0.0447 -0.0283,0.0812 -0.032,0.0813 -0.003,5e-5 -0.0246,-0.0343 -0.0466,-0.0765 z m 0.0866,-1.28257 c 0.0147,-0.0147 0.0267,-0.0387 0.0267,-0.0533 0,-0.0147 -0.012,-0.0387 -0.0267,-0.0533 -0.023,-0.023 -0.0444,-0.0266 -0.15694,-0.0266 -0.14713,0 -0.18953,0.0171 -0.18953,0.0763 0,0.0698 0.0301,0.0836 0.18196,0.0836 0.12009,0 0.14129,-0.003 0.16451,-0.0266 z m 0,-0.55967 c 0.0147,-0.0147 0.0267,-0.0387 0.0267,-0.0533 0,-0.0146 -0.012,-0.0387 -0.0267,-0.0533 -0.0232,-0.0232 -0.0444,-0.0266 -0.16219,-0.0266 -0.14936,0 -0.18428,0.0147 -0.18428,0.0776 0,0.0684 0.0307,0.0823 0.18196,0.0823 0.12009,0 0.14129,-0.003 0.16451,-0.0266 z m 0,-0.55967 c 0.0147,-0.0146 0.0267,-0.0387 0.0267,-0.0533 0,-0.0146 -0.012,-0.0387 -0.0267,-0.0533 -0.0232,-0.0232 -0.0444,-0.0266 -0.16219,-0.0266 -0.1513,0 -0.18428,0.0145 -0.18428,0.0813 0,0.0618 0.0406,0.0787 0.18953,0.0787 0.11252,0 0.13392,-0.003 0.15694,-0.0267 z m 0.58972,0.003 c 0.0338,-0.0379 0.0347,-0.0832 0.002,-0.11565 -0.031,-0.031 -0.27995,-0.0301 -0.31448,8.2e-4 -0.0304,0.0274 -0.0314,0.0813 -0.002,0.11349 0.032,0.0354 0.28303,0.0362 0.31448,8.2e-4 z m 0.59328,0.002 c 0.0354,-0.0248 0.039,-0.08 0.007,-0.11479 -0.0186,-0.0205 -0.0432,-0.0244 -0.15736,-0.0244 -0.0881,0 -0.1427,0.006 -0.15649,0.0167 -0.0364,0.0286 -0.0401,0.0694 -0.01,0.10785 0.0267,0.034 0.0331,0.0354 0.15718,0.0354 0.0955,0 0.13707,-0.006 0.15894,-0.0208 z m -1.183,-0.56557 c 0.032,-0.032 0.0338,-0.0638 0.006,-0.10364 -0.0192,-0.0274 -0.0311,-0.0296 -0.16219,-0.0296 -0.11292,0 -0.14637,0.004 -0.16581,0.0221 -0.032,0.0289 -0.031,0.0779 0.002,0.11121 0.0231,0.0231 0.0444,0.0267 0.15991,0.0267 0.11548,0 0.1368,-0.003 0.1599,-0.0267 z m 0.58651,0.002 c 0.0366,-0.0296 0.0397,-0.0932 0.006,-0.11808 -0.037,-0.027 -0.29028,-0.0245 -0.31797,0.003 -0.0311,0.031 -0.0265,0.0936 0.009,0.11822 0.0452,0.0316 0.26346,0.0292 0.30372,-0.003 z m 0.59649,0.003 c 0.0354,-0.0248 0.039,-0.08 0.007,-0.1148 -0.0186,-0.0205 -0.0432,-0.0244 -0.15736,-0.0244 -0.0881,0 -0.1427,0.006 -0.15649,0.0167 -0.0364,0.0286 -0.0401,0.0694 -0.01,0.10785 0.0267,0.034 0.0331,0.0354 0.15718,0.0354 0.0955,0 0.13707,-0.006 0.15894,-0.0208 z m -1.19146,-0.56655 c 0.0401,-0.0315 0.0441,-0.0602 0.0144,-0.10267 -0.0192,-0.0274 -0.0311,-0.0297 -0.16219,-0.0297 -0.11291,0 -0.14636,0.004 -0.16581,0.0221 -0.0319,0.0289 -0.031,0.0779 0.002,0.11121 0.0228,0.0228 0.0444,0.0267 0.15144,0.0267 0.10607,0 0.13006,-0.004 0.15991,-0.0276 z m 0.59497,0.003 c 0.033,-0.0268 0.0396,-0.084 0.0131,-0.11575 -0.0246,-0.0297 -0.29578,-0.0289 -0.32556,8.2e-4 -0.0311,0.031 -0.0265,0.0936 0.009,0.11822 0.0452,0.0316 0.26346,0.0292 0.30372,-0.003 z m 0.59649,0.003 c 0.0352,-0.0246 0.0398,-0.0871 0.009,-0.11822 -0.0164,-0.0165 -0.0519,-0.0209 -0.16581,-0.0209 -0.1346,0 -0.14635,0.002 -0.16562,0.0297 -0.0285,0.0406 -0.0261,0.0595 0.012,0.0976 0.0301,0.0301 0.0428,0.0327 0.15694,0.0327 0.0909,0 0.13219,-0.006 0.15385,-0.0208 z m -0.59649,-0.56305 c 0.033,-0.0268 0.0396,-0.084 0.0131,-0.11575 -0.0214,-0.0258 -0.30528,-0.0293 -0.33051,-0.004 -0.0274,0.0274 -0.0194,0.10005 0.0136,0.12317 0.0452,0.0316 0.26345,0.0292 0.30371,-0.003 z m 0.58613,0.007 c 0.0411,-0.0206 0.0521,-0.0887 0.0198,-0.1211 -0.0173,-0.0173 -0.0506,-0.0217 -0.16653,-0.0217 -0.1346,0 -0.14635,0.002 -0.16562,0.0297 -0.0285,0.0406 -0.0261,0.0595 0.012,0.0976 0.0298,0.0298 0.0431,0.0327 0.14991,0.0325 0.0673,-1.1e-4 0.13141,-0.007 0.15052,-0.0169 z m 1.02136,4.06861 c -0.0264,-0.0846 -0.11605,-0.23165 -0.18596,-0.30495 -0.11096,-0.11637 -0.31738,-0.22696 -0.46408,-0.24865 l -0.0618,-0.009 0.0818,-0.082 c 0.0887,-0.0889 0.154,-0.20635 0.18191,-0.32694 0.0201,-0.0871 0.0107,-0.27851 -0.0177,-0.35603 -0.0124,-0.034 -0.0155,-0.0617 -0.008,-0.0733 0.007,-0.0104 0.0119,-0.46694 0.012,-1.03474 l 2.1e-4,-1.01607 h 0.57299 0.573 l -2.4e-4,1.0827 -2.4e-4,1.0827 -0.0646,0.0422 c -0.14048,0.0918 -0.2296,0.25056 -0.23882,0.42537 -0.009,0.16948 0.0343,0.29052 0.14761,0.41402 l 0.0509,0.0554 -0.0439,0.009 c -0.18912,0.0401 -0.40845,0.21406 -0.4763,0.37785 -0.009,0.0229 -0.021,0.0416 -0.0256,0.0416 -0.005,-6e-5 -0.0195,-0.0358 -0.0331,-0.0793 z m 0.31138,-1.83689 c 0.0366,-0.0296 0.0397,-0.0932 0.006,-0.11809 -0.0366,-0.0268 -0.26382,-0.0243 -0.29133,0.003 -0.031,0.031 -0.0265,0.0936 0.009,0.11821 0.0447,0.0313 0.23714,0.0289 0.27705,-0.003 z m 0.007,-0.56435 c 0.0122,-0.0121 0.0221,-0.0382 0.0221,-0.0578 0,-0.0687 -0.0277,-0.0796 -0.21365,-0.0836 -0.20708,-0.004 -0.23609,0.006 -0.23609,0.0836 0,0.0778 0.029,0.0881 0.23609,0.0836 0.13675,-0.003 0.17372,-0.008 0.19155,-0.0258 z m -0.002,-0.56189 c 0.034,-0.0249 0.031,-0.0884 -0.006,-0.11809 -0.0252,-0.0204 -0.0555,-0.0241 -0.19858,-0.0241 -0.19106,0 -0.22802,0.0129 -0.22802,0.0797 0,0.072 0.0228,0.0802 0.22494,0.0802 0.13114,0 0.18992,-0.005 0.20725,-0.0177 z m -3.54371,2.56451 c -0.10494,-0.0276 -0.21436,-0.11418 -0.26308,-0.20819 -0.0386,-0.0744 -0.047,-0.22214 -0.0177,-0.31037 0.0478,-0.14399 0.20162,-0.25831 0.35136,-0.26117 0.35396,-0.007 0.54401,0.38797 0.31539,0.65507 -0.0853,0.0996 -0.26301,0.157 -0.38599,0.12466 z m 4.03541,-0.0121 c -0.23491,-0.0839 -0.33621,-0.33708 -0.22328,-0.55791 0.12435,-0.24315 0.46189,-0.28301 0.64407,-0.076 0.0722,0.082 0.0994,0.16885 0.0915,0.29166 -0.007,0.10766 -0.0408,0.18034 -0.11919,0.25552 -0.099,0.0949 -0.26669,0.13195 -0.39314,0.0868 z m -2.06651,-0.22214 c -0.15331,-0.0479 -0.28741,-0.18833 -0.32997,-0.34558 -0.13231,-0.48876 0.44605,-0.84991 0.82301,-0.51394 0.29145,0.25977 0.18628,0.74845 -0.18514,0.86023 -0.0772,0.0232 -0.23245,0.0229 -0.3079,-7.1e-4 z"
       id="path6" /></g></svg>
