<?xml version="1.0" encoding="UTF-8" standalone="no"?>
<!-- Created with Inkscape (http://www.inkscape.org/) -->

<svg
   width="5.4755054mm"
   height="4.6731644mm"
   viewBox="0 0 5.4755054 4.6731644"
   version="1.1"
   id="svg1"
   xml:space="preserve"
   inkscape:version="1.3.2 (091e20e, 2023-11-25, custom)"
   sodipodi:docname="maiprosoft website icons.svg"
   xmlns:inkscape="http://www.inkscape.org/namespaces/inkscape"
   xmlns:sodipodi="http://sodipodi.sourceforge.net/DTD/sodipodi-0.dtd"
   xmlns="http://www.w3.org/2000/svg"
   xmlns:svg="http://www.w3.org/2000/svg"><sodipodi:namedview
     id="namedview1"
     pagecolor="#505050"
     bordercolor="#eeeeee"
     borderopacity="1"
     inkscape:showpageshadow="0"
     inkscape:pageopacity="0"
     inkscape:pagecheckerboard="0"
     inkscape:deskcolor="#d1d1d1"
     inkscape:document-units="mm"
     inkscape:zoom="0.5007929"
     inkscape:cx="-2277.3885"
     inkscape:cy="-608.03577"
     inkscape:window-width="1920"
     inkscape:window-height="991"
     inkscape:window-x="-9"
     inkscape:window-y="-9"
     inkscape:window-maximized="1"
     inkscape:current-layer="layer1"
     showguides="true"><sodipodi:guide
       position="-210.91892,261.01121"
       orientation="1,0"
       id="guide55"
       inkscape:locked="false" /><sodipodi:guide
       position="-205.00541,260.87207"
       orientation="1,0"
       id="guide56"
       inkscape:locked="false" /></sodipodi:namedview><defs
     id="defs1" /><g
     inkscape:label="Layer 1"
     inkscape:groupmode="layer"
     id="layer1"
     transform="translate(552.41035,186.60928)"><path
       style="fill:#009ca6;fill-opacity:1;stroke-width:0.192405"
       d="m -552.39684,-184.36435 c 0.0231,-0.094 0.069,-0.15879 0.15091,-0.21288 0.10635,-0.0702 -0.031,-0.0649 1.80874,-0.0707 l 1.6803,-0.005 0.0624,-0.0307 c 0.0747,-0.0367 0.10335,-0.0772 0.10341,-0.1465 8e-5,-0.10599 -0.0162,-0.12525 -0.56129,-0.66489 -0.5867,-0.58079 -0.56779,-0.55645 -0.56779,-0.73122 0,-0.0951 0.003,-0.1137 0.0295,-0.16706 0.0646,-0.13159 0.19821,-0.21519 0.34511,-0.21598 0.0846,-3.9e-4 0.13912,0.0146 0.2076,0.0571 0.0259,0.0161 0.51367,0.48774 1.08396,1.04811 0.73806,0.72522 1.04578,1.03441 1.06773,1.07286 0.0378,0.0661 0.0589,0.17045 0.049,0.2423 -0.014,0.10152 -0.0565,0.16779 -0.19415,0.30237 -0.14295,0.13978 -1.80872,1.721 -1.9267,1.82891 -0.0523,0.0478 -0.0967,0.0777 -0.14204,0.0954 -0.18535,0.0727 -0.40251,-0.0114 -0.49007,-0.18972 -0.0267,-0.0543 -0.0299,-0.0724 -0.0299,-0.16793 0,-0.11582 0.0178,-0.17103 0.0786,-0.24327 0.0153,-0.0182 0.22302,-0.21812 0.46157,-0.44428 0.23855,-0.22616 0.46633,-0.44572 0.50618,-0.48792 0.16089,-0.17039 0.16824,-0.30004 0.0209,-0.36909 l -0.0613,-0.0287 -1.70171,-0.005 c -1.86323,-0.006 -1.72376,-3.9e-4 -1.83014,-0.0707 -0.0852,-0.0563 -0.13256,-0.12608 -0.15388,-0.22678 -0.0146,-0.069 -0.0141,-0.0987 0.003,-0.16804 z"
       id="path40" /></g></svg>
