<?xml version="1.0" encoding="UTF-8" standalone="no"?>
<!-- Created with Inkscape (http://www.inkscape.org/) -->

<svg
   width="8.4666662mm"
   height="8.4666672mm"
   viewBox="0 0 8.4666662 8.4666672"
   version="1.1"
   id="svg1"
   xml:space="preserve"
   xmlns="http://www.w3.org/2000/svg"
   xmlns:svg="http://www.w3.org/2000/svg"><defs
     id="defs1" /><g
     id="layer1"
     transform="translate(764.47151,153.64959)"><rect
       style="fill:#f2f2f2;fill-opacity:1;stroke:none;stroke-width:0.206225;stroke-dasharray:0.41245, 0.206225;stroke-dashoffset:0"
       id="rect14"
       width="8.4666662"
       height="8.4666662"
       x="-764.4715"
       y="-153.64958"
       rx="1.8139653"
       ry="1.8139653" /><path
       style="fill:#009ca6;fill-opacity:1;stroke-width:0.0419906"
       d="m -762.75898,-146.58349 c -0.1437,-0.0241 -0.29086,-0.13684 -0.35346,-0.27063 -0.0669,-0.14272 -0.068,-0.28333 -0.004,-0.43107 0.0286,-0.0654 0.0855,-0.12512 0.86285,-0.90445 l 0.83229,-0.83443 -0.0225,-0.0766 c -0.0931,-0.3165 -0.0345,-0.68124 0.15594,-0.97095 0.0684,-0.10405 0.21047,-0.24288 0.3241,-0.31671 0.2737,-0.17784 0.58423,-0.23222 0.91632,-0.16048 0.075,0.0162 0.13149,0.0636 0.14266,0.11974 0.008,0.0414 0.007,0.0522 -0.003,0.10192 -0.004,0.0164 -0.0963,0.11911 -0.22554,0.24997 -0.12068,0.12221 -0.22975,0.2397 -0.2424,0.26109 -0.0354,0.0598 -0.0515,0.15637 -0.0372,0.22288 0.0354,0.1652 0.16317,0.27024 0.32863,0.27024 0.12818,0 0.15481,-0.0177 0.41552,-0.27564 0.14562,-0.1441 0.24059,-0.22972 0.2603,-0.23465 0.017,-0.004 0.0543,-0.005 0.0827,-0.002 0.11605,0.0131 0.16306,0.13444 0.16234,0.41909 -5.7e-4,0.22237 -0.0392,0.37963 -0.13918,0.56661 -0.0858,0.1606 -0.21278,0.30414 -0.35292,0.3992 -0.28263,0.19171 -0.6832,0.25096 -1.00496,0.14864 l -0.0539,-0.0171 -0.83479,0.83266 c -0.77651,0.7745 -0.83964,0.83477 -0.9041,0.86289 -0.10619,0.0463 -0.19696,0.0581 -0.30605,0.0397 z m 2.05131,-3.8e-4 c -0.0679,-0.0201 -0.0974,-0.0709 -0.1385,-0.23826 -0.03,-0.12247 -0.042,-0.15443 -0.0597,-0.16129 -0.0122,-0.005 -0.0923,-0.031 -0.17781,-0.0584 -0.0855,-0.0274 -0.19028,-0.0656 -0.23275,-0.0849 l -0.0772,-0.0352 0.38977,-0.38978 0.38979,-0.38978 0.12795,0.0137 c 0.27546,0.0296 0.60761,-0.033 0.85812,-0.1619 0.24729,-0.12724 0.48099,-0.35359 0.6141,-0.5948 0.32579,-0.59035 0.22021,-1.32715 -0.25792,-1.79993 -0.50279,-0.49716 -1.28649,-0.5716 -1.87849,-0.17843 -0.46171,0.30663 -0.70912,0.82252 -0.66029,1.37681 l 0.0139,0.15801 -0.38172,0.38638 c -0.20994,0.2125 -0.38575,0.38805 -0.39067,0.3901 -0.0143,0.006 -0.0739,-0.13556 -0.12782,-0.3037 -0.0274,-0.0855 -0.0538,-0.16555 -0.0584,-0.17781 -0.007,-0.018 -0.0388,-0.0297 -0.16128,-0.0597 -0.17097,-0.042 -0.2184,-0.0706 -0.23875,-0.14384 -0.0148,-0.0528 -0.015,-0.70529 -3.4e-4,-0.75798 0.0208,-0.0748 0.0614,-0.0995 0.23623,-0.14405 l 0.15819,-0.0403 0.0137,-0.0436 c 0.0987,-0.31235 0.15217,-0.44182 0.27494,-0.66577 l 0.0304,-0.0555 -0.0775,-0.12988 c -0.0892,-0.14952 -0.10109,-0.19373 -0.0696,-0.25881 0.0303,-0.0626 0.50305,-0.53214 0.5595,-0.55571 0.06,-0.0251 0.0917,-0.0156 0.24911,0.0743 l 0.13639,0.078 0.097,-0.0549 c 0.18136,-0.10254 0.27782,-0.14159 0.61827,-0.2501 l 0.0436,-0.0138 0.0403,-0.15819 c 0.045,-0.17636 0.0695,-0.21597 0.14696,-0.23683 0.026,-0.007 0.18107,-0.0103 0.40248,-0.007 0.34385,0.003 0.36164,0.004 0.39091,0.0262 0.055,0.0409 0.072,0.0767 0.10625,0.22242 0.0186,0.0789 0.0376,0.14754 0.0421,0.15245 0.005,0.005 0.0515,0.0209 0.10439,0.0354 0.18354,0.0505 0.40539,0.14502 0.61259,0.26103 l 0.0445,0.025 0.12988,-0.0775 c 0.14353,-0.0855 0.19095,-0.0995 0.25209,-0.074 0.0557,0.0233 0.52775,0.49445 0.55808,0.55708 0.0311,0.0642 0.0233,0.0927 -0.0697,0.25573 l -0.0778,0.13614 0.0495,0.086 c 0.0948,0.16486 0.18548,0.38229 0.23584,0.56532 0.0145,0.0528 0.0305,0.0999 0.0354,0.10431 0.005,0.005 0.0739,0.0237 0.15338,0.0428 0.14724,0.0353 0.18101,0.0514 0.22152,0.10564 0.0221,0.0296 0.0229,0.0442 0.0229,0.41789 0,0.37376 -8e-4,0.38829 -0.0229,0.41791 -0.0405,0.0543 -0.0743,0.0703 -0.22152,0.10562 -0.0794,0.0191 -0.14845,0.0383 -0.15338,0.0427 -0.005,0.005 -0.0208,0.0514 -0.0354,0.10431 -0.0503,0.18303 -0.14106,0.40046 -0.23584,0.56532 l -0.0495,0.086 0.0778,0.13614 c 0.0897,0.15714 0.0992,0.18883 0.0741,0.24887 -0.0236,0.0565 -0.4931,0.52917 -0.55571,0.55949 -0.0651,0.0315 -0.10928,0.0196 -0.25881,-0.0695 l -0.12988,-0.0775 -0.0445,0.025 c -0.2072,0.11599 -0.42905,0.21052 -0.61258,0.26102 -0.0528,0.0145 -0.0999,0.0305 -0.1044,0.0354 -0.005,0.005 -0.0235,0.0735 -0.0421,0.15246 -0.0342,0.14569 -0.0514,0.18141 -0.10626,0.22242 -0.0294,0.022 -0.0459,0.023 -0.39927,0.025 -0.20274,9.7e-4 -0.38436,-0.003 -0.4036,-0.008 z"
       id="path15" /></g></svg>
