<?xml version="1.0" encoding="UTF-8" standalone="no"?>
<!-- Created with Inkscape (http://www.inkscape.org/) -->

<svg
   width="8.4666662mm"
   height="8.4666672mm"
   viewBox="0 0 8.4666662 8.4666672"
   version="1.1"
   id="svg1"
   xml:space="preserve"
   inkscape:version="1.3.2 (091e20e, 2023-11-25, custom)"
   sodipodi:docname="maiprosoft website icons.svg"
   xmlns:inkscape="http://www.inkscape.org/namespaces/inkscape"
   xmlns:sodipodi="http://sodipodi.sourceforge.net/DTD/sodipodi-0.dtd"
   xmlns="http://www.w3.org/2000/svg"
   xmlns:svg="http://www.w3.org/2000/svg"><sodipodi:namedview
     id="namedview1"
     pagecolor="#505050"
     bordercolor="#eeeeee"
     borderopacity="1"
     inkscape:showpageshadow="0"
     inkscape:pageopacity="0"
     inkscape:pagecheckerboard="0"
     inkscape:deskcolor="#d1d1d1"
     inkscape:document-units="mm"
     inkscape:zoom="0.5007929"
     inkscape:cx="-2277.3885"
     inkscape:cy="-608.03577"
     inkscape:window-width="1920"
     inkscape:window-height="991"
     inkscape:window-x="-9"
     inkscape:window-y="-9"
     inkscape:window-maximized="1"
     inkscape:current-layer="layer1"
     showguides="true"><sodipodi:guide
       position="-120.63754,276.54269"
       orientation="1,0"
       id="guide55"
       inkscape:locked="false" /><sodipodi:guide
       position="-114.72403,276.40355"
       orientation="1,0"
       id="guide56"
       inkscape:locked="false" /></sodipodi:namedview><defs
     id="defs1" /><g
     inkscape:label="Layer 1"
     inkscape:groupmode="layer"
     id="layer1"
     transform="translate(642.69173,171.0778)"><rect
       style="fill:#f2f2f2;stroke:none;stroke-width:0.206225;stroke-dasharray:0.41245, 0.206225;stroke-dashoffset:0"
       id="rect33"
       width="8.4666662"
       height="8.4666662"
       x="-642.69171"
       y="-171.0778"
       rx="1.8139653"
       ry="1.8139653" /><path
       style="fill:#009ca6;fill-opacity:1;stroke-width:0.051274"
       d="m -640.62101,-164.73908 v -0.86824 h 0.32559 0.32558 v 0.86824 0.86825 h -0.32558 -0.32559 z m 1.21142,0.73914 c -0.0388,-0.0106 -0.13193,-0.05 -0.20689,-0.0876 l -0.13629,-0.0684 v -0.57474 -0.57476 l 0.33218,-0.083 c 0.23859,-0.0597 0.35734,-0.0831 0.42148,-0.0831 0.0727,0 0.24566,0.0418 0.92609,0.2239 0.46023,0.12315 0.85395,0.23088 0.87492,0.2394 0.10038,0.0408 0.14788,0.19239 0.0915,0.29173 -0.0163,0.0286 -0.0454,0.0638 -0.0647,0.0781 -0.0756,0.0559 -0.11684,0.0488 -0.82212,-0.14015 -0.36428,-0.0976 -0.67274,-0.17747 -0.68548,-0.17747 -0.0338,0 -0.0833,0.0385 -0.0976,0.076 -0.0158,0.0415 0.003,0.0926 0.044,0.11906 0.0171,0.011 0.33026,0.0999 0.69587,0.19744 0.74628,0.19911 0.78161,0.2046 0.91572,0.14245 0.14469,-0.0671 0.23824,-0.19508 0.25535,-0.34948 l 0.009,-0.0829 0.563,-0.325 c 0.50948,-0.29412 0.5689,-0.32502 0.6251,-0.32523 0.1203,-4e-4 0.216,0.0915 0.216,0.20733 0,0.0905 -0.0368,0.14879 -0.13035,0.20639 -0.18243,0.11235 -1.78666,1.03278 -1.85944,1.06688 l -0.0791,0.037 -0.90894,0.003 c -0.74904,0.003 -0.92136,-5.9e-4 -0.97954,-0.0165 z m -2.07966,-0.73914 v -0.65118 h 0.32559 0.32559 v 0.65118 0.65119 h -0.32559 -0.32559 z m 4.49657,-0.381 c -0.0719,-0.0743 -0.11992,-0.0971 -0.31514,-0.14894 l -0.16581,-0.0441 5.8e-4,-1.05265 5.9e-4,-1.05266 0.12115,0.2402 c 0.0666,0.13212 0.13305,0.24658 0.14761,0.25438 0.0174,0.009 0.25561,0.0141 0.69224,0.0141 h 0.66578 l -0.004,0.61225 -0.004,0.61225 -0.53587,0.30992 c -0.29473,0.17047 -0.53921,0.31009 -0.5433,0.31026 -0.004,1.5e-4 -0.0316,-0.0246 -0.061,-0.0551 z m -1.30172,-0.41297 c -0.53517,-0.14482 -0.57761,-0.15422 -0.69866,-0.15469 -0.0838,-3.1e-4 -0.16324,0.008 -0.22723,0.025 l -0.0984,0.0256 v -0.63625 -0.63626 h 0.66565 c 0.43654,0 0.67475,-0.004 0.69211,-0.0141 0.0145,-0.008 0.081,-0.12226 0.14761,-0.25436 l 0.12114,-0.2402 5.9e-4,1.02086 c 5.7e-4,0.80858 -0.003,1.02064 -0.0162,1.01977 -0.009,-5.9e-4 -0.27336,-0.0704 -0.58675,-0.15528 z m -1.22774,-1.91928 0.16289,-0.32559 h 0.80042 0.80041 l -0.16291,0.32559 -0.1629,0.32559 h -0.8004 -0.80042 z m 2.27913,0 -0.1629,-0.32559 h 0.80041 0.80041 l 0.16289,0.32559 0.16292,0.32559 h -0.80041 -0.80041 z m -1.86072,-0.72332 c -0.005,-0.17132 -0.007,-0.18535 -0.0495,-0.27048 -0.0278,-0.0564 -0.0817,-0.12922 -0.14506,-0.19578 -0.16912,-0.17772 -0.23027,-0.32294 -0.23027,-0.5469 0,-0.22042 0.0683,-0.38601 0.22325,-0.54097 l 0.0883,-0.0883 0.007,0.34523 c 0.004,0.18986 0.009,0.34667 0.0104,0.34846 0.002,0.002 0.0898,0.0613 0.19605,0.13227 0.11594,0.0774 0.20687,0.12903 0.2273,0.12903 0.0204,0 0.11136,-0.0516 0.22732,-0.12903 0.10627,-0.071 0.1945,-0.13048 0.19603,-0.13227 0.002,-0.002 0.006,-0.1586 0.0104,-0.34846 l 0.007,-0.34523 0.0883,0.0883 c 0.15491,0.15496 0.22325,0.32055 0.22325,0.54097 0,0.22424 -0.0623,0.372 -0.23175,0.55059 -0.0627,0.066 -0.11828,0.14071 -0.14477,0.19454 -0.0405,0.0823 -0.0433,0.0978 -0.0483,0.26803 l -0.005,0.18067 h -0.10695 -0.10696 v -0.18376 c 0,-0.17702 -9.2e-4,-0.18498 -0.0332,-0.21705 -0.0441,-0.044 -0.10641,-0.044 -0.15047,0 -0.0321,0.0321 -0.0332,0.04 -0.0332,0.21705 v 0.18376 h -0.10695 -0.10695 z m 1.85899,0.11993 c 0.0635,-0.0688 0.0661,-0.0851 0.0283,-0.16859 -0.0406,-0.0894 -0.0542,-0.0953 -0.21987,-0.0958 l -0.14584,-4e-4 v -0.10853 -0.10853 l 0.14584,-4.2e-4 c 0.0993,-3e-4 0.15336,-0.006 0.16946,-0.0184 0.0338,-0.0256 0.0818,-0.14112 0.073,-0.17573 -0.004,-0.0161 -0.0535,-0.0748 -0.10968,-0.13069 l -0.10225,-0.10142 0.0772,-0.0781 0.0773,-0.0781 0.11093,0.10829 c 0.061,0.0596 0.12238,0.10814 0.13634,0.10798 0.0371,-4.2e-4 0.14203,-0.0508 0.16273,-0.078 0.0121,-0.016 0.0179,-0.0704 0.0182,-0.1693 l 4.2e-4,-0.14584 h 0.10853 0.10853 l 4.1e-4,0.14584 c 3e-4,0.0989 0.006,0.1534 0.0183,0.1693 0.0207,0.0272 0.12565,0.0775 0.16274,0.078 0.0139,1.5e-4 0.0754,-0.0485 0.13632,-0.10798 l 0.11094,-0.10829 0.0772,0.0781 0.0773,0.0781 -0.10225,0.10142 c -0.0563,0.0557 -0.10558,0.11456 -0.10968,0.13069 -0.009,0.0347 0.0391,0.15004 0.073,0.17573 0.0161,0.0122 0.0701,0.0181 0.16946,0.0184 l 0.14585,4.2e-4 v 0.10853 0.10853 l -0.14585,4e-4 c -0.16564,5.2e-4 -0.17932,0.006 -0.21987,0.0958 -0.0379,0.0836 -0.0352,0.0998 0.0283,0.16859 l 0.056,0.0607 -0.2561,-5.8e-4 c -0.25007,-5.8e-4 -0.25465,-9.1e-4 -0.19511,-0.022 0.30628,-0.10716 0.39702,-0.49 0.16997,-0.71706 -0.089,-0.089 -0.16978,-0.12104 -0.30556,-0.12144 -0.0954,-2.5e-4 -0.127,0.005 -0.1828,0.0329 -0.35311,0.17377 -0.32369,0.67586 0.0472,0.80562 0.0596,0.0209 0.0549,0.0213 -0.19512,0.022 l -0.2561,5.8e-4 z m 0.43829,-0.17836 c -0.0248,-0.0127 -0.0614,-0.0443 -0.0814,-0.0706 -0.0476,-0.0624 -0.0518,-0.18313 -0.008,-0.24127 0.12431,-0.16649 0.37307,-0.10698 0.39581,0.0947 0.0183,0.16179 -0.16275,0.29024 -0.30603,0.2172 z"
       id="path49" /></g></svg>
