<?xml version="1.0" encoding="UTF-8" standalone="no"?>
<!-- Created with Inkscape (http://www.inkscape.org/) -->

<svg
   width="8.4666662mm"
   height="8.4666586mm"
   viewBox="0 0 8.4666662 8.4666586"
   version="1.1"
   id="svg1"
   xml:space="preserve"
   xmlns="http://www.w3.org/2000/svg"
   xmlns:svg="http://www.w3.org/2000/svg"><defs
     id="defs1" /><g
     id="layer1"
     transform="translate(764.47151,136.22136)"><rect
       style="fill:#f2f2f2;fill-opacity:1;stroke:none;stroke-width:0.206225;stroke-dasharray:0.41245, 0.206225;stroke-dashoffset:0"
       id="rect15"
       width="8.4666662"
       height="8.4666662"
       x="-764.4715"
       y="-136.22136"
       rx="1.8139653"
       ry="1.8139653" /><path
       style="fill:#009ca6;fill-opacity:1;stroke-width:0.0514992"
       d="m -762.50627,-129.67262 c -0.27207,-0.039 -0.52276,-0.2212 -0.64394,-0.46806 -0.10025,-0.20432 -0.0946,-0.0943 -0.0946,-1.84629 0,-1.75239 -0.006,-1.64225 0.0948,-1.8463 0.12587,-0.25559 0.36933,-0.42885 0.65898,-0.46897 0.14866,-0.0205 4.14832,-0.0205 4.29697,0 0.28966,0.0401 0.53314,0.21338 0.659,0.46897 0.10048,0.20405 0.0948,0.0939 0.0948,1.8463 0,1.75203 0.006,1.64197 -0.0947,1.84629 -0.12476,0.25415 -0.37043,0.42873 -0.66,0.469 -0.13152,0.0183 -4.18329,0.0174 -4.31135,-8.9e-4 z m 4.33185,-0.60833 c 0.0531,-0.0276 0.0841,-0.0561 0.11397,-0.10451 l 0.0412,-0.0664 0.005,-0.9106 0.005,-0.9106 h -2.33076 -2.33075 l 0.005,0.9106 0.005,0.9106 0.0412,0.0664 c 0.0299,0.0484 0.061,0.0768 0.11397,0.10451 l 0.0727,0.0381 h 2.09526 2.09527 z m -2.53613,-0.24648 c -0.10005,-0.0325 -0.16235,-0.0856 -0.19684,-0.16826 -0.0243,-0.0582 -0.0274,-0.15486 -0.006,-0.21056 0.008,-0.0212 0.15532,-0.2503 0.32787,-0.50936 0.33809,-0.50757 0.36082,-0.53343 0.48559,-0.55212 0.12108,-0.0182 0.23544,0.0431 0.29313,0.15694 0.0441,0.087 0.0476,0.16099 0.0117,0.24026 -0.0275,0.0607 -0.58674,0.90613 -0.63341,0.95767 -0.0623,0.0687 -0.20178,0.11119 -0.28111,0.0854 z m 1.4265,-0.008 c -0.0919,-0.0327 -0.15073,-0.0959 -0.17999,-0.19309 -0.031,-0.10278 -0.0116,-0.16558 0.10689,-0.34832 0.055,-0.0848 0.10376,-0.16077 0.10843,-0.16879 0.005,-0.008 -0.0401,-0.0876 -0.0995,-0.17669 -0.12762,-0.19163 -0.14857,-0.25845 -0.11572,-0.36911 0.0385,-0.12993 0.18244,-0.22413 0.31093,-0.20359 0.0754,0.0122 0.15243,0.0549 0.19147,0.10636 0.0185,0.0245 0.1044,0.15338 0.19076,0.28654 0.1704,0.26261 0.1909,0.31664 0.15971,0.42078 -0.009,0.0297 -0.097,0.17463 -0.19593,0.32225 -0.17004,0.25388 -0.18378,0.27046 -0.25376,0.30588 -0.0814,0.0413 -0.14363,0.0462 -0.22328,0.0177 z m -2.31208,-0.0228 c -0.0262,-0.008 -0.0679,-0.0297 -0.0925,-0.0483 -0.0535,-0.0406 -0.35901,-0.49287 -0.3838,-0.56819 -0.01,-0.0289 -0.0145,-0.0827 -0.0109,-0.11954 0.006,-0.0584 0.0299,-0.102 0.19117,-0.34406 0.17459,-0.26196 0.18875,-0.27921 0.25674,-0.31308 0.0898,-0.0448 0.16094,-0.0456 0.25264,-0.003 0.0777,0.0361 0.13227,0.10298 0.1561,0.1909 0.0261,0.0966 0.006,0.15814 -0.11192,0.33614 l -0.10876,0.16457 0.10321,0.16099 c 0.11378,0.17741 0.13457,0.24839 0.10222,0.34913 -0.0481,0.15006 -0.20832,0.23795 -0.35425,0.19435 z m 3.58104,-2.63262 -0.005,-0.33154 -0.0412,-0.0664 c -0.0299,-0.0483 -0.061,-0.0768 -0.11399,-0.10452 l -0.0729,-0.0381 h -2.09526 -2.09526 l -0.0729,0.0381 c -0.0531,0.0276 -0.084,0.0561 -0.11396,0.10452 l -0.0412,0.0664 -0.005,0.33154 -0.005,0.33153 h 2.33175 2.33178 z m -2.38878,0.14219 c -0.18788,-0.0869 -0.22876,-0.32607 -0.0802,-0.47014 0.0627,-0.061 0.12379,-0.0809 0.22499,-0.0736 0.10014,0.008 0.17949,0.0587 0.22671,0.14713 0.0467,0.0872 0.0398,0.21772 -0.0156,0.29758 -0.0761,0.10987 -0.23613,0.15438 -0.35577,0.099 z m 0.84468,8.9e-4 c -0.0987,-0.0462 -0.17005,-0.15584 -0.17005,-0.26148 0,-0.15361 0.13241,-0.28614 0.28588,-0.28614 0.17097,0 0.29043,0.11831 0.29068,0.28787 1.5e-4,0.0957 -0.0489,0.18661 -0.12942,0.23989 -0.0731,0.0485 -0.19713,0.0572 -0.27709,0.0199 z m 0.84492,-8.9e-4 c -0.11909,-0.0554 -0.17611,-0.15137 -0.16774,-0.28268 0.005,-0.0678 0.0139,-0.0981 0.0457,-0.14314 0.0825,-0.11716 0.24766,-0.15625 0.37534,-0.0888 0.16694,0.088 0.19981,0.31533 0.0661,0.45696 -0.0747,0.0792 -0.21765,0.10494 -0.31941,0.0578 z"
       id="path16" /></g></svg>
