<?xml version="1.0" encoding="UTF-8" standalone="no"?>
<!-- Created with Inkscape (http://www.inkscape.org/) -->

<svg
   width="8.4666662mm"
   height="8.4666586mm"
   viewBox="0 0 8.4666662 8.4666586"
   version="1.1"
   id="svg1"
   xml:space="preserve"
   inkscape:version="1.3.2 (091e20e, 2023-11-25, custom)"
   sodipodi:docname="maiprosoft website icons.svg"
   xmlns:inkscape="http://www.inkscape.org/namespaces/inkscape"
   xmlns:sodipodi="http://sodipodi.sourceforge.net/DTD/sodipodi-0.dtd"
   xmlns="http://www.w3.org/2000/svg"
   xmlns:svg="http://www.w3.org/2000/svg"><sodipodi:namedview
     id="namedview1"
     pagecolor="#505050"
     bordercolor="#eeeeee"
     borderopacity="1"
     inkscape:showpageshadow="0"
     inkscape:pageopacity="0"
     inkscape:pagecheckerboard="0"
     inkscape:deskcolor="#d1d1d1"
     inkscape:document-units="mm"
     inkscape:zoom="0.5007929"
     inkscape:cx="-2277.3885"
     inkscape:cy="-608.03577"
     inkscape:window-width="1920"
     inkscape:window-height="991"
     inkscape:window-x="-9"
     inkscape:window-y="-9"
     inkscape:window-maximized="1"
     inkscape:current-layer="layer1"
     showguides="true"><sodipodi:guide
       position="-120.63754,311.39913"
       orientation="1,0"
       id="guide55"
       inkscape:locked="false" /><sodipodi:guide
       position="-114.72403,311.25999"
       orientation="1,0"
       id="guide56"
       inkscape:locked="false" /></sodipodi:namedview><defs
     id="defs1" /><g
     inkscape:label="Layer 1"
     inkscape:groupmode="layer"
     id="layer1"
     transform="translate(642.69173,136.22136)"><rect
       style="fill:#f2f2f2;stroke:none;stroke-width:0.206225;stroke-dasharray:0.41245, 0.206225;stroke-dashoffset:0"
       id="rect35"
       width="8.4666662"
       height="8.4666662"
       x="-642.69171"
       y="-136.22136"
       rx="1.8139653"
       ry="1.8139653" /><path
       style="fill:#009ca6;fill-opacity:1;stroke-width:0.0479134"
       d="m -637.75816,-128.76621 c -0.0231,-0.0118 -0.0574,-0.0415 -0.0761,-0.0659 l -0.034,-0.0444 -0.004,-0.594 -0.004,-0.59399 0.0733,0.0495 c 0.15129,0.10248 0.34444,0.18359 0.53596,0.22503 0.1497,0.0323 0.45879,0.0323 0.6085,0 0.19178,-0.0415 0.38334,-0.12214 0.5356,-0.22544 l 0.0729,-0.0494 v 0.57855 c 0,0.64428 9.4e-4,0.63344 -0.0865,0.70034 -0.0364,0.0278 -0.0581,0.0341 -0.11548,0.0339 -0.0678,-2e-4 -0.0837,-0.007 -0.38225,-0.18064 -0.17134,-0.0993 -0.31838,-0.18044 -0.32675,-0.18044 -0.008,0 -0.15624,0.0809 -0.32864,0.17957 -0.34107,0.19538 -0.38451,0.21088 -0.46964,0.16746 z m -2.93157,-0.90948 c -0.12967,-0.035 -0.22952,-0.12063 -0.28939,-0.24831 l -0.033,-0.0703 v -2.45302 -2.45302 l 0.0335,-0.0712 c 0.047,-0.10018 0.11404,-0.16893 0.21172,-0.21702 l 0.0839,-0.0413 h 1.89576 1.89576 l 0.0839,0.0413 c 0.0976,0.0481 0.16473,0.1168 0.21171,0.21702 l 0.0335,0.0712 0.004,1.07584 0.004,1.07582 -0.0352,-0.009 c -0.1933,-0.0502 -0.4637,-0.0584 -0.65903,-0.0203 -0.57581,0.11251 -1.03936,0.55585 -1.1908,1.13889 -0.0399,0.15347 -0.0537,0.41533 -0.0304,0.57507 0.0195,0.13467 0.0782,0.31899 0.14158,0.44516 l 0.0491,0.098 v 0.43131 0.43131 l -1.17581,-8.7e-4 c -0.8896,-6.4e-4 -1.18991,-0.005 -1.23375,-0.0165 z m 2.01168,-2.55057 c 0.0665,-0.0496 0.0873,-0.0902 0.0873,-0.17035 0,-0.0802 -0.0208,-0.12067 -0.0873,-0.17036 -0.0339,-0.0252 -0.0524,-0.0263 -0.5887,-0.03 -0.36674,-0.003 -0.56936,6.9e-4 -0.60008,0.0102 -0.12886,0.0376 -0.17854,0.2136 -0.09,0.31879 0.0631,0.0751 0.0577,0.0744 0.67742,0.0713 0.54995,-0.003 0.5674,-0.004 0.60138,-0.029 z m 0.70991,-0.81132 c 0.0665,-0.0496 0.0872,-0.0902 0.0872,-0.17036 0,-0.0802 -0.0208,-0.12069 -0.0872,-0.17036 -0.0345,-0.0257 -0.0487,-0.0262 -0.94366,-0.0299 -0.61485,-0.003 -0.92365,5.5e-4 -0.95503,0.0102 -0.12881,0.0374 -0.17855,0.21352 -0.09,0.31873 0.0648,0.0769 0.026,0.0743 1.03239,0.0712 0.90855,-0.003 0.9218,-0.003 0.95632,-0.0289 z m 0,-0.81133 c 0.0665,-0.0496 0.0872,-0.0902 0.0872,-0.17037 0,-0.0802 -0.0208,-0.12069 -0.0872,-0.17036 -0.0345,-0.0257 -0.0487,-0.0262 -0.94366,-0.0299 -0.61485,-0.003 -0.92365,5.4e-4 -0.95503,0.0102 -0.12881,0.0374 -0.17855,0.21351 -0.09,0.31871 0.0648,0.0769 0.026,0.0743 1.03239,0.0712 0.90855,-0.003 0.9218,-0.003 0.95632,-0.0289 z m 0.80987,3.66551 c -0.44155,-0.0868 -0.7715,-0.39815 -0.88849,-0.83881 -0.0348,-0.13083 -0.0327,-0.39583 0.004,-0.53137 0.10965,-0.40517 0.40336,-0.69888 0.80853,-0.80852 0.0804,-0.0218 0.13673,-0.0276 0.27255,-0.0276 0.13581,0 0.19207,0.006 0.27255,0.0276 0.40804,0.11042 0.7026,0.40854 0.81243,0.82226 0.0318,0.11984 0.0322,0.3956 9e-4,0.51236 -0.11391,0.42366 -0.3986,0.7128 -0.81333,0.82607 -0.11767,0.0321 -0.35132,0.0411 -0.46905,0.018 z m 0.20694,-0.61151 c 0.0187,-0.0135 0.13661,-0.17753 0.26212,-0.36455 l 0.22819,-0.34004 v -0.0737 c 0,-0.0795 -0.0208,-0.12025 -0.0873,-0.1698 -0.0489,-0.0365 -0.16901,-0.0365 -0.2192,-1.4e-4 -0.0196,0.0143 -0.10257,0.125 -0.1842,0.246 -0.0817,0.121 -0.15407,0.22568 -0.161,0.2326 -0.008,0.008 -0.0415,-0.007 -0.0982,-0.0432 -0.0759,-0.0493 -0.0939,-0.0558 -0.15818,-0.0558 -0.0783,0 -0.11937,0.0212 -0.1687,0.0873 -0.0365,0.049 -0.0365,0.16909 2e-5,0.21922 0.0265,0.0362 0.28653,0.22155 0.37951,0.27044 0.0616,0.0323 0.15573,0.0286 0.20694,-0.008 z"
       id="path51" /></g></svg>
