<?xml version="1.0" encoding="UTF-8" standalone="no"?>
<!-- Created with Inkscape (http://www.inkscape.org/) -->

<svg
   width="8.4666662mm"
   height="8.4666672mm"
   viewBox="0 0 8.4666662 8.4666672"
   version="1.1"
   id="svg1"
   xml:space="preserve"
   inkscape:version="1.3.2 (091e20e, 2023-11-25, custom)"
   sodipodi:docname="maiprosoft website icons.svg"
   xmlns:inkscape="http://www.inkscape.org/namespaces/inkscape"
   xmlns:sodipodi="http://sodipodi.sourceforge.net/DTD/sodipodi-0.dtd"
   xmlns="http://www.w3.org/2000/svg"
   xmlns:svg="http://www.w3.org/2000/svg"><sodipodi:namedview
     id="namedview1"
     pagecolor="#505050"
     bordercolor="#eeeeee"
     borderopacity="1"
     inkscape:showpageshadow="0"
     inkscape:pageopacity="0"
     inkscape:pagecheckerboard="0"
     inkscape:deskcolor="#d1d1d1"
     inkscape:document-units="mm"
     inkscape:zoom="0.5007929"
     inkscape:cx="-2277.3885"
     inkscape:cy="-608.03577"
     inkscape:window-width="1920"
     inkscape:window-height="991"
     inkscape:window-x="-9"
     inkscape:window-y="-9"
     inkscape:window-maximized="1"
     inkscape:current-layer="layer1"
     showguides="true"><sodipodi:guide
       position="-120.63754,293.9709"
       orientation="1,0"
       id="guide55"
       inkscape:locked="false" /><sodipodi:guide
       position="-114.72403,293.83176"
       orientation="1,0"
       id="guide56"
       inkscape:locked="false" /></sodipodi:namedview><defs
     id="defs1" /><g
     inkscape:label="Layer 1"
     inkscape:groupmode="layer"
     id="layer1"
     transform="translate(642.69173,153.64959)"><rect
       style="fill:#f2f2f2;stroke:none;stroke-width:0.206225;stroke-dasharray:0.41245, 0.206225;stroke-dashoffset:0"
       id="rect34"
       width="8.4666662"
       height="8.4666662"
       x="-642.69171"
       y="-153.64958"
       rx="1.8139653"
       ry="1.8139653" /><path
       style="fill:#009ca6;fill-opacity:1;stroke-width:0.0451861"
       d="m -641.01951,-146.75271 c -0.0189,-0.006 -0.0479,-0.0227 -0.0643,-0.0378 -0.0618,-0.0569 -0.0626,-0.0658 -0.0626,-0.61875 v -0.51431 l -0.0702,-0.0354 c -0.14683,-0.0741 -0.25935,-0.21834 -0.29485,-0.37789 -0.0164,-0.0738 -0.0186,-0.14808 -0.0144,-0.47973 0.007,-0.45472 0.0145,-0.50758 0.11646,-0.71712 0.16961,-0.34851 0.51077,-0.59076 0.89067,-0.63246 l 0.0837,-0.009 -0.0956,-0.0162 c -0.20415,-0.0346 -0.41438,-0.17811 -0.52258,-0.3566 -0.28163,-0.46461 -0.0168,-1.06632 0.51614,-1.17249 0.3535,-0.0704 0.70182,0.11005 0.85553,0.44332 0.0519,0.11253 0.0688,0.19192 0.0685,0.32163 -8.5e-4,0.36156 -0.24256,0.66663 -0.60158,0.75927 l -0.0889,0.0229 0.0897,9e-4 c 0.11866,0.002 0.22276,0.0192 0.3401,0.0579 0.0529,0.0174 0.35389,0.15991 0.66875,0.31656 0.31487,0.15667 0.57579,0.28158 0.57984,0.2776 0.004,-0.004 0.0961,-0.18305 0.20464,-0.39791 0.2195,-0.4347 0.22684,-0.44446 0.33475,-0.44446 0.0978,0 0.17926,0.0801 0.17931,0.1764 10e-6,0.0267 -0.0729,0.18473 -0.23165,0.50213 l -0.23168,0.46323 0.0129,0.063 c 0.027,0.13146 -0.0278,0.29889 -0.13312,0.40698 -0.0871,0.0895 -0.19257,0.1368 -0.31962,0.14346 -0.13512,0.008 -0.18673,-0.0105 -0.52123,-0.17789 -0.15677,-0.0785 -0.29045,-0.1426 -0.29707,-0.1426 -0.009,0 -0.0121,0.34626 -0.0121,1.03116 -3e-5,1.01296 -4.6e-4,1.03185 -0.0241,1.07072 -0.0139,0.0228 -0.0454,0.0492 -0.0747,0.0625 -0.0478,0.0217 -0.0835,0.0229 -0.64834,0.0222 -0.32878,-4.3e-4 -0.61328,-0.006 -0.63221,-0.0111 z m 2.68679,-7.1e-4 c -0.0489,-0.0142 -0.10851,-0.0827 -0.11863,-0.13664 -0.01,-0.0524 -0.0338,0.0184 0.36424,-1.07572 l 0.32188,-0.8847 -0.12833,-0.004 -0.12833,-0.004 0.0156,-0.0743 c 0.009,-0.0409 0.0157,-0.11071 0.0159,-0.15512 2.3e-4,-0.0803 0.002,-0.0833 0.19163,-0.46339 0.22517,-0.45016 0.2374,-0.47981 0.24694,-0.59875 0.0159,-0.19713 -0.0748,-0.37778 -0.24727,-0.49292 -0.11639,-0.0776 -0.29509,-0.10136 -0.43792,-0.058 -0.18712,0.0568 -0.26226,0.13845 -0.42424,0.46081 -0.0665,0.13237 -0.12238,0.24233 -0.12414,0.24438 -0.002,0.002 -0.10084,-0.0452 -0.22019,-0.10494 l -0.217,-0.10862 0.004,-0.72599 0.004,-0.72596 0.028,-0.0697 c 0.0621,-0.15386 0.20757,-0.29137 0.35922,-0.33949 0.0627,-0.02 0.16012,-0.0213 1.51362,-0.0213 1.37525,0 1.44973,9e-4 1.5099,0.0221 0.18408,0.0641 0.30481,0.18488 0.36897,0.36896 0.0208,0.0598 0.022,0.12662 0.022,1.22297 0,1.09636 -9e-4,1.16314 -0.022,1.22298 -0.0632,0.18108 -0.17936,0.29915 -0.36222,0.36786 -0.0518,0.0195 -0.11366,0.0225 -0.5665,0.0285 l -0.50843,0.007 0.33221,0.90264 c 0.18272,0.49645 0.34099,0.93316 0.35172,0.97047 0.0192,0.0667 0.019,0.0688 -0.009,0.12533 -0.0654,0.13154 -0.22094,0.14206 -0.30358,0.0206 -0.0131,-0.0193 -0.188,-0.483 -0.38855,-1.03035 l -0.36465,-0.9952 -0.0649,0.004 -0.0649,0.004 -0.36642,1.00729 c -0.35867,0.98594 -0.3843,1.04846 -0.44225,1.07847 -0.0325,0.0168 -0.10095,0.0223 -0.13926,0.0113 z m 2.04409,-2.8845 c 0.0511,-0.0214 0.10076,-0.0814 0.11061,-0.134 0.0109,-0.058 -0.0225,-0.14104 -0.0706,-0.17532 -0.0379,-0.027 -0.0388,-0.0271 -0.51016,-0.0271 -0.45365,0 -0.4735,9.1e-4 -0.50411,0.0239 -0.0965,0.0724 -0.0972,0.22247 -9e-4,0.29057 0.0182,0.0129 0.0438,0.0261 0.0569,0.0294 0.0132,0.004 0.21642,0.007 0.45171,0.008 0.33675,9.1e-4 0.4361,-0.002 0.46682,-0.015 z m 0.0161,-0.67991 c 0.12533,-0.0685 0.12533,-0.24862 0,-0.31719 -0.0341,-0.0187 -0.0832,-0.0207 -0.48625,-0.0207 -0.42938,0 -0.45008,9.1e-4 -0.48975,0.0243 -0.14018,0.0824 -0.10822,0.28986 0.0506,0.32904 0.0212,0.006 0.22954,0.009 0.46298,0.008 0.37774,-0.002 0.42859,-0.005 0.46233,-0.0228 z m 0.005,-0.67656 c 0.0258,-0.0134 0.0523,-0.0421 0.0693,-0.0747 0.045,-0.0861 0.023,-0.16794 -0.0622,-0.23151 -0.0327,-0.0244 -0.0415,-0.0246 -1.05346,-0.0246 -1.01199,0 -1.02071,2.3e-4 -1.05345,0.0246 -0.11264,0.0841 -0.1148,0.22592 -0.005,0.30114 l 0.0394,0.0269 h 1.01164 c 0.95592,0 1.01394,-9e-4 1.0533,-0.0219 z"
       id="path50" /></g></svg>
