<?xml version="1.0" encoding="UTF-8" standalone="no"?>
<!-- Created with Inkscape (http://www.inkscape.org/) -->

<svg
   width="22.023376"
   height="22.050568"
   viewBox="0 0 5.8270182 5.8342126"
   version="1.1"
   id="svg1"
   xml:space="preserve"
   inkscape:version="1.3.2 (091e20e, 2023-11-25, custom)"
   sodipodi:docname="Expertise ERP icon.svg"
   xmlns:inkscape="http://www.inkscape.org/namespaces/inkscape"
   xmlns:sodipodi="http://sodipodi.sourceforge.net/DTD/sodipodi-0.dtd"
   xmlns="http://www.w3.org/2000/svg"
   xmlns:svg="http://www.w3.org/2000/svg"><sodipodi:namedview
     id="namedview1"
     pagecolor="#ffffff"
     bordercolor="#eeeeee"
     borderopacity="1"
     inkscape:showpageshadow="0"
     inkscape:pageopacity="0"
     inkscape:pagecheckerboard="0"
     inkscape:deskcolor="#d1d1d1"
     inkscape:document-units="mm"
     inkscape:zoom="2.5573507"
     inkscape:cx="288.77541"
     inkscape:cy="35.388185"
     inkscape:window-width="1920"
     inkscape:window-height="991"
     inkscape:window-x="-9"
     inkscape:window-y="-9"
     inkscape:window-maximized="1"
     inkscape:current-layer="layer1" /><defs
     id="defs1" /><g
     inkscape:label="Layer 1"
     inkscape:groupmode="layer"
     id="layer1"
     transform="translate(-78.226518,-37.132958)"><path
       style="fill:#1d8bf2;fill-opacity:1;stroke-width:0.0431014"
       d="m 78.966819,42.952968 c -0.256357,-0.06362 -0.428153,-0.321683 -0.384322,-0.577293 0.03755,-0.218955 0.204395,-0.38622 0.422581,-0.423633 0.210964,-0.03618 0.432755,0.07517 0.532203,0.267186 l 0.03395,0.06555 0.185312,2.7e-5 0.185312,2.7e-5 v -0.51206 -0.512059 l -0.344964,-0.0055 c -0.365044,-0.0059 -0.419061,-0.01241 -0.568555,-0.06869 -0.41158,-0.154931 -0.69504,-0.484078 -0.78749,-0.914411 -0.02147,-0.09999 -0.0182,-0.368932 0.0057,-0.467559 0.0815,-0.336078 0.290406,-0.616566 0.584575,-0.784887 0.08049,-0.04606 0.08341,-0.04925 0.09024,-0.09891 0.01224,-0.08908 0.05162,-0.207798 0.100204,-0.302203 0.06568,-0.127624 0.21687,-0.278785 0.344364,-0.344286 0.119764,-0.06153 0.22604,-0.09316 0.343326,-0.102174 l 0.09552,-0.0073 0.05383,-0.09182 c 0.129798,-0.2214 0.333983,-0.445381 0.53964,-0.591963 0.12301,-0.08767 0.360875,-0.209461 0.495802,-0.253853 0.700884,-0.23059 1.467168,-0.02988 1.965394,0.51479 0.173602,0.189789 0.318335,0.431913 0.400635,0.670223 0.04116,0.119145 0.08655,0.33861 0.09749,0.471164 0.0063,0.0771 0.01146,0.09486 0.02883,0.100376 0.01162,0.0037 0.05855,0.03126 0.104332,0.06128 0.284702,0.186701 0.466482,0.442996 0.541749,0.763813 0.03234,0.137936 0.02676,0.384025 -0.01212,0.531779 -0.11339,0.43113 -0.447542,0.765377 -0.879765,0.880017 -0.108612,0.0288 -0.130439,0.03048 -0.459003,0.03524 l -0.344969,0.005 v 0.512059 0.51206 l 0.185313,-2.7e-5 0.185316,-2.7e-5 0.03395,-0.06554 c 0.104981,-0.202704 0.339289,-0.311711 0.567045,-0.263807 0.207312,0.04361 0.354857,0.203007 0.388381,0.419596 0.04294,0.277393 -0.14497,0.536997 -0.423227,0.584712 -0.210964,0.03618 -0.432752,-0.07517 -0.532199,-0.267187 l -0.03395,-0.06554 -0.356372,-2.7e-5 -0.356371,-2.8e-5 v -0.68426 -0.684233 h -0.342118 -0.342119 l 3e-5,0.356371 2.8e-5,0.356372 0.06555,0.03394 c 0.191475,0.09917 0.303351,0.321299 0.267404,0.530929 -0.03748,0.218446 -0.204904,0.386305 -0.422581,0.423634 -0.272921,0.0468 -0.537725,-0.14478 -0.585541,-0.423634 -0.03595,-0.20963 0.07593,-0.431762 0.267404,-0.530929 l 0.06554,-0.03394 2.4e-5,-0.356372 2.9e-5,-0.356371 h -0.342064 -0.342113 v 0.684233 0.684232 l -0.356372,2.8e-5 -0.356371,2.7e-5 -0.03395,0.06554 c -0.10614,0.204937 -0.34841,0.315537 -0.570462,0.260427 z m 2.05994,-2.349759 c 0.0388,-0.03265 0.09602,-0.046 0.152079,-0.03547 0.02175,0.0041 0.05458,0.02005 0.07291,0.03547 0.01832,0.01544 0.03702,0.02805 0.04153,0.02805 0.01477,0 0.27911,-0.165121 0.279213,-0.174398 2.15e-4,-0.01837 -0.109035,-0.124952 -0.156715,-0.152896 -0.163027,-0.09554 -0.390034,-0.09554 -0.553058,0 -0.0477,0.02796 -0.156939,0.13454 -0.156703,0.152896 1.29e-4,0.0097 0.261313,0.173413 0.277634,0.174028 0.0054,2.03e-4 0.02478,-0.01226 0.0431,-0.02769 z m -0.560328,-0.397141 c 0.105986,-0.144742 0.279899,-0.258557 0.467626,-0.30603 0.0791,-0.02 0.118896,-0.02319 0.238452,-0.01908 0.123012,0.0042 0.157779,0.0099 0.24342,0.03989 0.05495,0.01923 0.128615,0.05222 0.163698,0.07333 0.0843,0.05072 0.196297,0.153984 0.244759,0.225672 0.02147,0.03174 0.0447,0.05647 0.05164,0.05495 0.02796,-0.0062 0.277551,-0.163298 0.277857,-0.174973 4.14e-4,-0.01887 -0.107393,-0.157468 -0.173488,-0.222873 -0.250727,-0.248102 -0.601027,-0.372705 -0.954329,-0.339462 -0.275135,0.02589 -0.536835,0.148344 -0.730147,0.341653 -0.06671,0.06671 -0.171812,0.202232 -0.171146,0.220682 4.14e-4,0.0129 0.258454,0.175795 0.27894,0.176132 0.0063,1.03e-4 0.0345,-0.03135 0.06272,-0.0699 z m -0.574864,-0.375925 c 0.137756,-0.197407 0.37407,-0.393624 0.599489,-0.497768 0.206022,-0.09518 0.407138,-0.137999 0.648204,-0.137999 0.328026,0 0.605644,0.08459 0.870562,0.265249 0.129765,0.0885 0.290699,0.24666 0.377407,0.370918 l 0.06594,0.09448 0.04153,-0.02427 c 0.02283,-0.01335 0.08874,-0.05322 0.146449,-0.0886 l 0.104915,-0.06433 -0.02055,-0.03245 C 82.607718,39.52933 82.377418,39.291552 82.200295,39.1731 c -0.327212,-0.218824 -0.669098,-0.322852 -1.06104,-0.322852 -0.391325,0 -0.730643,0.103067 -1.061044,0.322286 -0.136986,0.09089 -0.390113,0.341648 -0.481694,0.477178 -0.03574,0.05286 -0.06372,0.09717 -0.06223,0.09845 0.0054,0.0046 0.287158,0.176059 0.289362,0.176059 0.0013,0 0.03181,-0.04234 0.06792,-0.09408 z"
       id="path14" /></g></svg>
