<?xml version="1.0" encoding="UTF-8" standalone="no"?>
<!-- Created with Inkscape (http://www.inkscape.org/) -->

<svg
   width="22.929062"
   height="22.939638"
   viewBox="0 0 6.0666475 6.0694459"
   version="1.1"
   id="svg1"
   xml:space="preserve"
   inkscape:version="1.3.2 (091e20e, 2023-11-25, custom)"
   sodipodi:docname="Expertise ERP icon.svg"
   xmlns:inkscape="http://www.inkscape.org/namespaces/inkscape"
   xmlns:sodipodi="http://sodipodi.sourceforge.net/DTD/sodipodi-0.dtd"
   xmlns="http://www.w3.org/2000/svg"
   xmlns:svg="http://www.w3.org/2000/svg"><sodipodi:namedview
     id="namedview1"
     pagecolor="#ffffff"
     bordercolor="#eeeeee"
     borderopacity="1"
     inkscape:showpageshadow="0"
     inkscape:pageopacity="0"
     inkscape:pagecheckerboard="0"
     inkscape:deskcolor="#d1d1d1"
     inkscape:document-units="mm"
     inkscape:zoom="1.4164562"
     inkscape:cx="319.45922"
     inkscape:cy="438.06507"
     inkscape:window-width="1920"
     inkscape:window-height="991"
     inkscape:window-x="-9"
     inkscape:window-y="-9"
     inkscape:window-maximized="1"
     inkscape:current-layer="layer1" /><defs
     id="defs1" /><g
     inkscape:label="Layer 1"
     inkscape:groupmode="layer"
     id="layer1"
     transform="translate(-23.001852,-1.1526479)"><path
       style="fill:#1d8bf2;fill-opacity:1;stroke-width:0.0478761"
       d="M 25.807455,7.218648 C 25.064093,7.1509407 24.397675,6.84389 23.887649,6.3341039 23.418565,5.8652415 23.128447,5.2835695 23.024914,4.6043643 c -0.03055,-0.2003976 -0.03082,-0.6337079 -3.85e-4,-0.8367781 0.202808,-1.3599967 1.229055,-2.3858505 2.593078,-2.5920859 0.202084,-0.030555 0.635131,-0.03045 0.836042,1.964e-4 0.668733,0.1020167 1.256394,0.3943995 1.721342,0.8564337 0.399916,0.3974048 0.68687,0.9091614 0.817498,1.4579274 0.05905,0.2480437 0.07601,0.4034424 0.07601,0.6962856 0,0.3793283 -0.04155,0.6354515 -0.160299,0.9880468 -0.06249,0.1855551 -0.215924,0.5005916 -0.326975,0.6713646 -0.473161,0.727601 -1.246955,1.221183 -2.115715,1.3495572 -0.12878,0.019032 -0.543616,0.033738 -0.657893,0.023336 z m 0.532357,-0.1821548 c 0.656597,-0.077394 1.216789,-0.3401415 1.678181,-0.7871077 0.253322,-0.2454029 0.436859,-0.4941654 0.582851,-0.7899806 0.20532,-0.416034 0.297423,-0.812851 0.297423,-1.2814305 0,-0.4475111 -0.09318,-0.8482501 -0.291128,-1.2520227 C 28.179527,2.0537107 27.354398,1.4647991 26.387471,1.341728 26.166952,1.313661 25.752533,1.3225374 25.55411,1.35958 25.254893,1.415438 25.030715,1.4888118 24.775075,1.6145556 24.192529,1.901099 23.74983,2.3437414 23.463508,2.9259528 c -0.198342,0.403307 -0.290842,0.8041715 -0.290842,1.2603928 0,0.4563931 0.09179,0.8537792 0.291128,1.2603929 0.2844,0.5801166 0.731555,1.0272468 1.311281,1.3112026 0.276281,0.1353265 0.585146,0.2315466 0.848704,0.2643975 0.0627,0.00782 0.128257,0.016269 0.145677,0.01879 0.07173,0.010347 0.470657,0.00715 0.570356,-0.00462 z m -1.963758,-0.692837 c -0.05144,-0.018383 -0.06803,-0.098242 -0.02797,-0.1345153 0.04281,-0.038736 0.239782,-0.1222782 0.390817,-0.1657503 0.176774,-0.050877 0.476241,-0.1037239 0.65891,-0.1162615 0.0708,-0.00484 0.135744,-0.013176 0.144316,-0.018471 0.01879,-0.011602 0.03553,-0.1056833 0.03653,-0.2054093 l 7.71e-4,-0.072837 h 0.340176 0.340171 l 0.0072,0.1292393 c 0.0054,0.097075 0.01211,0.1328774 0.02712,0.1438585 0.01101,0.00804 0.07845,0.018636 0.149892,0.023534 0.183727,0.012615 0.482663,0.065308 0.661493,0.1165918 0.172192,0.04938 0.379039,0.1439895 0.39985,0.1828769 0.0206,0.038482 0.01024,0.075831 -0.02905,0.1050778 L 27.4413,6.3576231 27.34552,6.3096191 C 26.97996,6.126438 26.311158,6.0336203 25.636473,6.0724406 c -0.51077,0.02939 -0.858781,0.1002456 -1.130278,0.2301223 -0.05734,0.027431 -0.105794,0.049424 -0.107676,0.048873 -0.002,-5.405e-4 -0.01195,-0.00407 -0.02241,-0.00782 z M 23.900798,5.4481486 c -0.05176,-0.022631 -0.115927,-0.098198 -0.132799,-0.1563752 -0.0097,-0.033485 -0.01273,-0.4278857 -0.01002,-1.3228507 l 0.0039,-1.2751396 0.038,-0.053794 c 0.0209,-0.029588 0.06079,-0.065704 0.08867,-0.080256 0.04985,-0.026033 0.06555,-0.026517 0.978291,-0.02994 l 0.927625,-0.00352 -0.0074,0.037029 c -0.0041,0.020364 -0.0012,0.065286 0.0061,0.099827 0.01257,0.05856 0.01057,0.069446 -0.02943,0.1615069 -0.03452,0.07943 -0.05459,0.1076206 -0.102723,0.144334 -0.03418,0.026077 -0.07663,0.075468 -0.09907,0.1152939 -0.03888,0.069017 -0.03925,0.071395 -0.03925,0.2533449 0,0.1819512 3.85e-4,0.1843299 0.03925,0.253346 0.02246,0.039825 0.06488,0.089216 0.09907,0.115294 0.04814,0.03671 0.0682,0.0649 0.102723,0.144334 0.03976,0.091439 0.04194,0.1032396 0.0297,0.160219 -0.01543,0.071934 0.0012,0.1703921 0.03902,0.2315786 0.01326,0.021421 0.07733,0.09112 0.142393,0.1549034 0.103768,0.1017206 0.127527,0.1186491 0.193485,0.1378231 0.05999,0.017436 0.0889,0.019373 0.142994,0.00958 0.0623,-0.011294 0.07612,-0.00892 0.170217,0.028994 0.0858,0.034597 0.109823,0.051009 0.148122,0.1012252 0.02615,0.034289 0.07527,0.076524 0.11479,0.098694 0.06436,0.036116 0.0796,0.03911 0.222898,0.043887 0.11511,0.00385 0.171131,8.59e-5 0.222609,-0.014882 0.07426,-0.021586 0.165055,-0.090119 0.194284,-0.1466423 0.01312,-0.025361 0.04641,-0.046595 0.125794,-0.08019 0.09643,-0.040816 0.113069,-0.044294 0.155802,-0.032494 0.110658,0.030557 0.219581,-0.00991 0.351633,-0.1305823 l 0.07147,-0.065319 -0.0039,0.4736595 c -0.0042,0.5322723 -0.0015,0.51693 -0.103097,0.5989889 l -0.04868,0.039341 -1.997083,0.00275 c -1.631177,0.0022 -2.004091,-3.302e-4 -2.035325,-0.01399 z m 0.688213,-0.603599 c 0.05199,-0.048433 0.03765,-0.08161 -0.09236,-0.2139566 l -0.12009,-0.1222309 0.12009,-0.1195902 c 0.07362,-0.073321 0.12009,-0.1296236 0.12009,-0.1455217 0,-0.045428 -0.03569,-0.082237 -0.07971,-0.082237 -0.0346,0 -0.06219,0.021872 -0.195626,0.1549838 -0.131183,0.1308674 -0.155353,0.1610237 -0.155353,0.1938019 0,0.032935 0.02461,0.063172 0.162594,0.1996986 0.09793,0.096899 0.172547,0.1608827 0.187622,0.1608827 0.01377,0 0.03749,-0.011624 0.05275,-0.025835 z m 0.407021,0.00363 c 0.02133,-0.017282 0.04264,-0.082578 0.09609,-0.2945141 0.07376,-0.2925482 0.0803,-0.341852 0.0494,-0.3727414 -0.02728,-0.027266 -0.08555,-0.02502 -0.112098,0.00429 -0.02041,0.022554 -0.159343,0.5550359 -0.159343,0.6107219 0,0.030689 0.04383,0.074422 0.0746,0.074422 0.01315,0 0.03626,-0.010017 0.05135,-0.022202 z m 0.69271,-0.1329676 c 0.09664,-0.09636 0.158796,-0.1685869 0.164007,-0.1905602 0.0077,-0.032351 -0.0055,-0.049446 -0.153992,-0.1995092 -0.141749,-0.1432561 -0.167617,-0.164122 -0.203472,-0.164122 -0.04426,0 -0.08051,0.036292 -0.08051,0.080597 0,0.013638 0.05267,0.0779 0.120109,0.1465443 l 0.120113,0.122254 -0.102029,0.100818 c -0.09583,0.094687 -0.138192,0.1508163 -0.138192,0.1830992 0,0.024459 0.06123,0.076062 0.09027,0.076062 0.01902,0 0.0784,-0.050161 0.183698,-0.1551731 z m 1.137011,-0.08598 c -0.04731,-0.023413 -0.07981,-0.065517 -0.09757,-0.1263786 -0.0031,-0.010567 -0.04469,-0.031845 -0.09265,-0.047387 -0.04787,-0.015521 -0.124603,-0.0472 -0.170499,-0.070404 l -0.08345,-0.042192 -0.04303,0.023072 C 26.249913,4.413486 26.189803,4.3894015 26.058677,4.2538273 25.947208,4.138573 25.931674,4.0979596 25.966126,4.011862 c 0.02118,-0.052935 0.02118,-0.053001 -0.02346,-0.1577467 -0.02457,-0.057635 -0.05444,-0.1352121 -0.06641,-0.1723911 -0.01195,-0.037183 -0.03094,-0.070316 -0.04212,-0.07364 -0.117262,-0.034839 -0.15348,-0.099024 -0.153078,-0.2712772 3.82e-4,-0.1751518 0.03387,-0.2337339 0.154231,-0.2700543 0.01218,-0.00363 0.02774,-0.02961 0.03587,-0.059793 0.0079,-0.029313 0.03726,-0.106707 0.06525,-0.1719684 l 0.0509,-0.1186667 -0.02118,-0.052935 c -0.03444,-0.086079 -0.0189,-0.1266978 0.09256,-0.2419466 0.131531,-0.135998 0.190202,-0.1592734 0.282669,-0.1121326 0.04512,0.023006 0.04535,0.022984 0.104714,-0.011008 0.03271,-0.018735 0.108303,-0.050492 0.167957,-0.070558 0.06087,-0.020485 0.110944,-0.044823 0.114111,-0.055489 0.03545,-0.1193283 0.09367,-0.1520063 0.270792,-0.1520063 0.17534,0 0.224869,0.023501 0.259053,0.122942 0.01165,0.033936 0.02638,0.050337 0.05238,0.058417 0.0199,0.00616 0.09939,0.036446 0.176656,0.067245 0.133992,0.053409 0.142196,0.055115 0.177342,0.036787 0.04362,-0.022742 0.09744,-0.024844 0.135855,-0.00528 0.03991,0.020309 0.209956,0.1887868 0.231276,0.2291338 0.02341,0.044294 0.02284,0.095711 -0.0015,0.1425464 -0.01848,0.035433 -0.01747,0.042148 0.01913,0.1266724 0.02126,0.049094 0.05169,0.1283544 0.06766,0.176137 0.02658,0.079518 0.03302,0.088247 0.07608,0.1030525 0.100521,0.034564 0.122818,0.081863 0.122818,0.2606032 0,0.1748062 -0.02361,0.2248035 -0.122119,0.2586715 -0.04331,0.014893 -0.04904,0.023325 -0.08718,0.1283874 -0.02246,0.061851 -0.0527,0.1394235 -0.06722,0.17239 -0.02418,0.05495 -0.02484,0.063612 -0.0079,0.1040982 0.04041,0.096723 0.02203,0.1399277 -0.117162,0.2751024 -0.115519,0.1121931 -0.162062,0.1300176 -0.243562,0.093267 -0.04795,-0.021619 -0.04874,-0.021509 -0.141703,0.019318 -0.05142,0.022576 -0.129729,0.053298 -0.174028,0.068247 -0.07268,0.024536 -0.08213,0.03179 -0.09672,0.074246 -0.03395,0.098705 -0.08408,0.1228209 -0.255339,0.1228066 -0.09996,-7.7e-6 -0.135111,-0.00517 -0.176848,-0.025791 z m 0.388054,-0.5924836 c 0.133648,-0.046606 0.207352,-0.092926 0.303731,-0.1908694 0.182549,-0.1855253 0.24723,-0.4031034 0.195494,-0.6576129 -0.07002,-0.344452 -0.349398,-0.57338 -0.702188,-0.57539 -0.14502,-8.101e-4 -0.248902,0.023699 -0.370113,0.0874 -0.183584,0.09647 -0.319813,0.2882322 -0.358317,0.5043738 -0.02287,0.1284546 -0.02287,0.1691769 1.43e-4,0.2786666 0.05854,0.2788108 0.284118,0.5069848 0.563636,0.570114 0.104924,0.023699 0.273828,0.016027 0.367637,-0.016676 z"
       id="path2" /></g></svg>
