<?xml version="1.0" encoding="UTF-8" standalone="no"?>
<!-- Created with Inkscape (http://www.inkscape.org/) -->

<svg
   width="20.306854"
   height="20.306885"
   viewBox="0 0 5.3728551 5.3728632"
   version="1.1"
   id="svg1"
   xml:space="preserve"
   inkscape:version="1.3.2 (091e20e, 2023-11-25, custom)"
   sodipodi:docname="Expertise ERP icon.svg"
   xmlns:inkscape="http://www.inkscape.org/namespaces/inkscape"
   xmlns:sodipodi="http://sodipodi.sourceforge.net/DTD/sodipodi-0.dtd"
   xmlns="http://www.w3.org/2000/svg"
   xmlns:svg="http://www.w3.org/2000/svg"><sodipodi:namedview
     id="namedview1"
     pagecolor="#ffffff"
     bordercolor="#eeeeee"
     borderopacity="1"
     inkscape:showpageshadow="0"
     inkscape:pageopacity="0"
     inkscape:pagecheckerboard="0"
     inkscape:deskcolor="#d1d1d1"
     inkscape:document-units="mm"
     inkscape:zoom="2.24454"
     inkscape:cx="258.6276"
     inkscape:cy="182.44273"
     inkscape:window-width="1920"
     inkscape:window-height="991"
     inkscape:window-x="-9"
     inkscape:window-y="-9"
     inkscape:window-maximized="1"
     inkscape:current-layer="layer1" /><defs
     id="defs1" /><g
     inkscape:label="Layer 1"
     inkscape:groupmode="layer"
     id="layer1"
     transform="translate(-30.531882,-37.363583)"><path
       style="fill:#1d8bf2;fill-opacity:1;stroke-width:0.476906"
       d="m 30.531881,41.471936 v -1.26451 h 2.686428 2.686428 v 1.26451 1.264511 h -2.686428 -2.686428 z m 1.899384,0.634879 v -0.157408 h -0.236109 -0.236117 v -0.157128 -0.157127 l 0.154791,-0.0029 0.154782,-0.0029 v -0.157406 -0.157408 l -0.154782,-0.0029 -0.154791,-0.0029 V 41.151728 40.9946 h 0.236117 0.236109 v -0.157669 -0.157534 l -0.396144,0.0027 -0.396144,0.0028 -0.0025,0.789663 -0.0025,0.789664 h 0.398829 0.398837 z M 33.0609,41.949407 v -0.314816 h 0.103383 c 0.09002,0 0.108001,0.0031 0.139042,0.02382 0.06798,0.04542 0.07237,0.06659 0.07237,0.351336 l 1.7e-5,0.254476 h 0.158144 0.158134 l -0.0034,-0.296452 -0.0034,-0.296451 -0.0293,-0.06252 c -0.01613,-0.03439 -0.04138,-0.07834 -0.05607,-0.09768 l -0.02685,-0.03516 0.02668,-0.03874 c 0.01469,-0.0213 0.03994,-0.06707 0.05598,-0.101701 0.02618,-0.05626 0.0293,-0.07471 0.02939,-0.173149 7.6e-5,-0.09022 -0.0042,-0.121897 -0.02449,-0.174811 -0.04619,-0.121673 -0.152697,-0.226434 -0.282527,-0.277877 -0.05641,-0.02233 -0.07853,-0.02412 -0.346188,-0.02782 l -0.285955,-0.004 v 0.793163 0.793163 h 0.157409 0.157409 z m 0,-0.798754 v -0.158629 l 0.104649,0.0042 c 0.08444,0.0034 0.110164,0.0084 0.133149,0.02548 0.09801,0.07318 0.100241,0.199884 0.0042,0.263754 -0.03108,0.02074 -0.04906,0.02382 -0.139043,0.02382 h -0.103399 z m 1.259262,0.798754 v -0.314816 l 0.08132,-7.9e-5 c 0.181871,-1.77e-4 0.306111,-0.0422 0.407062,-0.137672 0.06857,-0.06488 0.12614,-0.173077 0.141601,-0.266263 0.04062,-0.244576 -0.128623,-0.487193 -0.37603,-0.539232 -0.03217,-0.0068 -0.163809,-0.01169 -0.312191,-0.01169 h -0.256586 v 0.792287 0.792287 h 0.157408 0.157409 z m 0.0025,-0.79491 0.0025,-0.154785 0.09969,4.23e-4 c 0.114613,4.86e-4 0.153093,0.01511 0.187875,0.0714 0.02854,0.04613 0.02947,0.126466 0.0017,0.168059 -0.03834,0.05817 -0.06899,0.06955 -0.187614,0.06962 l -0.107841,6.9e-5 z m -3.476005,-1.559686 v -0.297799 l 0.04458,-0.01154 c 0.02449,-0.0063 0.151616,-0.03822 0.282417,-0.07083 l 0.237823,-0.05929 0.02314,-0.06424 c 0.01275,-0.03534 0.0396,-0.100476 0.0597,-0.144758 l 0.03656,-0.08052 -0.149353,-0.248673 -0.149353,-0.248672 0.310215,-0.310215 0.310216,-0.310215 0.24918,0.149418 0.249172,0.149419 0.07946,-0.03606 c 0.04374,-0.01984 0.108526,-0.04654 0.144042,-0.05936 l 0.0646,-0.0233 0.07051,-0.282297 0.07051,-0.282297 h 0.438204 0.438205 l 0.07059,0.282875 0.07068,0.282875 0.05396,0.0175 c 0.02964,0.0096 0.09439,0.03609 0.143847,0.05881 l 0.08991,0.04132 0.249223,-0.149445 0.249223,-0.149446 0.310215,0.310215 0.310216,0.310215 -0.149353,0.248672 -0.149353,0.248673 0.03656,0.08052 c 0.0201,0.04428 0.04678,0.109012 0.05936,0.143846 l 0.02288,0.06333 0.248648,0.06167 c 0.136755,0.03392 0.263992,0.06585 0.282747,0.07096 l 0.03411,0.0093 v 0.29858 0.298581 h -0.795496 -0.79548 l 0.0042,-0.123302 c 0.0051,-0.161923 -0.01284,-0.248678 -0.08191,-0.388407 -0.09252,-0.187192 -0.254932,-0.328567 -0.456276,-0.397164 -0.118531,-0.04038 -0.309666,-0.04766 -0.432952,-0.01648 -0.225992,0.05715 -0.418597,0.210749 -0.519075,0.413952 -0.06544,0.132406 -0.07634,0.183324 -0.07634,0.35662 v 0.154784 h -0.794923 -0.794913 z m 1.910758,0.244812 c -0.03395,-0.158237 0.0084,-0.31123 0.118194,-0.427347 0.09269,-0.098 0.210422,-0.149299 0.342667,-0.149299 0.132245,0 0.249974,0.05129 0.342658,0.149299 0.109817,0.116117 0.152139,0.26911 0.118202,0.427347 l -0.0114,0.05299 h -0.449502 -0.449495 z"
       id="path24"
       inkscape:export-filename="ERP.svg"
       inkscape:export-xdpi="96"
       inkscape:export-ydpi="96" /></g></svg>
