<?xml version="1.0" encoding="UTF-8" standalone="no"?>
<!-- Created with Inkscape (http://www.inkscape.org/) -->

<svg
   width="19.546295"
   height="21.513718"
   viewBox="0 0 5.1716238 5.6921711"
   version="1.1"
   id="svg1"
   xml:space="preserve"
   inkscape:version="1.3.2 (091e20e, 2023-11-25, custom)"
   sodipodi:docname="Expertise ERP icon.svg"
   xmlns:inkscape="http://www.inkscape.org/namespaces/inkscape"
   xmlns:sodipodi="http://sodipodi.sourceforge.net/DTD/sodipodi-0.dtd"
   xmlns="http://www.w3.org/2000/svg"
   xmlns:svg="http://www.w3.org/2000/svg"><sodipodi:namedview
     id="namedview1"
     pagecolor="#ffffff"
     bordercolor="#eeeeee"
     borderopacity="1"
     inkscape:showpageshadow="0"
     inkscape:pageopacity="0"
     inkscape:pagecheckerboard="0"
     inkscape:deskcolor="#d1d1d1"
     inkscape:document-units="mm"
     inkscape:zoom="2.5573507"
     inkscape:cx="288.77541"
     inkscape:cy="35.388185"
     inkscape:window-width="1920"
     inkscape:window-height="991"
     inkscape:window-x="-9"
     inkscape:window-y="-9"
     inkscape:window-maximized="1"
     inkscape:current-layer="layer1" /><defs
     id="defs1" /><g
     inkscape:label="Layer 1"
     inkscape:groupmode="layer"
     id="layer1"
     transform="translate(-43.782803,-37.203892)"><path
       style="fill:#1d8bf2;fill-opacity:1;stroke-width:0.376049"
       d="m 45.638986,42.877404 c -0.09295,-0.04245 -0.107214,-0.07158 -0.178533,-0.364699 -0.0355,-0.145913 -0.06781,-0.269223 -0.0718,-0.274023 -0.004,-0.0048 -0.0794,0.0035 -0.167581,0.01861 -0.44981,0.0767 -0.711969,0.06497 -0.854427,-0.03823 -0.131068,-0.09495 -0.152238,-0.255558 -0.06695,-0.507893 0.03726,-0.110215 0.0379,-0.114393 0.01755,-0.114393 -0.0083,0 -0.03595,-0.01517 -0.06154,-0.0337 -0.11991,-0.08686 -0.12254,-0.217339 -0.0058,-0.289468 l 0.03956,-0.02445 -0.0481,-0.02721 c -0.06831,-0.03865 -0.09498,-0.06656 -0.11588,-0.121287 -0.02201,-0.05765 -0.01537,-0.09305 0.02932,-0.156176 l 0.03267,-0.04616 -0.08052,-0.0073 c -0.168194,-0.01527 -0.255311,-0.04691 -0.301799,-0.109589 -0.01753,-0.02363 -0.02296,-0.04684 -0.0223,-0.09532 0.0012,-0.08806 0.05047,-0.190994 0.166531,-0.347859 0.111626,-0.150877 0.215007,-0.322122 0.267266,-0.442713 0.05897,-0.136072 0.08227,-0.242674 0.09005,-0.411932 l 0.0069,-0.150146 0.03603,-0.03615 0.03603,-0.03615 h 0.151255 0.151259 v -0.308692 c 0,-0.300788 -6.02e-4,-0.309111 -0.02316,-0.323205 -0.01274,-0.0079 -0.03324,-0.03725 -0.04556,-0.0651 -0.07471,-0.168902 0.128556,-0.325797 0.268995,-0.207626 0.08581,0.07221 0.09006,0.183047 0.01019,0.265879 l -0.03287,0.03409 0.003,0.299571 0.003,0.299571 0.197414,0.003 0.197414,0.003 V 38.61827 37.974882 l -0.02924,-0.02696 c -0.1184,-0.109189 -0.04263,-0.303728 0.1183,-0.303728 0.06619,0 0.120392,0.03135 0.152653,0.08831 0.04133,0.07295 0.02769,0.158049 -0.03453,0.215416 l -0.02923,0.02696 v 0.643132 0.643131 h 0.116782 0.116781 v 0.348565 0.348564 l 0.03389,0.06782 c 0.03804,0.07612 0.09082,0.1279 0.165743,0.162564 0.04978,0.02304 0.06224,0.02342 0.756854,0.02342 h 0.706242 l 0.05267,-0.02618 c 0.06721,-0.0334 0.133474,-0.09967 0.166291,-0.166291 0.02499,-0.05074 0.02581,-0.06221 0.02908,-0.405337 l 0.0034,-0.353121 h 0.110637 0.11064 v -0.649459 c 0,-0.565915 -0.0021,-0.650261 -0.01662,-0.655819 -0.03203,-0.01229 -0.06115,-0.07709 -0.0612,-0.136162 -5.3e-5,-0.0733 0.03254,-0.123644 0.102541,-0.158381 0.06963,-0.03455 0.127787,-0.02575 0.187773,0.02845 0.07692,0.0695 0.08074,0.171078 0.0095,0.252244 l -0.0329,0.03747 v 0.640821 0.640822 h 0.194633 0.194634 v -0.311761 c 0,-0.264968 -0.0024,-0.312711 -0.01646,-0.318078 -0.03205,-0.0123 -0.06396,-0.08093 -0.06396,-0.137572 0,-0.137534 0.145877,-0.222371 0.261752,-0.152224 0.05887,0.03563 0.08543,0.0801 0.08552,0.143159 9.1e-5,0.06474 -0.01178,0.09694 -0.04865,0.131928 l -0.02874,0.02728 -1.93e-4,0.308633 -1.91e-4,0.308633 h 0.139575 c 0.161151,0 0.19741,0.012 0.223264,0.07388 0.01442,0.03449 0.01426,0.05387 -0.0014,0.166656 -0.0325,0.235069 -0.09608,0.434541 -0.207963,0.652449 -0.05474,0.106628 -0.1638,0.274228 -0.399544,0.614036 -0.232433,0.335033 -0.320166,0.555518 -0.338557,0.850826 -0.01535,0.246484 0.05674,0.603245 0.184389,0.9124 0.04963,0.120203 0.05296,0.162148 0.01881,0.236737 -0.02026,0.04425 -0.04149,0.07035 -0.07561,0.09293 l -0.04744,0.0314 -1.196421,0.0026 c -1.139018,0.0025 -1.19856,0.0017 -1.241004,-0.01772 z m 0.298025,-2.866939 c -0.02208,-0.01089 -0.04438,-0.03549 -0.05839,-0.06443 -0.02201,-0.04545 -0.02266,-0.06557 -0.02265,-0.691152 1.6e-5,-0.591462 0.0016,-0.647469 0.01946,-0.682476 0.0339,-0.06648 0.06939,-0.08371 0.181511,-0.08809 l 0.0993,-0.0039 v -0.46745 -0.467446 l -0.03829,-0.04239 c -0.06925,-0.07666 -0.06687,-0.176887 0.0058,-0.246074 0.07485,-0.0712 0.17335,-0.07086 0.245061,8.44e-4 0.07032,0.07032 0.07178,0.169775 0.0036,0.245221 l -0.03829,0.04239 v 0.468557 0.468553 h 0.294731 0.294731 v -0.47785 c 0,-0.455364 -0.001,-0.478375 -0.0208,-0.48898 -0.02975,-0.01593 -0.05706,-0.07991 -0.05706,-0.133692 0,-0.157755 0.187359,-0.234111 0.299436,-0.122034 0.06749,0.0675 0.06747,0.178924 -4.6e-5,0.24644 l -0.03247,0.03246 v 0.471826 0.471826 h 0.08452 c 0.09998,0 0.14993,0.01973 0.182237,0.07201 0.02182,0.03531 0.02242,0.05396 0.02242,0.700049 0,0.732507 0.0023,0.707989 -0.07005,0.752094 -0.03428,0.0209 -0.0604,0.0217 -0.69736,0.0215 -0.581073,-1.85e-4 -0.666106,-0.0024 -0.697479,-0.01783 z m 0.360556,-0.381608 c 0.01274,-0.01187 0.03189,-0.04441 0.04253,-0.07229 l 0.01936,-0.05071 h 0.142211 0.14221 l 0.01294,0.03921 c 0.02137,0.06476 0.06264,0.105376 0.107059,0.105376 0.04584,0 0.09304,-0.04116 0.09304,-0.08111 0,-0.03965 -0.274304,-0.666436 -0.301567,-0.689083 -0.01289,-0.01071 -0.03734,-0.01946 -0.05433,-0.01946 -0.017,0 -0.04142,0.0088 -0.05427,0.01946 -0.02711,0.02259 -0.301635,0.649929 -0.301635,0.689306 0,0.06651 0.102078,0.106219 0.152439,0.0593 z m 0.147787,-0.309291 c -1.08e-4,-0.01343 0.04958,-0.124741 0.05568,-0.124741 0.0061,0 0.05578,0.111311 0.05567,0.124741 -3.7e-5,0.0046 -0.02509,0.0084 -0.05567,0.0084 -0.03058,0 -0.05564,-0.0037 -0.05568,-0.0084 z m 0.644854,0.308916 c 0.01208,-0.01207 0.02482,-0.03335 0.02831,-0.04727 0.0035,-0.01392 0.0049,-0.169637 0.003,-0.346039 l -0.0033,-0.320733 -0.0312,-0.02683 c -0.03436,-0.02954 -0.05951,-0.03316 -0.100508,-0.01447 -0.0485,0.02209 -0.0518,0.04728 -0.0518,0.39463 v 0.328079 l 0.0273,0.0273 c 0.03444,0.03444 0.09644,0.03702 0.128125,0.0053 z"
       id="path12" /></g></svg>
