<?xml version="1.0" encoding="UTF-8" standalone="no"?>
<!-- Created with Inkscape (http://www.inkscape.org/) -->

<svg
   width="21.571693"
   height="27.258598"
   viewBox="0 0 5.7075104 7.2121708"
   version="1.1"
   id="svg1"
   xml:space="preserve"
   inkscape:version="1.3.2 (091e20e, 2023-11-25, custom)"
   sodipodi:docname="Expertise ERP icon.svg"
   xmlns:inkscape="http://www.inkscape.org/namespaces/inkscape"
   xmlns:sodipodi="http://sodipodi.sourceforge.net/DTD/sodipodi-0.dtd"
   xmlns="http://www.w3.org/2000/svg"
   xmlns:svg="http://www.w3.org/2000/svg"><sodipodi:namedview
     id="namedview1"
     pagecolor="#ffffff"
     bordercolor="#eeeeee"
     borderopacity="1"
     inkscape:showpageshadow="0"
     inkscape:pageopacity="0"
     inkscape:pagecheckerboard="0"
     inkscape:deskcolor="#d1d1d1"
     inkscape:document-units="mm"
     inkscape:zoom="1.4164562"
     inkscape:cx="319.45922"
     inkscape:cy="438.06507"
     inkscape:window-width="1920"
     inkscape:window-height="991"
     inkscape:window-x="-9"
     inkscape:window-y="-9"
     inkscape:window-maximized="1"
     inkscape:current-layer="layer1" /><defs
     id="defs1" /><g
     inkscape:label="Layer 1"
     inkscape:groupmode="layer"
     id="layer1"
     transform="translate(-32.815247,-0.61732084)"><path
       style="fill:#1d8bf2;fill-opacity:1;stroke-width:0.234202"
       d="m 34.186942,7.8134909 c -0.06284,-0.023072 -0.07946,-0.071934 -0.07024,-0.2065548 0.01433,-0.2091458 0.127361,-0.3779924 0.312115,-0.4662637 0.07144,-0.034134 0.109803,-0.041234 0.253971,-0.04703 l 0.16982,-0.00681 V 6.9232289 6.7596181 l -0.750978,-0.00431 -0.750978,-0.00431 -0.117447,-0.057397 c -0.14239,-0.069601 -0.263565,-0.185088 -0.327891,-0.3125182 -0.09296,-0.1841497 -0.09009,-0.1236258 -0.09005,-1.9019051 4.3e-5,-1.7682745 -0.0011,-1.7441537 0.08548,-1.9062069 0.06218,-0.1164582 0.210454,-0.2594359 0.324302,-0.3127122 0.131029,-0.061316 0.221403,-0.075526 0.480327,-0.075526 h 0.222295 l 0.01874,-0.1169867 c 0.07129,-0.4450092 0.343517,-0.8774337 0.712385,-1.1316273 1.057947,-0.72905125 2.494439,-0.14406258 2.723214,1.1089845 l 0.0255,0.1396295 h 0.222447 c 0.268825,0 0.352233,0.014051 0.492915,0.083043 0.1889,0.092638 0.33141,0.2777733 0.376094,0.4885891 0.03234,0.1525687 0.03143,3.3025158 -9.88e-4,3.4400281 -0.05294,0.2245556 -0.188228,0.3947656 -0.395005,0.4969866 l -0.116518,0.057602 -0.75179,0.00431 -0.751791,0.00431 v 0.1636192 0.1636108 l 0.169819,0.00681 c 0.14552,0.00588 0.182213,0.01274 0.256434,0.048192 0.185396,0.088553 0.298472,0.2578203 0.310449,0.4647225 0.008,0.138884 -0.0087,0.1841078 -0.07693,0.207897 -0.05929,0.02067 -2.899291,0.019741 -2.955699,-9.884e-4 z m 2.785627,-0.2587017 c -0.0303,-0.098231 -0.08652,-0.1618223 -0.176192,-0.1992882 -0.04869,-0.020344 -0.194553,-0.023362 -1.128633,-0.023362 -0.934081,0 -1.079944,0.00305 -1.128633,0.023362 -0.08967,0.037464 -0.14589,0.1010573 -0.176193,0.1992882 l -0.01052,0.033963 h 1.3153 H 36.983 Z M 36.238093,6.9283458 36.233883,6.7660743 H 35.66782 35.101756 l -0.0042,0.1622715 -0.0042,0.1622715 h 0.574633 0.574632 z m 1.727782,-0.4315974 c 0.09822,-0.038137 0.212946,-0.1454047 0.261372,-0.2443845 0.03032,-0.061967 0.04212,-0.1135594 0.04818,-0.2106153 l 0.008,-0.1285442 H 35.667726 33.05203 l 0.0078,0.1257707 c 0.0094,0.1498058 0.0439,0.2370143 0.131608,0.3321677 0.06904,0.074905 0.168315,0.1281536 0.272184,0.1460013 0.03746,0.00645 1.049665,0.010736 2.249343,0.00954 2.080018,-0.00205 2.184556,-0.00347 2.252846,-0.029953 z M 33.464964,6.2809971 c -0.01721,-0.021874 -0.03129,-0.054924 -0.03129,-0.07344 0,-0.018516 0.01408,-0.051565 0.03129,-0.07344 0.02837,-0.036053 0.04096,-0.039774 0.134761,-0.039774 0.0938,0 0.106396,0.00368 0.134758,0.039774 0.01721,0.021875 0.03129,0.054924 0.03129,0.07344 0,0.018516 -0.01408,0.051565 -0.03129,0.07344 -0.02836,0.036062 -0.04096,0.039774 -0.134758,0.039774 -0.0938,0 -0.106398,-0.00368 -0.134761,-0.039774 z m 0.498136,0 c -0.0172,-0.021874 -0.03128,-0.054924 -0.03128,-0.07344 0,-0.018516 0.01408,-0.051565 0.03128,-0.07344 0.02837,-0.036053 0.04096,-0.039774 0.13476,-0.039774 0.0938,0 0.106398,0.00368 0.13476,0.039774 0.01721,0.021875 0.03129,0.054924 0.03129,0.07344 0,0.018516 -0.01408,0.051565 -0.03129,0.07344 -0.02836,0.036062 -0.04096,0.039774 -0.13476,0.039774 -0.0938,0 -0.106397,-0.00368 -0.13476,-0.039774 z m 0.499673,0.00482 c -0.0436,-0.046406 -0.04266,-0.1166007 0.0021,-0.1586677 0.04595,-0.043175 0.201082,-0.047143 0.250151,-0.00638 0.04854,0.040306 0.05588,0.1091845 0.0169,0.1587364 -0.02964,0.037691 -0.04131,0.041269 -0.134404,0.041269 -0.08704,0 -0.106735,-0.0051 -0.134759,-0.034933 z m 2.065977,0.0019 c -0.04192,-0.044997 -0.04,-0.1190815 0.0042,-0.1605674 0.03471,-0.032603 0.03912,-0.032823 0.655537,-0.032823 h 0.620602 l 0.03129,0.039774 c 0.03969,0.050459 0.03969,0.096417 0,0.1468786 l -0.03129,0.039774 H 37.18433 c -0.623264,0 -0.624833,-7.86e-5 -0.655538,-0.033035 z m -0.267219,-1.03557 c 0.196668,-0.1848398 0.196439,-0.1847023 0.29328,-0.1757994 0.195614,0.017985 0.928573,0.049368 0.951953,0.040759 0.01387,-0.0051 0.09146,-0.060054 0.172416,-0.1221072 l 0.1472,-0.1128216 0.05658,0.023085 c 0.03113,0.012698 0.133002,0.057545 0.226402,0.099653 l 0.169819,0.076563 V 4.9488062 4.8161288 L 38.083765,4.7286071 37.888347,4.6410846 37.73373,4.4081845 C 37.64869,4.2800896 37.567257,4.1689388 37.552765,4.1611831 c -0.01449,-0.00777 -0.169752,-0.014101 -0.345022,-0.014101 -0.318219,0 -0.318728,5.31e-5 -0.355727,0.037053 -0.02038,0.02038 -0.03705,0.053782 -0.03705,0.07424 0,0.1143084 0.04392,0.1302285 0.359265,0.1302285 H 37.42933 L 37.512,4.5131378 c 0.04547,0.068494 0.09415,0.142189 0.108174,0.1637667 l 0.02551,0.039235 -0.109682,0.082611 -0.109682,0.082612 -0.233973,-0.012216 c -0.128691,-0.00673 -0.33938,-0.01858 -0.468205,-0.026361 L 36.489913,4.828642 36.301903,4.7283385 C 36.065424,4.6021766 36.04511,4.5976239 35.985341,4.6573924 c -0.08613,0.086137 -0.05683,0.148215 0.112607,0.2385704 0.05812,0.030987 0.108256,0.058333 0.111424,0.06077 0.0032,0.00241 -0.04405,0.051076 -0.104915,0.108091 -0.09985,0.093539 -0.110668,0.1092645 -0.110668,0.1609748 0,0.070691 0.0463,0.113799 0.122229,0.113799 0.04315,0 0.069,-0.015533 0.145504,-0.087443 z M 33.554439,4.5044305 c 0.112081,-0.052458 0.228629,-0.1072513 0.258997,-0.1217578 0.123748,-0.059119 0.101832,-0.2355886 -0.02927,-0.2355886 -0.01939,0 -0.124325,0.041219 -0.233182,0.0916 -0.226906,0.1050151 -0.177028,0.1126947 -0.3811,-0.058679 l -0.113588,-0.09539 v 0.1572793 0.1572803 l 0.0868,0.074815 c 0.110268,0.095047 0.155579,0.1259632 0.1845,0.1258867 0.01268,-3.4e-5 0.114759,-0.042984 0.226839,-0.095443 z M 35.546984,3.4822167 V 3.1041564 l 0.03705,-0.037053 c 0.02335,-0.023356 0.0543,-0.037053 0.08371,-0.037053 0.02941,0 0.06035,0.013697 0.08371,0.037053 l 0.03705,0.037053 v 0.3794781 0.3794783 l 0.07925,-0.010685 c 0.04359,-0.00588 0.08434,-0.013712 0.09057,-0.017403 0.0062,-0.00368 0.01132,-0.1882042 0.01132,-0.4100282 0,-0.4582543 -0.0057,-0.4349299 0.129121,-0.5244478 0.386336,-0.2564366 0.455587,-0.8214377 0.141891,-1.1576743 l -0.07363,-0.078919 -0.0011,0.3169958 c -7.76e-4,0.224521 -0.0064,0.3240096 -0.01945,0.3410394 -0.03134,0.040972 -0.420679,0.3017084 -0.463235,0.3102201 -0.03261,0.00652 -0.08204,-0.019777 -0.260257,-0.1384582 -0.127961,-0.085212 -0.227002,-0.1618539 -0.236723,-0.1831877 -0.01042,-0.022803 -0.01693,-0.1520521 -0.01729,-0.3416445 l -5.85e-4,-0.3049644 -0.07435,0.079696 c -0.07926,0.084971 -0.154461,0.2253308 -0.179925,0.3358389 -0.02228,0.096674 -0.01952,0.2804864 0.0057,0.3749721 0.0478,0.1795765 0.165168,0.3453739 0.314816,0.4447052 0.04436,0.029449 0.09034,0.065184 0.102158,0.07941 0.01702,0.020479 0.02307,0.112685 0.02903,0.4424653 l 0.0076,0.4165992 0.05284,0.00932 c 0.02905,0.0051 0.06812,0.010228 0.08679,0.011324 l 0.03396,0.00199 z M 35.124322,3.433323 V 3.1120346 l -0.04275,-0.025262 C 35.00217,3.0398778 34.831171,2.8436865 34.772933,2.7326825 34.537803,2.2845199 34.671807,1.7180223 35.0809,1.4307247 c 0.132777,-0.093245 0.195412,-0.1159027 0.253687,-0.091764 0.07126,0.02952 0.07655,0.062229 0.07655,0.4739245 v 0.3814914 l 0.129277,0.087814 0.129278,0.087814 0.127338,-0.087389 0.127338,-0.087388 V 1.813311 c 0,-0.2516966 0.0058,-0.3946778 0.01706,-0.4193443 0.02071,-0.045443 0.08877,-0.076243 0.136558,-0.06179 0.105536,0.031908 0.289168,0.1730196 0.381583,0.2932271 0.249942,0.3251022 0.289617,0.7515956 0.103,1.1072817 -0.05823,0.1110041 -0.229241,0.3071922 -0.308634,0.3540904 l -0.04276,0.025262 v 0.3212885 c 0,0.2100683 0.0054,0.3212891 0.01552,0.3212891 0.02583,0 0.197542,-0.090806 0.293923,-0.1554328 C 36.633942,3.5231947 36.835256,3.3212205 36.908697,3.209831 37.218194,2.7404126 37.256811,2.1829574 37.01419,1.6870166 36.82586,1.3020545 36.475011,1.020046 36.032677,0.89808905 c -0.166578,-0.0459248 -0.560821,-0.0457333 -0.729858,3.5147e-4 -0.286702,0.0781728 -0.505216,0.20446178 -0.707367,0.40882078 -0.202908,0.2051236 -0.339132,0.4547702 -0.40068,0.7342864 -0.03539,0.160712 -0.03533,0.4692101 1.24e-4,0.6323809 0.07941,0.3655067 0.307289,0.7089319 0.608962,0.9177382 0.08729,0.060423 0.275776,0.1620058 0.301601,0.1625493 0.01452,3.047e-4 0.01887,-0.073712 0.01887,-0.3208917 z"
       id="path3" /></g></svg>
