<?xml version="1.0" encoding="UTF-8" standalone="no"?>
<!-- Created with Inkscape (http://www.inkscape.org/) -->

<svg
   width="26.754623"
   height="22.148424"
   viewBox="0 0 7.0788273 5.8601038"
   version="1.1"
   id="svg1"
   xml:space="preserve"
   inkscape:version="1.3.2 (091e20e, 2023-11-25, custom)"
   sodipodi:docname="Expertise ERP icon.svg"
   xmlns:inkscape="http://www.inkscape.org/namespaces/inkscape"
   xmlns:sodipodi="http://sodipodi.sourceforge.net/DTD/sodipodi-0.dtd"
   xmlns="http://www.w3.org/2000/svg"
   xmlns:svg="http://www.w3.org/2000/svg"><sodipodi:namedview
     id="namedview1"
     pagecolor="#ffffff"
     bordercolor="#eeeeee"
     borderopacity="1"
     inkscape:showpageshadow="0"
     inkscape:pageopacity="0"
     inkscape:pagecheckerboard="0"
     inkscape:deskcolor="#d1d1d1"
     inkscape:document-units="mm"
     inkscape:zoom="1.4164562"
     inkscape:cx="319.45922"
     inkscape:cy="438.06507"
     inkscape:window-width="1920"
     inkscape:window-height="991"
     inkscape:window-x="-9"
     inkscape:window-y="-9"
     inkscape:window-maximized="1"
     inkscape:current-layer="layer1" /><defs
     id="defs1" /><g
     inkscape:label="Layer 1"
     inkscape:groupmode="layer"
     id="layer1"
     transform="translate(-42.184865,-1.421899)"><path
       style="fill:#1d8bf2;fill-opacity:1;stroke-width:0.05923"
       d="m 45.230789,7.2574525 c -0.126956,-0.066029 -0.164547,-0.1409513 -0.164547,-0.3279583 0,-0.1501123 0.02019,-0.2136081 0.08817,-0.2771677 0.07401,-0.069199 0.112671,-0.075435 0.467612,-0.075435 0.260841,0 0.373464,-0.00674 0.512214,-0.030664 0.683236,-0.1177915 1.298275,-0.5473527 1.638934,-1.1446797 0.158981,-0.2787689 0.170109,-0.3161041 0.248929,-0.8351602 0.07929,-0.5221665 0.08055,-0.5741064 0.02045,-0.8514637 C 47.942638,3.2537198 47.74008,2.8870923 47.39398,2.5409913 47.045874,2.1928834 46.687729,1.995761 46.208373,1.8884341 c -0.14132,-0.031643 -0.204848,-0.036423 -0.483934,-0.036423 -0.27909,0 -0.342614,0.00478 -0.483937,0.036423 -0.932851,0.2088643 -1.635261,0.9083262 -1.834189,1.8264899 -0.06223,0.2871992 -0.06106,0.3106926 0.05228,1.059774 0.05673,0.3749346 0.10315,0.7099074 0.103162,0.744384 1.4e-5,0.1462082 -0.08162,0.2169852 -0.317539,0.2752767 -0.29223,0.072208 -0.478805,0.021156 -0.685768,-0.1876376 -0.257514,-0.2597894 -0.393633,-0.6728204 -0.371188,-1.1262982 0.0209,-0.4219687 0.180466,-0.7477962 0.454247,-0.9274703 0.103778,-0.068104 0.263563,-0.1259815 0.347807,-0.1259815 0.05011,0 0.05198,-0.0026 0.101659,-0.1414751 0.313393,-0.876111 1.035744,-1.5408758 1.924732,-1.7712903 0.530683,-0.1375463 1.052053,-0.1214763 1.586321,0.048894 0.201916,0.064389 0.555403,0.2423144 0.736548,0.370737 0.19099,0.1354038 0.526905,0.4712632 0.662671,0.6625589 0.117511,0.1655802 0.30313,0.5286929 0.356483,0.6973702 0.01907,0.060334 0.03926,0.1147842 0.04484,0.1210003 0.0056,0.00621 0.06289,0.01859 0.12735,0.027497 0.260475,0.035995 0.453234,0.1875085 0.588638,0.4626809 0.0891,0.1810842 0.129947,0.3460806 0.142349,0.5750254 0.0244,0.4504405 -0.112386,0.8664293 -0.370477,1.1267071 -0.222908,0.2247972 -0.407412,0.2710913 -0.712016,0.1786549 -0.04232,-0.012841 -0.08894,-0.023346 -0.103633,-0.023346 -0.01505,0 -0.06285,0.049513 -0.10968,0.1136163 C 47.82743,6.0640807 47.495627,6.381927 47.299392,6.5133071 47.081405,6.659253 46.80287,6.7951855 46.568406,6.8700507 l -0.182497,0.058272 -0.0064,0.089163 c -0.0076,0.106285 -0.05988,0.1854849 -0.153833,0.233413 -0.05681,0.02898 -0.09265,0.031192 -0.504486,0.031102 -0.371021,-8.27e-5 -0.451007,-0.00408 -0.490354,-0.024546 z M 44.288275,6.2792694 c -0.05107,-0.020609 -0.08391,-0.078506 -0.08428,-0.1485778 -1.83e-4,-0.034712 0.02541,-0.1802403 0.05682,-0.3233929 L 44.317958,5.547022 44.22588,5.4372493 C 43.951939,5.1106658 43.797937,4.6699248 43.797244,4.2105334 43.796872,3.9054492 43.860425,3.6262368 43.992089,3.355639 44.224215,2.8785702 44.643258,2.5215529 45.147801,2.37099 c 0.228864,-0.068297 0.30834,-0.079208 0.576635,-0.079158 0.191633,3.47e-5 0.29306,0.00748 0.39178,0.028763 0.394187,0.084978 0.703784,0.2531277 0.979928,0.5322217 0.354892,0.358687 0.529342,0.7637428 0.551649,1.2808745 0.01475,0.3423838 -0.048,0.6409302 -0.199033,0.9465967 -0.105798,0.2141336 -0.202785,0.3491207 -0.365316,0.5084844 -0.159061,0.155955 -0.275275,0.239457 -0.470362,0.3379597 -0.475072,0.2398701 -1.014417,0.2784839 -1.522838,0.1090256 l -0.156218,-0.052068 -0.223872,0.1250117 c -0.231824,0.1294523 -0.34564,0.1858884 -0.372623,0.1847704 -0.0086,-3.554e-4 -0.03077,-0.00674 -0.04926,-0.014201 z M 44.9046,4.5382223 c 0.08875,-0.04296 0.156821,-0.1273151 0.187581,-0.2324295 0.08467,-0.2893546 -0.219257,-0.5485365 -0.496075,-0.4230386 -0.144047,0.065304 -0.210403,0.1686781 -0.210403,0.3277792 0,0.1535462 0.07817,0.278178 0.210403,0.3354537 0.08147,0.035287 0.227136,0.03162 0.308494,-0.00776 z m 0.96871,0.00332 c 0.233075,-0.1069171 0.285282,-0.4167731 0.09986,-0.5926932 -0.230323,-0.2185185 -0.608487,-0.055876 -0.608487,0.2616989 0,0.2053194 0.154429,0.3597503 0.359751,0.3597503 0.05038,0 0.112233,-0.011947 0.148875,-0.028755 z m 0.968204,0.00831 c 0.289047,-0.121122 0.302716,-0.5308969 0.02205,-0.661564 -0.285113,-0.1327478 -0.59357,0.1213206 -0.506893,0.4175206 0.04875,0.1666031 0.176509,0.2651438 0.343784,0.2651669 0.04984,6.7e-6 0.113305,-0.00949 0.14104,-0.021119 z"
       id="path4"
       inkscape:export-filename="Other Services.svg"
       inkscape:export-xdpi="96"
       inkscape:export-ydpi="96" /></g></svg>
