<?xml version="1.0" encoding="UTF-8" standalone="no"?>
<!-- Created with Inkscape (http://www.inkscape.org/) -->

<svg
   width="4.5371261mm"
   height="6.0586014mm"
   viewBox="0 0 4.5371261 6.0586014"
   version="1.1"
   id="svg1"
   xml:space="preserve"
   inkscape:version="1.3.2 (091e20e, 2023-11-25, custom)"
   sodipodi:docname="maiprosoft website icons.svg"
   inkscape:export-filename="Education.svg"
   inkscape:export-xdpi="300"
   inkscape:export-ydpi="300"
   xmlns:inkscape="http://www.inkscape.org/namespaces/inkscape"
   xmlns:sodipodi="http://sodipodi.sourceforge.net/DTD/sodipodi-0.dtd"
   xmlns="http://www.w3.org/2000/svg"
   xmlns:svg="http://www.w3.org/2000/svg"><sodipodi:namedview
     id="namedview1"
     pagecolor="#505050"
     bordercolor="#eeeeee"
     borderopacity="1"
     inkscape:showpageshadow="0"
     inkscape:pageopacity="0"
     inkscape:pagecheckerboard="0"
     inkscape:deskcolor="#d1d1d1"
     inkscape:document-units="mm"
     inkscape:zoom="1.4383515"
     inkscape:cx="-2869.6046"
     inkscape:cy="-845.75991"
     inkscape:window-width="1920"
     inkscape:window-height="991"
     inkscape:window-x="-9"
     inkscape:window-y="-9"
     inkscape:window-maximized="1"
     inkscape:current-layer="layer1"
     showguides="true"
     showgrid="false" /><defs
     id="defs1" /><g
     inkscape:label="Layer 1"
     inkscape:groupmode="layer"
     id="layer1"
     transform="translate(567.50105,-105.64914)"><g
       id="g55"
       transform="translate(-11.19045,2.3913368)"
       inkscape:export-filename=".\ERP Ledger WB.svg"
       inkscape:export-xdpi="300"
       inkscape:export-ydpi="300"
       style="fill:#1d8bf2;fill-opacity:1"><path
         style="color:#000000;fill:#1d8bf2;fill-opacity:1;fill-rule:evenodd;stroke-linecap:round;stroke-linejoin:round;-inkscape-stroke:none"
         d="m -556.02539,103.25781 c -0.15339,0 -0.28516,0.12755 -0.28516,0.28321 v 4.32812 c 0,0.79293 0.65332,1.4375 1.45118,1.4375 h 0.0625 a 0.22690468,0.22690468 0 0 0 0.22656,-0.22656 v -2.19336 a 0.226882,0.226882 0 0 0 -0.22656,-0.22656 0.226882,0.226882 0 0 0 -0.22657,0.22656 v 1.90039 c -0.464,-0.0861 -0.83398,-0.4363 -0.83398,-0.91797 v -4.1582 h 1.55273 c 1.15152,0 2.07617,0.91667 2.07617,2.05078 v 1.75976 a 0.226882,0.226882 0 0 0 0.22852,0.22657 0.226882,0.226882 0 0 0 0.22656,-0.22657 v -1.75976 c 0,-1.38219 -1.13731,-2.50391 -2.53125,-2.50391 z"
         id="path34-9" /><path
         style="color:#000000;fill:#1d8bf2;fill-opacity:1;fill-rule:evenodd;stroke-linecap:round;-inkscape-stroke:none"
         d="m -554.04297,105.82813 a 0.226882,0.226882 0 0 0 -0.22656,0.22656 v 3.03515 a 0.226882,0.226882 0 0 0 0.22656,0.22657 0.226882,0.226882 0 0 0 0.22656,-0.22657 v -3.03515 a 0.226882,0.226882 0 0 0 -0.22656,-0.22656 z"
         id="line34" /><path
         style="color:#000000;fill:#1d8bf2;fill-opacity:1;fill-rule:evenodd;stroke-linecap:round;stroke-linejoin:round;-inkscape-stroke:none"
         d="M 18,8.5 A 1.5,1.5 0 0 0 16.5,10 v 27 a 1.50015,1.50015 0 0 0 1.5,1.5 h 9 A 1.5,1.5 0 0 0 28.5,37 1.5,1.5 0 0 0 27,35.5 H 19.5 V 10 A 1.5,1.5 0 0 0 18,8.5 Z"
         id="polyline34"
         transform="matrix(0.15125481,0,0,0.15125481,-556.08461,103.48428)" /></g></g></svg>
