<?xml version="1.0" encoding="UTF-8" standalone="no"?>
<!-- Created with Inkscape (http://www.inkscape.org/) -->

<svg
   width="32"
   height="32"
   viewBox="0 0 8.4666665 8.4666666"
   version="1.1"
   id="svg1"
   xml:space="preserve"
   inkscape:version="1.3.2 (091e20e, 2023-11-25, custom)"
   sodipodi:docname="Expertise ERP icon.svg"
   xmlns:inkscape="http://www.inkscape.org/namespaces/inkscape"
   xmlns:sodipodi="http://sodipodi.sourceforge.net/DTD/sodipodi-0.dtd"
   xmlns="http://www.w3.org/2000/svg"
   xmlns:svg="http://www.w3.org/2000/svg"><sodipodi:namedview
     id="namedview1"
     pagecolor="#ffffff"
     bordercolor="#eeeeee"
     borderopacity="1"
     inkscape:showpageshadow="0"
     inkscape:pageopacity="0"
     inkscape:pagecheckerboard="0"
     inkscape:deskcolor="#d1d1d1"
     inkscape:document-units="mm"
     inkscape:zoom="2.5573507"
     inkscape:cx="288.77541"
     inkscape:cy="35.388185"
     inkscape:window-width="1920"
     inkscape:window-height="991"
     inkscape:window-x="-9"
     inkscape:window-y="-9"
     inkscape:window-maximized="1"
     inkscape:current-layer="layer1" /><defs
     id="defs1" /><g
     inkscape:label="Layer 1"
     inkscape:groupmode="layer"
     id="layer1"><rect
       style="fill:#ffffff;fill-opacity:1;stroke-width:0.363804"
       id="rect10"
       width="99.066711"
       height="46.848766"
       x="24.106165"
       y="-15.62245"
       inkscape:export-filename="ERP 2.png"
       inkscape:export-xdpi="300"
       inkscape:export-ydpi="300" /><path
       style="fill:#1d8bf2;fill-opacity:1;stroke-width:0.758663"
       d="m 32.12986,7.0358295 c 4.2e-5,-0.1052812 0.0064,-0.2141148 0.01409,-0.2418528 0.02167,-0.078009 0.110916,-0.1689634 0.211249,-0.2152903 l 0.08782,-0.040549 0.456137,-0.00434 0.456136,-0.00434 -0.0037,-0.406339 -0.0037,-0.406339 -0.953929,-0.00696 -0.95393,-0.00696 -0.09189,-0.045243 C 31.239226,5.6039662 31.153675,5.5165763 31.101828,5.4059771 l -0.03704,-0.079006 V 3.4336527 1.5403347 l 0.045,-0.091974 c 0.05336,-0.1090642 0.140875,-0.1948365 0.251869,-0.2468686 l 0.07901,-0.037037 h 2.958602 2.958602 l 0.09312,0.045844 c 0.11133,0.054808 0.205605,0.1551932 0.251115,0.2673898 l 0.03106,0.076569 v 1.88665 1.8866514 l -0.04524,0.091901 c -0.05364,0.1089545 -0.141016,0.1944989 -0.25163,0.2463526 l -0.07901,0.037037 -0.95362,0.00696 -0.95362,0.00696 -0.0037,0.4063389 -0.0037,0.4063391 0.456137,0.00434 0.456137,0.00434 0.08782,0.040549 c 0.100334,0.046327 0.18958,0.1372813 0.211249,0.2152903 0.0077,0.027738 0.01404,0.136572 0.01409,0.2418529 l 7.7e-5,0.19142 H 34.398965 32.129768 Z M 37.308564,3.234576 c 0,-1.2352973 -0.0039,-1.6160094 -0.01671,-1.6288104 -0.02431,-0.024313 -5.761444,-0.024313 -5.785757,0 -0.0128,0.012801 -0.01671,0.3935131 -0.01671,1.6288104 v 1.6121045 h 2.909584 2.909585 z m -3.987708,1.3584207 c -0.01764,-0.025178 -0.02163,-0.076384 -0.02146,-0.2749487 1.18e-4,-0.1342045 0.0048,-0.2509013 0.01044,-0.259326 0.02361,-0.035358 0.078,-0.047329 0.215037,-0.047329 0.216024,0 0.205874,-0.015033 0.205874,0.3049037 0,0.3269795 0.0138,0.3076403 -0.21957,0.3076403 -0.158498,0 -0.169956,-0.00186 -0.190324,-0.03094 z m 0.934106,0.00549 c -0.02071,-0.022884 -0.02304,-0.087792 -0.02304,-0.641304 0,-0.3978937 0.0051,-0.6253733 0.01441,-0.642771 0.0131,-0.024488 0.03069,-0.026928 0.194111,-0.026928 0.169915,0 0.18088,0.00169 0.201371,0.03094 0.01881,0.026853 0.02167,0.1110277 0.02167,0.6372895 0,0.5262616 -0.0029,0.6104354 -0.02167,0.6372893 -0.0204,0.029119 -0.03174,0.030941 -0.192743,0.030941 -0.14805,0 -0.174171,-0.00343 -0.194111,-0.025459 z m 0.923619,-0.00238 c -0.02673,-0.026735 -0.02784,-0.046405 -0.02784,-0.4942117 0,-0.5698747 -0.02031,-0.5220546 0.221749,-0.5220546 0.132404,0 0.170497,0.00443 0.18794,0.021877 0.01904,0.019039 0.02188,0.08392 0.02188,0.500178 0,0.4162576 -0.0028,0.4811393 -0.02188,0.5001781 -0.01744,0.017443 -0.05554,0.021877 -0.18794,0.021877 -0.147501,0 -0.169175,-0.00311 -0.193906,-0.027844 z m 0.927934,0.00238 c -0.02094,-0.023144 -0.02304,-0.1079755 -0.02304,-0.9317462 0,-0.8053331 0.0024,-0.9087214 0.02188,-0.928161 0.01751,-0.017511 0.05597,-0.021877 0.192743,-0.021877 0.147852,0 0.17397,0.00343 0.193906,0.025459 0.02094,0.02314 0.02304,0.1078918 0.02304,0.93058 0,0.8591865 -0.0013,0.9062904 -0.02546,0.9281609 -0.02072,0.018748 -0.05662,0.02304 -0.192743,0.02304 -0.144381,0 -0.170438,-0.00348 -0.190324,-0.025458 z m -3.465602,-0.892513 c -0.01671,-0.047058 -0.03422,-0.071675 -0.05547,-0.078008 -0.01708,-0.00509 -0.0675,-0.025311 -0.112036,-0.044937 l -0.08098,-0.035685 -0.06408,0.031134 -0.06409,0.031134 -0.08345,-0.08345 -0.08345,-0.08345 0.02844,-0.068446 c 0.02192,-0.05274 0.02498,-0.074544 0.01337,-0.095019 -0.0083,-0.014614 -0.02861,-0.063738 -0.04515,-0.1091632 -0.02851,-0.078281 -0.03381,-0.084008 -0.101571,-0.1097557 l -0.07149,-0.027165 V 2.9183114 2.8034603 l 0.07657,-0.031076 c 0.04211,-0.017092 0.07657,-0.039883 0.07657,-0.050647 0,-0.010767 0.01809,-0.059475 0.04021,-0.1082479 l 0.04021,-0.088677 -0.02629,-0.058713 c -0.01446,-0.032292 -0.02629,-0.066074 -0.02629,-0.075069 0,-0.00899 0.034,-0.049942 0.07557,-0.09099 l 0.07557,-0.074634 0.07547,0.03063 0.07547,0.03063 0.04734,-0.02742 c 0.02604,-0.015081 0.07366,-0.035121 0.105826,-0.044531 0.05228,-0.015296 0.06107,-0.024282 0.0828,-0.084717 l 0.02431,-0.067607 h 0.121145 0.121145 l 0.02447,0.068062 c 0.0217,0.060355 0.03092,0.069989 0.08145,0.08508 0.03133,0.00936 0.08143,0.029469 0.111321,0.044687 l 0.05435,0.027667 0.06792,-0.031812 0.06792,-0.031812 0.08201,0.081158 0.08201,0.081158 -0.03243,0.073343 c -0.02708,0.061231 -0.02953,0.077569 -0.01486,0.098933 0.0097,0.014074 0.03021,0.060047 0.04566,0.1021589 0.02793,0.076155 0.04896,0.096011 0.132536,0.1251694 0.03771,0.013155 0.03828,0.015138 0.03828,0.1314604 V 3.035748 l -0.0696,0.024722 c -0.05872,0.020857 -0.07208,0.032374 -0.08543,0.073661 -0.0087,0.026915 -0.02973,0.077129 -0.04674,0.1115849 l -0.03092,0.062647 0.03252,0.069608 0.03252,0.069608 -0.08116,0.081324 -0.08116,0.081324 -0.07158,-0.030793 -0.07158,-0.030793 -0.07318,0.034353 c -0.04025,0.018894 -0.0899,0.038433 -0.11034,0.043422 -0.02938,0.00717 -0.042,0.023634 -0.06028,0.078692 l -0.02313,0.069621 h -0.120907 -0.120907 z m 0.310235,-0.4201 C 33.209188,3.1721356 33.270571,2.8282271 33.068839,2.6264944 32.964343,2.5219986 32.80827,2.4847156 32.663838,2.5297474 32.557437,2.5629214 32.438212,2.6768573 32.403699,2.778344 32.28757,3.1198329 32.622788,3.4306074 32.951148,3.2858737 Z m 0.841615,-0.3109962 c -0.03829,-0.038286 -0.04377,-0.085149 -0.01479,-0.1265126 0.02624,-0.037462 0.606039,-0.4742099 0.645188,-0.4860034 0.02274,-0.00685 0.15043,0.041863 0.47333,0.1805689 0.38471,0.1652576 0.445786,0.1877098 0.469849,0.1727216 0.01521,-0.00947 0.145128,-0.1243137 0.288702,-0.2551968 l 0.261045,-0.2379691 -0.04851,-0.00824 c -0.07012,-0.011913 -0.104289,-0.048361 -0.104289,-0.1112375 0,-0.040155 0.0086,-0.05931 0.03668,-0.081371 0.03338,-0.026261 0.05534,-0.028853 0.244258,-0.028853 0.201829,0 0.208523,9.483e-4 0.241748,0.034171 0.04262,0.042618 0.0425,0.059161 -0.002,0.2803187 -0.04035,0.2006637 -0.06404,0.2423688 -0.137683,0.2423688 -0.054,0 -0.104609,-0.044605 -0.104609,-0.092192 0,-0.019482 -0.0058,-0.033333 -0.01281,-0.030781 -0.007,0.00255 -0.145616,0.1253036 -0.307931,0.2727802 -0.162288,0.1474733 -0.309383,0.271723 -0.32685,0.2761071 -0.02208,0.00554 -0.162706,-0.048128 -0.461229,-0.1760186 -0.236208,-0.1011942 -0.438898,-0.1888209 -0.450421,-0.1947262 -0.01483,-0.0076 -0.100204,0.049747 -0.292351,0.1963897 -0.298511,0.2278176 -0.329595,0.2414049 -0.397325,0.173675 z"
       id="path1"
       inkscape:export-filename="ERP.svg"
       inkscape:export-xdpi="96"
       inkscape:export-ydpi="96" /><g
       id="g28"
       transform="matrix(0.08200189,0,0,0.08200189,-197.93925,-5.931677)"><path
         id="path25"
         d="m 3149.5837,-46.424449 v 21.378609 h -21.5008 v -21.378609 h -21.8667 v -21.500444 h 21.8667 21.5008 z"
         style="fill:#ffcc00;fill-opacity:1;fill-rule:evenodd;stroke:none;stroke-width:0.968451" /><path
         id="path26"
         d="m 3099.2163,-38.679879 h 21.8667 v 21.378609 h -21.8667 z"
         style="fill:#999999;fill-opacity:1;fill-rule:evenodd;stroke:none;stroke-width:0.973878" /><path
         id="path27"
         d="m 3222.7474,-67.811941 v 43.251079 h -10.634 v -28.361189 l -9.692,20.632517 h -10.7589 l -10.0666,-20.689255 v 28.417927 h -10.6227 v -43.251079 h 13.5848 l 12.4839,25.523907 12.1662,-25.523907 z m 40.0989,43.251079 h -10.0098 v -5.436166 l -6.1852,5.436166 h -8.5231 c -1.1689,0 -2.2812,-0.249743 -3.3367,-0.737712 -1.044,-0.431231 -1.9179,-1.055422 -2.7124,-1.861204 -0.8057,-0.737712 -1.3618,-1.600219 -1.7931,-2.655692 -0.4312,-1.044097 -0.681,-2.099545 -0.681,-3.211775 v -16.558204 c 0,-1.168943 0.2498,-2.224391 0.7378,-3.268513 0.4312,-1.055474 1.0554,-1.917987 1.8498,-2.723762 0.8058,-0.805775 1.6684,-1.418635 2.7239,-1.849872 1.044,-0.431301 2.0995,-0.624192 3.2117,-0.624192 h 24.7181 z m -12.4271,-8.39825 c 0.6809,0 1.3051,-0.249437 1.7364,-0.680974 0.4313,-0.431256 0.6809,-1.055448 0.6809,-1.736403 v -14.265698 h -10.8156 c -0.681,0 -1.2938,0.249412 -1.725,0.680974 -0.4427,0.431212 -0.681,1.044052 -0.681,1.725026 v 11.859698 c 0,0.680955 0.2383,1.305147 0.681,1.736403 0.4312,0.431301 1.044,0.680974 1.725,0.680974 z m 29.4166,-25.092676 v 33.490926 h -9.9531 v -33.490926 z m 0,-12.290999 v 8.59121 h -9.9531 v -8.59121 z m 7.0392,20.757338 c 0,-1.112186 0.2497,-2.156283 0.681,-3.21175 0.4313,-1.044097 1.0554,-1.918012 1.8612,-2.712411 0.7377,-0.8058 1.6002,-1.429992 2.6556,-1.861248 1.0441,-0.431257 2.0996,-0.68093 3.2686,-0.68093 h 16.9327 c 1.1122,0 2.1563,0.192891 3.2118,0.624192 1.0441,0.431237 1.9179,1.044097 2.7123,1.849872 0.8059,0.805775 1.4301,1.668288 1.918,2.723762 0.4314,1.044122 0.681,2.09957 0.681,3.268513 v 16.558204 c 0,1.11223 -0.2494,2.167678 -0.681,3.211775 -0.4312,1.055473 -1.044,1.91798 -1.7931,2.655692 -0.7944,0.805782 -1.6683,1.429973 -2.7124,1.861204 -1.0555,0.488039 -2.1677,0.737712 -3.3366,0.737712 h -9.2041 l -6.1852,-5.436166 v 18.283268 h -10.0098 z m 10.0098,14.20896 c 0,0.680955 0.2498,1.237058 0.681,1.66834 0.4313,0.499364 1.0554,0.749037 1.7364,0.749037 h 9.0791 c 0.6811,0 1.2372,-0.249437 1.7251,-0.680974 0.4313,-0.431256 0.681,-1.055448 0.681,-1.736403 v -11.859698 c 0,-0.680974 -0.2494,-1.293814 -0.681,-1.725026 -0.4879,-0.431301 -1.044,-0.680974 -1.7251,-0.680974 h -9.0791 c -0.681,0 -1.3051,0.249412 -1.7364,0.680974 -0.4312,0.431212 -0.681,1.044052 -0.681,1.725026 z m 55.9138,-14.265698 h -13.0968 c -0.6809,0 -1.237,0.249412 -1.6683,0.680974 -0.488,0.431212 -0.7377,1.044052 -0.7377,1.725026 v 22.675325 h -9.9531 v -33.490926 h 9.9531 v 5.129737 l 6.049,-5.129737 h 9.4538 z m 28.486,-8.409601 c 1.1122,0 2.1676,0.192891 3.2117,0.624192 1.0555,0.431237 1.918,1.044097 2.7238,1.849872 0.7944,0.805775 1.4186,1.668288 1.8499,2.723762 0.4313,1.044122 0.681,2.09957 0.681,3.268513 v 16.558204 c 0,1.11223 -0.1816,2.167678 -0.6243,3.211775 -0.4312,1.055473 -1.0441,1.91798 -1.7817,2.723762 -0.8058,0.805794 -1.6683,1.418635 -2.7238,1.849891 -1.0554,0.431282 -2.1677,0.680955 -3.3366,0.680955 h -17.1711 c -1.1122,0 -2.1676,-0.249743 -3.2231,-0.680955 -1.0441,-0.431256 -1.9066,-0.987333 -2.6556,-1.79316 -0.7945,-0.805775 -1.4186,-1.668288 -1.85,-2.712385 -0.4879,-0.987378 -0.7376,-2.099545 -0.7376,-3.279883 v -16.558204 c 0,-1.112186 0.2494,-2.156283 0.6809,-3.21175 0.4313,-1.044097 0.9874,-1.918012 1.7932,-2.712411 0.7944,-0.749037 1.6683,-1.361877 2.7124,-1.861248 0.9873,-0.431257 2.0995,-0.68093 3.2798,-0.68093 z m -1.5435,10.815601 c 0,-0.680974 -0.2494,-1.293814 -0.6809,-1.725026 -0.4994,-0.431301 -1.0555,-0.680974 -1.7251,-0.680974 h -9.2721 c -0.681,0 -1.237,0.249412 -1.6683,0.680974 -0.4994,0.431212 -0.7376,1.044052 -0.7376,1.725026 v 11.859698 c 0,0.680955 0.2383,1.305147 0.7376,1.736403 0.4313,0.431301 0.9873,0.680974 1.6683,0.680974 h 9.2721 c 0.6696,0 1.2257,-0.249437 1.7251,-0.680974 0.4312,-0.431256 0.6809,-1.055448 0.6809,-1.736403 z m 27.7455,-2.962102 c -0.6242,0 -1.1122,0.181584 -1.4867,0.556102 -0.3745,0.363149 -0.5561,0.862513 -0.5561,1.475354 v 1.11223 c 0,0.624173 0.1816,1.112186 0.5561,1.486705 0.3745,0.431256 0.8625,0.61284 1.4867,0.61284 h 13.1535 c 1.1803,0 2.2244,0.249437 3.2799,0.680955 1.0441,0.431256 1.918,1.055467 2.7124,1.79316 0.749,0.805775 1.3619,1.668288 1.7932,2.723762 0.4312,1.04409 0.6809,2.099538 0.6809,3.268506 v 3.46143 c 0,1.180338 -0.2494,2.224435 -0.6809,3.279883 -0.4313,1.044097 -1.0442,1.90661 -1.7932,2.655654 -0.7944,0.805794 -1.6683,1.418635 -2.7124,1.849891 -1.0555,0.431282 -2.0996,0.680955 -3.2799,0.680955 h -16.1269 c -1.1689,0 -2.2244,-0.249743 -3.2686,-0.680955 -1.0554,-0.431256 -1.9179,-1.044097 -2.7237,-1.849891 -0.7944,-0.749044 -1.4186,-1.611557 -1.8499,-2.655654 -0.4312,-1.055448 -0.6809,-2.099545 -0.6809,-3.279883 v -1.974725 h 9.6353 v 0.556109 c 0,0.61284 0.1929,1.112205 0.6242,1.486749 0.3631,0.363168 0.8625,0.556103 1.4186,0.556103 h 9.7602 c 0.5561,0 1.0554,-0.192891 1.4867,-0.556103 0.3632,-0.374544 0.5561,-0.873909 0.5561,-1.486749 v -1.112186 c 0,-0.612891 -0.1929,-1.112211 -0.5561,-1.48673 -0.4313,-0.363193 -0.9306,-0.556128 -1.4867,-0.556128 h -13.1535 c -1.1803,0 -2.2926,-0.238321 -3.2799,-0.680904 -1.0441,-0.431282 -1.918,-1.11223 -2.7124,-1.906654 -0.8058,-0.805801 -1.3619,-1.668314 -1.7932,-2.723737 -0.4313,-1.044141 -0.6809,-2.156327 -0.6809,-3.336628 v -3.336621 c 0,-1.168943 0.2494,-2.224391 0.6809,-3.268513 0.4313,-1.055474 0.9874,-1.917987 1.7932,-2.723762 0.7944,-0.737686 1.6683,-1.361878 2.7124,-1.793134 0.9873,-0.431257 2.0996,-0.68093 3.2799,-0.68093 h 15.5027 c 1.1689,0 2.2244,0.249412 3.2798,0.68093 1.0442,0.431256 1.9067,1.055448 2.7125,1.793134 0.8058,0.805775 1.4186,1.668288 1.8499,2.723762 0.4426,1.044122 0.6809,2.09957 0.6809,3.268513 v 1.974744 h -9.6353 v -0.556128 c 0,-0.612841 -0.1818,-1.112205 -0.5561,-1.475354 -0.3745,-0.374518 -0.8625,-0.556102 -1.4867,-0.556102 z m 53.3148,-7.853499 c 1.1122,0 2.1677,0.192891 3.2118,0.624192 1.0555,0.431237 1.918,1.044097 2.7238,1.849872 0.7944,0.805775 1.4186,1.668288 1.8498,2.723762 0.4313,1.044122 0.681,2.09957 0.681,3.268513 v 16.558204 c 0,1.11223 -0.1816,2.167678 -0.6242,3.211775 -0.4312,1.055473 -1.0441,1.91798 -1.7818,2.723762 -0.8058,0.805794 -1.6683,1.418635 -2.7237,1.849891 -1.0555,0.431282 -2.1677,0.680955 -3.3367,0.680955 h -17.171 c -1.1122,0 -2.1677,-0.249743 -3.2231,-0.680955 -1.0441,-0.431256 -1.9066,-0.987333 -2.6557,-1.79316 -0.7944,-0.805775 -1.4186,-1.668288 -1.8499,-2.712385 -0.488,-0.987378 -0.7376,-2.099545 -0.7376,-3.279883 v -16.558204 c 0,-1.112186 0.2497,-2.156283 0.6809,-3.21175 0.4312,-1.044097 0.9873,-1.918012 1.7932,-2.712411 0.7943,-0.749037 1.6682,-1.361877 2.7124,-1.861248 0.9873,-0.431257 2.0995,-0.68093 3.2798,-0.68093 z m -1.5435,10.815601 c 0,-0.680974 -0.2494,-1.293814 -0.6809,-1.725026 -0.4993,-0.431301 -1.0554,-0.680974 -1.7251,-0.680974 h -9.272 c -0.6811,0 -1.2371,0.249412 -1.6684,0.680974 -0.4993,0.431212 -0.7377,1.044052 -0.7377,1.725026 v 11.859698 c 0,0.680955 0.2384,1.305147 0.7377,1.736403 0.4313,0.431301 0.9873,0.680974 1.6684,0.680974 h 9.272 c 0.6697,0 1.2258,-0.249437 1.7251,-0.680974 0.4313,-0.431256 0.6809,-1.055448 0.6809,-1.736403 z m 37.3128,-2.406 h -7.5357 v 25.081325 h -10.0099 v -25.081325 h -5.6177 v -8.409601 h 5.6177 v -4.936846 c 0,-1.180294 0.2494,-2.292505 0.681,-3.336602 0.4312,-1.055448 1.0554,-1.917961 1.8612,-2.723781 0.7377,-0.794424 1.6683,-1.418616 2.7124,-1.90661 1.0555,-0.442634 2.1677,-0.680955 3.4047,-0.680955 h 9.2608 v 8.398301 h -5.4929 c -0.6809,0 -1.3052,0.249743 -1.7364,0.680929 -0.4313,0.43125 -0.6809,1.04409 -0.6809,1.725045 v 2.780519 h 7.5357 z m 18.1045,14.265698 c 0,0.680955 0.2494,1.305147 0.681,1.736403 0.4312,0.431301 1.0554,0.680974 1.7363,0.680974 h 7.1045 v 8.39825 h -11.0653 c -1.1689,0 -2.2244,-0.249743 -3.2685,-0.680955 -1.0554,-0.431256 -1.918,-0.987333 -2.6557,-1.79316 -0.8057,-0.805775 -1.4186,-1.668288 -1.8612,-2.712385 -0.4312,-0.987378 -0.6696,-2.099545 -0.6696,-3.279883 v -16.614942 h -5.561 v -8.409601 h 5.561 v -7.842192 h 9.9985 v 7.842192 h 9.8283 v 8.409601 h -9.8283 z m 0,0"
         style="fill:#1d8bf2;fill-opacity:1;fill-rule:nonzero;stroke:none;stroke-width:0.968451"
         aria-label="Maiprosoft" /></g><path
       style="fill:#1d8bf2;fill-opacity:1;stroke-width:0.0478761"
       d="M 51.453082,7.2271248 C 50.70972,7.1594175 50.043302,6.8523668 49.533276,6.3425807 49.064192,5.8737183 48.774074,5.2920463 48.670541,4.6128411 48.639991,4.4124435 48.639721,3.9791332 48.670156,3.776063 c 0.202808,-1.3599967 1.229055,-2.3858505 2.593078,-2.5920859 0.202084,-0.030555 0.635131,-0.03045 0.836042,1.964e-4 0.668733,0.1020167 1.256394,0.3943995 1.721342,0.8564337 0.399916,0.3974048 0.68687,0.9091614 0.817498,1.4579274 0.05905,0.2480437 0.07601,0.4034424 0.07601,0.6962856 0,0.3793283 -0.04155,0.6354515 -0.160299,0.9880468 -0.06249,0.1855551 -0.215924,0.5005916 -0.326975,0.6713646 -0.473161,0.727601 -1.246955,1.221183 -2.115715,1.3495572 -0.12878,0.019032 -0.543616,0.033738 -0.657893,0.023336 z M 51.985439,7.04497 c 0.656597,-0.077394 1.216789,-0.3401415 1.678181,-0.7871077 0.253322,-0.2454029 0.436859,-0.4941654 0.582851,-0.7899806 0.20532,-0.416034 0.297423,-0.812851 0.297423,-1.2814305 0,-0.4475111 -0.09318,-0.8482501 -0.291128,-1.2520227 -0.427612,-0.872241 -1.252741,-1.4611526 -2.219668,-1.5842237 -0.220519,-0.028067 -0.634938,-0.019191 -0.833361,0.017852 -0.299217,0.055858 -0.523395,0.1292318 -0.779035,0.2549756 -0.582546,0.2865434 -1.025245,0.7291858 -1.311567,1.3113972 -0.198342,0.403307 -0.290842,0.8041715 -0.290842,1.2603928 0,0.4563931 0.09179,0.8537792 0.291128,1.2603929 0.2844,0.5801166 0.731555,1.0272468 1.311281,1.3112026 0.276281,0.1353265 0.585146,0.2315466 0.848704,0.2643975 0.0627,0.00782 0.128257,0.016269 0.145677,0.01879 0.07173,0.010347 0.470657,0.00715 0.570356,-0.00462 z M 50.021681,6.352133 c -0.05144,-0.018383 -0.06803,-0.098242 -0.02797,-0.1345153 0.04281,-0.038736 0.239782,-0.1222782 0.390817,-0.1657503 0.176774,-0.050877 0.476241,-0.1037239 0.65891,-0.1162615 0.0708,-0.00484 0.135744,-0.013176 0.144316,-0.018471 0.01879,-0.011602 0.03553,-0.1056833 0.03653,-0.2054093 l 7.71e-4,-0.072837 h 0.340176 0.340171 l 0.0072,0.1292393 c 0.0054,0.097075 0.01211,0.1328774 0.02712,0.1438585 0.01101,0.00804 0.07845,0.018636 0.149892,0.023534 0.183727,0.012615 0.482663,0.065308 0.661493,0.1165918 0.172192,0.04938 0.379039,0.1439895 0.39985,0.1828769 0.0206,0.038482 0.01024,0.075831 -0.02905,0.1050778 l -0.03498,0.026033 -0.09578,-0.048004 C 52.625587,6.1349148 51.956785,6.0420971 51.2821,6.0809174 c -0.51077,0.02939 -0.858781,0.1002456 -1.130278,0.2301223 -0.05734,0.027431 -0.105794,0.049424 -0.107676,0.048873 -0.002,-5.405e-4 -0.01195,-0.00407 -0.02241,-0.00782 z M 49.546425,5.4566254 c -0.05176,-0.022631 -0.115927,-0.098198 -0.132799,-0.1563752 -0.0097,-0.033485 -0.01273,-0.4278857 -0.01002,-1.3228507 l 0.0039,-1.2751396 0.038,-0.053794 c 0.0209,-0.029588 0.06079,-0.065704 0.08867,-0.080256 0.04985,-0.026033 0.06555,-0.026517 0.978291,-0.02994 l 0.927625,-0.00352 -0.0074,0.037029 c -0.0041,0.020364 -0.0012,0.065286 0.0061,0.099827 0.01257,0.05856 0.01057,0.069446 -0.02943,0.1615069 -0.03452,0.07943 -0.05459,0.1076206 -0.102723,0.144334 -0.03418,0.026077 -0.07663,0.075468 -0.09907,0.1152939 -0.03888,0.069017 -0.03925,0.071395 -0.03925,0.2533449 0,0.1819512 3.85e-4,0.1843299 0.03925,0.253346 0.02246,0.039825 0.06488,0.089216 0.09907,0.115294 0.04814,0.03671 0.0682,0.0649 0.102723,0.144334 0.03976,0.091439 0.04194,0.1032396 0.0297,0.160219 -0.01543,0.071934 0.0012,0.1703921 0.03902,0.2315786 0.01326,0.021421 0.07733,0.09112 0.142393,0.1549034 0.103768,0.1017206 0.127527,0.1186491 0.193485,0.1378231 0.05999,0.017436 0.0889,0.019373 0.142994,0.00958 0.0623,-0.011294 0.07612,-0.00892 0.170217,0.028994 0.0858,0.034597 0.109823,0.051009 0.148122,0.1012252 0.02615,0.034289 0.07527,0.076524 0.11479,0.098694 0.06436,0.036116 0.0796,0.03911 0.222898,0.043887 0.11511,0.00385 0.171131,8.59e-5 0.222609,-0.014882 0.07426,-0.021586 0.165055,-0.090119 0.194284,-0.1466423 0.01312,-0.025361 0.04641,-0.046595 0.125794,-0.08019 0.09643,-0.040816 0.113069,-0.044294 0.155802,-0.032494 0.110658,0.030557 0.219581,-0.00991 0.351633,-0.1305823 l 0.07147,-0.065319 -0.0039,0.4736595 c -0.0042,0.5322723 -0.0015,0.51693 -0.103097,0.5989889 l -0.04868,0.039341 -1.997083,0.00275 c -1.631177,0.0022 -2.004091,-3.302e-4 -2.035325,-0.01399 z m 0.688213,-0.603599 c 0.05199,-0.048433 0.03765,-0.08161 -0.09236,-0.2139566 l -0.12009,-0.1222309 0.12009,-0.1195902 c 0.07362,-0.073321 0.12009,-0.1296236 0.12009,-0.1455217 0,-0.045428 -0.03569,-0.082237 -0.07971,-0.082237 -0.0346,0 -0.06219,0.021872 -0.195626,0.1549838 -0.131183,0.1308674 -0.155353,0.1610237 -0.155353,0.1938019 0,0.032935 0.02461,0.063172 0.162594,0.1996986 0.09793,0.096899 0.172547,0.1608827 0.187622,0.1608827 0.01377,0 0.03749,-0.011624 0.05275,-0.025835 z m 0.407021,0.00363 c 0.02133,-0.017282 0.04264,-0.082578 0.09609,-0.2945141 0.07376,-0.2925482 0.0803,-0.341852 0.0494,-0.3727414 -0.02728,-0.027266 -0.08555,-0.02502 -0.112098,0.00429 -0.02041,0.022554 -0.159343,0.5550359 -0.159343,0.6107219 0,0.030689 0.04383,0.074422 0.0746,0.074422 0.01315,0 0.03626,-0.010017 0.05135,-0.022202 z m 0.69271,-0.1329676 c 0.09664,-0.09636 0.158796,-0.1685869 0.164007,-0.1905602 0.0077,-0.032351 -0.0055,-0.049446 -0.153992,-0.1995092 -0.141749,-0.1432561 -0.167617,-0.164122 -0.203472,-0.164122 -0.04426,0 -0.08051,0.036292 -0.08051,0.080597 0,0.013638 0.05267,0.0779 0.120109,0.1465443 l 0.120113,0.122254 -0.102029,0.100818 c -0.09583,0.094687 -0.138192,0.1508163 -0.138192,0.1830992 0,0.024459 0.06123,0.076062 0.09027,0.076062 0.01902,0 0.0784,-0.050161 0.183698,-0.1551731 z m 1.137011,-0.08598 c -0.04731,-0.023413 -0.07981,-0.065517 -0.09757,-0.1263786 -0.0031,-0.010567 -0.04469,-0.031845 -0.09265,-0.047387 -0.04787,-0.015521 -0.124603,-0.0472 -0.170499,-0.070404 l -0.08345,-0.042192 -0.04303,0.023072 c -0.08864,0.047544 -0.148751,0.023459 -0.279877,-0.1121151 -0.111469,-0.1152543 -0.127003,-0.1558677 -0.09255,-0.2419653 0.02118,-0.052935 0.02118,-0.053001 -0.02346,-0.1577467 -0.02457,-0.057635 -0.05444,-0.1352121 -0.06641,-0.1723911 -0.01195,-0.037183 -0.03094,-0.070316 -0.04212,-0.07364 -0.117262,-0.034839 -0.15348,-0.099024 -0.153078,-0.2712772 3.82e-4,-0.1751518 0.03387,-0.2337339 0.154231,-0.2700543 0.01218,-0.00363 0.02774,-0.02961 0.03587,-0.059793 0.0079,-0.029313 0.03726,-0.106707 0.06525,-0.1719684 l 0.0509,-0.1186667 -0.02118,-0.052935 c -0.03444,-0.086079 -0.0189,-0.1266978 0.09256,-0.2419466 0.131531,-0.135998 0.190202,-0.1592734 0.282669,-0.1121326 0.04512,0.023006 0.04535,0.022984 0.104714,-0.011008 0.03271,-0.018735 0.108303,-0.050492 0.167957,-0.070558 0.06087,-0.020485 0.110944,-0.044823 0.114111,-0.055489 0.03545,-0.1193283 0.09367,-0.1520063 0.270792,-0.1520063 0.17534,0 0.224869,0.023501 0.259053,0.122942 0.01165,0.033936 0.02638,0.050337 0.05238,0.058417 0.0199,0.00616 0.09939,0.036446 0.176656,0.067245 0.133992,0.053409 0.142196,0.055115 0.177342,0.036787 0.04362,-0.022742 0.09744,-0.024844 0.135855,-0.00528 0.03991,0.020309 0.209956,0.1887868 0.231276,0.2291338 0.02341,0.044294 0.02284,0.095711 -0.0015,0.1425464 -0.01848,0.035433 -0.01747,0.042148 0.01913,0.1266724 0.02126,0.049094 0.05169,0.1283544 0.06766,0.176137 0.02658,0.079518 0.03302,0.088247 0.07608,0.1030525 0.100521,0.034564 0.122818,0.081863 0.122818,0.2606032 0,0.1748062 -0.02361,0.2248035 -0.122119,0.2586715 -0.04331,0.014893 -0.04904,0.023325 -0.08718,0.1283874 -0.02246,0.061851 -0.0527,0.1394235 -0.06722,0.17239 -0.02418,0.05495 -0.02484,0.063612 -0.0079,0.1040982 0.04041,0.096723 0.02203,0.1399277 -0.117162,0.2751024 -0.115519,0.1121931 -0.162062,0.1300176 -0.243562,0.093267 -0.04795,-0.021619 -0.04874,-0.021509 -0.141703,0.019318 -0.05142,0.022576 -0.129729,0.053298 -0.174028,0.068247 -0.07268,0.024536 -0.08213,0.03179 -0.09672,0.074246 -0.03395,0.098705 -0.08408,0.1228209 -0.255339,0.1228066 -0.09996,-7.7e-6 -0.135111,-0.00517 -0.176848,-0.025791 z m 0.388054,-0.5924836 c 0.133648,-0.046606 0.207352,-0.092926 0.303731,-0.1908694 0.182549,-0.1855253 0.24723,-0.4031034 0.195494,-0.6576129 -0.07002,-0.344452 -0.349398,-0.57338 -0.702188,-0.57539 -0.14502,-8.101e-4 -0.248902,0.023699 -0.370113,0.0874 -0.183584,0.09647 -0.319813,0.2882322 -0.358317,0.5043738 -0.02287,0.1284546 -0.02287,0.1691769 1.43e-4,0.2786666 0.05854,0.2788108 0.284118,0.5069848 0.563636,0.570114 0.104924,0.023699 0.273828,0.016027 0.367637,-0.016676 z"
       id="path2"
       inkscape:export-filename="CSD.svg"
       inkscape:export-xdpi="96"
       inkscape:export-ydpi="96" /><path
       style="fill:#1d8bf2;fill-opacity:1;stroke-width:0.234202"
       d="m 67.954999,7.7859321 c -0.06284,-0.023072 -0.07946,-0.071934 -0.07024,-0.2065548 0.01433,-0.2091458 0.127361,-0.3779924 0.312115,-0.4662637 0.07144,-0.034134 0.109803,-0.041234 0.253971,-0.04703 l 0.16982,-0.00681 V 6.8956701 6.7320593 l -0.750978,-0.00431 -0.750978,-0.00431 -0.117447,-0.057397 c -0.14239,-0.069601 -0.263565,-0.185088 -0.327891,-0.3125182 -0.09296,-0.1841497 -0.09009,-0.1236258 -0.09005,-1.9019051 4.3e-5,-1.7682745 -0.0011,-1.7441537 0.08548,-1.9062069 0.06218,-0.1164582 0.210454,-0.2594359 0.324302,-0.3127122 0.131029,-0.061316 0.221403,-0.075526 0.480327,-0.075526 h 0.222295 l 0.01874,-0.1169867 C 67.785755,1.595178 68.057982,1.1627535 68.42685,0.90855997 69.484797,0.17950872 70.921289,0.76449739 71.150064,2.0175444 l 0.0255,0.1396295 h 0.222447 c 0.268825,0 0.352233,0.014051 0.492915,0.083043 0.1889,0.092638 0.33141,0.2777733 0.376094,0.4885891 0.03234,0.1525687 0.03143,3.3025158 -9.88e-4,3.4400281 -0.05294,0.2245556 -0.188228,0.3947656 -0.395005,0.4969866 l -0.116518,0.057602 -0.75179,0.00431 -0.751791,0.00431 v 0.1636192 0.1636108 l 0.169819,0.00681 c 0.14552,0.00588 0.182213,0.01274 0.256434,0.048192 0.185396,0.088553 0.298472,0.2578203 0.310449,0.4647225 0.008,0.138884 -0.0087,0.1841078 -0.07693,0.207897 -0.05929,0.02067 -2.899291,0.019741 -2.955699,-9.884e-4 z m 2.785627,-0.2587017 c -0.0303,-0.098231 -0.08652,-0.1618223 -0.176192,-0.1992882 -0.04869,-0.020344 -0.194553,-0.023362 -1.128633,-0.023362 -0.934081,0 -1.079944,0.00305 -1.128633,0.023362 -0.08967,0.037464 -0.14589,0.1010573 -0.176193,0.1992882 l -0.01052,0.033963 h 1.3153 1.315302 z M 70.00615,6.900787 70.00194,6.7385155 h -0.566063 -0.566064 l -0.0042,0.1622715 -0.0042,0.1622715 h 0.574633 0.574632 z m 1.727782,-0.4315974 c 0.09822,-0.038137 0.212946,-0.1454047 0.261372,-0.2443845 0.03032,-0.061967 0.04212,-0.1135594 0.04818,-0.2106153 l 0.008,-0.1285442 h -2.615701 -2.615696 l 0.0078,0.1257707 c 0.0094,0.1498058 0.0439,0.2370143 0.131608,0.3321677 0.06904,0.074905 0.168315,0.1281536 0.272184,0.1460013 0.03746,0.00645 1.049665,0.010736 2.249343,0.00954 2.080018,-0.00205 2.184556,-0.00347 2.252846,-0.029953 z M 67.233021,6.2534383 c -0.01721,-0.021874 -0.03129,-0.054924 -0.03129,-0.07344 0,-0.018516 0.01408,-0.051565 0.03129,-0.07344 0.02837,-0.036053 0.04096,-0.039774 0.134761,-0.039774 0.0938,0 0.106396,0.00368 0.134758,0.039774 0.01721,0.021875 0.03129,0.054924 0.03129,0.07344 0,0.018516 -0.01408,0.051565 -0.03129,0.07344 -0.02836,0.036062 -0.04096,0.039774 -0.134758,0.039774 -0.0938,0 -0.106398,-0.00368 -0.134761,-0.039774 z m 0.498136,0 c -0.0172,-0.021874 -0.03128,-0.054924 -0.03128,-0.07344 0,-0.018516 0.01408,-0.051565 0.03128,-0.07344 0.02837,-0.036053 0.04096,-0.039774 0.13476,-0.039774 0.0938,0 0.106398,0.00368 0.13476,0.039774 0.01721,0.021875 0.03129,0.054924 0.03129,0.07344 0,0.018516 -0.01408,0.051565 -0.03129,0.07344 -0.02836,0.036062 -0.04096,0.039774 -0.13476,0.039774 -0.0938,0 -0.106397,-0.00368 -0.13476,-0.039774 z m 0.499673,0.00482 c -0.0436,-0.046406 -0.04266,-0.1166007 0.0021,-0.1586677 0.04595,-0.043175 0.201082,-0.047143 0.250151,-0.00638 0.04854,0.040306 0.05588,0.1091845 0.0169,0.1587364 -0.02964,0.037691 -0.04131,0.041269 -0.134404,0.041269 -0.08704,0 -0.106735,-0.0051 -0.134759,-0.034933 z m 2.065977,0.0019 c -0.04192,-0.044997 -0.04,-0.1190815 0.0042,-0.1605674 0.03471,-0.032603 0.03912,-0.032823 0.655537,-0.032823 h 0.620602 l 0.03129,0.039774 c 0.03969,0.050459 0.03969,0.096417 0,0.1468786 l -0.03129,0.039774 h -0.624759 c -0.623264,0 -0.624833,-7.86e-5 -0.655538,-0.033035 z m -0.267219,-1.03557 c 0.196668,-0.1848398 0.196439,-0.1847023 0.29328,-0.1757994 0.195614,0.017985 0.928573,0.049368 0.951953,0.040759 0.01387,-0.0051 0.09146,-0.060054 0.172416,-0.1221072 l 0.1472,-0.1128216 0.05658,0.023085 c 0.03113,0.012698 0.133002,0.057545 0.226402,0.099653 l 0.169819,0.076563 V 4.9212474 4.78857 L 71.851822,4.7010483 71.656404,4.6135258 71.501787,4.3806257 C 71.416747,4.2525308 71.335314,4.14138 71.320822,4.1336243 71.306332,4.1258543 71.15107,4.1195233 70.9758,4.1195233 c -0.318219,0 -0.318728,5.31e-5 -0.355727,0.037053 -0.02038,0.02038 -0.03705,0.053782 -0.03705,0.07424 0,0.1143084 0.04392,0.1302285 0.359265,0.1302285 h 0.255099 l 0.08267,0.1245342 c 0.04547,0.068494 0.09415,0.142189 0.108174,0.1637667 l 0.02551,0.039235 -0.109682,0.082611 -0.109682,0.082612 -0.233973,-0.012216 c -0.128691,-0.00673 -0.33938,-0.01858 -0.468205,-0.026361 L 70.25797,4.8010827 70.06996,4.7007792 c -0.236479,-0.1261619 -0.256793,-0.1307146 -0.316562,-0.070946 -0.08613,0.086137 -0.05683,0.148215 0.112607,0.2385704 0.05812,0.030987 0.108256,0.058333 0.111424,0.06077 0.0032,0.00241 -0.04405,0.051076 -0.104915,0.108091 -0.09985,0.093539 -0.110668,0.1092645 -0.110668,0.1609748 0,0.070691 0.0463,0.113799 0.122229,0.113799 0.04315,0 0.069,-0.015533 0.145504,-0.087443 z M 67.322496,4.4768717 c 0.112081,-0.052458 0.228629,-0.1072513 0.258997,-0.1217578 0.123748,-0.059119 0.101832,-0.2355886 -0.02927,-0.2355886 -0.01939,0 -0.124325,0.041219 -0.233182,0.0916 -0.226906,0.1050151 -0.177028,0.1126947 -0.3811,-0.058679 l -0.113588,-0.09539 v 0.1572793 0.1572803 l 0.0868,0.074815 c 0.110268,0.095047 0.155579,0.1259632 0.1845,0.1258867 0.01268,-3.4e-5 0.114759,-0.042984 0.226839,-0.095443 z M 69.315041,3.4546579 V 3.0765976 l 0.03705,-0.037053 c 0.02335,-0.023356 0.0543,-0.037053 0.08371,-0.037053 0.02941,0 0.06035,0.013697 0.08371,0.037053 l 0.03705,0.037053 V 3.4560757 3.835554 l 0.07925,-0.010685 c 0.04359,-0.00588 0.08434,-0.013712 0.09057,-0.017403 0.0062,-0.00368 0.01132,-0.1882042 0.01132,-0.4100282 0,-0.4582543 -0.0057,-0.4349299 0.129121,-0.5244478 0.386336,-0.2564366 0.455587,-0.8214377 0.141891,-1.1576743 l -0.07363,-0.078919 -0.0011,0.3169958 c -7.76e-4,0.224521 -0.0064,0.3240096 -0.01945,0.3410394 -0.03134,0.040972 -0.420679,0.3017084 -0.463235,0.3102201 -0.03261,0.00652 -0.08204,-0.019777 -0.260257,-0.1384582 C 69.06308,2.3809818 68.964039,2.3043399 68.954318,2.2830061 68.943898,2.2602031 68.937388,2.130954 68.937028,1.9413616 l -5.85e-4,-0.3049644 -0.07435,0.079696 c -0.07926,0.084971 -0.154461,0.2253308 -0.179925,0.3358389 -0.02228,0.096674 -0.01952,0.2804864 0.0057,0.3749721 0.0478,0.1795765 0.165168,0.3453739 0.314816,0.4447052 0.04436,0.029449 0.09034,0.065184 0.102158,0.07941 0.01702,0.020479 0.02307,0.112685 0.02903,0.4424653 l 0.0076,0.4165992 0.05284,0.00932 c 0.02905,0.0051 0.06812,0.010228 0.08679,0.011324 l 0.03396,0.00199 z M 68.892379,3.4057642 V 3.0844758 l -0.04275,-0.025262 C 68.770229,3.0123188 68.599228,2.8161277 68.54099,2.7051237 68.30586,2.2569611 68.439864,1.6904635 68.848957,1.4031659 c 0.132777,-0.093245 0.195412,-0.1159027 0.253687,-0.091764 0.07126,0.02952 0.07655,0.062229 0.07655,0.4739245 v 0.3814914 l 0.129277,0.087814 0.129278,0.087814 0.127338,-0.087389 0.127338,-0.087388 V 1.7857522 c 0,-0.2516966 0.0058,-0.3946778 0.01706,-0.4193443 0.02071,-0.045443 0.08877,-0.076243 0.136558,-0.06179 0.105536,0.031908 0.289168,0.1730196 0.381583,0.2932271 0.249942,0.3251022 0.289617,0.7515956 0.103,1.1072817 -0.05823,0.1110041 -0.229241,0.3071922 -0.308634,0.3540904 l -0.04276,0.025262 v 0.3212885 c 0,0.2100683 0.0054,0.3212891 0.01552,0.3212891 0.02583,0 0.197542,-0.090806 0.293923,-0.1554328 0.113324,-0.075988 0.314638,-0.2779622 0.388079,-0.3893517 0.309497,-0.4694184 0.348114,-1.0268736 0.105493,-1.5228144 -0.18833,-0.3849621 -0.539179,-0.66697053 -0.981513,-0.78892748 -0.166578,-0.0459248 -0.560821,-0.0457333 -0.729858,3.5147e-4 -0.286702,0.0781728 -0.505216,0.20446171 -0.707367,0.40882071 -0.202908,0.2051236 -0.339132,0.4547702 -0.40068,0.7342864 -0.03539,0.160712 -0.03533,0.4692101 1.24e-4,0.6323809 0.07941,0.3655067 0.307289,0.7089319 0.608962,0.9177382 0.08729,0.060423 0.275776,0.1620058 0.301601,0.1625493 0.01452,3.047e-4 0.01887,-0.073712 0.01887,-0.3208917 z"
       id="path3"
       inkscape:export-filename="Core Services.svg"
       inkscape:export-xdpi="96"
       inkscape:export-ydpi="96" /><path
       style="fill:#1d8bf2;fill-opacity:1;stroke-width:0.05923"
       d="M 90.848263,7.101349 C 90.721307,7.03532 90.683716,6.9603977 90.683716,6.7733907 c 0,-0.1501123 0.02019,-0.2136081 0.08817,-0.2771677 0.07401,-0.069199 0.112671,-0.075435 0.467612,-0.075435 0.260841,0 0.373464,-0.00674 0.512214,-0.030664 0.683236,-0.1177915 1.298275,-0.5473527 1.638934,-1.1446797 0.158981,-0.2787689 0.170109,-0.3161041 0.248929,-0.8351602 0.07929,-0.5221665 0.08055,-0.5741064 0.02045,-0.8514637 C 93.560112,3.0976163 93.357554,2.7309888 93.011454,2.3848878 92.663348,2.0367799 92.305203,1.8396575 91.825847,1.7323306 c -0.14132,-0.031643 -0.204848,-0.036423 -0.483934,-0.036423 -0.27909,0 -0.342614,0.00478 -0.483937,0.036423 -0.932851,0.2088643 -1.635261,0.9083262 -1.834189,1.8264899 -0.06223,0.2871992 -0.06106,0.3106926 0.05228,1.059774 0.05673,0.3749346 0.10315,0.7099074 0.103162,0.744384 1.4e-5,0.1462082 -0.08162,0.2169852 -0.317539,0.2752767 -0.29223,0.072208 -0.478805,0.021156 -0.685768,-0.1876376 -0.257514,-0.2597894 -0.393633,-0.6728204 -0.371188,-1.1262982 0.0209,-0.4219687 0.180466,-0.7477962 0.454247,-0.9274703 0.103778,-0.068104 0.263563,-0.1259815 0.347807,-0.1259815 0.05011,0 0.05198,-0.0026 0.101659,-0.1414751 0.313393,-0.876111 1.035744,-1.5408758 1.924732,-1.7712903 0.530683,-0.1375463 1.052053,-0.1214763 1.586321,0.048894 0.201916,0.064389 0.555403,0.2423144 0.736548,0.370737 0.19099,0.1354038 0.526905,0.4712632 0.662671,0.6625589 0.117511,0.1655802 0.30313,0.5286929 0.356483,0.6973702 0.01907,0.060334 0.03926,0.1147842 0.04484,0.1210003 0.0056,0.00621 0.06289,0.01859 0.12735,0.027497 0.260475,0.035995 0.453234,0.1875085 0.588638,0.4626809 0.0891,0.1810842 0.129947,0.3460806 0.142349,0.5750254 0.0244,0.4504405 -0.112386,0.8664293 -0.370477,1.1267071 -0.222908,0.2247972 -0.407412,0.2710913 -0.712016,0.1786549 -0.04232,-0.012841 -0.08894,-0.023346 -0.103633,-0.023346 -0.01505,0 -0.06285,0.049513 -0.10968,0.1136163 -0.137669,0.188479 -0.469472,0.5063253 -0.665707,0.6377054 -0.217987,0.1459459 -0.496522,0.2818784 -0.730986,0.3567436 l -0.182497,0.058272 -0.0064,0.089163 c -0.0076,0.106285 -0.05988,0.1854849 -0.153833,0.233413 -0.05681,0.02898 -0.09265,0.031192 -0.504486,0.031102 -0.371021,-8.27e-5 -0.451007,-0.00408 -0.490354,-0.024546 z M 89.905749,6.1231659 c -0.05107,-0.020609 -0.08391,-0.078506 -0.08428,-0.1485778 -1.83e-4,-0.034712 0.02541,-0.1802403 0.05682,-0.3233929 l 0.05714,-0.2602767 -0.09208,-0.1097727 C 89.569413,4.9545623 89.415411,4.5138213 89.414718,4.0544299 c -3.72e-4,-0.3050842 0.06318,-0.5842966 0.194845,-0.8548944 0.232126,-0.4770688 0.651169,-0.8340861 1.155712,-0.984649 0.228864,-0.068297 0.30834,-0.079208 0.576635,-0.079158 0.191633,3.47e-5 0.29306,0.00748 0.39178,0.028763 0.394187,0.084978 0.703784,0.2531277 0.979928,0.5322217 0.354892,0.358687 0.529342,0.7637428 0.551649,1.2808745 0.01475,0.3423838 -0.048,0.6409302 -0.199033,0.9465967 -0.105798,0.2141336 -0.202785,0.3491207 -0.365316,0.5084844 -0.159061,0.155955 -0.275275,0.239457 -0.470362,0.3379597 -0.475072,0.2398701 -1.014417,0.2784839 -1.522838,0.1090256 L 90.5515,5.8275861 90.327628,5.9525978 c -0.231824,0.1294523 -0.34564,0.1858884 -0.372623,0.1847704 -0.0086,-3.554e-4 -0.03077,-0.00674 -0.04926,-0.014201 z m 0.616325,-1.7410471 c 0.08875,-0.04296 0.156821,-0.1273151 0.187581,-0.2324295 0.08467,-0.2893546 -0.219257,-0.5485365 -0.496075,-0.4230386 -0.144047,0.065304 -0.210403,0.1686781 -0.210403,0.3277792 0,0.1535462 0.07817,0.278178 0.210403,0.3354537 0.08147,0.035287 0.227136,0.03162 0.308494,-0.00776 z m 0.96871,0.00332 c 0.233075,-0.1069171 0.285282,-0.4167731 0.09986,-0.5926932 -0.230323,-0.2185185 -0.608487,-0.055876 -0.608487,0.2616989 0,0.2053194 0.154429,0.3597503 0.359751,0.3597503 0.05038,0 0.112233,-0.011947 0.148875,-0.028755 z m 0.968204,0.00831 c 0.289047,-0.121122 0.302716,-0.5308969 0.02205,-0.661564 -0.285113,-0.1327478 -0.59357,0.1213206 -0.506893,0.4175206 0.04875,0.1666031 0.176509,0.2651438 0.343784,0.2651669 0.04984,6.7e-6 0.113305,-0.00949 0.14104,-0.021119 z"
       id="path4"
       inkscape:export-filename="Other Services.svg"
       inkscape:export-xdpi="96"
       inkscape:export-ydpi="96" /><path
       style="fill:#1d8bf2;fill-opacity:1;stroke-width:0.564772"
       d="M 108.27575,5.8797428 V 4.3822563 h 3.18138 3.18138 v 1.4974865 1.4974864 h -3.18138 -3.18138 z m 2.24933,0.7518499 V 6.4451836 h -0.27961 -0.27962 V 6.2591067 6.0730299 l 0.18331,-0.00344 0.1833,-0.00344 V 5.8797428 5.6933336 l -0.1833,-0.00344 -0.18331,-0.00344 V 5.5003787 5.3143019 h 0.27962 0.27961 V 5.1277433 4.9411846 l -0.46913,0.00325 -0.46913,0.00327 -0.003,0.9351524 -0.003,0.9351523 h 0.47231 0.47232 z m 0.74564,-0.1864091 v -0.372818 h 0.12243 c 0.10661,0 0.1279,0.00365 0.16466,0.028209 0.0805,0.053788 0.0857,0.078861 0.0857,0.4160657 l 2e-5,0.3013614 h 0.18728 0.18727 l -0.004,-0.3510701 -0.004,-0.3510705 -0.0347,-0.07404 c -0.0191,-0.040721 -0.049,-0.092776 -0.0664,-0.1156785 l -0.0318,-0.041641 0.0316,-0.045877 c 0.0174,-0.025232 0.0473,-0.079429 0.0663,-0.1204395 0.031,-0.066618 0.0347,-0.088472 0.0348,-0.20505 9e-5,-0.1068376 -0.005,-0.1443556 -0.029,-0.2070185 -0.0547,-0.1440902 -0.18083,-0.2681524 -0.33458,-0.3290728 -0.0668,-0.026454 -0.093,-0.028561 -0.40997,-0.032949 l -0.33864,-0.00468 v 0.9392965 0.9392971 h 0.18641 0.18641 z m 0,-0.9459181 V 5.3114109 l 0.12393,0.00497 c 0.1,0.00401 0.13046,0.00985 0.15768,0.030174 0.11607,0.086659 0.11871,0.2367107 0.005,0.3123476 -0.0368,0.024561 -0.0581,0.028208 -0.16466,0.028208 h -0.12245 z m 1.49127,0.9459181 v -0.372818 l 0.0963,-9.41e-5 c 0.21538,-2.098e-4 0.36251,-0.049972 0.48206,-0.1630365 0.0812,-0.076833 0.14938,-0.2049653 0.16769,-0.3153196 0.0481,-0.2896368 -0.15232,-0.5769546 -0.44531,-0.6385806 -0.0381,-0.00802 -0.19399,-0.013851 -0.36971,-0.013851 h -0.30386 v 0.938259 0.9382592 h 0.18641 0.18641 z m 0.003,-0.941366 0.003,-0.1833022 0.11806,5.006e-4 c 0.13573,5.759e-4 0.1813,0.017893 0.22249,0.08455 0.0338,0.054628 0.0349,0.1497656 0.002,0.1990216 -0.0454,0.068886 -0.0817,0.082362 -0.22218,0.082451 l -0.12771,8.19e-5 z M 108.64856,3.6567724 V 3.3041068 l 0.0528,-0.013666 c 0.029,-0.0075 0.17955,-0.04526 0.33445,-0.083876 l 0.28164,-0.070211 0.0274,-0.076083 c 0.0151,-0.041847 0.0469,-0.1189882 0.0707,-0.1714286 l 0.0433,-0.095345 -0.17687,-0.2944886 -0.17687,-0.2944884 0.36737,-0.3673694 0.36737,-0.3673693 0.29509,0.1769475 0.29508,0.1769477 0.0941,-0.042704 c 0.0518,-0.023486 0.12852,-0.055122 0.17058,-0.070298 l 0.0765,-0.027594 0.0835,-0.3343074 0.0835,-0.3343073 h 0.51894 0.51894 l 0.0836,0.3349917 0.0837,0.3349917 0.0639,0.020718 c 0.0351,0.011395 0.11178,0.042736 0.17035,0.069645 l 0.10647,0.048928 0.29514,-0.1769793 0.29514,-0.1769793 0.36737,0.3673694 0.36737,0.3673693 -0.17687,0.2944883 -0.17687,0.2944886 0.0433,0.095346 c 0.0238,0.052441 0.0554,0.1290975 0.0703,0.1703496 l 0.0271,0.075004 0.29446,0.073031 c 0.16195,0.040166 0.31263,0.077979 0.33484,0.084028 l 0.0404,0.010998 v 0.353591 0.353593 h -0.94206 -0.94204 l 0.005,-0.1460204 c 0.006,-0.1917565 -0.0152,-0.294495 -0.097,-0.4599684 -0.10956,-0.2216801 -0.3019,-0.3891016 -0.54034,-0.4703375 -0.14037,-0.047822 -0.36672,-0.05644 -0.51272,-0.019519 -0.26763,0.067678 -0.49572,0.2495779 -0.61471,0.4902186 -0.0775,0.156801 -0.0904,0.2171003 -0.0904,0.4223248 v 0.183302 h -0.94138 -0.94137 z m 2.2628,0.2899176 c -0.0402,-0.187391 0.01,-0.3685726 0.13997,-0.5060827 0.10977,-0.1160611 0.24919,-0.1768057 0.4058,-0.1768057 0.15661,0 0.29603,0.060745 0.40579,0.1768057 0.13005,0.1375101 0.18017,0.3186917 0.13998,0.5060827 l -0.0135,0.062749 h -0.53232 -0.53231 z"
       id="path5"
       inkscape:export-filename="ERP.svg"
       inkscape:export-xdpi="96"
       inkscape:export-ydpi="96" /><path
       style="fill:#1d8bf2;fill-opacity:1;stroke-width:0.938213"
       d="m 32.994132,21.604623 c -0.0217,-0.0146 -0.0513,-0.04427 -0.0659,-0.06594 l -0.0265,-0.0394 V 20.81878 20.138275 l -0.45239,-0.0042 c -0.42964,-0.0039 -0.45579,-0.0054 -0.51983,-0.0294 -0.24666,-0.09236 -0.41113,-0.260337 -0.49445,-0.504966 -0.021,-0.06157 -0.0219,-0.132013 -0.0219,-1.710354 v -1.64614 l 0.0337,-0.08756 c 0.0857,-0.222927 0.24002,-0.377267 0.46252,-0.462597 l 0.0876,-0.03358 h 1.08575 c 1.03061,0 1.08902,0.0011 1.14997,0.02187 0.24454,0.08328 0.41155,0.246734 0.50521,0.494445 0.0249,0.06598 0.0256,0.08172 0.0292,0.733296 l 0.004,0.66587 -0.0271,0.04018 c -0.0822,0.122011 -0.22994,0.125636 -0.31731,0.0078 -0.0239,-0.03224 -0.0245,-0.04653 -0.0303,-0.671299 l -0.006,-0.638356 -0.0305,-0.06421 c -0.0388,-0.08168 -0.10381,-0.146676 -0.18549,-0.185478 l -0.0642,-0.0305 h -1.02159 -1.02154 l -0.0642,0.0305 c -0.0817,0.0388 -0.14668,0.1038 -0.18548,0.185479 l -0.0305,0.06421 v 1.58193 1.581932 l 0.0305,0.06421 c 0.0388,0.08168 0.1038,0.146677 0.18548,0.185479 l 0.0642,0.0305 0.41737,0.0036 0.41738,0.0036 v -0.775315 -0.775319 l 0.0265,-0.03939 c 0.0146,-0.02166 0.0443,-0.05134 0.0659,-0.06594 l 0.0394,-0.02655 h 2.10968 2.10968 l 0.0394,0.02655 c 0.0217,0.0146 0.0513,0.04427 0.0659,0.06594 l 0.0265,0.03939 v 1.64269 1.64269 l -0.0265,0.0394 c -0.0146,0.02166 -0.0443,0.05134 -0.0659,0.06594 l -0.0394,0.02654 h -2.10967 -2.10969 z m 4.01704,-1.74802 V 18.45563 h -1.86796 -1.86797 v 1.400973 1.400973 h 1.86797 1.86796 z m -3.26985,1.000834 c -0.0605,-0.04078 -0.0925,-0.09618 -0.0925,-0.16025 0,-0.06407 0.032,-0.119475 0.0925,-0.160251 0.0378,-0.02549 0.049,-0.02655 0.28111,-0.02655 0.23208,0 0.24328,0.0011 0.28111,0.02655 0.12422,0.08371 0.12422,0.236789 0,0.320501 -0.0378,0.02549 -0.049,0.02655 -0.28111,0.02655 -0.23209,0 -0.24329,-0.0011 -0.28111,-0.02655 z m 1.12078,0 c -0.0605,-0.04078 -0.0925,-0.09618 -0.0925,-0.16025 0,-0.06407 0.032,-0.119475 0.0925,-0.160251 l 0.0394,-0.02655 h 0.8021 0.80211 l 0.0394,0.02655 c 0.12422,0.08371 0.12422,0.236789 0,0.320501 l -0.0394,0.02655 h -0.80211 -0.80211 z m -0.74011,-0.732788 c -0.21029,-0.03625 -0.36655,-0.169338 -0.44044,-0.375119 -0.0254,-0.07068 -0.0265,-0.08935 -0.0267,-0.429967 -1.7e-4,-0.335549 0.001,-0.358315 0.0232,-0.39483 0.0706,-0.117117 0.24072,-0.118265 0.3131,-0.0021 0.0242,0.0389 0.0258,0.05713 0.0313,0.37943 0.007,0.379951 0.008,0.388641 0.0939,0.436704 0.0852,0.04787 0.20281,0.0192 0.25152,-0.06129 0.0202,-0.03335 0.0229,-0.06898 0.0281,-0.375411 0.005,-0.3223 0.007,-0.340532 0.0313,-0.37943 0.0344,-0.05518 0.0904,-0.08621 0.1555,-0.08621 0.0651,0 0.12111,0.03103 0.1555,0.08621 0.0247,0.03963 0.0255,0.05145 0.0255,0.391105 0,0.379423 -0.006,0.427199 -0.0708,0.537256 -0.11663,0.19901 -0.35138,0.311524 -0.57099,0.273667 z m 0.9724,0.0011 c -0.0957,-0.02999 -0.1514,-0.128287 -0.12608,-0.222407 0.006,-0.02419 0.0731,-0.118289 0.16323,-0.230603 l 0.15223,-0.18974 -0.14604,-0.182066 c -0.0891,-0.111101 -0.15136,-0.199826 -0.15969,-0.227632 -0.0377,-0.126029 0.0844,-0.251206 0.21591,-0.221209 0.0563,0.01285 0.0784,0.03364 0.20829,0.196073 0.0577,0.07224 0.10929,0.131341 0.11454,0.131341 0.005,0 0.0679,-0.073 0.13913,-0.162214 0.14244,-0.178314 0.18536,-0.209229 0.26896,-0.193741 0.10472,0.0194 0.15888,0.08988 0.15013,0.195381 -0.005,0.06351 -0.009,0.07014 -0.16535,0.264742 l -0.15996,0.199603 0.13832,0.17209 c 0.17879,0.222433 0.1802,0.224731 0.1802,0.294042 0,0.105723 -0.0739,0.180244 -0.17877,0.180244 -0.0334,0 -0.0675,-0.0086 -0.0896,-0.02268 -0.0196,-0.01247 -0.0892,-0.08966 -0.1546,-0.17153 -0.0654,-0.08187 -0.12319,-0.148853 -0.12841,-0.148853 -0.005,0 -0.063,0.06698 -0.12841,0.148853 -0.0654,0.08187 -0.13288,0.157635 -0.14994,0.168367 -0.0394,0.02479 -0.10371,0.03458 -0.14405,0.02194 z m -2.51963,-2.433769 c -0.13015,-0.03933 -0.23096,-0.107509 -0.30627,-0.207118 -0.10422,-0.137863 -0.11372,-0.188459 -0.11389,-0.606479 -1.3e-4,-0.340249 2.7e-4,-0.346207 0.0264,-0.384989 0.0837,-0.12422 0.23679,-0.12422 0.3205,0 0.026,0.03861 0.0265,0.04577 0.0265,0.362085 0,0.311427 9.2e-4,0.324512 0.0263,0.374785 0.0283,0.05607 0.10277,0.104628 0.16053,0.104628 0.0578,0 0.13225,-0.04855 0.16053,-0.104628 0.0254,-0.05027 0.0263,-0.06336 0.0263,-0.374785 0,-0.316313 5.2e-4,-0.323473 0.0265,-0.362085 0.0837,-0.12422 0.23679,-0.12422 0.3205,0 0.0261,0.03878 0.0265,0.04474 0.0264,0.384989 -1.4e-4,0.351413 -0.005,0.3999 -0.0492,0.503208 -0.0489,0.113944 -0.18701,0.243431 -0.31207,0.292526 -0.0816,0.03203 -0.26095,0.04148 -0.33909,0.01786 z m 1.16656,-0.01004 c -0.0217,-0.0146 -0.0513,-0.04427 -0.0659,-0.06594 l -0.0265,-0.03939 v -0.521911 -0.521912 l 0.0265,-0.03939 c 0.0837,-0.124219 0.23679,-0.124219 0.3205,0 l 0.0265,0.03939 v 0.521912 0.521912 l -0.0265,0.03939 c -0.0408,0.06051 -0.0962,0.09248 -0.16025,0.09248 -0.0378,0 -0.0672,-0.0083 -0.0943,-0.02655 z"
       id="path6"
       inkscape:export-filename="FrontEnd.svg"
       inkscape:export-xdpi="96"
       inkscape:export-ydpi="96" /><path
       style="fill:#1d8bf2;fill-opacity:1;stroke-width:0.901435"
       d="m 49.483043,21.874155 c -0.13318,-0.0137 -0.27208,-0.05438 -0.40161,-0.117628 -0.23658,-0.11552 -0.41125,-0.292065 -0.52245,-0.52805 -0.11833,-0.251129 -0.11167,-0.125487 -0.11167,-2.106695 v -1.754406 h 3.23402 3.23403 l 0.004,1.308533 c 0.003,1.205926 0.002,1.30784 -0.0194,1.299697 -0.0127,-0.0049 -0.0506,-0.01578 -0.0843,-0.02426 l -0.0613,-0.01543 0.0338,-0.0583 c 0.15747,-0.271765 0.0551,-0.612887 -0.22303,-0.743033 -0.15785,-0.07387 -0.35806,-0.06481 -0.48982,0.02216 -0.0537,0.03543 -0.0685,0.03358 -0.0685,-0.0086 0,-0.05621 -0.0615,-0.184016 -0.11965,-0.248714 -0.0925,-0.102896 -0.2129,-0.16164 -0.34718,-0.169413 -0.14022,-0.0081 -0.23326,0.01512 -0.33647,0.08404 -0.0981,0.06551 -0.18571,0.186996 -0.21106,0.292652 l -0.017,0.07104 -0.0585,-0.03382 c -0.0786,-0.04542 -0.19658,-0.07851 -0.27995,-0.07851 -0.0903,0 -0.22777,0.04751 -0.30821,0.106561 -0.21204,0.155655 -0.26977,0.474728 -0.12591,0.69589 l 0.0408,0.06271 -0.0902,0.02271 c -0.12082,0.03041 -0.23185,0.108695 -0.30096,0.21219 -0.0683,0.10224 -0.0915,0.195601 -0.0834,0.335482 0.008,0.134279 0.0665,0.254661 0.16941,0.347174 0.0647,0.05817 0.1925,0.119654 0.24871,0.119654 0.0422,0 0.044,0.01479 0.009,0.06847 -0.0186,0.02822 -0.0444,0.09243 -0.0572,0.142689 -0.0611,0.239035 0.0576,0.488668 0.28221,0.593787 0.16111,0.07539 0.33968,0.06688 0.49588,-0.02363 l 0.0583,-0.03378 0.0154,0.06126 c 0.008,0.03369 0.0194,0.07159 0.0242,0.08421 0.008,0.02114 -0.12902,0.02277 -1.73653,0.0207 -0.95994,-0.0012 -1.76754,-0.0045 -1.79467,-0.0073 z m 0.85013,-2.250205 c 0.0943,-0.03941 0.10757,-0.06993 0.36174,-0.83371 0.27206,-0.817493 0.26759,-0.79401 0.17097,-0.89759 -0.0558,-0.05987 -0.12451,-0.07915 -0.21884,-0.06145 -0.10744,0.02016 -0.11226,0.0307 -0.3753,0.81982 -0.21091,0.632714 -0.2416,0.735991 -0.23601,0.794168 0.008,0.08171 0.0424,0.131911 0.11667,0.169458 0.0659,0.03334 0.11697,0.03597 0.18077,0.0093 z m -0.47343,-0.249494 c 0.0801,-0.06087 0.11219,-0.149799 0.0875,-0.242106 -0.0129,-0.04818 -0.0494,-0.09369 -0.18679,-0.232768 l -0.17075,-0.172879 0.1731,-0.173521 c 0.18856,-0.189014 0.21217,-0.231837 0.1847,-0.334946 -0.036,-0.135216 -0.18993,-0.209121 -0.3066,-0.147229 -0.0456,0.0242 -0.54271,0.523257 -0.56498,0.567211 -0.009,0.01693 -0.0156,0.06195 -0.0156,0.10005 0,0.09186 0.0242,0.123269 0.3195,0.414245 0.16267,0.160302 0.25175,0.238002 0.2801,0.244313 0.0229,0.0051 0.0477,0.01076 0.0553,0.0126 0.0264,0.0064 0.11984,-0.01618 0.14455,-0.03497 z m 1.47668,0.0042 c 0.0153,-0.0084 0.14297,-0.13145 0.28367,-0.273468 0.28543,-0.288102 0.30402,-0.317755 0.27251,-0.434782 -0.0144,-0.05352 -0.0533,-0.0996 -0.26556,-0.314239 -0.13677,-0.138337 -0.27357,-0.264336 -0.304,-0.28 -0.10708,-0.05511 -0.24574,-0.01156 -0.29523,0.09274 -0.0264,0.05562 -0.0299,0.151656 -0.007,0.196357 0.009,0.01693 0.0892,0.105169 0.17918,0.196089 l 0.16356,0.16531 -0.16429,0.166336 c -0.0904,0.09148 -0.17099,0.183965 -0.17918,0.205512 -0.0765,0.201243 0.12885,0.382959 0.31659,0.280147 z m 2.08782,2.484806 c -0.1183,-0.04255 -0.14174,-0.08747 -0.15055,-0.288464 l -0.007,-0.160757 -0.0705,-0.02392 c -0.0388,-0.01315 -0.10464,-0.04124 -0.14641,-0.06242 l -0.076,-0.0385 -0.10724,0.105355 c -0.12228,0.120124 -0.14886,0.136673 -0.2195,0.136673 -0.15011,0 -0.25441,-0.127998 -0.22632,-0.277728 0.008,-0.03974 0.0368,-0.07996 0.12265,-0.167875 l 0.11285,-0.115612 -0.0419,-0.0893 c -0.0231,-0.04911 -0.0495,-0.113077 -0.0588,-0.142141 l -0.0168,-0.05284 h -0.14732 c -0.16328,0 -0.21615,-0.01521 -0.27555,-0.07929 -0.096,-0.103545 -0.0723,-0.270188 0.0489,-0.344077 0.0378,-0.02306 0.0713,-0.02747 0.20946,-0.02751 l 0.16443,-5.3e-5 0.03,-0.08807 c 0.0165,-0.04844 0.045,-0.116608 0.0633,-0.151485 l 0.0333,-0.06341 -0.11734,-0.120249 c -0.0899,-0.09211 -0.11964,-0.132506 -0.12717,-0.172622 -0.0281,-0.149842 0.0761,-0.277839 0.2263,-0.277839 0.0713,0 0.0971,0.0164 0.22653,0.143719 l 0.11428,0.112412 0.0689,-0.03452 c 0.0379,-0.01899 0.10221,-0.04542 0.1429,-0.05874 l 0.074,-0.02422 5e-5,-0.164443 c 4e-5,-0.138134 0.004,-0.171649 0.0275,-0.209476 0.0739,-0.121181 0.24053,-0.144847 0.34408,-0.04886 0.0641,0.05939 0.0793,0.112269 0.0793,0.275542 v 0.147321 l 0.0528,0.01683 c 0.0291,0.0092 0.093,0.0357 0.14214,0.05876 l 0.0893,0.04194 0.11561,-0.112846 c 0.0879,-0.08581 0.12813,-0.115196 0.16788,-0.122652 0.14973,-0.02809 0.27772,0.07621 0.27772,0.226318 0,0.07065 -0.0165,0.09723 -0.13667,0.2195 l -0.10535,0.107241 0.0385,0.07595 c 0.0212,0.04177 0.0493,0.107656 0.0624,0.146408 l 0.0239,0.07046 0.16148,0.0071 c 0.17178,0.0075 0.21463,0.0224 0.25896,0.09006 0.0594,0.09061 0.0528,0.193887 -0.0176,0.277595 -0.0559,0.0664 -0.11036,0.08328 -0.26887,0.08328 h -0.13896 l -0.0175,0.05989 c -0.01,0.03294 -0.0339,0.09674 -0.0539,0.14178 l -0.0363,0.08189 0.0994,0.1013 c 0.11404,0.116251 0.13071,0.143479 0.13071,0.213559 0,0.150045 -0.128,0.254407 -0.27761,0.226341 -0.0391,-0.0073 -0.0793,-0.03621 -0.16073,-0.115464 l -0.1086,-0.105683 -0.10348,0.04913 c -0.0569,0.02702 -0.12409,0.05341 -0.14928,0.05865 l -0.0458,0.0095 v 0.138879 c 0,0.07638 -0.007,0.15673 -0.015,0.178548 -0.0429,0.113105 -0.17656,0.178325 -0.28535,0.139195 z m 0.28333,-0.930842 c 0.0443,-0.02018 0.1133,-0.06901 0.15344,-0.108509 0.27212,-0.267824 0.17232,-0.720895 -0.18878,-0.857025 -0.11473,-0.04325 -0.2873,-0.0351 -0.40012,0.01889 -0.0954,0.04566 -0.21268,0.165095 -0.25435,0.259012 -0.046,0.103764 -0.0516,0.283533 -0.012,0.388549 0.0406,0.107651 0.10401,0.188645 0.19805,0.252919 0.14934,0.102072 0.34234,0.119758 0.50375,0.04616 z m -5.26269,-4.031553 c -0.005,-0.01235 -0.005,-0.131265 -10e-4,-0.264248 0.009,-0.286993 0.0323,-0.403803 0.11517,-0.579986 0.11094,-0.235828 0.2857,-0.412493 0.52235,-0.528049 0.26516,-0.129473 0.0637,-0.120165 2.5999,-0.120165 2.52145,0 2.33141,-0.0082 2.58581,0.111678 0.31205,0.147048 0.54709,0.440686 0.62122,0.776094 0.0184,0.08332 0.0252,0.1789 0.026,0.366382 l 10e-4,0.253649 -3.23093,0.0036 c -2.94561,0.0032 -3.23169,0.0016 -3.23955,-0.01891 z m 3.55211,-0.462265 c 0.14238,-0.05949 0.17251,-0.249618 0.0573,-0.361326 -0.0476,-0.04611 -0.0558,-0.04883 -0.14745,-0.04883 -0.0915,0 -0.0999,0.0028 -0.14691,0.0483 -0.0608,0.05894 -0.0841,0.123852 -0.0714,0.19908 0.0235,0.13897 0.17459,0.218707 0.30847,0.162767 z m 0.83506,-0.0035 c 0.15012,-0.07124 0.15923,-0.297944 0.0155,-0.385581 -0.065,-0.03962 -0.17532,-0.03794 -0.23617,0.0036 -0.0969,0.06614 -0.12785,0.202599 -0.0666,0.293504 0.0702,0.104233 0.18172,0.138567 0.28728,0.08848 z m 0.8373,-0.0089 c 0.10424,-0.07024 0.13857,-0.181714 0.0885,-0.287268 -0.0712,-0.150119 -0.29794,-0.159227 -0.38558,-0.01549 -0.0406,0.06659 -0.0379,0.172977 0.006,0.237681 0.0656,0.09649 0.19985,0.126517 0.29101,0.06508 z"
       id="path7"
       inkscape:export-filename="Backend.svg"
       inkscape:export-xdpi="96"
       inkscape:export-ydpi="96" /><path
       style="fill:#1d8bf2;fill-opacity:1;stroke-width:0.945118"
       d="m 70.370268,22.163716 c -0.0624,-0.03254 -0.0913,-0.06243 -0.11935,-0.123536 -0.023,-0.05004 -0.0255,-0.09831 -0.0257,-0.501784 l -3e-4,-0.446414 h -0.26049 c -0.30526,0 -0.36773,-0.01308 -0.46305,-0.09699 -0.0347,-0.03058 -0.0777,-0.08511 -0.0955,-0.121184 l -0.0323,-0.06559 -0.004,-1.020871 -0.004,-1.02087 h -0.20135 -0.20135 l -0.0405,-0.04046 c -0.0544,-0.0544 -0.0544,-0.113838 0,-0.168238 l 0.0405,-0.04046 h 0.20135 0.20135 l 0.004,-1.02087 0.004,-1.02087 0.0323,-0.06559 c 0.0178,-0.03608 0.0607,-0.09061 0.0955,-0.121184 0.0953,-0.08391 0.15779,-0.09699 0.46305,-0.09699 h 0.26049 l 3e-4,-0.446414 c 3.5e-4,-0.503896 0.004,-0.523532 0.10439,-0.600287 l 0.0523,-0.03992 h 0.45895 0.45896 l 0.0523,0.03992 c 0.0583,0.04449 0.10392,0.13096 0.10438,0.197958 4.2e-4,0.06048 0.0228,0.11459 0.0669,0.161793 0.0719,0.07694 0.08,0.07789 0.6622,0.07789 0.51784,0 0.53797,9.45e-4 0.59658,0.02937 0.0365,0.01767 0.0754,0.0517 0.0978,0.08548 l 0.0371,0.05612 0.004,0.540723 c 0.004,0.470283 0.001,0.548326 -0.0182,0.599071 -0.0248,0.06492 -0.0979,0.136695 -0.1557,0.152873 -0.0489,0.01369 -2.29617,0.01388 -2.34495,2.04e-4 -0.0556,-0.01559 -0.12299,-0.07845 -0.15154,-0.141315 -0.0209,-0.04606 -0.0255,-0.09203 -0.0257,-0.260116 l -3.3e-4,-0.204174 h -0.24269 c -0.28901,0 -0.32876,0.01044 -0.3515,0.09233 -0.01,0.03511 -0.0147,0.379121 -0.0148,1.018515 l -8e-5,0.965501 h 0.30366 0.30365 l 0.004,-0.342598 c 0.004,-0.329593 0.006,-0.344541 0.0362,-0.393808 0.0175,-0.02817 0.0549,-0.06554 0.0831,-0.08306 0.0501,-0.03116 0.0603,-0.03194 0.47788,-0.03605 0.41424,-0.0041 0.42847,-0.0033 0.48885,0.0259 0.0813,0.03937 0.12957,0.112774 0.14226,0.216476 0.0121,0.09857 0.0421,0.158038 0.10131,0.20023 0.0451,0.0322 0.0459,0.03225 0.61273,0.03916 0.62496,0.0077 0.61351,0.006 0.69009,0.09702 0.0632,0.0751 0.0664,0.109914 0.0617,0.679354 l -0.004,0.534137 -0.0378,0.05445 c -0.0208,0.02995 -0.0581,0.06678 -0.0831,0.08185 -0.0442,0.02673 -0.0739,0.02739 -1.22189,0.02739 h -1.1766 l -0.0512,-0.03184 c -0.0282,-0.01751 -0.0655,-0.05489 -0.0831,-0.08306 -0.0306,-0.04927 -0.032,-0.06421 -0.0362,-0.393808 l -0.004,-0.342598 h -0.30365 -0.30366 l 8e-5,0.965501 c 5e-5,0.639394 0.005,0.983407 0.0148,1.018515 0.0227,0.08189 0.0625,0.09233 0.3515,0.09233 h 0.24269 v -0.201157 c 0,-0.214282 0.0124,-0.271079 0.0733,-0.336358 0.0697,-0.07463 0.0876,-0.07781 0.46636,-0.08304 0.41193,-0.0057 0.50753,0.0017 0.57033,0.04401 0.0575,0.03874 0.10538,0.109626 0.11468,0.169737 0.004,0.02579 0.0106,0.06852 0.0147,0.09494 0.01,0.06217 0.0667,0.129215 0.1373,0.16126 0.0511,0.02324 0.10189,0.02543 0.59289,0.02572 0.49922,2.82e-4 0.54054,0.0022 0.58829,0.02652 0.0634,0.03238 0.0926,0.06382 0.12004,0.129575 0.0317,0.0758 0.0317,1.079913 0,1.15571 -0.0275,0.06575 -0.0566,0.0972 -0.12004,0.129575 -0.0492,0.0251 -0.1003,0.02621 -1.2112,0.02612 -1.02474,-7.4e-5 -1.16468,-0.0027 -1.20134,-0.02172 z m 0.4297,-0.385911 c 0.066,-0.06602 0.0343,-0.172992 -0.0581,-0.196198 -0.0744,-0.01867 -0.15671,0.06368 -0.13805,0.13805 0.0232,0.09246 0.13019,0.124164 0.1962,0.05814 z m 0.01,-0.493144 c 0.0601,-0.0735 0.004,-0.193144 -0.0893,-0.192239 -0.0508,4.9e-4 -0.0816,0.01926 -0.10564,0.0644 -0.0262,0.04918 -0.0187,0.08693 0.0261,0.131723 0.0365,0.03646 0.0491,0.04106 0.0934,0.03396 0.0282,-0.0045 0.0622,-0.02155 0.0755,-0.03784 z m -0.0321,-2.053958 c 0.0672,-0.03477 0.0784,-0.12508 0.0224,-0.181091 -0.056,-0.05601 -0.14632,-0.04485 -0.18109,0.02238 -0.03,0.05809 -0.0249,0.09341 0.0202,0.138497 0.0451,0.04509 0.0804,0.05024 0.1385,0.02021 z m 0.0252,-0.50976 c 0.0617,-0.05643 0.0307,-0.163788 -0.0561,-0.19451 -0.0372,-0.01317 -0.11801,0.02598 -0.13624,0.066 -0.0252,0.05524 5e-5,0.120807 0.0576,0.1497 0.0534,0.02679 0.0884,0.02129 0.1348,-0.02119 z m 0.002,-2.08113 c 0.0948,-0.120455 -0.0754,-0.26682 -0.17523,-0.150746 -0.0675,0.07848 -0.0131,0.187218 0.0937,0.187218 0.0406,0 0.0595,-0.0084 0.0815,-0.03647 z m -0.005,-0.481985 c 0.0692,-0.06924 0.0319,-0.180922 -0.0657,-0.196549 -0.0443,-0.0071 -0.057,-0.0025 -0.0934,0.03396 -0.0232,0.02319 -0.0422,0.05552 -0.0422,0.07183 0,0.108402 0.12663,0.165479 0.20135,0.09076 z m -3.80033,4.310419 c -0.45897,-0.03338 -0.8813,-0.156343 -1.00419,-0.292375 l -0.0478,-0.05294 v -0.325254 c 0,-0.17889 0.003,-0.325255 0.007,-0.325255 0.004,0 0.043,0.01782 0.0865,0.03959 0.16084,0.08041 0.40992,0.148321 0.7021,0.191424 0.23597,0.03481 0.87141,0.03481 1.10738,0 0.29219,-0.04311 0.54127,-0.111012 0.70211,-0.191424 0.0436,-0.02178 0.0825,-0.03959 0.0865,-0.03959 0.004,0 0.007,0.148315 0.007,0.329588 v 0.329588 l -0.0444,0.04544 c -0.11793,0.120622 -0.47529,0.236253 -0.85533,0.276764 -0.20228,0.02157 -0.55566,0.02839 -0.74748,0.01443 z m -0.624,-0.379321 c 0.10134,-0.05241 0.0629,-0.215067 -0.0508,-0.215067 -0.0629,0 -0.0932,0.01825 -0.11412,0.06868 -0.0222,0.05366 10e-4,0.11739 0.0536,0.145878 0.0464,0.0252 0.0634,0.02528 0.1113,5.07e-4 z m 0.63081,-0.596958 c -0.52555,-0.05198 -0.86074,-0.147336 -1.00882,-0.286994 l -0.0501,-0.04726 v -0.333141 -0.333141 l 0.10036,0.04629 c 0.0552,0.02546 0.15019,0.06227 0.21109,0.0818 0.65894,0.211314 1.73906,0.175908 2.27347,-0.07452 l 0.11433,-0.05358 v 0.330255 0.330256 l -0.0342,0.04068 c -0.094,0.111721 -0.43525,0.228461 -0.81707,0.279524 -0.11353,0.01518 -0.68963,0.02967 -0.78902,0.01984 z m -0.60843,-0.399571 c 0.0487,-0.04871 0.0475,-0.133337 -0.002,-0.172653 -0.11807,-0.09288 -0.26612,0.076 -0.15239,0.173818 0.05,0.04306 0.11113,0.0426 0.15489,-0.0011 z m 0.52538,-0.583728 c -0.41609,-0.04228 -0.79004,-0.154596 -0.91573,-0.275029 l -0.0602,-0.05764 v -0.346328 -0.346329 l 0.13497,0.06671 c 0.63251,0.312624 1.86966,0.304911 2.46342,-0.01536 l 0.10086,-0.05441 v 0.344423 0.344423 l -0.0361,0.04286 c -0.0932,0.110781 -0.36683,0.212249 -0.73218,0.271521 -0.13318,0.0216 -0.81368,0.03953 -0.95512,0.02516 z m -0.52344,-0.395197 c 0.0639,-0.06004 0.0317,-0.177032 -0.0547,-0.198716 -0.0757,-0.01901 -0.16133,0.06552 -0.14247,0.140682 0.0216,0.08627 0.13238,0.11887 0.19714,0.05803 z m 0.58699,-0.57907 c -0.33521,-0.0281 -0.64233,-0.09832 -0.8189,-0.187242 -0.46851,-0.235937 -0.14438,-0.539923 0.67917,-0.636952 0.2028,-0.02389 0.65037,-0.02697 0.85827,-0.0059 0.57695,0.05847 0.97147,0.242708 0.93509,0.436662 -0.0301,0.1604 -0.37003,0.311166 -0.83819,0.37175 -0.21045,0.02723 -0.61946,0.03811 -0.81544,0.02168 z"
       id="path8"
       inkscape:export-filename="Database.svg"
       inkscape:export-xdpi="96"
       inkscape:export-ydpi="96" /><path
       style="fill:#1d8bf2;fill-opacity:1;stroke-width:0.0562326"
       d="m 91.048872,22.15059 c -0.0603,-0.02622 -0.0879,-0.08126 -0.0977,-0.194888 -0.0206,-0.238502 -0.21313,-0.420008 -0.46126,-0.434888 -0.15045,-0.009 -0.22749,0.01369 -0.35043,0.103322 -0.0787,0.05737 -0.11095,0.07213 -0.15768,0.07213 -0.0555,0 -0.0699,-0.01103 -0.25797,-0.197724 -0.17601,-0.174694 -0.2001,-0.204588 -0.20688,-0.25665 -0.007,-0.05269 -5.3e-4,-0.06803 0.0594,-0.144879 0.0932,-0.119423 0.12143,-0.200186 0.12086,-0.346158 -5.3e-4,-0.152962 -0.0466,-0.254705 -0.16332,-0.361401 -0.0889,-0.08127 -0.17425,-0.117323 -0.31224,-0.131932 -0.07,-0.0074 -0.098,-0.01824 -0.13018,-0.05044 -0.0383,-0.03832 -0.041,-0.04925 -0.041,-0.167755 0,-0.114129 0.003,-0.129074 0.0331,-0.149926 0.0284,-0.01989 0.1067,-0.02316 0.55509,-0.02316 0.4231,0 0.5274,0.0039 0.55041,0.02076 0.0205,0.01495 0.0353,0.05984 0.053,0.160482 0.0452,0.256123 0.13751,0.434003 0.31906,0.614743 0.13844,0.137829 0.23774,0.200732 0.41961,0.265803 0.12515,0.04478 0.13955,0.04662 0.36096,0.04615 0.21022,-4.5e-4 0.24114,-0.004 0.34964,-0.04053 0.17196,-0.05785 0.29612,-0.136034 0.43147,-0.271692 0.18179,-0.182213 0.27346,-0.359049 0.31853,-0.614467 0.0178,-0.100641 0.0326,-0.145529 0.053,-0.160482 0.023,-0.01683 0.12731,-0.02076 0.55041,-0.02076 0.44839,0 0.52669,0.0033 0.55509,0.02316 0.0298,0.02085 0.0331,0.0358 0.0331,0.149926 0,0.120272 -0.002,0.128994 -0.0435,0.170256 -0.0308,0.03084 -0.0581,0.04349 -0.0936,0.04349 -0.0276,0 -0.09,0.01029 -0.13877,0.02286 -0.23451,0.06045 -0.39424,0.281884 -0.37513,0.520034 0.009,0.110942 0.05,0.207953 0.13138,0.310098 0.0544,0.0683 0.0604,0.08348 0.0534,0.135824 -0.007,0.05194 -0.0315,0.08236 -0.2071,0.256648 -0.1881,0.186696 -0.20249,0.197724 -0.25796,0.197724 -0.0467,0 -0.079,-0.01476 -0.15769,-0.07213 -0.12294,-0.08963 -0.19998,-0.112342 -0.35042,-0.103321 -0.13827,0.0083 -0.23345,0.05157 -0.32583,0.148161 -0.0829,0.08665 -0.12263,0.171147 -0.13796,0.293249 -0.0247,0.196806 -0.0501,0.210381 -0.39129,0.209561 -0.17259,-4.16e-4 -0.25588,-0.0065 -0.28964,-0.02119 z m 0.14409,-1.679694 c -0.22972,-0.06254 -0.42678,-0.273354 -0.45549,-0.48728 -0.0161,-0.119513 -0.0271,-0.117368 0.60427,-0.117368 0.63137,0 0.62032,-0.0021 0.60429,0.117368 -0.0136,0.101088 -0.0866,0.237578 -0.17331,0.323811 -0.15535,0.154547 -0.37993,0.217869 -0.57976,0.163469 z m -3.38278,-1.052074 c -0.0386,-0.03034 -0.0392,-0.03379 -0.0392,-0.214654 0,-0.18086 5.3e-4,-0.184314 0.0392,-0.214654 l 0.0392,-0.03084 h 3.49236 3.49238 l 0.0392,0.03084 c 0.0385,0.03024 0.0392,0.03425 0.0392,0.208971 0,0.169293 -0.002,0.179948 -0.0365,0.214654 l -0.0365,0.03652 h -3.49505 -3.49504 z m 0.56605,-0.678155 c -0.006,-0.0056 -0.0101,-0.665133 -0.0101,-1.465704 V 15.81938 h 0.49105 0.49106 l -0.004,1.461782 -0.004,1.461782 -0.47714,0.0039 c -0.26244,0.0022 -0.4817,-6.36e-4 -0.48727,-0.0062 z m 1.19019,-6.2e-5 c -0.0155,-0.01548 -0.0121,-1.832081 0.003,-1.84168 0.0334,-0.02062 1.39142,-0.381028 1.40955,-0.374073 0.0171,0.0065 0.0198,0.188608 0.0165,1.112955 l -0.004,1.105136 -0.70781,0.0039 c -0.3893,0.0021 -0.71234,-6.89e-4 -0.71787,-0.0062 z m 0.98342,-1.171941 c 0.003,-0.203419 -4.5e-4,-0.269564 -0.0149,-0.278738 -0.0219,-0.0139 -0.4735,-0.01696 -0.50872,-0.0034 -0.0202,0.0078 -0.0235,0.046 -0.0235,0.272767 0,0.145055 0.005,0.268349 0.0102,0.273987 0.006,0.0056 0.12783,0.0084 0.27153,0.0062 l 0.26128,-0.004 z m 0.66792,1.171801 c -0.005,-0.0055 -0.01,-0.420723 -0.01,-0.922816 v -0.912898 l 0.0335,-0.01252 c 0.0184,-0.0069 0.33656,-0.09447 0.70699,-0.194636 0.54647,-0.147762 0.67769,-0.178669 0.69556,-0.163831 0.0191,0.01584 0.022,0.162069 0.022,1.093919 0,0.591596 -0.004,1.08622 -0.009,1.099163 -0.008,0.02101 -0.0853,0.02354 -0.71912,0.02354 -0.39054,0 -0.71454,-0.0045 -0.72,-0.0099 z m 0.98395,-0.915505 c 0.0124,-0.01242 0.0179,-0.09135 0.0179,-0.259305 0,-0.199665 -0.004,-0.245499 -0.0234,-0.264832 -0.0193,-0.01933 -0.0652,-0.02338 -0.26484,-0.02338 -0.16795,0 -0.24688,0.0054 -0.2593,0.01785 -0.0192,0.01926 -0.0267,0.518896 -0.008,0.537598 0.0187,0.0187 0.51834,0.01133 0.5376,-0.0079 z m 0.6667,0.902031 c -0.005,-0.01302 -0.009,-0.424685 -0.009,-0.914807 v -0.891132 l 0.0335,-0.02075 c 0.0184,-0.01141 0.33685,-0.102426 0.70764,-0.202257 0.5381,-0.144882 0.67848,-0.177911 0.69564,-0.163672 0.0185,0.01531 0.0209,0.173065 0.0177,1.113204 l -0.004,1.095366 -0.71622,0.0039 c -0.64346,0.0035 -0.71716,0.0014 -0.72532,-0.01981 z m 0.99927,-1.150027 c 0.003,-0.177966 -0.001,-0.264811 -0.013,-0.278967 -0.021,-0.02533 -0.47417,-0.02982 -0.52026,-0.0051 -0.0267,0.01429 -0.0288,0.03346 -0.0288,0.264832 0,0.176677 0.005,0.254734 0.0182,0.267613 0.0132,0.01327 0.0887,0.01709 0.27897,0.01413 l 0.26078,-0.004 z m -5.50157,-2.193515 c 0,-0.157212 0.005,-0.233159 0.0179,-0.24549 0.0255,-0.02552 0.92073,-0.02552 0.94625,0 0.0123,0.01233 0.0179,0.08828 0.0179,0.24549 v 0.227637 h -0.49098 -0.49098 z"
       id="path9"
       inkscape:export-filename="Industries.svg"
       inkscape:export-xdpi="96"
       inkscape:export-ydpi="96" /><path
       style="fill:#1d8bf2;fill-opacity:1;stroke-width:0.0494337"
       d="m 112.85744,21.636758 c -0.275,-0.02672 -0.52674,-0.124517 -0.74649,-0.289998 -0.61591,-0.463791 -0.76727,-1.322222 -0.34756,-1.971033 0.1309,-0.202343 0.36897,-0.411733 0.58938,-0.518364 0.77971,-0.377223 1.70922,-0.0037 2.01537,0.809873 0.30267,0.804286 -0.17609,1.716538 -1.01297,1.930215 -0.0932,0.02379 -0.32509,0.05451 -0.38001,0.05033 -0.0108,-8.2e-4 -0.0638,-0.0058 -0.11772,-0.01102 z m 0.25014,-0.594201 c 0.0872,-0.05922 0.0899,-0.07519 0.0899,-0.517433 0,-0.339258 -0.003,-0.401355 -0.0215,-0.440251 -0.0661,-0.139335 -0.27654,-0.147789 -0.35788,-0.01438 -0.0245,0.04015 -0.026,0.06654 -0.026,0.454628 0,0.388089 10e-4,0.414473 0.026,0.454627 0.0587,0.0962 0.19634,0.126077 0.28945,0.06281 z m 0.009,-1.248604 c 0.096,-0.04925 0.14662,-0.133126 0.14662,-0.243113 0,-0.08724 -0.031,-0.155242 -0.0972,-0.213356 -0.15764,-0.138411 -0.41208,-0.03888 -0.4462,0.174539 -0.0173,0.108235 0.0452,0.225585 0.14967,0.280775 0.0636,0.03363 0.18266,0.03419 0.24707,0.0011 z m -4.3562,1.536596 c -0.14011,-0.05761 -0.23477,-0.157406 -0.28016,-0.29533 -0.0337,-0.10252 -0.0339,-0.63062 -2.4e-4,-0.758603 0.0557,-0.211793 0.2167,-0.453858 0.40986,-0.616306 0.48213,-0.405484 1.23133,-0.650499 2.15642,-0.705232 0.20452,-0.0121 0.62265,-0.0074 0.67023,0.0076 0.01,0.0031 -0.0186,0.04856 -0.0719,0.115198 -0.49202,0.6141 -0.5238,1.440109 -0.0804,2.088777 0.042,0.0615 0.0913,0.125797 0.10951,0.142883 0.0182,0.01709 0.0331,0.03593 0.0331,0.04187 0,0.0059 -0.64596,0.01066 -1.43546,0.01049 l -1.43546,-3.1e-4 z m 2.28167,-2.643166 c -0.54146,-0.0981 -1.00348,-0.499215 -1.17922,-1.023786 -0.15752,-0.470168 -0.0719,-1.014506 0.2207,-1.40252 0.0824,-0.109288 0.2733,-0.292661 0.37415,-0.359401 0.17816,-0.1179 0.40132,-0.20716 0.60819,-0.24326 0.12148,-0.0212 0.39637,-0.02127 0.5101,-1.33e-4 0.32582,0.06056 0.62888,0.222424 0.8509,0.454478 0.57806,0.60419 0.56908,1.551313 -0.0203,2.143654 -0.22483,0.225952 -0.48507,0.365295 -0.79507,0.425728 -0.1514,0.02951 -0.42172,0.032 -0.56943,0.0052 z"
       id="path10"
       inkscape:export-filename="About us.svg"
       inkscape:export-xdpi="96"
       inkscape:export-ydpi="96" /><text
       xml:space="preserve"
       style="font-size:2.15444px;line-height:1.5;font-family:Calibri;-inkscape-font-specification:Calibri;text-align:justify;letter-spacing:0px;fill:#4d4d4d;fill-opacity:1;stroke-width:0.194205"
       x="29.871286"
       y="10.996081"
       id="text10"><tspan
         sodipodi:role="line"
         id="tspan10"
         style="fill:#4d4d4d;stroke-width:0.194205"
         x="29.871286"
         y="10.996081">Enterprise</tspan></text><text
       xml:space="preserve"
       style="font-size:2.15444px;line-height:1.5;font-family:Calibri;-inkscape-font-specification:Calibri;text-align:justify;letter-spacing:0px;fill:#4d4d4d;fill-opacity:1;stroke-width:0.194205"
       x="49.946625"
       y="11.170182"
       id="text11"><tspan
         sodipodi:role="line"
         id="tspan11"
         style="fill:#4d4d4d;stroke-width:0.194205"
         x="49.946625"
         y="11.170182">CSD</tspan></text><text
       xml:space="preserve"
       style="font-size:2.15444px;line-height:1.5;font-family:Calibri;-inkscape-font-specification:Calibri;text-align:justify;letter-spacing:0px;fill:#4d4d4d;fill-opacity:1;stroke-width:0.194205"
       x="63.583359"
       y="11.177547"
       id="text12"><tspan
         sodipodi:role="line"
         id="tspan12"
         style="fill:#4d4d4d;stroke-width:0.194205"
         x="63.583359"
         y="11.177547">Core Services</tspan></text><text
       xml:space="preserve"
       style="font-size:2.15444px;line-height:1.5;font-family:Calibri;-inkscape-font-specification:Calibri;text-align:justify;letter-spacing:0px;fill:#4d4d4d;fill-opacity:1;stroke-width:0.194205"
       x="84.975212"
       y="11.212261"
       id="text13"><tspan
         sodipodi:role="line"
         id="tspan13"
         style="fill:#4d4d4d;stroke-width:0.194205"
         x="84.975212"
         y="11.212261">Other Services</tspan></text><text
       xml:space="preserve"
       style="font-size:2.15444px;line-height:1.5;font-family:Calibri;-inkscape-font-specification:Calibri;text-align:justify;letter-spacing:0px;fill:#4d4d4d;fill-opacity:1;stroke-width:0.194205"
       x="107.31499"
       y="11.160189"
       id="text14"><tspan
         sodipodi:role="line"
         id="tspan14"
         style="fill:#4d4d4d;stroke-width:0.194205"
         x="107.31499"
         y="11.160189">exert ERP</tspan></text><text
       xml:space="preserve"
       style="font-size:2.15444px;line-height:1.5;font-family:Calibri;-inkscape-font-specification:Calibri;text-align:justify;letter-spacing:0px;fill:#4d4d4d;fill-opacity:1;stroke-width:0.194205"
       x="30.394117"
       y="24.916117"
       id="text15"><tspan
         sodipodi:role="line"
         id="tspan15"
         style="fill:#4d4d4d;stroke-width:0.194205"
         x="30.394117"
         y="24.916117">Frontend</tspan></text><text
       xml:space="preserve"
       style="font-size:2.15444px;line-height:1.5;font-family:Calibri;-inkscape-font-specification:Calibri;text-align:justify;letter-spacing:0px;fill:#4d4d4d;fill-opacity:1;stroke-width:0.194205"
       x="47.989956"
       y="24.918221"
       id="text16"><tspan
         sodipodi:role="line"
         id="tspan16"
         style="fill:#4d4d4d;stroke-width:0.194205"
         x="47.989956"
         y="24.918221">Backend</tspan></text><text
       xml:space="preserve"
       style="font-size:2.15444px;line-height:1.5;font-family:Calibri;-inkscape-font-specification:Calibri;text-align:justify;letter-spacing:0px;fill:#4d4d4d;fill-opacity:1;stroke-width:0.194205"
       x="65.326477"
       y="24.918221"
       id="text17"><tspan
         sodipodi:role="line"
         id="tspan17"
         style="fill:#4d4d4d;stroke-width:0.194205"
         x="65.326477"
         y="24.918221">Database</tspan></text><text
       xml:space="preserve"
       style="font-size:2.15444px;line-height:1.5;font-family:Calibri;-inkscape-font-specification:Calibri;text-align:justify;letter-spacing:0px;fill:#4d4d4d;fill-opacity:1;stroke-width:0.194205"
       x="86.97554"
       y="24.916117"
       id="text18"><tspan
         sodipodi:role="line"
         id="tspan18"
         style="fill:#4d4d4d;stroke-width:0.194205"
         x="86.97554"
         y="24.916117">Industries</tspan></text><text
       xml:space="preserve"
       style="font-size:2.15444px;line-height:1.5;font-family:Calibri;-inkscape-font-specification:Calibri;text-align:justify;letter-spacing:0px;fill:#4d4d4d;fill-opacity:1;stroke-width:0.194205"
       x="107.56746"
       y="24.918221"
       id="text19"><tspan
         sodipodi:role="line"
         id="tspan19"
         style="fill:#4d4d4d;stroke-width:0.194205"
         x="107.56746"
         y="24.918221">About us</tspan></text></g></svg>
