<?xml version="1.0" encoding="UTF-8" standalone="no"?>
<!-- Created with Inkscape (http://www.inkscape.org/) -->

<svg
   width="6.6970716mm"
   height="5.6898499mm"
   viewBox="0 0 6.6970716 5.6898499"
   version="1.1"
   id="svg1"
   xml:space="preserve"
   inkscape:version="1.3.2 (091e20e, 2023-11-25, custom)"
   sodipodi:docname="maiprosoft website icons.svg"
   inkscape:export-filename="Education.svg"
   inkscape:export-xdpi="300"
   inkscape:export-ydpi="300"
   xmlns:inkscape="http://www.inkscape.org/namespaces/inkscape"
   xmlns:sodipodi="http://sodipodi.sourceforge.net/DTD/sodipodi-0.dtd"
   xmlns="http://www.w3.org/2000/svg"
   xmlns:svg="http://www.w3.org/2000/svg"><sodipodi:namedview
     id="namedview1"
     pagecolor="#505050"
     bordercolor="#eeeeee"
     borderopacity="1"
     inkscape:showpageshadow="0"
     inkscape:pageopacity="0"
     inkscape:pagecheckerboard="0"
     inkscape:deskcolor="#d1d1d1"
     inkscape:document-units="mm"
     inkscape:zoom="1.4383515"
     inkscape:cx="-2869.6046"
     inkscape:cy="-845.75991"
     inkscape:window-width="1920"
     inkscape:window-height="991"
     inkscape:window-x="-9"
     inkscape:window-y="-9"
     inkscape:window-maximized="1"
     inkscape:current-layer="layer1"
     showguides="true"
     showgrid="false" /><defs
     id="defs1" /><g
     inkscape:label="Layer 1"
     inkscape:groupmode="layer"
     id="layer1"
     transform="translate(568.17299,-95.073743)"><path
       style="fill:#1d8bf2;fill-opacity:1;stroke-width:0.0527608"
       d="m -566.17723,100.73219 c -0.0254,-0.0173 -0.0593,-0.0491 -0.0754,-0.0707 -0.0288,-0.0389 -0.0292,-0.0507 -0.033,-0.960497 -0.004,-1.026846 -0.009,-0.979974 0.0919,-1.056445 0.0468,-0.03576 0.0584,-0.03783 0.23363,-0.04213 l 0.18438,-0.0045 0.007,-0.197872 c 0.006,-0.16292 0.013,-0.217601 0.0432,-0.309551 0.0487,-0.149574 0.12174,-0.268616 0.2339,-0.381289 0.43736,-0.43952 1.16344,-0.347752 1.48593,0.18779 0.0867,0.144116 0.12087,0.277242 0.12865,0.50305 l 0.007,0.197872 0.18438,0.0045 c 0.17532,0.0045 0.18682,0.0063 0.23363,0.04213 0.10013,0.07647 0.0961,0.02961 0.0919,1.056445 -0.004,0.909747 -0.004,0.921577 -0.033,0.960497 -0.016,0.0217 -0.05,0.0536 -0.0754,0.0707 l -0.0461,0.0314 h -1.30808 -1.30807 z m 1.85433,-2.303337 c -0.004,-0.151847 -0.0101,-0.180728 -0.0451,-0.257865 -0.047,-0.102593 -0.15641,-0.213129 -0.25555,-0.257996 -0.0532,-0.02407 -0.0941,-0.03038 -0.1995,-0.03074 -0.11699,-3.24e-4 -0.14206,0.0037 -0.21187,0.03802 -0.0493,0.02394 -0.10863,0.07019 -0.15658,0.122043 -0.10243,0.110603 -0.13413,0.208085 -0.13413,0.412455 v 0.14511 h 0.50399 0.50398 z m -2.67163,1.3933 c -0.25503,-0.066 -0.48831,-0.19282 -0.67937,-0.36952 -0.30477,-0.281871 -0.49798,-0.723711 -0.49912,-1.141423 -0.001,-0.57879 0.33906,-1.128754 0.86225,-1.392037 0.14119,-0.07103 0.32248,-0.129232 0.46757,-0.150084 0.10503,-0.0151 0.12333,-0.02174 0.12823,-0.04618 0.003,-0.01572 0.013,-0.06938 0.0215,-0.119291 0.0425,-0.242263 0.18259,-0.557741 0.34186,-0.76983 0.16549,-0.220358 0.43711,-0.449126 0.67708,-0.570259 0.10805,-0.05457 0.33279,-0.131307 0.47507,-0.162246 0.16727,-0.03638 0.58532,-0.03683 0.75344,-6.48e-4 0.36451,0.07807 0.66794,0.237349 0.93071,0.488563 0.29888,0.285724 0.48195,0.61558 0.563,1.014371 0.0164,0.08048 0.0308,0.14696 0.0323,0.147718 0.001,6.49e-4 0.0557,0.0092 0.12073,0.01889 0.30961,0.04579 0.5998,0.188698 0.83512,0.411204 0.7352,0.695148 0.62452,1.884976 -0.22694,2.439822 -0.22276,0.14517 -0.49592,0.23521 -0.7135,0.23521 h -0.11612 l -0.004,-0.58357 -0.004,-0.583578 -0.0526,-0.106325 c -0.0804,-0.162507 -0.21029,-0.26588 -0.38278,-0.304538 -0.0723,-0.01624 -0.0876,-0.03046 -0.0879,-0.08228 -10e-5,-0.0187 -0.0101,-0.07525 -0.0232,-0.125631 -0.11439,-0.456996 -0.46872,-0.814212 -0.93239,-0.939942 -0.15182,-0.04118 -0.46797,-0.04334 -0.61514,-0.0045 -0.43791,0.116338 -0.77398,0.423603 -0.91419,0.83583 -0.0218,0.06398 -0.0438,0.147334 -0.049,0.185198 -0.0151,0.110402 -0.0177,0.11471 -0.0782,0.124954 -0.0897,0.01516 -0.24073,0.09846 -0.3052,0.168389 -0.0323,0.03499 -0.0785,0.105619 -0.10286,0.156909 l -0.0442,0.09324 -0.004,0.582814 -0.004,0.58281 -0.12145,-6.5e-4 c -0.0801,-3.2e-4 -0.16452,-0.0115 -0.24789,-0.0334 z"
       id="path35"
       sodipodi:nodetypes="ccccscccsscccccccccccccsscsscccccscssccssscssccssscccssscscssssscccccc"
       inkscape:export-filename=".\HTCD Cloud Sec WB.svg"
       inkscape:export-xdpi="300"
       inkscape:export-ydpi="300" /></g></svg>
