<?xml version="1.0" encoding="UTF-8" standalone="no"?>
<!-- Created with Inkscape (http://www.inkscape.org/) -->

<svg
   width="151.1413mm"
   height="88.403389mm"
   viewBox="0 0 151.1413 88.403389"
   version="1.1"
   id="svg1"
   xml:space="preserve"
   inkscape:version="1.3.2 (091e20e, 2023-11-25, custom)"
   sodipodi:docname="maiprosoft parntners.svg"
   xmlns:inkscape="http://www.inkscape.org/namespaces/inkscape"
   xmlns:sodipodi="http://sodipodi.sourceforge.net/DTD/sodipodi-0.dtd"
   xmlns="http://www.w3.org/2000/svg"
   xmlns:svg="http://www.w3.org/2000/svg"><sodipodi:namedview
     id="namedview1"
     pagecolor="#ffffff"
     bordercolor="#eeeeee"
     borderopacity="1"
     inkscape:showpageshadow="0"
     inkscape:pageopacity="0"
     inkscape:pagecheckerboard="0"
     inkscape:deskcolor="#d1d1d1"
     inkscape:document-units="mm"
     inkscape:zoom="0.70822812"
     inkscape:cx="6362.3568"
     inkscape:cy="-1695.0753"
     inkscape:window-width="1920"
     inkscape:window-height="991"
     inkscape:window-x="-9"
     inkscape:window-y="-9"
     inkscape:window-maximized="1"
     inkscape:current-layer="layer1"
     showguides="true"><sodipodi:guide
       position="-1349.6337,-354.05531"
       orientation="1,0"
       id="guide64"
       inkscape:locked="false" /><sodipodi:guide
       position="-1468.5271,-352.23409"
       orientation="1,0"
       id="guide71"
       inkscape:locked="false" /><sodipodi:guide
       position="-1463.3903,-352.63102"
       orientation="1,0"
       id="guide72"
       inkscape:locked="false" /><sodipodi:guide
       position="-1470.0448,-354.35885"
       orientation="0,-1"
       id="guide73"
       inkscape:locked="false" /><sodipodi:guide
       position="-361.5484,13.995884"
       orientation="0,-1"
       id="guide78"
       inkscape:locked="false" /><sodipodi:guide
       position="-283.8427,-54.743746"
       orientation="0,-1"
       id="guide79"
       inkscape:locked="false" /><sodipodi:guide
       position="-605.2467,-457.54964"
       orientation="0,-1"
       id="guide91"
       inkscape:locked="false" /></sodipodi:namedview><defs
     id="defs1" /><g
     inkscape:label="Layer 1"
     inkscape:groupmode="layer"
     id="layer1"
     transform="translate(-1931.3521,472.78526)"><rect
       style="fill:#ffffff;stroke-width:0.332999"
       id="rect59"
       width="151.14122"
       height="88.403366"
       x="1931.3522"
       y="-472.78525"
       rx="6.0599079"
       ry="6.0599079"
       inkscape:export-filename="..\Client Logos\KAEC\KAEC.png"
       inkscape:export-xdpi="300"
       inkscape:export-ydpi="300" /><g
       id="g68"
       transform="matrix(0.8681483,0,0,0.8681483,1481.1787,-543.28628)"
       inkscape:export-filename="HTCD\HTCD.svg"
       inkscape:export-xdpi="300"
       inkscape:export-ydpi="300"><path
         id="path59"
         style="opacity:1;fill:#000000;fill-opacity:1;stroke-width:0.638266"
         d="m 572.14718,123.49375 v 17.36845 h 4.39146 v -6.48849 h 16.11426 v 6.48849 h 4.39147 v -17.36845 h -4.39147 v 6.48849 h -16.11426 v -6.48849 z" /><path
         id="path60"
         style="opacity:1;fill:#000000;fill-opacity:1;stroke-width:0.772574"
         d="m 600.2204,123.11755 v 4.39146 h 10.52804 v 13.46998 h 4.39146 v -13.46998 h 10.52804 v -4.39146 z" /><path
         id="path61"
         style="opacity:1;fill:#000000;fill-opacity:1;stroke-width:0.645943"
         d="m 663.3752,136.49657 c 0.0575,0.006 0.1158,0.0103 0.17518,0.0103 h 13.3687 c 0.0594,0 0.1177,-0.004 0.17518,-0.0103 z" /><path
         id="path62"
         style="opacity:1;fill:#000000;fill-opacity:1;stroke-width:0.645943"
         d="m 677.71334,123.03848 v 0.009 l -18.39629,0.0961 h -2.29082 v 17.7891 h 4.39198 v -0.0444 h 16.29513 v 0.0444 c 1.86659,0 4.39198,-0.74727 4.39198,-3.96668 v -9.10694 c 0,-3.23656 -2.24129,-4.60311 -3.97185,-4.79402 v -0.0176 h -0.22737 c -0.0644,-0.003 -0.13034,-0.009 -0.19276,-0.009 z m -16.29513,4.40077 h 14.98758 c 0.65544,0 0.66095,0.38981 0.66095,1.33428 v 6.40271 c 0,0.90755 0.0802,1.33063 -1.07547,1.33063 h -12.44089 c -0.0594,0 -0.1177,-0.004 -0.17518,-0.0103 h -1.95699 z"
         sodipodi:nodetypes="cccccccccsscccccccccscccc" /><path
         id="path65"
         style="opacity:1;fill:#000000;fill-opacity:1;stroke-width:0.624999"
         d="m 632.97086,122.93565 c -3.40045,0 -4.42454,2.55439 -4.42454,4.29276 v 4.76973 0.0987 4.92167 c 0,1.73836 1.02409,4.29276 4.42454,4.29276 h 16.01504 c 4.83215,0 4.77892,-3.97438 4.68912,-6.57118 l -4.82141,-0.0326 c 0,1.04739 0.34766,2.11305 -1.9482,2.11305 h -11.49078 c -1.41301,0 -1.8495,-0.79223 -1.8495,-1.6676 v -3.05615 -0.0987 -2.90421 c 0,-0.87537 0.43649,-1.6676 1.8495,-1.6676 h 11.49078 c 2.29586,0 1.9482,1.06566 1.9482,2.11305 l 4.82141,-0.0326 c 0.0898,-2.5968 0.14303,-6.57117 -4.68912,-6.57117 z" /><path
         id="path67"
         style="opacity:1;fill:#000000;fill-opacity:1;stroke:none;stroke-width:0.624999"
         d="m 540.71447,123.87512 c -3.06157,-0.0918 -6.32726,1.59991 -6.32726,4.74235 -3.19286,-0.0907 -5.30769,2.59818 -5.30769,5.4777 0,4.82381 3.62842,6.76703 5.85339,6.76703 h 10.3203 c 2.54221,0 5.33676,-2.03314 6.02392,-4.59765 1.60383,2.43476 4.29323,4.34288 6.91121,4.34288 4.82373,0.0169 6.8647,-3.4652 6.8647,-6.51846 0,-2.9622 -2.2789,-6.58409 -6.95823,-6.58409 -3.61351,0 -4.87503,2.05639 -6.95772,4.66741 0,-1.45456 -3.37115,-4.14413 -5.17901,-3.65972 0,-3.08717 -2.54222,-4.55646 -5.24361,-4.63745 z m -0.44648,3.27939 c 1.61542,0 2.91558,1.30065 2.91558,2.9161 v 1.56786 h 3.1936 l 2.70785,2.78795 -2.70785,3.04374 h -8.11681 -1.45624 -1.76734 c -1.61545,0 -2.9161,-1.30065 -2.9161,-2.9161 0,-1.61545 1.30065,-2.91559 2.9161,-2.91559 h 1.76734 0.54777 v -1.56786 c 0,-1.61545 1.30065,-2.9161 2.9161,-2.9161 z m 17.92035,3.55327 c 5.13935,0 5.13678,6.76238 0,6.76238 -2.35362,0 -4.8333,-3.44682 -4.8333,-3.44682 0,0 2.86406,-3.31556 4.8333,-3.31556 z"
         sodipodi:nodetypes="scsssccssccsssccccccsssccsssscs" /><path
         id="path68"
         style="opacity:1;fill:#000000;fill-opacity:1;stroke:none;stroke-width:0.624999"
         d="m 540.28246,130.36517 v 0.0253 c -0.28083,0.96072 -1.77306,1.52707 -2.45205,1.34513 0,2.09573 1.22127,4.5378 2.42466,4.62039 v 0.003 c 0.0103,0 0.0207,-6.8e-4 0.031,-0.001 0.0105,3.7e-4 0.021,0.001 0.0315,0.001 v -0.003 c 1.20339,-0.0826 2.42465,-2.52466 2.42465,-4.62039 -0.67899,0.18194 -2.17122,-0.38441 -2.45204,-1.34513 v -0.0253 c -10e-4,0.004 -0.003,0.008 -0.004,0.0124 -10e-4,-0.004 -0.002,-0.008 -0.004,-0.0124 z" /></g></g></svg>
