<?xml version="1.0" encoding="UTF-8" standalone="no"?>
<!-- Created with Inkscape (http://www.inkscape.org/) -->

<svg
   width="19.546753"
   height="21.513718"
   viewBox="0 0 5.1717449 5.6921711"
   version="1.1"
   id="svg1"
   xml:space="preserve"
   inkscape:version="1.3.2 (091e20e, 2023-11-25, custom)"
   sodipodi:docname="Expertise ERP icon.svg"
   xmlns:inkscape="http://www.inkscape.org/namespaces/inkscape"
   xmlns:sodipodi="http://sodipodi.sourceforge.net/DTD/sodipodi-0.dtd"
   xmlns="http://www.w3.org/2000/svg"
   xmlns:svg="http://www.w3.org/2000/svg"><sodipodi:namedview
     id="namedview1"
     pagecolor="#ffffff"
     bordercolor="#eeeeee"
     borderopacity="1"
     inkscape:showpageshadow="0"
     inkscape:pageopacity="0"
     inkscape:pagecheckerboard="0"
     inkscape:deskcolor="#d1d1d1"
     inkscape:document-units="mm"
     inkscape:zoom="2.24454"
     inkscape:cx="258.6276"
     inkscape:cy="182.44273"
     inkscape:window-width="1920"
     inkscape:window-height="991"
     inkscape:window-x="-9"
     inkscape:window-y="-9"
     inkscape:window-maximized="1"
     inkscape:current-layer="layer1" /><defs
     id="defs1" /><g
     inkscape:label="Layer 1"
     inkscape:groupmode="layer"
     id="layer1"
     transform="translate(-152.5846,-37.203892)"><path
       style="fill:#ffffff;fill-opacity:1;stroke-width:0.376049"
       d="m 154.44098,42.877404 c -0.093,-0.04245 -0.10722,-0.07158 -0.17854,-0.364699 -0.0355,-0.145913 -0.0678,-0.269223 -0.0718,-0.274023 -0.004,-0.0048 -0.0794,0.0035 -0.16758,0.01861 -0.44981,0.0767 -0.71197,0.06497 -0.85443,-0.03823 -0.13106,-0.09495 -0.15223,-0.255558 -0.067,-0.507893 0.0373,-0.110215 0.0379,-0.114393 0.0175,-0.114393 -0.008,0 -0.0359,-0.01517 -0.0615,-0.0337 -0.11991,-0.08686 -0.12254,-0.217339 -0.006,-0.289468 l 0.0396,-0.02445 -0.0481,-0.02721 c -0.0683,-0.03865 -0.095,-0.06656 -0.11588,-0.121287 -0.022,-0.05765 -0.0154,-0.09305 0.0293,-0.156176 l 0.0327,-0.04616 -0.0805,-0.0073 c -0.16819,-0.01527 -0.25531,-0.04691 -0.30179,-0.109589 -0.0175,-0.02363 -0.023,-0.04684 -0.0223,-0.09532 10e-4,-0.08806 0.0505,-0.190994 0.16653,-0.347859 0.11162,-0.150877 0.215,-0.322122 0.26726,-0.442713 0.059,-0.136072 0.0823,-0.242674 0.09,-0.411932 l 0.007,-0.150146 0.036,-0.03615 0.036,-0.03615 h 0.15126 0.15126 v -0.308692 c 0,-0.300788 -6.1e-4,-0.309111 -0.0232,-0.323205 -0.0127,-0.0079 -0.0332,-0.03725 -0.0456,-0.0651 -0.0747,-0.168902 0.12855,-0.325797 0.26899,-0.207626 0.0858,0.07221 0.0901,0.183047 0.0102,0.265879 l -0.0329,0.03409 0.003,0.299571 0.003,0.299571 0.19742,0.003 0.19741,0.003 V 38.61827 37.974882 l -0.0292,-0.02696 c -0.1184,-0.109189 -0.0426,-0.303728 0.1183,-0.303728 0.0662,0 0.12039,0.03135 0.15265,0.08831 0.0413,0.07295 0.0277,0.158049 -0.0345,0.215416 l -0.0292,0.02696 v 0.643132 0.643131 h 0.11678 0.11679 v 0.348565 0.348564 l 0.0339,0.06782 c 0.038,0.07612 0.0908,0.1279 0.16574,0.162564 0.0498,0.02304 0.0622,0.02342 0.75685,0.02342 h 0.70624 l 0.0527,-0.02618 c 0.0672,-0.0334 0.13348,-0.09967 0.1663,-0.166291 0.025,-0.05074 0.0258,-0.06221 0.0291,-0.405337 l 0.003,-0.353121 h 0.11063 0.11064 v -0.649459 c 0,-0.565915 -0.002,-0.650261 -0.0166,-0.655819 -0.032,-0.01229 -0.0611,-0.07709 -0.0612,-0.136162 -5e-5,-0.0733 0.0325,-0.123644 0.10254,-0.158381 0.0696,-0.03455 0.12779,-0.02575 0.18778,0.02845 0.0769,0.0695 0.0807,0.171078 0.01,0.252244 l -0.0329,0.03747 v 0.640821 0.640822 h 0.19463 0.19463 v -0.311761 c 0,-0.264968 -0.002,-0.312711 -0.0165,-0.318078 -0.032,-0.0123 -0.064,-0.08093 -0.064,-0.137572 0,-0.137534 0.14588,-0.222371 0.26176,-0.152224 0.0589,0.03563 0.0854,0.0801 0.0855,0.143159 9e-5,0.06474 -0.0118,0.09694 -0.0487,0.131928 l -0.0287,0.02728 -2e-4,0.308633 -1.9e-4,0.308633 h 0.13958 c 0.16115,0 0.19741,0.012 0.22326,0.07388 0.0144,0.03449 0.0143,0.05387 -0.001,0.166656 -0.0325,0.235069 -0.0961,0.434541 -0.20796,0.652449 -0.0547,0.106628 -0.1638,0.274228 -0.39955,0.614036 -0.23243,0.335033 -0.32016,0.555518 -0.33855,0.850826 -0.0154,0.246484 0.0567,0.603245 0.18439,0.9124 0.0496,0.120203 0.053,0.162148 0.0188,0.236737 -0.0203,0.04425 -0.0415,0.07035 -0.0756,0.09293 l -0.0474,0.0314 -1.19643,0.0026 c -1.13901,0.0025 -1.19856,0.0017 -1.241,-0.01772 z m 0.29802,-2.866939 c -0.0221,-0.01089 -0.0444,-0.03549 -0.0584,-0.06443 -0.022,-0.04545 -0.0227,-0.06557 -0.0226,-0.691152 2e-5,-0.591462 0.002,-0.647469 0.0195,-0.682476 0.0339,-0.06648 0.0694,-0.08371 0.18151,-0.08809 l 0.0993,-0.0039 v -0.46745 -0.467446 l -0.0383,-0.04239 c -0.0693,-0.07666 -0.0669,-0.176887 0.006,-0.246074 0.0748,-0.0712 0.17335,-0.07086 0.24506,8.44e-4 0.0703,0.07032 0.0718,0.169775 0.004,0.245221 l -0.0383,0.04239 v 0.468557 0.468553 h 0.29473 0.29473 v -0.47785 c 0,-0.455364 -10e-4,-0.478375 -0.0208,-0.48898 -0.0298,-0.01593 -0.0571,-0.07991 -0.0571,-0.133692 0,-0.157755 0.18736,-0.234111 0.29944,-0.122034 0.0675,0.0675 0.0675,0.178924 -5e-5,0.24644 l -0.0325,0.03246 v 0.471826 0.471826 h 0.0845 c 0.1,0 0.14993,0.01973 0.18224,0.07201 0.0218,0.03531 0.0224,0.05396 0.0224,0.700049 0,0.732507 0.002,0.707989 -0.0701,0.752094 -0.0343,0.0209 -0.0604,0.0217 -0.69736,0.0215 -0.58107,-1.85e-4 -0.6661,-0.0024 -0.69748,-0.01783 z m 0.36056,-0.381608 c 0.0127,-0.01187 0.0319,-0.04441 0.0425,-0.07229 l 0.0194,-0.05071 h 0.14221 0.14221 l 0.0129,0.03921 c 0.0214,0.06476 0.0626,0.105376 0.10706,0.105376 0.0458,0 0.093,-0.04116 0.093,-0.08111 0,-0.03965 -0.27431,-0.666436 -0.30157,-0.689083 -0.0129,-0.01071 -0.0373,-0.01946 -0.0543,-0.01946 -0.017,0 -0.0414,0.0088 -0.0543,0.01946 -0.0271,0.02259 -0.30164,0.649929 -0.30164,0.689306 0,0.06651 0.10208,0.106219 0.15244,0.0593 z m 0.14778,-0.309291 c -1e-4,-0.01343 0.0496,-0.124741 0.0557,-0.124741 0.006,0 0.0558,0.111311 0.0557,0.124741 -3e-5,0.0046 -0.0251,0.0084 -0.0557,0.0084 -0.0306,0 -0.0556,-0.0037 -0.0557,-0.0084 z m 0.64486,0.308916 c 0.0121,-0.01207 0.0248,-0.03335 0.0283,-0.04727 0.004,-0.01392 0.005,-0.169637 0.003,-0.346039 l -0.003,-0.320733 -0.0312,-0.02683 c -0.0344,-0.02954 -0.0595,-0.03316 -0.10051,-0.01447 -0.0485,0.02209 -0.0518,0.04728 -0.0518,0.39463 v 0.328079 l 0.0273,0.0273 c 0.0344,0.03444 0.0964,0.03702 0.12812,0.0053 z"
       id="path40"
       inkscape:export-filename=".\AI &amp; ML.svg"
       inkscape:export-xdpi="96"
       inkscape:export-ydpi="96" /></g></svg>
