<?xml version="1.0" encoding="UTF-8" standalone="no"?>
<!-- Created with Inkscape (http://www.inkscape.org/) -->

<svg
   width="23.538391"
   height="20.628189"
   viewBox="0 0 6.2278659 5.457875"
   version="1.1"
   id="svg1"
   xml:space="preserve"
   inkscape:version="1.3.2 (091e20e, 2023-11-25, custom)"
   sodipodi:docname="Expertise ERP icon.svg"
   xmlns:inkscape="http://www.inkscape.org/namespaces/inkscape"
   xmlns:sodipodi="http://sodipodi.sourceforge.net/DTD/sodipodi-0.dtd"
   xmlns="http://www.w3.org/2000/svg"
   xmlns:svg="http://www.w3.org/2000/svg"><sodipodi:namedview
     id="namedview1"
     pagecolor="#ffffff"
     bordercolor="#eeeeee"
     borderopacity="1"
     inkscape:showpageshadow="0"
     inkscape:pageopacity="0"
     inkscape:pagecheckerboard="0"
     inkscape:deskcolor="#d1d1d1"
     inkscape:document-units="mm"
     inkscape:zoom="2.24454"
     inkscape:cx="258.6276"
     inkscape:cy="182.44273"
     inkscape:window-width="1920"
     inkscape:window-height="991"
     inkscape:window-x="-9"
     inkscape:window-y="-9"
     inkscape:window-maximized="1"
     inkscape:current-layer="layer1" /><defs
     id="defs1" /><g
     inkscape:label="Layer 1"
     inkscape:groupmode="layer"
     id="layer1"
     transform="translate(-201.1772,-37.321102)"><path
       style="fill:#ffffff;fill-opacity:1;stroke-width:0.371611"
       d="m 204.16227,42.753341 c -0.15521,-0.04067 -0.29341,-0.120833 -0.41361,-0.239919 -0.16165,-0.160143 -0.2528,-0.350463 -0.27262,-0.569203 l -0.009,-0.09796 -0.41742,-0.0058 c -0.36792,-0.0051 -0.42974,-0.009 -0.52137,-0.03273 -0.37708,-0.09757 -0.66995,-0.328671 -0.83161,-0.65621 -0.0866,-0.175574 -0.11168,-0.273126 -0.11996,-0.467756 -0.0102,-0.23996 0.0253,-0.421347 0.1189,-0.607752 0.0184,-0.03663 0.0334,-0.0705 0.0334,-0.07528 -3e-5,-0.0048 -0.0395,-0.02874 -0.0877,-0.05326 -0.11944,-0.06075 -0.29173,-0.233945 -0.35637,-0.358272 -0.0818,-0.157324 -0.1077,-0.263571 -0.1077,-0.441843 0,-0.126564 0.006,-0.174307 0.0302,-0.253411 0.0513,-0.165537 0.11302,-0.267882 0.23537,-0.390229 0.11865,-0.118652 0.22632,-0.184917 0.37074,-0.228175 0.0972,-0.02911 0.11046,-0.03897 0.11046,-0.08195 0,-0.06226 0.0528,-0.226342 0.10517,-0.327081 0.24378,-0.468586 0.80219,-0.670037 1.29203,-0.466117 0.23545,0.09802 0.45244,0.315911 0.54033,0.542574 l 0.0286,0.07379 0.20276,3.26e-4 c 0.2904,4.83e-4 0.46949,0.04316 0.71972,0.171581 0.25559,0.131162 0.46571,0.326097 0.62501,0.579837 0.0753,0.119967 0.16312,0.328571 0.18955,0.450328 0.009,0.03931 0.0176,0.07826 0.0202,0.08655 0.003,0.01028 0.0306,0.0045 0.0861,-0.01782 0.0448,-0.01809 0.13728,-0.04448 0.20553,-0.05864 0.1602,-0.03324 0.41186,-0.02635 0.55719,0.01527 0.65646,0.187983 1.03968,0.871962 0.86792,1.549089 -0.0617,0.243224 -0.1745,0.446612 -0.34994,0.631007 l -0.0963,0.101227 0.0258,0.07147 c 0.0376,0.104449 0.0462,0.347085 0.0167,0.471639 -0.0804,0.338966 -0.33681,0.599085 -0.67511,0.684873 -0.0985,0.02497 -0.14339,0.02604 -1.06563,0.02535 -0.90376,-6.69e-4 -0.96862,-0.0023 -1.05731,-0.02548 z m -0.63462,-1.201877 c 0.0861,-0.237895 0.27348,-0.43534 0.50298,-0.530069 0.0457,-0.01889 0.10803,-0.04061 0.1384,-0.04828 0.0507,-0.0128 0.0552,-0.0174 0.0552,-0.05594 0,-0.06915 0.0503,-0.229184 0.10517,-0.33467 0.10101,-0.194151 0.26555,-0.354257 0.46054,-0.448121 0.15429,-0.07428 0.23551,-0.0905 0.44793,-0.0895 0.16838,7.73e-4 0.1995,0.0046 0.2924,0.03568 0.16728,0.05597 0.28526,0.129119 0.41053,0.254537 0.15606,0.156249 0.2494,0.332303 0.28522,0.538019 l 0.0146,0.08362 0.10618,0.03484 c 0.1487,0.04879 0.27202,0.126036 0.38407,0.240589 l 0.0959,0.0981 0.0575,-0.06483 c 0.37898,-0.426896 0.419,-1.025066 0.097,-1.450093 -0.19525,-0.25773 -0.47983,-0.400756 -0.79864,-0.401385 -0.16902,-3.34e-4 -0.29209,0.02931 -0.46068,0.110957 -0.0804,0.03892 -0.15459,0.07075 -0.16497,0.07075 -0.0104,0 -0.0341,-0.01316 -0.0527,-0.02923 -0.0277,-0.0239 -0.0363,-0.04704 -0.047,-0.126706 -0.0795,-0.589369 -0.48091,-1.042985 -1.04962,-1.186069 -0.16029,-0.04033 -0.479,-0.04049 -0.6383,-3.25e-4 -0.59359,0.149662 -1.01724,0.657919 -1.04869,1.258124 -0.009,0.167641 0.0149,0.311298 0.0746,0.451392 0.0506,0.119015 0.10165,0.191651 0.2224,0.316742 0.11107,0.11506 0.12198,0.144815 0.075,0.204512 -0.044,0.05593 -0.10746,0.0478 -0.18992,-0.02434 -0.19862,-0.173745 -0.34086,-0.441713 -0.38131,-0.718328 l -0.0153,-0.104684 -0.0483,0.01704 c -0.33872,0.119508 -0.59515,0.41528 -0.66505,0.767074 -0.0191,0.09616 -0.0148,0.320512 0.008,0.419849 0.027,0.116992 0.11976,0.302824 0.20062,0.401782 0.15653,0.191546 0.41035,0.337541 0.66105,0.380234 0.0334,0.0057 0.2353,0.0095 0.44874,0.0086 l 0.38806,-0.0018 z"
       id="path43"
       inkscape:export-filename="Cloud.svg"
       inkscape:export-xdpi="96"
       inkscape:export-ydpi="96" /></g></svg>
