<?xml version="1.0" encoding="UTF-8" standalone="no"?>
<!-- Created with Inkscape (http://www.inkscape.org/) -->

<svg
   width="20.936584"
   height="21.295746"
   viewBox="0 0 5.5394712 5.6344994"
   version="1.1"
   id="svg1"
   xml:space="preserve"
   inkscape:version="1.3.2 (091e20e, 2023-11-25, custom)"
   sodipodi:docname="Expertise ERP icon.svg"
   xmlns:inkscape="http://www.inkscape.org/namespaces/inkscape"
   xmlns:sodipodi="http://sodipodi.sourceforge.net/DTD/sodipodi-0.dtd"
   xmlns="http://www.w3.org/2000/svg"
   xmlns:svg="http://www.w3.org/2000/svg"><sodipodi:namedview
     id="namedview1"
     pagecolor="#ffffff"
     bordercolor="#eeeeee"
     borderopacity="1"
     inkscape:showpageshadow="0"
     inkscape:pageopacity="0"
     inkscape:pagecheckerboard="0"
     inkscape:deskcolor="#d1d1d1"
     inkscape:document-units="mm"
     inkscape:zoom="2.24454"
     inkscape:cx="258.6276"
     inkscape:cy="182.44273"
     inkscape:window-width="1920"
     inkscape:window-height="991"
     inkscape:window-x="-9"
     inkscape:window-y="-9"
     inkscape:window-maximized="1"
     inkscape:current-layer="layer1" /><defs
     id="defs1" /><g
     inkscape:label="Layer 1"
     inkscape:groupmode="layer"
     id="layer1"
     transform="translate(-170.27924,-37.232769)"><path
       style="fill:#ffffff;fill-opacity:1;stroke-width:0.0415929"
       d="m 174.96332,42.419266 -0.4485,-0.448006 -0.0415,0.02469 c -0.309,0.183711 -0.62086,0.247903 -0.93894,0.193265 -0.45052,-0.07739 -0.83873,-0.392187 -0.99824,-0.809455 l -0.0412,-0.107764 -0.63553,-2.12e-4 -0.63552,-2.12e-4 v -0.09354 -0.09354 l 0.61351,-3e-6 0.61352,-4e-6 3.7e-4,-0.200834 c 3.6e-4,-0.206297 0.01,-0.268541 0.0652,-0.425212 0.0143,-0.04057 0.0169,-0.127077 0.0169,-0.558348 v -0.510338 h 0.0935 0.0935 v 0.346177 0.346178 l 0.0932,-0.09582 0.0932,-0.09582 3.1e-4,-0.343901 3.1e-4,-0.343901 h 0.0935 0.0935 v 0.276038 c 0,0.15182 0.004,0.274386 0.009,0.272369 0.005,-0.002 0.0471,-0.021 0.0935,-0.04219 l 0.0845,-0.03851 2e-5,-0.184331 1e-5,-0.184331 h 0.0935 0.0935 v 0.154742 0.154742 l 0.0523,-0.0075 c 0.0288,-0.0041 0.0721,-0.01077 0.0963,-0.01473 l 0.044,-0.0072 0.003,-0.327093 0.003,-0.327092 h 0.0877 0.0877 l 0.003,0.327092 0.003,0.327093 0.044,0.0072 c 0.0242,0.004 0.0675,0.01059 0.0963,0.01473 l 0.0523,0.0075 V 39.17583 38.740465 h 0.0935 0.0935 l 1e-5,0.464953 1e-5,0.464955 0.0845,0.03851 c 0.0465,0.02119 0.0886,0.04017 0.0935,0.04219 0.005,0.002 0.009,-0.140357 0.009,-0.316388 v -0.320056 h 0.0935 0.0935 l 3.2e-4,0.387919 3.1e-4,0.38792 0.0932,0.09582 0.0932,0.09582 v -0.296656 -0.296655 h 0.0935 0.0935 v 0.460818 c 0,0.386692 0.003,0.468541 0.0169,0.508825 0.0553,0.156672 0.0648,0.218916 0.0652,0.425213 l 3.9e-4,0.200834 0.0523,4e-6 0.0523,4e-6 v 0.09354 0.09354 h -0.0744 -0.0744 l -0.0249,0.06878 c -0.0137,0.03783 -0.0387,0.09701 -0.0555,0.131505 l -0.0306,0.06272 0.44426,0.443497 c 0.24435,0.243923 0.45166,0.457418 0.46069,0.474434 0.0281,0.05296 0.006,0.08888 -0.15266,0.245892 -0.15039,0.14902 -0.17614,0.168866 -0.21906,0.168866 -0.0185,0 -0.14459,-0.119293 -0.47367,-0.448006 z m 0.56358,0.145224 0.071,-0.07168 -0.39891,-0.398774 -0.39891,-0.398775 -0.0706,0.07704 -0.0706,0.07704 0.39259,0.393422 c 0.21592,0.216383 0.39523,0.393423 0.39846,0.393423 0.003,0 0.0378,-0.03226 0.0769,-0.07168 z m -1.59585,-0.556113 c 0.24116,-0.03829 0.47235,-0.160517 0.64022,-0.338472 0.12817,-0.135866 0.21086,-0.280618 0.26976,-0.472238 0.0275,-0.08933 0.0298,-0.111708 0.0303,-0.294754 5.5e-4,-0.174181 -0.002,-0.209376 -0.0249,-0.291627 -0.0861,-0.315515 -0.29871,-0.576671 -0.58769,-0.721989 -0.49485,-0.248847 -1.09851,-0.09837 -1.42395,0.354961 -0.0644,0.08967 -0.13985,0.251344 -0.17134,0.367028 -0.0224,0.08214 -0.0254,0.117681 -0.0249,0.291627 5.7e-4,0.183046 0.003,0.205427 0.0303,0.294754 0.039,0.126771 0.0832,0.222834 0.14631,0.317759 0.17768,0.267273 0.46001,0.445918 0.78568,0.497151 0.0585,0.0092 0.26202,0.0066 0.33015,-0.0042 z m -0.35215,-0.191388 c -0.32429,-0.06874 -0.57737,-0.278996 -0.69627,-0.578429 -0.0757,-0.190697 -0.0837,-0.433862 -0.0207,-0.627274 0.10243,-0.314084 0.35746,-0.551085 0.6749,-0.627187 0.12478,-0.02991 0.31141,-0.02991 0.43618,0 0.31714,0.07602 0.57058,0.311322 0.67556,0.627187 0.0328,0.09865 0.0348,0.114161 0.0355,0.27512 6.5e-4,0.146707 -0.003,0.182788 -0.0245,0.257862 -0.0528,0.182475 -0.17081,0.363325 -0.31261,0.479259 -0.0806,0.06593 -0.25822,0.155337 -0.36092,0.181723 -0.0969,0.02489 -0.3154,0.03119 -0.40718,0.01174 z m 0.33564,-0.187751 c 0.16095,-0.03368 0.33849,-0.147367 0.43469,-0.278363 l 0.0542,-0.0738 -0.32423,-0.003 c -0.17832,-0.0016 -0.47012,-0.0016 -0.64845,0 l -0.32422,0.003 0.0542,0.0738 c 0.067,0.09127 0.15419,0.161557 0.27146,0.218906 0.15015,0.07343 0.31719,0.09402 0.48236,0.05946 z m 0.57255,-0.564004 c 0.0184,-0.04339 0.0187,-0.260155 4.5e-4,-0.338398 -0.0275,-0.117901 -0.096,-0.245929 -0.18063,-0.337335 l -0.0732,-0.0791 -0.005,0.290752 -0.006,0.290753 -0.0906,0.0032 -0.0906,0.0032 -0.003,-0.349845 -0.003,-0.349846 -0.055,-0.01823 c -0.0303,-0.01003 -0.0724,-0.01993 -0.0935,-0.02201 l -0.0385,-0.0038 -0.003,0.371413 -0.003,0.371413 h -0.0879 -0.0877 l -0.003,-0.371413 -0.003,-0.371413 -0.0385,0.0038 c -0.0212,0.0021 -0.0633,0.01198 -0.0935,0.02201 l -0.055,0.01823 -0.003,0.349846 -0.003,0.349845 -0.0906,-0.0032 -0.0906,-0.0032 -0.006,-0.290753 -0.005,-0.290752 -0.0732,0.0791 c -0.0846,0.09141 -0.15314,0.219434 -0.18061,0.337335 -0.0182,0.07825 -0.018,0.295007 4.5e-4,0.338398 0.008,0.01806 0.0531,0.01926 0.73212,0.01926 0.67904,0 0.72447,-0.0012 0.73212,-0.01926 z m -3.25222,0.854241 c -0.14065,-0.02281 -0.27793,-0.127141 -0.34407,-0.261488 l -0.0356,-0.07232 v -1.629176 -1.629175 l 0.0366,-0.07438 c 0.0667,-0.135428 0.1941,-0.232558 0.34185,-0.26058 0.0389,-0.0073 0.71195,-0.01117 1.95881,-0.01104 2.06802,2.07e-4 1.98635,-0.0022 2.10363,0.06164 0.10451,0.05688 0.19409,0.17378 0.22669,0.295821 0.0217,0.08116 0.0217,3.154071 3e-5,3.235417 -0.0157,0.05895 -0.0411,0.113588 -0.0754,0.162387 -0.0243,0.0345 -0.0241,0.03457 -0.11145,-0.04271 l -0.0513,-0.0454 0.0303,-0.05365 0.0302,-0.05365 0.003,-1.571306 0.003,-1.571306 -0.0234,-0.05441 c -0.0129,-0.02993 -0.0448,-0.07407 -0.0708,-0.09812 -0.0912,-0.08405 0.0633,-0.07849 -2.0911,-0.07524 l -1.92526,0.0029 -0.0597,0.03302 c -0.0633,0.03504 -0.11157,0.09134 -0.13509,0.157687 -0.0115,0.03244 -0.0143,0.347006 -0.0143,1.597581 0,1.555906 2e-5,1.557222 0.023,1.606827 0.0293,0.06324 0.0842,0.118198 0.14747,0.147471 0.0483,0.02234 0.0673,0.02307 0.69068,0.02615 l 0.64103,0.0032 v 0.09312 0.09312 l -0.61902,-0.0013 c -0.34047,-7.03e-4 -0.64626,-0.0057 -0.67955,-0.0111 z m -0.66335,-0.779916 c -0.11305,-0.04334 -0.21066,-0.145208 -0.26391,-0.275414 l -0.0247,-0.06027 -0.003,-1.55168 c -0.002,-1.09427 3.6e-4,-1.57259 0.009,-1.622615 0.0236,-0.137921 0.10445,-0.257549 0.22137,-0.327523 0.12297,-0.07359 -0.01,-0.06924 2.11689,-0.06924 2.07974,0 1.98351,-0.0026 2.09869,0.05619 0.0635,0.03239 0.15364,0.120493 0.18813,0.183873 0.0387,0.07112 0.0627,0.16754 0.0627,0.251967 v 0.06922 h -0.0921 -0.0921 l -0.005,-0.08529 c -0.007,-0.123305 -0.0571,-0.205362 -0.15734,-0.259578 l -0.044,-0.0238 h -1.95887 -1.95886 l -0.0456,0.02438 c -0.0251,0.01341 -0.0636,0.04546 -0.0857,0.07124 -0.0771,0.09009 -0.073,-0.01072 -0.0697,1.70988 l 0.003,1.550972 0.0247,0.04615 c 0.0317,0.05931 0.0948,0.120438 0.14193,0.137477 0.0203,0.0073 0.037,0.01756 0.037,0.02266 0,0.01818 -0.0362,0.156999 -0.0428,0.164221 -0.004,0.0041 -0.0304,-0.0017 -0.0593,-0.01281 z m 0.83943,-0.522771 v -0.280623 h 0.0935 0.0935 v 0.280623 0.280623 h -0.0935 -0.0935 z m 0.37416,-0.286571 v -0.567192 l 0.0908,0.0032 0.0908,0.0032 0.003,0.563997 0.003,0.563997 h -0.0937 -0.0936 z m 0.37417,0.143508 V 40.05004 h 0.0935 0.0935 v 0.423685 0.423686 h -0.0935 -0.0935 z m -0.93541,-2.025331 v -0.09399 l 0.0908,0.0032 0.0908,0.0032 0.003,0.09079 0.003,0.09079 h -0.094 -0.094 z m 0.37416,0 v -0.09399 l 0.0908,0.0032 0.0908,0.0032 0.003,0.09079 0.003,0.09079 h -0.094 -0.094 z m 0.37416,4.43e-4 v -0.09354 h 0.0935 0.0935 v 0.09354 0.09354 h -0.0935 -0.0935 z m -1.31827,-0.745577 0.003,-0.09079 0.0908,-0.0032 0.0908,-0.0032 v 0.09398 0.09399 h -0.094 -0.094 z m 0.38286,-0.0032 v -0.09397 l 0.0908,0.0032 0.0908,0.0032 0.003,0.09079 0.003,0.09079 h -0.094 -0.094 z m 0.37417,4.44e-4 v -0.09354 h 0.0935 0.0935 v 0.09354 0.09354 h -0.0935 -0.0935 z"
       id="path41"
       inkscape:export-filename="Data Analytics &amp; BI.svg"
       inkscape:export-xdpi="96"
       inkscape:export-ydpi="96" /></g></svg>
