<?xml version="1.0" encoding="UTF-8" standalone="no"?>
<!-- Created with Inkscape (http://www.inkscape.org/) -->

<svg
   width="20.306885"
   height="20.306885"
   viewBox="0 0 5.3728632 5.3728632"
   version="1.1"
   id="svg1"
   xml:space="preserve"
   inkscape:version="1.3.2 (091e20e, 2023-11-25, custom)"
   sodipodi:docname="Expertise ERP icon.svg"
   xmlns:inkscape="http://www.inkscape.org/namespaces/inkscape"
   xmlns:sodipodi="http://sodipodi.sourceforge.net/DTD/sodipodi-0.dtd"
   xmlns="http://www.w3.org/2000/svg"
   xmlns:svg="http://www.w3.org/2000/svg"><sodipodi:namedview
     id="namedview1"
     pagecolor="#ffffff"
     bordercolor="#eeeeee"
     borderopacity="1"
     inkscape:showpageshadow="0"
     inkscape:pageopacity="0"
     inkscape:pagecheckerboard="0"
     inkscape:deskcolor="#d1d1d1"
     inkscape:document-units="mm"
     inkscape:zoom="2.24454"
     inkscape:cx="258.6276"
     inkscape:cy="182.44273"
     inkscape:window-width="1920"
     inkscape:window-height="991"
     inkscape:window-x="-9"
     inkscape:window-y="-9"
     inkscape:window-maximized="1"
     inkscape:current-layer="layer1" /><defs
     id="defs1" /><g
     inkscape:label="Layer 1"
     inkscape:groupmode="layer"
     id="layer1"
     transform="translate(-139.33388,-37.363583)"><path
       style="fill:#ffffff;fill-opacity:1;stroke-width:0.476906"
       d="m 139.33387,41.471936 v -1.26451 h 2.68643 2.68643 v 1.26451 1.264511 h -2.68643 -2.68643 z m 1.89938,0.634879 v -0.157408 h -0.2361 -0.23612 v -0.157128 -0.157127 l 0.15479,-0.0029 0.15478,-0.0029 v -0.157406 -0.157408 l -0.15478,-0.0029 -0.15479,-0.0029 V 41.151728 40.9946 h 0.23612 0.2361 v -0.157669 -0.157534 l -0.39614,0.0027 -0.39614,0.0028 -0.002,0.789663 -0.002,0.789664 h 0.39883 0.39883 z m 0.62964,-0.157408 v -0.314816 h 0.10338 c 0.09,0 0.108,0.0031 0.13904,0.02382 0.068,0.04542 0.0724,0.06659 0.0724,0.351336 l 2e-5,0.254476 h 0.15815 0.15813 l -0.003,-0.296452 -0.003,-0.296451 -0.0293,-0.06252 c -0.0161,-0.03439 -0.0414,-0.07834 -0.0561,-0.09768 l -0.0269,-0.03516 0.0267,-0.03874 c 0.0147,-0.0213 0.0399,-0.06707 0.056,-0.101701 0.0262,-0.05626 0.0293,-0.07471 0.0294,-0.173149 8e-5,-0.09022 -0.004,-0.121897 -0.0245,-0.174811 -0.0462,-0.121673 -0.1527,-0.226434 -0.28253,-0.277877 -0.0564,-0.02233 -0.0785,-0.02412 -0.34619,-0.02782 l -0.28595,-0.004 v 0.793163 0.793163 h 0.15741 0.15741 z m 0,-0.798754 v -0.158629 l 0.10465,0.0042 c 0.0844,0.0034 0.11016,0.0084 0.13315,0.02548 0.098,0.07318 0.10024,0.199884 0.004,0.263754 -0.0311,0.02074 -0.0491,0.02382 -0.13905,0.02382 h -0.10339 z m 1.25926,0.798754 v -0.314816 l 0.0813,-7.9e-5 c 0.18187,-1.77e-4 0.30611,-0.0422 0.40706,-0.137672 0.0686,-0.06488 0.12614,-0.173077 0.1416,-0.266263 0.0406,-0.244576 -0.12862,-0.487193 -0.37603,-0.539232 -0.0322,-0.0068 -0.1638,-0.01169 -0.31219,-0.01169 h -0.25658 v 0.792287 0.792287 h 0.15741 0.1574 z m 0.002,-0.79491 0.002,-0.154785 0.0997,4.23e-4 c 0.11461,4.86e-4 0.15309,0.01511 0.18788,0.0714 0.0285,0.04613 0.0295,0.126466 0.002,0.168059 -0.0383,0.05817 -0.069,0.06955 -0.18762,0.06962 l -0.10784,6.9e-5 z m -3.476,-1.559686 v -0.297799 l 0.0446,-0.01154 c 0.0245,-0.0063 0.15161,-0.03822 0.28241,-0.07083 l 0.23783,-0.05929 0.0231,-0.06424 c 0.0127,-0.03534 0.0396,-0.100476 0.0597,-0.144758 l 0.0366,-0.08052 -0.14936,-0.248673 -0.14935,-0.248672 0.31022,-0.310215 0.31021,-0.310215 0.24918,0.149418 0.24917,0.149419 0.0795,-0.03606 c 0.0437,-0.01984 0.10853,-0.04654 0.14405,-0.05936 l 0.0646,-0.0233 0.0705,-0.282297 0.0705,-0.282297 h 0.4382 0.4382 l 0.0706,0.282875 0.0707,0.282875 0.054,0.0175 c 0.0296,0.0096 0.0944,0.03609 0.14385,0.05881 l 0.0899,0.04132 0.24922,-0.149445 0.24923,-0.149446 0.31021,0.310215 0.31022,0.310215 -0.14935,0.248672 -0.14936,0.248673 0.0366,0.08052 c 0.0201,0.04428 0.0468,0.109012 0.0594,0.143846 l 0.0229,0.06333 0.24865,0.06167 c 0.13676,0.03392 0.26399,0.06585 0.28275,0.07096 l 0.0341,0.0093 v 0.29858 0.298581 h -0.7955 -0.79548 l 0.004,-0.123302 c 0.005,-0.161923 -0.0128,-0.248678 -0.0819,-0.388407 -0.0925,-0.187192 -0.25493,-0.328567 -0.45627,-0.397164 -0.11854,-0.04038 -0.30967,-0.04766 -0.43296,-0.01648 -0.22599,0.05715 -0.41859,0.210749 -0.51907,0.413952 -0.0654,0.132406 -0.0763,0.183324 -0.0763,0.35662 v 0.154784 h -0.79492 -0.79492 z m 1.91075,0.244812 c -0.034,-0.158237 0.008,-0.31123 0.1182,-0.427347 0.0927,-0.098 0.21042,-0.149299 0.34267,-0.149299 0.13224,0 0.24997,0.05129 0.34265,0.149299 0.10982,0.116117 0.15214,0.26911 0.11821,0.427347 l -0.0114,0.05299 h -0.44951 -0.44949 z"
       id="path48"
       inkscape:export-filename="ERP.svg"
       inkscape:export-xdpi="96"
       inkscape:export-ydpi="96" /></g></svg>
