<?xml version="1.0" encoding="UTF-8" standalone="no"?>
<!-- Created with Inkscape (http://www.inkscape.org/) -->

<svg
   width="22.024048"
   height="22.050568"
   viewBox="0 0 5.8271959 5.8342126"
   version="1.1"
   id="svg1"
   xml:space="preserve"
   inkscape:version="1.3.2 (091e20e, 2023-11-25, custom)"
   sodipodi:docname="Expertise ERP icon.svg"
   xmlns:inkscape="http://www.inkscape.org/namespaces/inkscape"
   xmlns:sodipodi="http://sodipodi.sourceforge.net/DTD/sodipodi-0.dtd"
   xmlns="http://www.w3.org/2000/svg"
   xmlns:svg="http://www.w3.org/2000/svg"><sodipodi:namedview
     id="namedview1"
     pagecolor="#ffffff"
     bordercolor="#eeeeee"
     borderopacity="1"
     inkscape:showpageshadow="0"
     inkscape:pageopacity="0"
     inkscape:pagecheckerboard="0"
     inkscape:deskcolor="#d1d1d1"
     inkscape:document-units="mm"
     inkscape:zoom="2.24454"
     inkscape:cx="258.6276"
     inkscape:cy="182.44273"
     inkscape:window-width="1920"
     inkscape:window-height="991"
     inkscape:window-x="-9"
     inkscape:window-y="-9"
     inkscape:window-maximized="1"
     inkscape:current-layer="layer1" /><defs
     id="defs1" /><g
     inkscape:label="Layer 1"
     inkscape:groupmode="layer"
     id="layer1"
     transform="translate(-187.02857,-37.132958)"><path
       style="fill:#ffffff;fill-opacity:1;stroke-width:0.0431014"
       d="m 187.76881,42.952968 c -0.25636,-0.06362 -0.42815,-0.321683 -0.38432,-0.577293 0.0376,-0.218955 0.20439,-0.38622 0.42258,-0.423633 0.21096,-0.03618 0.43275,0.07517 0.5322,0.267186 l 0.034,0.06555 0.18531,2.7e-5 0.18531,2.7e-5 v -0.51206 -0.512059 l -0.34496,-0.0055 c -0.36504,-0.0059 -0.41906,-0.01241 -0.56855,-0.06869 -0.41158,-0.154931 -0.69504,-0.484078 -0.78749,-0.914411 -0.0215,-0.09999 -0.0182,-0.368932 0.006,-0.467559 0.0815,-0.336078 0.2904,-0.616566 0.58457,-0.784887 0.0805,-0.04606 0.0834,-0.04925 0.0902,-0.09891 0.0122,-0.08908 0.0516,-0.207798 0.1002,-0.302203 0.0657,-0.127624 0.21687,-0.278785 0.34437,-0.344286 0.11976,-0.06153 0.22604,-0.09316 0.34332,-0.102174 l 0.0955,-0.0073 0.0538,-0.09182 c 0.1298,-0.2214 0.33399,-0.445381 0.53964,-0.591963 0.12301,-0.08767 0.36088,-0.209461 0.49581,-0.253853 0.70088,-0.23059 1.46716,-0.02988 1.96539,0.51479 0.1736,0.189789 0.31834,0.431913 0.40064,0.670223 0.0412,0.119145 0.0865,0.33861 0.0975,0.471164 0.006,0.0771 0.0115,0.09486 0.0288,0.100376 0.0116,0.0037 0.0585,0.03126 0.10433,0.06128 0.2847,0.186701 0.46648,0.442996 0.54175,0.763813 0.0323,0.137936 0.0268,0.384025 -0.0121,0.531779 -0.11339,0.43113 -0.44755,0.765377 -0.87977,0.880017 -0.10861,0.0288 -0.13044,0.03048 -0.459,0.03524 l -0.34497,0.005 v 0.512059 0.51206 l 0.18531,-2.7e-5 0.18532,-2.7e-5 0.034,-0.06554 c 0.10498,-0.202704 0.33929,-0.311711 0.56704,-0.263807 0.20732,0.04361 0.35486,0.203007 0.38838,0.419596 0.0429,0.277393 -0.14497,0.536997 -0.42322,0.584712 -0.21097,0.03618 -0.43275,-0.07517 -0.5322,-0.267187 l -0.034,-0.06554 -0.35637,-2.7e-5 -0.35637,-2.8e-5 v -0.68426 -0.684233 h -0.34212 -0.34212 l 3e-5,0.356371 3e-5,0.356372 0.0656,0.03394 c 0.19147,0.09917 0.30335,0.321299 0.2674,0.530929 -0.0375,0.218446 -0.2049,0.386305 -0.42258,0.423634 -0.27292,0.0468 -0.53773,-0.14478 -0.58554,-0.423634 -0.036,-0.20963 0.0759,-0.431762 0.2674,-0.530929 l 0.0655,-0.03394 3e-5,-0.356372 3e-5,-0.356371 h -0.34207 -0.34211 v 0.684233 0.684232 l -0.35637,2.8e-5 -0.35637,2.7e-5 -0.034,0.06554 c -0.10614,0.204937 -0.34841,0.315537 -0.57047,0.260427 z m 2.05994,-2.349759 c 0.0388,-0.03265 0.096,-0.046 0.15208,-0.03547 0.0217,0.0041 0.0546,0.02005 0.0729,0.03547 0.0183,0.01544 0.037,0.02805 0.0415,0.02805 0.0148,0 0.27911,-0.165121 0.27921,-0.174398 2.2e-4,-0.01837 -0.10903,-0.124952 -0.15671,-0.152896 -0.16303,-0.09554 -0.39004,-0.09554 -0.55306,0 -0.0477,0.02796 -0.15694,0.13454 -0.15671,0.152896 1.3e-4,0.0097 0.26132,0.173413 0.27764,0.174028 0.005,2.03e-4 0.0248,-0.01226 0.0431,-0.02769 z m -0.56033,-0.397141 c 0.10599,-0.144742 0.2799,-0.258557 0.46763,-0.30603 0.0791,-0.02 0.11889,-0.02319 0.23845,-0.01908 0.12301,0.0042 0.15778,0.0099 0.24342,0.03989 0.055,0.01923 0.12861,0.05222 0.1637,0.07333 0.0843,0.05072 0.19629,0.153984 0.24476,0.225672 0.0215,0.03174 0.0447,0.05647 0.0516,0.05495 0.028,-0.0062 0.27755,-0.163298 0.27785,-0.174973 4.2e-4,-0.01887 -0.10739,-0.157468 -0.17349,-0.222873 -0.25072,-0.248102 -0.60102,-0.372705 -0.95432,-0.339462 -0.27514,0.02589 -0.53684,0.148344 -0.73015,0.341653 -0.0667,0.06671 -0.17181,0.202232 -0.17115,0.220682 4.2e-4,0.0129 0.25846,0.175795 0.27894,0.176132 0.006,1.03e-4 0.0345,-0.03135 0.0627,-0.0699 z m -0.57486,-0.375925 c 0.13775,-0.197407 0.37407,-0.393624 0.59949,-0.497768 0.20602,-0.09518 0.40713,-0.137999 0.6482,-0.137999 0.32803,0 0.60564,0.08459 0.87056,0.265249 0.12977,0.0885 0.2907,0.24666 0.37741,0.370918 l 0.0659,0.09448 0.0415,-0.02427 c 0.0228,-0.01335 0.0887,-0.05322 0.14645,-0.0886 l 0.10491,-0.06433 -0.0205,-0.03245 c -0.11779,-0.186043 -0.34809,-0.423821 -0.52522,-0.542273 -0.32721,-0.218824 -0.66909,-0.322852 -1.06104,-0.322852 -0.39132,0 -0.73064,0.103067 -1.06104,0.322286 -0.13699,0.09089 -0.39011,0.341648 -0.48169,0.477178 -0.0357,0.05286 -0.0637,0.09717 -0.0622,0.09845 0.005,0.0046 0.28715,0.176059 0.28936,0.176059 0.001,0 0.0318,-0.04234 0.0679,-0.09408 z"
       id="path42"
       inkscape:export-filename="Iot.svg"
       inkscape:export-xdpi="96"
       inkscape:export-ydpi="96" /></g></svg>
