<?xml version="1.0" encoding="UTF-8" standalone="no"?>
<!-- Created with Inkscape (http://www.inkscape.org/) -->

<svg
   width="24.048248"
   height="24.048239"
   viewBox="0 0 6.3627656 6.3627631"
   version="1.1"
   id="svg1"
   xml:space="preserve"
   inkscape:version="1.3.2 (091e20e, 2023-11-25, custom)"
   sodipodi:docname="Expertise ERP icon.svg"
   xmlns:inkscape="http://www.inkscape.org/namespaces/inkscape"
   xmlns:sodipodi="http://sodipodi.sourceforge.net/DTD/sodipodi-0.dtd"
   xmlns="http://www.w3.org/2000/svg"
   xmlns:svg="http://www.w3.org/2000/svg"><sodipodi:namedview
     id="namedview1"
     pagecolor="#ffffff"
     bordercolor="#eeeeee"
     borderopacity="1"
     inkscape:showpageshadow="0"
     inkscape:pageopacity="0"
     inkscape:pagecheckerboard="0"
     inkscape:deskcolor="#d1d1d1"
     inkscape:document-units="mm"
     inkscape:zoom="1.4164562"
     inkscape:cx="319.45922"
     inkscape:cy="438.06507"
     inkscape:window-width="1920"
     inkscape:window-height="991"
     inkscape:window-x="-9"
     inkscape:window-y="-9"
     inkscape:window-maximized="1"
     inkscape:current-layer="layer1" /><defs
     id="defs1" /><g
     inkscape:label="Layer 1"
     inkscape:groupmode="layer"
     id="layer1"
     transform="translate(-52.871953,-0.75910557)"><path
       style="fill:#1d8bf2;fill-opacity:1;stroke-width:0.564772"
       d="M 52.871955,5.6243824 V 4.1268959 h 3.181383 3.181381 v 1.4974865 1.4974864 h -3.181381 -3.181383 z m 2.249338,0.7518499 V 6.1898232 H 54.841678 54.562064 V 6.0037463 5.8176695 l 0.183303,-0.00344 0.183302,-0.00344 V 5.6243824 5.4379732 l -0.183302,-0.00344 -0.183303,-0.00344 V 5.2450183 5.0589415 h 0.279614 0.279615 V 4.8723829 4.6858242 l -0.469131,0.00325 -0.46913,0.00327 -0.0032,0.9351524 -0.0032,0.9351523 h 0.472307 0.472316 z m 0.745635,-0.1864091 v -0.372818 h 0.122435 c 0.106605,0 0.127895,0.00365 0.164661,0.028209 0.08052,0.053788 0.08568,0.078861 0.08569,0.4160657 l 2e-5,0.3013614 h 0.187274 0.187273 l -0.0039,-0.3510701 -0.0039,-0.3510705 -0.03467,-0.07404 c -0.01907,-0.040721 -0.04896,-0.092776 -0.06643,-0.1156785 l -0.03177,-0.041641 0.03165,-0.045877 c 0.01741,-0.025232 0.04725,-0.079429 0.06632,-0.1204395 0.03098,-0.066618 0.03468,-0.088472 0.03479,-0.20505 8.9e-5,-0.1068376 -0.0051,-0.1443556 -0.02895,-0.2070185 -0.0547,-0.1440902 -0.180836,-0.2681524 -0.334583,-0.3290728 -0.06676,-0.026454 -0.09299,-0.028561 -0.409965,-0.032949 l -0.338644,-0.00468 V 5.6233509 6.562648 h 0.186408 0.18641 z m 0,-0.9459181 V 5.0560505 l 0.123931,0.00497 c 0.09996,0.00401 0.13046,0.00985 0.157681,0.030174 0.116069,0.086659 0.118706,0.2367107 0.0055,0.3123476 -0.03677,0.024561 -0.05806,0.028208 -0.164662,0.028208 h -0.122444 z m 1.491273,0.9459181 v -0.372818 l 0.09631,-9.41e-5 c 0.215375,-2.098e-4 0.362509,-0.049972 0.482059,-0.1630365 0.08124,-0.076833 0.149379,-0.2049653 0.167685,-0.3153196 0.04805,-0.2896368 -0.152312,-0.5769546 -0.445309,-0.6385806 -0.03808,-0.00802 -0.193989,-0.013851 -0.369711,-0.013851 h -0.303856 v 0.938259 0.9382592 h 0.186409 0.186409 z m 0.0028,-0.941366 0.0034,-0.1833022 0.11806,5.006e-4 c 0.135725,5.759e-4 0.181295,0.017893 0.222491,0.08455 0.03377,0.054628 0.03495,0.1497656 0.0024,0.1990216 -0.04542,0.068886 -0.08173,0.082362 -0.222185,0.082451 l -0.127711,8.19e-5 z M 53.244772,3.401412 V 3.0487464 l 0.05282,-0.013666 c 0.02905,-0.0075 0.179552,-0.04526 0.334452,-0.083876 l 0.281634,-0.070211 0.02744,-0.076083 c 0.01509,-0.041847 0.04693,-0.1189882 0.07072,-0.1714286 l 0.04328,-0.095345 -0.176868,-0.2944886 -0.176868,-0.2944884 0.367369,-0.3673694 0.367369,-0.3673693 0.295085,0.1769475 0.295087,0.1769477 0.0941,-0.042704 c 0.05176,-0.023486 0.128514,-0.055122 0.170575,-0.070298 l 0.07647,-0.027594 0.08348,-0.3343074 0.08347,-0.33430733 h 0.51894 0.518939 l 0.08365,0.33499173 0.08365,0.3349917 0.06388,0.020718 c 0.03513,0.011395 0.111786,0.042736 0.170351,0.069645 l 0.106474,0.048928 0.295139,-0.1769793 0.29514,-0.1769793 0.367368,0.3673694 0.367369,0.3673693 -0.176868,0.2944883 -0.176868,0.2944886 0.04328,0.095346 c 0.0238,0.052441 0.05545,0.1290975 0.07034,0.1703496 l 0.02706,0.075004 0.294456,0.073031 c 0.161949,0.040166 0.312629,0.077979 0.334843,0.084028 l 0.04038,0.010998 v 0.353591 0.353593 H 57.919854 56.97781 l 0.0049,-0.1460204 c 0.0064,-0.1917565 -0.01522,-0.294495 -0.097,-0.4599684 -0.109563,-0.2216801 -0.3019,-0.3891016 -0.540342,-0.4703375 -0.140366,-0.047822 -0.366718,-0.05644 -0.512716,-0.019519 -0.26763,0.067678 -0.495723,0.2495779 -0.614711,0.4902186 -0.07754,0.156801 -0.09044,0.2171003 -0.09044,0.4223248 v 0.183302 h -0.941384 -0.941369 z m 2.262795,0.2899176 c -0.04019,-0.187391 0.0099,-0.3685726 0.139975,-0.5060827 0.109763,-0.1160611 0.249183,-0.1768057 0.405796,-0.1768057 0.156611,0 0.296029,0.060745 0.405795,0.1768057 0.130051,0.1375101 0.180162,0.3186917 0.139974,0.5060827 l -0.01345,0.062749 h -0.532318 -0.532313 z"
       id="path5" /></g></svg>
