<?xml version="1.0" encoding="UTF-8" standalone="no"?>
<!-- Created with Inkscape (http://www.inkscape.org/) -->

<svg
   width="5.983613mm"
   height="5.8877282mm"
   viewBox="0 0 5.983613 5.8877282"
   version="1.1"
   id="svg1"
   xml:space="preserve"
   inkscape:version="1.3.2 (091e20e, 2023-11-25, custom)"
   sodipodi:docname="telecom.svg"
   inkscape:export-filename="Education.svg"
   inkscape:export-xdpi="300"
   inkscape:export-ydpi="300"
   xmlns:inkscape="http://www.inkscape.org/namespaces/inkscape"
   xmlns:sodipodi="http://sodipodi.sourceforge.net/DTD/sodipodi-0.dtd"
   xmlns="http://www.w3.org/2000/svg"
   xmlns:svg="http://www.w3.org/2000/svg"><sodipodi:namedview
     id="namedview1"
     pagecolor="#505050"
     bordercolor="#eeeeee"
     borderopacity="1"
     inkscape:showpageshadow="0"
     inkscape:pageopacity="0"
     inkscape:pagecheckerboard="0"
     inkscape:deskcolor="#d1d1d1"
     inkscape:document-units="mm"
     inkscape:zoom="0.95077196"
     inkscape:cx="-2658.3662"
     inkscape:cy="-113.06602"
     inkscape:window-width="1920"
     inkscape:window-height="991"
     inkscape:window-x="-9"
     inkscape:window-y="-9"
     inkscape:window-maximized="1"
     inkscape:current-layer="layer1"
     showguides="true"
     showgrid="false"><sodipodi:guide
       position="-101.7517,471.48368"
       orientation="1,0"
       id="guide55"
       inkscape:locked="false" /><sodipodi:guide
       position="-95.838194,471.34454"
       orientation="1,0"
       id="guide56"
       inkscape:locked="false" /></sodipodi:namedview><defs
     id="defs1" /><g
     inkscape:label="Layer 1"
     inkscape:groupmode="layer"
     id="layer1"
     transform="translate(661.57757,-23.863192)"><g
       id="g1"
       transform="matrix(2.5325858,0,0,2.5325858,1014.9643,-68.895946)"><path
         id="path10"
         d="m -661.91426,37.344346 2.28873,-0.718089 -0.48118,2.288195 c 0,0 -0.0818,-0.399353 -0.38642,-0.796976 -0.26844,-0.35043 -0.71001,-0.699644 -1.42113,-0.77313"
         style="fill:#1d8bf2;fill-opacity:1;fill-rule:evenodd;stroke:none;stroke-width:0.135035" /><path
         id="path11"
         d="m -660.20123,36.80688 -0.2785,1.328272 c 0,0 -0.47759,-0.713485 -1.43453,-0.790806 z"
         style="fill:#1d8bf2;fill-opacity:1;fill-rule:evenodd;stroke:none;stroke-width:0.135035" /><path
         id="path12"
         d="m -661.72939,37.286349 c 0,0 1.09317,-0.248005 1.77018,0.926583 l -0.1475,0.70152 c 0,0 -0.26829,-1.369349 -1.80755,-1.570106 z"
         style="fill:#1d8bf2;fill-opacity:1;fill-rule:evenodd;stroke:none;stroke-width:0.135035" /><path
         id="path13"
         d="m -661.98818,37.404747 c 0,0 1.37402,0.355372 1.47809,1.501549 l 0.32101,0.04475 c 0,0 -0.36977,-1.427954 -1.7991,-1.546299"
         style="fill:#1d8bf2;fill-opacity:1;fill-rule:evenodd;stroke:none;stroke-width:0.135035" /><path
         id="path14"
         d="m -660.38489,37.682757 -0.0948,0.452395 c -0.003,0.01406 0.36138,0.569618 0.37302,0.7793 l 0.1475,-0.70152 c 0,0 -0.20569,-0.370401 -0.42568,-0.530175"
         style="fill:#1d8bf2;fill-opacity:1;fill-rule:evenodd;stroke:none;stroke-width:0.135035" /></g></g></svg>
