<?xml version="1.0" encoding="UTF-8" standalone="no"?>
<!-- Created with Inkscape (http://www.inkscape.org/) -->

<svg
   width="151.14116mm"
   height="88.403389mm"
   viewBox="0 0 151.14116 88.403389"
   version="1.1"
   id="svg1"
   xml:space="preserve"
   inkscape:version="1.3.2 (091e20e, 2023-11-25, custom)"
   sodipodi:docname="maiprosoft parntners.svg"
   xmlns:inkscape="http://www.inkscape.org/namespaces/inkscape"
   xmlns:sodipodi="http://sodipodi.sourceforge.net/DTD/sodipodi-0.dtd"
   xmlns="http://www.w3.org/2000/svg"
   xmlns:svg="http://www.w3.org/2000/svg"><sodipodi:namedview
     id="namedview1"
     pagecolor="#ffffff"
     bordercolor="#eeeeee"
     borderopacity="1"
     inkscape:showpageshadow="0"
     inkscape:pageopacity="0"
     inkscape:pagecheckerboard="0"
     inkscape:deskcolor="#d1d1d1"
     inkscape:document-units="mm"
     inkscape:zoom="0.70822812"
     inkscape:cx="6362.3568"
     inkscape:cy="-1695.0753"
     inkscape:window-width="1920"
     inkscape:window-height="991"
     inkscape:window-x="-9"
     inkscape:window-y="-9"
     inkscape:window-maximized="1"
     inkscape:current-layer="layer1"
     showguides="true"><sodipodi:guide
       position="-1525.5671,-354.05531"
       orientation="1,0"
       id="guide64"
       inkscape:locked="false" /><sodipodi:guide
       position="-1644.4605,-352.23409"
       orientation="1,0"
       id="guide71"
       inkscape:locked="false" /><sodipodi:guide
       position="-1639.3237,-352.63102"
       orientation="1,0"
       id="guide72"
       inkscape:locked="false" /><sodipodi:guide
       position="-1645.9782,-354.35885"
       orientation="0,-1"
       id="guide73"
       inkscape:locked="false" /><sodipodi:guide
       position="-537.48175,13.995884"
       orientation="0,-1"
       id="guide78"
       inkscape:locked="false" /><sodipodi:guide
       position="-459.77605,-54.743746"
       orientation="0,-1"
       id="guide79"
       inkscape:locked="false" /><sodipodi:guide
       position="-781.18005,-457.54964"
       orientation="0,-1"
       id="guide91"
       inkscape:locked="false" /></sodipodi:namedview><defs
     id="defs1" /><g
     inkscape:label="Layer 1"
     inkscape:groupmode="layer"
     id="layer1"
     transform="translate(-2107.2854,472.78526)"><rect
       style="fill:#ffffff;stroke-width:0.332999"
       id="rect68"
       width="151.14122"
       height="88.403366"
       x="2107.2856"
       y="-472.78525"
       rx="6.0599079"
       ry="6.0599079"
       inkscape:export-filename="..\Client Logos\KAEC\KAEC.png"
       inkscape:export-xdpi="300"
       inkscape:export-ydpi="300" /><g
       id="g72"
       transform="matrix(0.47996809,0,0,0.47996809,953.1106,-350.7365)"
       inkscape:export-filename="erp leDGER\ERP Ledger.svg"
       inkscape:export-xdpi="300"
       inkscape:export-ydpi="300"><path
         d="m 2540.8246,-131.25718 v -4.7193 h -9.6926 c -1.4422,0 -2.5096,-0.37897 -3.202,-1.13692 -0.6922,-0.75794 -1.0385,-1.92347 -1.0385,-3.49655 v 0 -20.6791 h -6.1011 v 20.6791 c 0,3.03177 0.8005,5.34852 2.4017,6.95022 1.6009,1.6017 4.2476,2.40255 7.9399,2.40255 v 0 z m 23.9287,0 v -4.7193 h -10.2118 c -1.5867,0 -2.762,-0.37897 -3.5266,-1.13692 -0.7643,-0.75794 -1.1465,-1.92347 -1.1465,-3.49655 v 0 -3.30352 h 12.8946 v -4.71928 h -12.8946 v -3.30352 c 0,-1.6017 0.3822,-2.77437 1.1465,-3.51801 0.7646,-0.74365 1.9399,-1.11548 3.5266,-1.11548 v 0 h 10.1254 v -4.71929 h -10.1254 c -3.8366,0 -6.5915,0.80086 -8.2646,2.40256 -1.6733,1.60171 -2.5098,3.91843 -2.5098,6.95022 v 0 11.32632 c 0,3.03177 0.8365,5.34852 2.5098,6.95022 1.6731,1.6017 4.428,2.40255 8.2646,2.40255 v 0 z m 16.4429,0 c 3.4039,0 6.0941,-0.48622 8.07,-1.45868 1.976,-0.97247 3.404,-2.53842 4.2838,-4.69785 0.8799,-2.15943 1.3197,-5.11257 1.3197,-8.85941 0,-3.74683 -0.4398,-6.69995 -1.3197,-8.85939 -0.8798,-2.15944 -2.3078,-3.72538 -4.2838,-4.69785 -1.9759,-0.97246 -4.6661,-1.45869 -8.07,-1.45869 v 0 h -11.2503 v 30.03187 z m 0,-4.7193 h -5.1492 v -20.59328 h 5.1492 c 1.904,0 3.4039,0.32893 4.5002,0.98676 1.0963,0.65785 1.8822,1.73041 2.3583,3.21771 0.4759,1.48728 0.714,3.51802 0.714,6.09217 0,2.57417 -0.2381,4.6049 -0.714,6.09219 -0.4761,1.4873 -1.262,2.55986 -2.3583,3.2177 -1.0963,0.65783 -2.5962,0.98675 -4.5002,0.98675 z m 30.9386,5.23413 c 3.7501,0 6.7214,-0.72934 8.9138,-2.18804 2.1924,-1.45869 3.2885,-3.4751 3.2885,-6.04926 v 0 -2.61707 c 0,-2.23095 -0.548,-3.87553 -1.6443,-4.93381 -1.0962,-1.05826 -2.7981,-1.5874 -5.1059,-1.5874 v 0 h -6.6638 v 4.71931 h 4.9329 c 1.6443,0 2.4665,0.88664 2.4665,2.65995 v 0 1.32999 c 0,1.28707 -0.5265,2.26669 -1.5794,2.93882 -1.053,0.67215 -2.5891,1.00822 -4.6083,1.00822 -2.3078,0 -3.9883,-0.52198 -5.041,-1.56594 -1.053,-1.04398 -1.5794,-2.5956 -1.5794,-4.65495 v 0 -9.18117 c 0,-2.05933 0.5264,-3.61098 1.5794,-4.65494 1.0527,-1.04396 2.7332,-1.56594 5.041,-1.56594 1.8462,0 3.2742,0.31461 4.2838,0.94386 1.0095,0.62923 1.9616,1.6589 2.8559,3.089 v 0 l 4.6299,-3.13191 c -1.0963,-1.85911 -2.5891,-3.2606 -4.4784,-4.20446 -1.8895,-0.94386 -4.32,-1.41578 -7.2912,-1.41578 -4.1252,0 -7.2768,0.92241 -9.4546,2.76722 -2.178,1.84481 -3.2669,4.56913 -3.2669,8.17295 v 0 9.18117 c 0,3.60383 1.0889,6.32815 3.2669,8.17297 2.1778,1.84482 5.3294,2.76721 9.4546,2.76721 z m 37.3427,-0.51483 v -4.7193 h -10.2121 c -1.5866,0 -2.762,-0.37897 -3.5265,-1.13692 -0.7646,-0.75794 -1.1467,-1.92347 -1.1467,-3.49655 v 0 -3.30352 h 12.8947 v -4.71928 h -12.8947 v -3.30352 c 0,-1.6017 0.3821,-2.77437 1.1467,-3.51801 0.7645,-0.74365 1.9399,-1.11548 3.5265,-1.11548 v 0 h 10.1253 v -4.71929 h -10.1253 c -3.8366,0 -6.5915,0.80086 -8.2646,2.40256 -1.6731,1.60171 -2.5097,3.91843 -2.5097,6.95022 v 0 11.32632 c 0,3.03177 0.8366,5.34852 2.5097,6.95022 1.6731,1.6017 4.428,2.40255 8.2646,2.40255 v 0 z m 11.2935,0 v -12.18436 h 4.3703 c 1.1538,0 2.077,0.20022 2.7694,0.60064 0.6923,0.40043 1.2404,0.97962 1.6443,1.73756 0.4038,0.75795 0.8076,1.82336 1.2115,3.19624 v 0 l 1.9905,6.64992 h 6.4473 l -1.9905,-6.60701 c -0.6345,-2.05933 -1.3271,-3.68963 -2.077,-4.89091 -0.7501,-1.20127 -1.8606,-2.04501 -3.3318,-2.53126 1.8462,-0.34322 3.2957,-1.11546 4.3488,-2.31674 1.0528,-1.20127 1.5792,-2.78866 1.5792,-4.76219 0,-3.06039 -0.8797,-5.31277 -2.6395,-6.75718 -1.7596,-1.44438 -4.4857,-2.16658 -8.1781,-2.16658 v 0 h -12.2456 v 30.03187 z m 6.3174,-16.90365 h -6.3174 v -8.40893 h 6.3174 c 1.3271,0 2.416,0.35039 3.2671,1.05112 0.8508,0.70075 1.2764,1.75187 1.2764,3.15335 0,1.40149 -0.4256,2.45261 -1.2764,3.15334 -0.8511,0.70075 -1.94,1.05112 -3.2671,1.05112 z"
         id="path69"
         fill="#343645"
         fill-rule="nonzero"
         style="stroke:none;stroke-width:1.55308" /><path
         d="m 2531.702,-174.22849 v -1.54421 h -6.4545 c -1.4111,0 -2.452,-0.32835 -3.1227,-0.9851 -0.6706,-0.65671 -1.006,-1.66844 -1.006,-3.03516 v 0 -2.98189 h 9.0937 v -1.54419 h -9.0937 v -2.98194 c 0,-1.36669 0.3354,-2.37839 1.006,-3.03513 0.6707,-0.65674 1.7116,-0.98511 3.1227,-0.98511 v 0 h 6.2978 v -1.54419 h -6.2978 c -2.0382,0 -3.5495,0.45706 -4.5338,1.37115 -0.9842,0.91409 -1.4764,2.31186 -1.4764,4.19328 v 0 7.50802 c 0,1.88146 0.4922,3.27923 1.4764,4.19332 0.9843,0.9141 2.4956,1.37115 4.5338,1.37115 v 0 z m 5.54,0 v -8.43986 h 4.2332 c 0.9407,0 1.6855,0.11985 2.2343,0.35943 0.5487,0.23961 0.9798,0.61679 1.2935,1.13151 0.3135,0.51474 0.5923,1.23359 0.8362,2.15658 v 0 l 1.2542,4.79234 h 2.0122 l -1.2805,-4.79234 c -0.331,-1.20698 -0.7098,-2.13882 -1.1367,-2.79555 -0.4267,-0.65674 -1.0235,-1.12709 -1.7901,-1.41108 1.1325,-0.19525 2.0079,-0.6878 2.6264,-1.47763 0.6183,-0.78986 0.9276,-1.85039 0.9276,-3.18161 0,-1.57969 -0.4486,-2.80441 -1.3457,-3.67413 -0.8973,-0.86972 -2.1995,-1.30458 -3.9067,-1.30458 v 0 h -7.8395 v 18.63692 z m 5.7488,-9.98406 h -5.7488 v -7.10867 h 5.7488 c 1.1324,0 2.0122,0.31063 2.6393,0.93187 0.6271,0.62123 0.9407,1.49982 0.9407,2.63578 0,1.1182 -0.3136,1.98793 -0.9407,2.60916 -0.6271,0.62123 -1.5069,0.93186 -2.6393,0.93186 z m 11.6023,9.98406 v -7.80088 h 5.8795 c 1.7422,0 3.0707,-0.46149 3.9852,-1.38446 0.9146,-0.92298 1.3719,-2.27193 1.3719,-4.04687 0,-1.75721 -0.4573,-3.09729 -1.3719,-4.02025 -0.9145,-0.92297 -2.243,-1.38446 -3.9852,-1.38446 v 0 h -7.761 v 18.63692 z m 5.7228,-9.34509 h -5.7228 v -7.74764 h 5.7228 c 1.1497,0 2.0425,0.34168 2.6786,1.02505 0.6359,0.68335 0.9537,1.6285 0.9537,2.83547 0,1.22472 -0.3178,2.17875 -0.9537,2.8621 -0.6361,0.68334 -1.5289,1.02502 -2.6786,1.02502 z"
         id="path70"
         fill="#05a6d1"
         fill-rule="nonzero"
         style="stroke:none;stroke-width:1.55308" /><g
         id="g71"
         transform="matrix(1.5530766,0,0,1.5530766,2461.7736,-191.31234)"
         stroke="#005472"
         stroke-linecap="round"
         stroke-width="3"
         style="fill:none;fill-rule:evenodd"><path
           d="M 8.5173361,22.496486 V 37 H 8.1 C 3.6264935,37 0,33.415044 0,28.992776 V 0.38129638 C 0,0.1707122 0.17269017,0 0.38571429,0 H 11.764286 C 20.178738,0 27,6.743132 27,15.061207 v 11.629539"
           id="path71"
           stroke-linejoin="round" /><line
           x1="13.5"
           y1="37.05545"
           x2="13.5"
           y2="17"
           id="line71" /><polyline
           id="polyline71"
           stroke-linejoin="round"
           points="27 37 18 37 18 10" /></g></g></g></svg>
