<?xml version="1.0" encoding="UTF-8" standalone="no"?>
<!-- Created with Inkscape (http://www.inkscape.org/) -->

<svg
   width="147.3047mm"
   height="20.755177mm"
   viewBox="0 0 147.30471 20.755177"
   version="1.1"
   id="svg1"
   inkscape:version="1.3.2 (091e20e, 2023-11-25, custom)"
   sodipodi:docname="new maiprosoft Logo black.svg"
   xml:space="preserve"
   xmlns:inkscape="http://www.inkscape.org/namespaces/inkscape"
   xmlns:sodipodi="http://sodipodi.sourceforge.net/DTD/sodipodi-0.dtd"
   xmlns="http://www.w3.org/2000/svg"
   xmlns:svg="http://www.w3.org/2000/svg"><sodipodi:namedview
     id="namedview1"
     pagecolor="#ffffff"
     bordercolor="#eeeeee"
     borderopacity="1"
     inkscape:showpageshadow="0"
     inkscape:pageopacity="0"
     inkscape:pagecheckerboard="0"
     inkscape:deskcolor="#d1d1d1"
     inkscape:document-units="mm"
     showguides="true"
     inkscape:zoom="1.0717733"
     inkscape:cx="1306.7129"
     inkscape:cy="-151.61789"
     inkscape:window-width="1920"
     inkscape:window-height="991"
     inkscape:window-x="-9"
     inkscape:window-y="-9"
     inkscape:window-maximized="1"
     inkscape:current-layer="layer1"
     showgrid="false"><sodipodi:guide
       position="-784.70694,5.4168798"
       orientation="0,-1"
       id="guide2"
       inkscape:locked="false" /></sodipodi:namedview><defs
     id="defs1" /><g
     inkscape:label="Layer 1"
     inkscape:groupmode="layer"
     id="layer1"
     transform="translate(-1007.421,203.47052)"><path
       id="path6"
       d="m 1024.8665,-194.73791 v 7.4048 h -7.4471 v -7.4048 h -7.5739 v -7.44701 h 7.5739 7.4471 z"
       style="fill:#000000;fill-opacity:1;fill-rule:evenodd;stroke:none;stroke-width:0.335438" /><path
       id="path7"
       d="m 1007.421,-192.05546 h 7.5739 v 7.4048 h -7.5739 z"
       style="fill:#000000;fill-opacity:1;fill-rule:evenodd;stroke:none;stroke-width:0.337317" /><path
       id="path8"
       d="m 1050.2079,-202.14579 v 14.98066 h -3.6833 v -9.82332 l -3.3569,7.14638 h -3.7265 l -3.4868,-7.16604 v 9.84298 h -3.6793 v -14.98066 h 4.7053 l 4.324,8.84059 4.2139,-8.84059 z m 13.8888,14.98066 h -3.467 v -1.8829 l -2.1423,1.8829 h -2.9522 c -0.4048,0 -0.7901,-0.0865 -1.1557,-0.25552 -0.3616,-0.14936 -0.6643,-0.36556 -0.9394,-0.64465 -0.2791,-0.25552 -0.4717,-0.55426 -0.6211,-0.91984 -0.1494,-0.36164 -0.2359,-0.72721 -0.2359,-1.11245 v -5.73518 c 0,-0.40488 0.086,-0.77045 0.2556,-1.1321 0.1493,-0.36558 0.3655,-0.66432 0.6407,-0.94342 0.2791,-0.27909 0.5778,-0.49136 0.9434,-0.64073 0.3616,-0.14939 0.7272,-0.2162 1.1124,-0.2162 h 8.5615 z m -4.3043,-2.90886 c 0.2359,0 0.4521,-0.0864 0.6015,-0.23586 0.1493,-0.14938 0.2358,-0.36557 0.2358,-0.60143 v -4.94114 h -3.7462 c -0.2358,0 -0.4481,0.0864 -0.5974,0.23586 -0.1534,0.14936 -0.2359,0.36162 -0.2359,0.59749 v 4.10779 c 0,0.23586 0.083,0.45205 0.2359,0.60143 0.1493,0.14938 0.3616,0.23586 0.5974,0.23586 z m 10.1889,-8.69123 v 11.60009 h -3.4474 v -11.60009 z m 0,-4.25717 v 2.9757 h -3.4474 v -2.9757 z m 2.4381,7.18962 c 0,-0.38522 0.087,-0.74686 0.2359,-1.11244 0.1494,-0.36164 0.3656,-0.66433 0.6447,-0.93948 0.2555,-0.27911 0.5542,-0.4953 0.9198,-0.64468 0.3616,-0.14937 0.7272,-0.23585 1.1321,-0.23585 h 5.8649 c 0.3852,0 0.7469,0.0668 1.1125,0.2162 0.3616,0.14937 0.6643,0.36164 0.9394,0.64073 0.2791,0.2791 0.4953,0.57784 0.6643,0.94342 0.1495,0.36165 0.2359,0.72722 0.2359,1.1321 v 5.73518 c 0,0.38524 -0.086,0.75081 -0.2359,1.11245 -0.1493,0.36558 -0.3616,0.66432 -0.621,0.91984 -0.2752,0.27909 -0.5779,0.49529 -0.9395,0.64465 -0.3656,0.16904 -0.7508,0.25552 -1.1557,0.25552 h -3.188 l -2.1423,-1.8829 v 6.33269 h -3.4671 z m 3.4671,4.92149 c 0,0.23586 0.086,0.42847 0.2359,0.57785 0.1493,0.17296 0.3655,0.25944 0.6014,0.25944 h 3.1447 c 0.2359,0 0.4285,-0.0864 0.5975,-0.23586 0.1494,-0.14938 0.2359,-0.36557 0.2359,-0.60143 v -4.10779 c 0,-0.23587 -0.086,-0.44813 -0.2359,-0.59749 -0.169,-0.14939 -0.3616,-0.23586 -0.5975,-0.23586 h -3.1447 c -0.2359,0 -0.4521,0.0864 -0.6014,0.23586 -0.1494,0.14936 -0.2359,0.36162 -0.2359,0.59749 z m 19.3666,-4.94114 h -4.5363 c -0.2358,0 -0.4285,0.0864 -0.5778,0.23586 -0.1691,0.14936 -0.2556,0.36162 -0.2556,0.59749 v 7.85394 h -3.4474 v -11.60009 h 3.4474 v 1.77677 l 2.0952,-1.77677 h 3.2745 z m 9.8665,-2.9128 c 0.3853,0 0.7508,0.0668 1.1125,0.2162 0.3655,0.14937 0.6643,0.36164 0.9434,0.64073 0.2751,0.2791 0.4913,0.57784 0.6407,0.94342 0.1494,0.36165 0.2359,0.72722 0.2359,1.1321 v 5.73518 c 0,0.38524 -0.063,0.75081 -0.2162,1.11245 -0.1494,0.36558 -0.3617,0.66432 -0.6172,0.94342 -0.2791,0.27909 -0.5778,0.49136 -0.9434,0.64073 -0.3655,0.14938 -0.7508,0.23586 -1.1557,0.23586 h -5.9474 c -0.3853,0 -0.7508,-0.0865 -1.1164,-0.23586 -0.3616,-0.14937 -0.6604,-0.34197 -0.9198,-0.62108 -0.2752,-0.2791 -0.4914,-0.57784 -0.6408,-0.93948 -0.169,-0.34199 -0.2555,-0.72721 -0.2555,-1.13604 v -5.73518 c 0,-0.38522 0.086,-0.74686 0.2359,-1.11244 0.1494,-0.36164 0.342,-0.66433 0.6211,-0.93948 0.2751,-0.25945 0.5778,-0.47171 0.9395,-0.64468 0.3419,-0.14937 0.7271,-0.23585 1.136,-0.23585 z m -0.5346,3.74615 c 0,-0.23587 -0.086,-0.44813 -0.2358,-0.59749 -0.173,-0.14939 -0.3656,-0.23586 -0.5975,-0.23586 h -3.2116 c -0.2358,0 -0.4284,0.0864 -0.5778,0.23586 -0.173,0.14936 -0.2555,0.36162 -0.2555,0.59749 v 4.10779 c 0,0.23586 0.082,0.45205 0.2555,0.60143 0.1494,0.14938 0.342,0.23586 0.5778,0.23586 h 3.2116 c 0.2319,0 0.4245,-0.0864 0.5975,-0.23586 0.1493,-0.14938 0.2358,-0.36557 0.2358,-0.60143 z m 9.6101,-1.02597 c -0.2162,0 -0.3852,0.0629 -0.5149,0.19262 -0.1298,0.12578 -0.1927,0.29874 -0.1927,0.51101 v 0.38523 c 0,0.2162 0.063,0.38523 0.1927,0.51495 0.1297,0.14937 0.2987,0.21226 0.5149,0.21226 h 4.5559 c 0.4088,0 0.7705,0.0864 1.1361,0.23586 0.3616,0.14938 0.6643,0.36558 0.9394,0.62109 0.2595,0.27909 0.4717,0.57784 0.6211,0.94342 0.1494,0.36163 0.2359,0.7272 0.2359,1.13209 v 1.19892 c 0,0.40883 -0.086,0.77047 -0.2359,1.13604 -0.1494,0.36164 -0.3616,0.66038 -0.6211,0.91983 -0.2751,0.27909 -0.5778,0.49136 -0.9394,0.64073 -0.3656,0.14938 -0.7273,0.23586 -1.1361,0.23586 h -5.5858 c -0.4049,0 -0.7704,-0.0865 -1.1321,-0.23586 -0.3656,-0.14937 -0.6643,-0.36164 -0.9434,-0.64073 -0.2752,-0.25945 -0.4914,-0.55819 -0.6408,-0.91983 -0.1493,-0.36557 -0.2358,-0.72721 -0.2358,-1.13604 v -0.68397 h 3.3373 v 0.19261 c 0,0.21227 0.067,0.38523 0.2162,0.51496 0.1258,0.12579 0.2988,0.19262 0.4914,0.19262 h 3.3806 c 0.1926,0 0.3655,-0.0668 0.5149,-0.19262 0.1258,-0.12973 0.1926,-0.30269 0.1926,-0.51496 v -0.38522 c 0,-0.21228 -0.067,-0.38523 -0.1926,-0.51495 -0.1494,-0.1258 -0.3223,-0.19262 -0.5149,-0.19262 h -4.5559 c -0.4088,0 -0.7941,-0.0825 -1.1361,-0.23585 -0.3616,-0.14938 -0.6643,-0.38523 -0.9395,-0.66039 -0.2791,-0.27911 -0.4717,-0.57785 -0.6211,-0.94341 -0.1493,-0.36166 -0.2358,-0.74688 -0.2358,-1.15569 v -1.15569 c 0,-0.40488 0.086,-0.77045 0.2358,-1.1321 0.1494,-0.36558 0.342,-0.66432 0.6211,-0.94342 0.2752,-0.25551 0.5779,-0.4717 0.9395,-0.62108 0.342,-0.14937 0.7273,-0.23585 1.1361,-0.23585 h 5.3696 c 0.4048,0 0.7704,0.0864 1.136,0.23585 0.3617,0.14938 0.6604,0.36557 0.9395,0.62108 0.2791,0.2791 0.4913,0.57784 0.6407,0.94342 0.1533,0.36165 0.2359,0.72722 0.2359,1.1321 v 0.68398 h -3.3374 v -0.19262 c 0,-0.21227 -0.063,-0.38523 -0.1926,-0.51101 -0.1297,-0.12972 -0.2987,-0.19262 -0.5149,-0.19262 z m 18.4664,-2.72018 c 0.3852,0 0.7508,0.0668 1.1124,0.2162 0.3656,0.14937 0.6644,0.36164 0.9435,0.64073 0.2751,0.2791 0.4913,0.57784 0.6407,0.94342 0.1494,0.36165 0.2358,0.72722 0.2358,1.1321 v 5.73518 c 0,0.38524 -0.063,0.75081 -0.2162,1.11245 -0.1493,0.36558 -0.3616,0.66432 -0.6171,0.94342 -0.2791,0.27909 -0.5778,0.49136 -0.9434,0.64073 -0.3656,0.14938 -0.7508,0.23586 -1.1557,0.23586 h -5.9475 c -0.3852,0 -0.7508,-0.0865 -1.1163,-0.23586 -0.3617,-0.14937 -0.6604,-0.34197 -0.9199,-0.62108 -0.2751,-0.2791 -0.4913,-0.57784 -0.6407,-0.93948 -0.169,-0.34199 -0.2555,-0.72721 -0.2555,-1.13604 v -5.73518 c 0,-0.38522 0.086,-0.74686 0.2359,-1.11244 0.1493,-0.36164 0.3419,-0.66433 0.6211,-0.93948 0.2751,-0.25945 0.5778,-0.47171 0.9394,-0.64468 0.342,-0.14937 0.7272,-0.23585 1.136,-0.23585 z m -0.5346,3.74615 c 0,-0.23587 -0.086,-0.44813 -0.2359,-0.59749 -0.1729,-0.14939 -0.3655,-0.23586 -0.5975,-0.23586 h -3.2115 c -0.2359,0 -0.4285,0.0864 -0.5779,0.23586 -0.1729,0.14936 -0.2555,0.36162 -0.2555,0.59749 v 4.10779 c 0,0.23586 0.083,0.45205 0.2555,0.60143 0.1494,0.14938 0.342,0.23586 0.5779,0.23586 h 3.2115 c 0.232,0 0.4246,-0.0864 0.5975,-0.23586 0.1494,-0.14938 0.2359,-0.36557 0.2359,-0.60143 z m 12.9238,-0.83335 h -2.6101 v 8.68729 h -3.4671 v -8.68729 h -1.9457 v -2.9128 h 1.9457 v -1.70995 c 0,-0.40881 0.086,-0.79404 0.2359,-1.15568 0.1494,-0.36557 0.3656,-0.66432 0.6447,-0.94342 0.2555,-0.27516 0.5778,-0.49136 0.9394,-0.66039 0.3656,-0.15331 0.7509,-0.23586 1.1793,-0.23586 h 3.2076 v 2.90888 h -1.9025 c -0.2359,0 -0.4521,0.0865 -0.6014,0.23585 -0.1494,0.14937 -0.2359,0.36164 -0.2359,0.5975 v 0.96307 h 2.6101 z m 6.2708,4.94114 c 0,0.23586 0.086,0.45205 0.2359,0.60143 0.1493,0.14938 0.3655,0.23586 0.6014,0.23586 h 2.4607 v 2.90886 h -3.8326 c -0.4049,0 -0.7705,-0.0865 -1.1321,-0.23586 -0.3656,-0.14937 -0.6643,-0.34197 -0.9199,-0.62108 -0.279,-0.2791 -0.4913,-0.57784 -0.6446,-0.93948 -0.1494,-0.34199 -0.2319,-0.72721 -0.2319,-1.13604 v -5.75483 h -1.9262 v -2.9128 h 1.9262 v -2.71626 h 3.4631 v 2.71626 h 3.4042 v 2.9128 h -3.4042 z m 0,0"
       style="fill:#000000;fill-opacity:1;fill-rule:nonzero;stroke:none;stroke-width:0.335438"
       aria-label="Maiprosoft" /></g></svg>
