<?xml version="1.0" encoding="UTF-8" standalone="no"?>
<!-- Created with Inkscape (http://www.inkscape.org/) -->

<svg
   width="574.80804mm"
   height="80.990242mm"
   viewBox="0 0 574.80807 80.990244"
   version="1.1"
   id="svg1"
   inkscape:version="1.3.2 (091e20e, 2023-11-25, custom)"
   sodipodi:docname="new maiprosoft logo white.svg"
   xml:space="preserve"
   xmlns:inkscape="http://www.inkscape.org/namespaces/inkscape"
   xmlns:sodipodi="http://sodipodi.sourceforge.net/DTD/sodipodi-0.dtd"
   xmlns="http://www.w3.org/2000/svg"
   xmlns:svg="http://www.w3.org/2000/svg"><sodipodi:namedview
     id="namedview1"
     pagecolor="#ffffff"
     bordercolor="#eeeeee"
     borderopacity="1"
     inkscape:showpageshadow="0"
     inkscape:pageopacity="0"
     inkscape:pagecheckerboard="0"
     inkscape:deskcolor="#d1d1d1"
     inkscape:document-units="mm"
     showguides="true"
     inkscape:zoom="1.0717733"
     inkscape:cx="1306.7129"
     inkscape:cy="-151.61789"
     inkscape:window-width="1920"
     inkscape:window-height="991"
     inkscape:window-x="-9"
     inkscape:window-y="-9"
     inkscape:window-maximized="1"
     inkscape:current-layer="layer1"
     showgrid="false"><sodipodi:guide
       position="-570.95528,-81.973339"
       orientation="0,-1"
       id="guide2"
       inkscape:locked="false" /></sodipodi:namedview><defs
     id="defs1" /><g
     inkscape:label="Layer 1"
     inkscape:groupmode="layer"
     id="layer1"
     transform="translate(-793.66935,290.86074)"><path
       id="path2"
       d="m 861.74466,-256.78461 v 28.89479 h -29.05985 v -28.89479 h -29.55465 v -29.0595 h 29.55465 29.05985 z"
       style="fill:#ffffff;fill-opacity:1;fill-rule:evenodd;stroke:none;stroke-width:1.30894"
       inkscape:export-filename="Maiprosoft white Logo 2.svg"
       inkscape:export-xdpi="96"
       inkscape:export-ydpi="96" /><path
       id="path3"
       d="m 793.66935,-246.31723 h 29.55464 v 28.89479 h -29.55464 z"
       style="fill:#ffffff;fill-opacity:1;fill-rule:evenodd;stroke:none;stroke-width:1.31627" /><path
       id="path5"
       d="m 960.63111,-285.69142 v 58.45709 h -14.37286 v -38.33227 l -13.0992,27.88639 h -14.54143 l -13.60609,-27.96311 v 38.40899 h -14.35725 v -58.45709 h 18.36088 l 16.87298,34.49749 16.44335,-34.49749 z m 54.19649,58.45709 h -13.5289 v -7.3474 l -8.35957,7.3474 h -11.51999 c -1.5796,0 -3.0831,-0.33754 -4.50973,-0.99709 -1.41103,-0.58282 -2.59222,-1.42647 -3.6657,-2.51553 -1.0891,-0.99708 -1.84066,-2.16282 -2.42364,-3.58937 -0.58299,-1.41118 -0.92052,-2.8377 -0.92052,-4.34097 v -22.37965 c 0,-1.57991 0.33558,-3.00643 0.99739,-4.41765 0.5826,-1.42655 1.42624,-2.59229 2.50012,-3.68138 1.0891,-1.08906 2.25468,-1.91737 3.68131,-2.50024 1.41102,-0.58294 2.83766,-0.84365 4.34077,-0.84365 h 33.40846 z m -16.79614,-11.35087 c 0.92052,0 1.76417,-0.33715 2.34714,-0.92037 0.5826,-0.5829 0.9201,-1.42651 0.9201,-2.34688 v -19.28117 h -14.61826 c -0.92013,0 -1.74856,0.33715 -2.33116,0.92037 -0.59859,0.58283 -0.92052,1.4111 -0.92052,2.33151 v 16.02929 c 0,0.92037 0.32388,1.76398 0.92052,2.34688 0.5826,0.58291 1.41103,0.92037 2.33116,0.92037 z m 39.75884,-33.91466 v 45.26553 h -13.4524 v -45.26553 z m 0,-16.6122 v 11.61169 h -13.4524 v -11.61169 z m 9.5139,28.05512 c 0,-1.50319 0.3395,-2.91437 0.9205,-4.34093 0.583,-1.41118 1.4266,-2.59233 2.5157,-3.66601 0.997,-1.08914 2.1626,-1.93275 3.5892,-2.51565 1.4111,-0.58287 2.8377,-0.92033 4.4177,-0.92033 h 22.8858 c 1.5031,0 2.9145,0.26067 4.3412,0.84365 1.411,0.58287 2.5922,1.41118 3.6657,2.50024 1.0891,1.08909 1.9327,2.25483 2.5922,3.68138 0.5834,1.41122 0.9205,2.83774 0.9205,4.41765 v 22.37965 c 0,1.50327 -0.3356,2.92979 -0.9205,4.34097 -0.5826,1.42655 -1.411,2.59229 -2.4233,3.58937 -1.0738,1.08906 -2.255,1.93271 -3.666,2.51553 -1.4267,0.65963 -2.9298,0.99709 -4.5098,0.99709 h -12.4401 l -8.3596,-7.3474 v 24.71123 h -13.5292 z m 13.5292,19.20449 c 0,0.92037 0.3356,1.67196 0.9205,2.25487 0.5826,0.67492 1.4262,1.01238 2.3468,1.01238 h 12.2711 c 0.9205,0 1.6721,-0.33715 2.3316,-0.92037 0.583,-0.5829 0.9205,-1.42651 0.9205,-2.34688 v -16.02929 c 0,-0.92041 -0.3356,-1.74868 -0.9205,-2.33151 -0.6595,-0.58295 -1.4111,-0.92037 -2.3316,-0.92037 h -12.2711 c -0.9206,0 -1.7642,0.33715 -2.3468,0.92037 -0.583,0.58283 -0.9205,1.4111 -0.9205,2.33151 z m 75.5717,-19.28117 h -17.7014 c -0.9201,0 -1.672,0.33715 -2.2546,0.92037 -0.6599,0.58283 -0.9974,1.4111 -0.9974,2.33151 v 30.64741 h -13.4524 v -45.26553 h 13.4524 v 6.93326 l 8.1758,-6.93326 h 12.7776 z m 38.5008,-11.36624 c 1.5035,0 2.9298,0.26067 4.3412,0.84365 1.4262,0.58287 2.5922,1.41118 3.6813,2.50024 1.0735,1.08909 1.9171,2.25483 2.5001,3.68138 0.583,1.41122 0.9205,2.83774 0.9205,4.41765 v 22.37965 c 0,1.50327 -0.2458,2.92979 -0.8436,4.34097 -0.583,1.42655 -1.4114,2.59229 -2.4084,3.68138 -1.0891,1.08906 -2.2547,1.91737 -3.6814,2.50024 -1.4262,0.58291 -2.9297,0.92037 -4.5097,0.92037 h -23.2078 c -1.5035,0 -2.9297,-0.33754 -4.3563,-0.92037 -1.4111,-0.58287 -2.577,-1.33442 -3.5893,-2.42356 -1.0738,-1.0891 -1.9175,-2.25483 -2.5005,-3.66601 -0.6594,-1.3345 -0.997,-2.8377 -0.997,-4.43302 v -22.37965 c 0,-1.50319 0.3356,-2.91437 0.9206,-4.34093 0.5829,-1.41118 1.3345,-2.59233 2.4236,-3.66601 1.0735,-1.01242 2.2547,-1.84069 3.6661,-2.51565 1.3341,-0.58287 2.8372,-0.92033 4.4328,-0.92033 z m -2.0861,14.61812 c 0,-0.92041 -0.3356,-1.74868 -0.9201,-2.33151 -0.6751,-0.58295 -1.4267,-0.92037 -2.3316,-0.92037 h -12.5322 c -0.9201,0 -1.6717,0.33715 -2.2547,0.92037 -0.675,0.58283 -0.997,1.4111 -0.997,2.33151 v 16.02929 c 0,0.92037 0.32,1.76398 0.997,2.34688 0.583,0.58291 1.3346,0.92037 2.2547,0.92037 h 12.5322 c 0.9049,0 1.6565,-0.33715 2.3316,-0.92037 0.5826,-0.5829 0.9201,-1.42651 0.9201,-2.34688 z m 37.5003,-4.00351 c -0.8437,0 -1.5032,0.24544 -2.0093,0.75163 -0.5065,0.49082 -0.7519,1.16574 -0.7519,1.99405 v 1.50323 c 0,0.84365 0.2458,1.50324 0.7519,2.00943 0.5061,0.58286 1.1656,0.82827 2.0093,0.82827 h 17.7779 c 1.5952,0 3.0066,0.33715 4.4332,0.92037 1.411,0.5829 2.5922,1.42655 3.6657,2.4236 1.0126,1.08905 1.8407,2.25483 2.4236,3.68138 0.583,1.41114 0.9206,2.83766 0.9206,4.41761 v 4.67839 c 0,1.59532 -0.3356,3.0065 -0.9206,4.43302 -0.5829,1.41118 -1.411,2.57691 -2.4236,3.58933 -1.0735,1.08906 -2.2547,1.91737 -3.6657,2.50024 -1.4266,0.58291 -2.838,0.92037 -4.4332,0.92037 h -21.7968 c -1.58,0 -3.0062,-0.33754 -4.4176,-0.92037 -1.4267,-0.58287 -2.5922,-1.41118 -3.6813,-2.50024 -1.0739,-1.01242 -1.9176,-2.17815 -2.5006,-3.58933 -0.5825,-1.42652 -0.9201,-2.8377 -0.9201,-4.43302 v -2.66897 h 13.0227 v 0.7516 c 0,0.82831 0.2615,1.50323 0.8437,2.00946 0.4909,0.49085 1.1659,0.75164 1.9175,0.75164 h 13.1917 c 0.7515,0 1.4262,-0.26067 2.0092,-0.75164 0.4909,-0.50623 0.7516,-1.18115 0.7516,-2.00946 v -1.5032 c 0,-0.82835 -0.2615,-1.50323 -0.7516,-2.00942 -0.583,-0.49089 -1.2577,-0.75163 -2.0092,-0.75163 h -17.7779 c -1.5952,0 -3.0987,-0.32193 -4.4333,-0.92033 -1.411,-0.58291 -2.5922,-1.50323 -3.6661,-2.57696 -1.0891,-1.08913 -1.8406,-2.25486 -2.4236,-3.68134 -0.5826,-1.41126 -0.9201,-2.91445 -0.9201,-4.5097 v -4.5097 c 0,-1.57991 0.3356,-3.00643 0.9201,-4.41765 0.583,-1.42655 1.3345,-2.59229 2.4236,-3.68138 1.0739,-0.99705 2.2551,-1.84066 3.6661,-2.42356 1.3346,-0.58287 2.8381,-0.92033 4.4333,-0.92033 h 20.9531 c 1.5796,0 3.0062,0.33715 4.4328,0.92033 1.4115,0.5829 2.577,1.42651 3.6661,2.42356 1.0891,1.08909 1.9172,2.25483 2.5001,3.68138 0.5983,1.41122 0.9206,2.83774 0.9206,4.41765 v 2.66901 h -13.0231 v -0.75164 c 0,-0.82831 -0.2459,-1.50323 -0.7516,-1.99405 -0.5061,-0.50619 -1.1656,-0.75163 -2.0092,-0.75163 z m 72.059,-10.61461 c 1.5031,0 2.9297,0.26067 4.3408,0.84365 1.4266,0.58287 2.5926,1.41118 3.6817,2.50024 1.0734,1.08909 1.9171,2.25483 2.5001,3.68138 0.583,1.41122 0.9201,2.83774 0.9201,4.41765 v 22.37965 c 0,1.50327 -0.2458,2.92979 -0.8436,4.34097 -0.5826,1.42655 -1.4111,2.59229 -2.4081,3.68138 -1.0891,1.08906 -2.2546,1.91737 -3.6813,2.50024 -1.4266,0.58291 -2.9297,0.92037 -4.5097,0.92037 h -23.2082 c -1.5031,0 -2.9297,-0.33754 -4.356,-0.92037 -1.4114,-0.58287 -2.577,-1.33442 -3.5896,-2.42356 -1.0735,-1.0891 -1.9171,-2.25483 -2.5001,-3.66601 -0.6595,-1.3345 -0.997,-2.8377 -0.997,-4.43302 v -22.37965 c 0,-1.50319 0.3356,-2.91437 0.9205,-4.34093 0.5826,-1.41118 1.3342,-2.59233 2.4237,-3.66601 1.0735,-1.01242 2.2546,-1.84069 3.6657,-2.51565 1.3345,-0.58287 2.8376,-0.92033 4.4328,-0.92033 z m -2.0861,14.61812 c 0,-0.92041 -0.3356,-1.74868 -0.9205,-2.33151 -0.6747,-0.58295 -1.4263,-0.92037 -2.3316,-0.92037 h -12.5318 c -0.9205,0 -1.6721,0.33715 -2.2551,0.92037 -0.6746,0.58283 -0.997,1.4111 -0.997,2.33151 v 16.02929 c 0,0.92037 0.3239,1.76398 0.997,2.34688 0.583,0.58291 1.3346,0.92037 2.2551,0.92037 h 12.5318 c 0.9053,0 1.6569,-0.33715 2.3316,-0.92037 0.583,-0.5829 0.9205,-1.42651 0.9205,-2.34688 z m 50.4309,-3.25188 h -10.1851 v 33.89929 h -13.5292 v -33.89929 h -7.5925 v -11.36624 h 7.5925 v -6.67251 c 0,-1.59525 0.3356,-3.09848 0.9205,-4.50966 0.583,-1.42652 1.4266,-2.59229 2.5157,-3.68139 0.997,-1.07372 2.2547,-1.91737 3.6657,-2.57695 1.4267,-0.59825 2.9302,-0.92037 4.6019,-0.92037 h 12.5166 v 11.35094 h -7.4239 c -0.9205,0 -1.7642,0.33754 -2.3468,0.92033 -0.583,0.58287 -0.9205,1.41118 -0.9205,2.33155 v 3.75806 h 10.1851 z m 24.4697,19.28117 c 0,0.92037 0.3356,1.76398 0.9205,2.34688 0.5826,0.58291 1.4262,0.92037 2.3468,0.92037 h 9.602 v 11.35087 h -14.9554 c -1.58,0 -3.0066,-0.33754 -4.4177,-0.92037 -1.4266,-0.58287 -2.5922,-1.33442 -3.5896,-2.42356 -1.0887,-1.0891 -1.9171,-2.25483 -2.5153,-3.66601 -0.583,-1.3345 -0.9049,-2.8377 -0.9049,-4.43302 v -22.45633 h -7.5164 v -11.36624 h 7.5164 v -10.59931 h 13.5136 v 10.59931 h 13.2838 v 11.36624 h -13.2838 z m 0,0"
       style="fill:#ffffff;fill-opacity:1;fill-rule:nonzero;stroke:none;stroke-width:1.30894"
       aria-label="Maiprosoft" /></g></svg>
