<?xml version="1.0" encoding="UTF-8" standalone="no"?>
<!-- Created with Inkscape (http://www.inkscape.org/) -->

<svg
   width="90.988892mm"
   height="13.25557mm"
   viewBox="0 0 90.988893 13.255571"
   version="1.1"
   id="svg1"
   inkscape:version="1.3.2 (091e20e, 2023-11-25, custom)"
   sodipodi:docname="new maiprosoft Logo.svg"
   xml:space="preserve"
   xmlns:inkscape="http://www.inkscape.org/namespaces/inkscape"
   xmlns:sodipodi="http://sodipodi.sourceforge.net/DTD/sodipodi-0.dtd"
   xmlns="http://www.w3.org/2000/svg"
   xmlns:svg="http://www.w3.org/2000/svg"><sodipodi:namedview
     id="namedview1"
     pagecolor="#ffffff"
     bordercolor="#eeeeee"
     borderopacity="1"
     inkscape:showpageshadow="0"
     inkscape:pageopacity="0"
     inkscape:pagecheckerboard="0"
     inkscape:deskcolor="#d1d1d1"
     inkscape:document-units="mm"
     showguides="true"
     inkscape:zoom="0.28596275"
     inkscape:cx="-3477.7257"
     inkscape:cy="788.56426"
     inkscape:window-width="1920"
     inkscape:window-height="991"
     inkscape:window-x="-9"
     inkscape:window-y="-9"
     inkscape:window-maximized="1"
     inkscape:current-layer="layer1"
     showgrid="false"><sodipodi:guide
       position="739.85203,294.29168"
       orientation="0,-1"
       id="guide2"
       inkscape:locked="false" /></sodipodi:namedview><defs
     id="defs1" /><g
     inkscape:label="Layer 1"
     inkscape:groupmode="layer"
     id="layer1"
     transform="translate(517.13794,-85.404274)"><g
       id="g88"
       transform="translate(-132.47387,-71.485387)"><path
         id="path86"
         d="m -359.75764,157.86012 v 9.47168 h -2.3288 v -6.2109 l -2.12244,4.51838 h -2.35612 l -2.20457,-4.53081 v 6.22333 h -2.32627 v -9.47168 h 2.97497 l 2.7339,5.58956 2.66428,-5.58956 z m 8.78134,9.47168 h -2.19204 v -1.19048 l -1.3545,1.19048 h -1.86656 c -0.25593,0 -0.49954,-0.0547 -0.7307,-0.16155 -0.22862,-0.0944 -0.42001,-0.23113 -0.59394,-0.40759 -0.17647,-0.16155 -0.29824,-0.35044 -0.3927,-0.58158 -0.0945,-0.22865 -0.14915,-0.45978 -0.14915,-0.70336 v -3.62613 c 0,-0.25599 0.0544,-0.48712 0.1616,-0.71578 0.0944,-0.23114 0.2311,-0.42002 0.40509,-0.59649 0.17647,-0.17645 0.36532,-0.31066 0.59648,-0.4051 0.22862,-0.0944 0.45978,-0.1367 0.70332,-0.1367 h 5.4131 z m -2.72143,-1.83916 c 0.14915,0 0.28584,-0.0546 0.3803,-0.14912 0.0944,-0.0944 0.14909,-0.23114 0.14909,-0.38026 v -3.12409 h -2.36858 c -0.14909,0 -0.28331,0.0546 -0.37771,0.14913 -0.097,0.0944 -0.14915,0.22863 -0.14915,0.37777 v 2.59719 c 0,0.14912 0.0525,0.28581 0.14915,0.38026 0.0944,0.0945 0.22862,0.14912 0.37771,0.14912 z m 6.44204,-5.49512 v 7.33428 h -2.17966 v -7.33428 z m 0,-2.69164 v 1.88142 h -2.17966 v -1.88142 z m 1.54151,4.54571 c 0,-0.24355 0.055,-0.47221 0.14915,-0.70335 0.0945,-0.22865 0.23116,-0.42003 0.40762,-0.59399 0.16154,-0.17647 0.3504,-0.31316 0.58155,-0.40761 0.22863,-0.0944 0.45978,-0.14912 0.71579,-0.14912 h 3.70814 c 0.24355,0 0.47224,0.0422 0.70339,0.1367 0.22863,0.0944 0.42001,0.22865 0.59395,0.4051 0.17646,0.17647 0.31316,0.36535 0.42001,0.59649 0.0945,0.22866 0.14915,0.45979 0.14915,0.71578 v 3.62613 c 0,0.24358 -0.0544,0.47471 -0.14915,0.70336 -0.0944,0.23114 -0.22863,0.42003 -0.39264,0.58158 -0.17399,0.17646 -0.36538,0.31315 -0.594,0.40759 -0.23116,0.10687 -0.47471,0.16155 -0.73071,0.16155 h -2.01565 l -1.35449,-1.19048 v 4.00391 h -2.19211 z m 2.19211,3.11167 c 0,0.14912 0.0544,0.2709 0.14915,0.36535 0.0944,0.10936 0.23109,0.16403 0.38024,0.16403 h 1.98827 c 0.14915,0 0.27093,-0.0546 0.37778,-0.14912 0.0945,-0.0944 0.14915,-0.23114 0.14915,-0.38026 v -2.59719 c 0,-0.14914 -0.0544,-0.28334 -0.14915,-0.37777 -0.10685,-0.0945 -0.22863,-0.14913 -0.37778,-0.14913 h -1.98827 c -0.14915,0 -0.28584,0.0546 -0.38024,0.14913 -0.0945,0.0944 -0.14915,0.22863 -0.14915,0.37777 z m 12.24474,-3.12409 h -2.86812 c -0.14909,0 -0.27093,0.0546 -0.36532,0.14913 -0.10692,0.0944 -0.16161,0.22863 -0.16161,0.37777 v 4.96573 h -2.17965 v -7.33428 h 2.17965 v 1.12338 l 1.32471,-1.12338 h 2.07034 z m 6.2382,-1.84165 c 0.24361,0 0.4747,0.0422 0.70339,0.1367 0.23109,0.0944 0.42001,0.22865 0.59648,0.4051 0.17393,0.17647 0.31063,0.36535 0.40509,0.59649 0.0945,0.22866 0.14915,0.45979 0.14915,0.71578 v 3.62613 c 0,0.24358 -0.0398,0.47471 -0.1367,0.70336 -0.0945,0.23114 -0.22869,0.42003 -0.39023,0.59649 -0.17646,0.17646 -0.36532,0.31067 -0.59647,0.40511 -0.23109,0.0944 -0.4747,0.14912 -0.73071,0.14912 h -3.7603 c -0.24361,0 -0.47471,-0.0547 -0.70586,-0.14912 -0.22863,-0.0944 -0.41755,-0.21622 -0.58155,-0.39269 -0.174,-0.17646 -0.3107,-0.36534 -0.40516,-0.59399 -0.10685,-0.21623 -0.16154,-0.45979 -0.16154,-0.71828 v -3.62613 c 0,-0.24355 0.0544,-0.47221 0.14915,-0.70335 0.0945,-0.22865 0.21623,-0.42003 0.3927,-0.59399 0.17393,-0.16404 0.36532,-0.29825 0.59401,-0.40761 0.21617,-0.0944 0.45971,-0.14912 0.71825,-0.14912 z m -0.338,2.36855 c 0,-0.14914 -0.0544,-0.28334 -0.14909,-0.37777 -0.10938,-0.0945 -0.23116,-0.14913 -0.37778,-0.14913 h -2.03057 c -0.14908,0 -0.27086,0.0546 -0.36532,0.14913 -0.10938,0.0944 -0.16154,0.22863 -0.16154,0.37777 v 2.59719 c 0,0.14912 0.0519,0.28581 0.16154,0.38026 0.0945,0.0945 0.21624,0.14912 0.36532,0.14912 h 2.03057 c 0.14662,0 0.2684,-0.0546 0.37778,-0.14912 0.0944,-0.0944 0.14909,-0.23114 0.14909,-0.38026 z m 6.07608,-0.64869 c -0.13669,0 -0.24354,0.0398 -0.32555,0.12179 -0.0821,0.0795 -0.12183,0.18888 -0.12183,0.32309 v 0.24357 c 0,0.13669 0.0398,0.24356 0.12183,0.32558 0.082,0.0944 0.18886,0.1342 0.32555,0.1342 h 2.88052 c 0.25847,0 0.48716,0.0546 0.71831,0.14913 0.22863,0.0944 0.42001,0.23114 0.59395,0.39269 0.16407,0.17646 0.29824,0.36535 0.3927,0.59649 0.0945,0.22864 0.14915,0.45978 0.14915,0.71577 v 0.75803 c 0,0.25849 -0.0544,0.48714 -0.14915,0.71828 -0.0945,0.22865 -0.22863,0.41753 -0.3927,0.58157 -0.17394,0.17646 -0.36532,0.31067 -0.59395,0.40511 -0.23115,0.0944 -0.45984,0.14912 -0.71831,0.14912 h -3.53168 c -0.256,0 -0.48709,-0.0547 -0.71578,-0.14912 -0.23116,-0.0944 -0.42001,-0.22865 -0.59648,-0.40511 -0.174,-0.16404 -0.31069,-0.35292 -0.40515,-0.58157 -0.0944,-0.23114 -0.14909,-0.45979 -0.14909,-0.71828 v -0.43244 h 2.11005 v 0.12178 c 0,0.13421 0.0424,0.24356 0.13669,0.32558 0.0795,0.0795 0.18892,0.12179 0.31069,0.12179 h 2.13742 c 0.12178,0 0.2311,-0.0422 0.32556,-0.12179 0.0795,-0.082 0.12177,-0.19137 0.12177,-0.32558 v -0.24356 c 0,-0.13422 -0.0424,-0.24357 -0.12177,-0.32559 -0.0945,-0.0795 -0.20378,-0.12178 -0.32556,-0.12178 h -2.88051 c -0.25847,0 -0.50208,-0.0522 -0.71831,-0.14912 -0.22863,-0.0944 -0.42001,-0.24357 -0.59401,-0.41754 -0.17647,-0.17647 -0.29824,-0.36535 -0.3927,-0.59648 -0.0944,-0.22866 -0.14909,-0.47222 -0.14909,-0.7307 v -0.7307 c 0,-0.25599 0.0544,-0.48712 0.14909,-0.71578 0.0945,-0.23114 0.21623,-0.42002 0.3927,-0.59649 0.174,-0.16154 0.36538,-0.29823 0.59401,-0.39268 0.21623,-0.0944 0.45984,-0.14912 0.71831,-0.14912 h 3.39499 c 0.25593,0 0.48709,0.0546 0.71824,0.14912 0.22869,0.0944 0.41755,0.23114 0.59401,0.39268 0.17647,0.17647 0.31063,0.36535 0.40509,0.59649 0.0969,0.22866 0.14915,0.45979 0.14915,0.71578 v 0.43246 h -2.1101 v -0.12179 c 0,-0.13421 -0.0398,-0.24356 -0.12178,-0.32309 -0.082,-0.082 -0.18885,-0.12179 -0.32555,-0.12179 z m 11.67558,-1.71986 c 0.24355,0 0.47471,0.0422 0.70333,0.1367 0.23116,0.0944 0.42007,0.22865 0.59654,0.4051 0.17393,0.17647 0.31063,0.36535 0.40509,0.59649 0.0945,0.22866 0.14909,0.45979 0.14909,0.71578 v 3.62613 c 0,0.24358 -0.0398,0.47471 -0.1367,0.70336 -0.0944,0.23114 -0.22862,0.42003 -0.39017,0.59649 -0.17646,0.17646 -0.36532,0.31067 -0.59647,0.40511 -0.23116,0.0944 -0.4747,0.14912 -0.73071,0.14912 h -3.76037 c -0.24354,0 -0.4747,-0.0547 -0.70579,-0.14912 -0.22869,-0.0944 -0.41754,-0.21622 -0.58162,-0.39269 -0.17393,-0.17646 -0.31063,-0.36534 -0.40509,-0.59399 -0.10685,-0.21623 -0.16154,-0.45979 -0.16154,-0.71828 v -3.62613 c 0,-0.24355 0.0544,-0.47221 0.14915,-0.70335 0.0944,-0.22865 0.21617,-0.42003 0.3927,-0.59399 0.17393,-0.16404 0.36532,-0.29825 0.59395,-0.40761 0.21623,-0.0944 0.45978,-0.14912 0.71824,-0.14912 z m -0.338,2.36855 c 0,-0.14914 -0.0544,-0.28334 -0.14915,-0.37777 -0.10932,-0.0945 -0.23109,-0.14913 -0.37778,-0.14913 h -2.0305 c -0.14915,0 -0.27093,0.0546 -0.36539,0.14913 -0.10932,0.0944 -0.16154,0.22863 -0.16154,0.37777 v 2.59719 c 0,0.14912 0.0525,0.28581 0.16154,0.38026 0.0945,0.0945 0.21624,0.14912 0.36539,0.14912 h 2.0305 c 0.14669,0 0.26846,-0.0546 0.37778,-0.14912 0.0945,-0.0944 0.14915,-0.23114 0.14915,-0.38026 z m 8.17121,-0.5269 h -1.65027 v 5.49263 h -2.19211 v -5.49263 h -1.23019 v -1.84165 h 1.23019 v -1.08113 c 0,-0.25848 0.0544,-0.50204 0.14915,-0.73069 0.0945,-0.23114 0.23116,-0.42003 0.40762,-0.59649 0.16154,-0.17397 0.36532,-0.31067 0.59395,-0.41754 0.23115,-0.0969 0.47476,-0.14912 0.74562,-0.14912 h 2.02804 v 1.83917 h -1.20287 c -0.14915,0 -0.28585,0.0547 -0.38025,0.14911 -0.0944,0.0944 -0.14915,0.22866 -0.14915,0.37778 v 0.60891 h 1.65027 z m 3.96478,3.12409 c 0,0.14912 0.0544,0.28581 0.14915,0.38026 0.0944,0.0945 0.23109,0.14912 0.38024,0.14912 h 1.5558 v 1.83916 h -2.4232 c -0.256,0 -0.48715,-0.0547 -0.71578,-0.14912 -0.23115,-0.0944 -0.42001,-0.21622 -0.58162,-0.39269 -0.1764,-0.17646 -0.31063,-0.36534 -0.40755,-0.59399 -0.0945,-0.21623 -0.14662,-0.45979 -0.14662,-0.71828 v -3.63855 h -1.21786 v -1.84165 h 1.21786 v -1.71738 h 2.18958 v 1.71738 h 2.15234 v 1.84165 h -2.15234 z m 0,0"
         style="fill:#696b6b;fill-opacity:1;fill-rule:nonzero;stroke:none;stroke-width:0.212084"
         aria-label="Maiprosoft" /><path
         id="path87"
         d="m -373.50108,162.56085 v 4.68176 h -4.70851 v -4.68176 h -4.78868 v -4.70846 h 4.78868 4.70851 z"
         style="fill:#696b6b;fill-opacity:1;fill-rule:evenodd;stroke:none;stroke-width:0.212084" /><path
         id="path88"
         d="m -384.53118,164.25685 h 4.78868 v 4.68177 h -4.78868 z"
         style="fill:#696b6b;fill-opacity:1;fill-rule:evenodd;stroke:none;stroke-width:0.213272" /></g><path
       id="path89"
       d="m -492.3644,86.241841 v 9.47168 h -2.3288 v -6.2109 l -2.12244,4.51838 h -2.35612 l -2.20457,-4.53081 v 6.22333 h -2.32627 v -9.47168 h 2.97497 l 2.7339,5.58956 2.66428,-5.58956 z m 8.78134,9.47168 h -2.19204 v -1.19048 l -1.3545,1.19048 h -1.86656 c -0.25593,0 -0.49954,-0.0547 -0.7307,-0.16155 -0.22862,-0.0944 -0.42001,-0.23113 -0.59394,-0.40759 -0.17647,-0.16155 -0.29824,-0.35044 -0.3927,-0.58158 -0.0945,-0.22865 -0.14915,-0.45978 -0.14915,-0.70336 v -3.62613 c 0,-0.25599 0.0544,-0.48712 0.1616,-0.71578 0.0944,-0.23114 0.2311,-0.42002 0.40509,-0.59649 0.17647,-0.17645 0.36532,-0.31066 0.59648,-0.4051 0.22862,-0.0944 0.45978,-0.1367 0.70332,-0.1367 h 5.4131 z m -2.72143,-1.83916 c 0.14915,0 0.28584,-0.0546 0.3803,-0.14912 0.0944,-0.0944 0.14909,-0.23114 0.14909,-0.38026 v -3.12409 h -2.36858 c -0.14909,0 -0.28331,0.0546 -0.37771,0.14913 -0.097,0.0944 -0.14915,0.22863 -0.14915,0.37777 v 2.59719 c 0,0.14912 0.0525,0.28581 0.14915,0.38026 0.0944,0.0945 0.22862,0.14912 0.37771,0.14912 z m 6.44204,-5.49512 v 7.33428 h -2.17966 v -7.33428 z m 0,-2.69164 v 1.88142 h -2.17966 v -1.88142 z m 1.54151,4.54571 c 0,-0.24355 0.055,-0.47221 0.14915,-0.70335 0.0945,-0.22865 0.23116,-0.42003 0.40762,-0.59399 0.16154,-0.17647 0.3504,-0.31316 0.58155,-0.40761 0.22863,-0.0944 0.45978,-0.14912 0.71579,-0.14912 h 3.70814 c 0.24355,0 0.47224,0.0422 0.70339,0.1367 0.22863,0.0944 0.42001,0.22865 0.59395,0.4051 0.17646,0.17647 0.31316,0.36535 0.42001,0.59649 0.0945,0.22866 0.14915,0.45979 0.14915,0.71578 v 3.62613 c 0,0.24358 -0.0544,0.47471 -0.14915,0.70336 -0.0944,0.23114 -0.22863,0.42003 -0.39264,0.58158 -0.17399,0.17646 -0.36538,0.31315 -0.594,0.40759 -0.23116,0.10687 -0.47471,0.16155 -0.73071,0.16155 h -2.01565 l -1.35449,-1.19048 v 4.00391 h -2.19211 z m 2.19211,3.11167 c 0,0.14912 0.0544,0.2709 0.14915,0.36535 0.0944,0.10936 0.23109,0.16403 0.38024,0.16403 h 1.98827 c 0.14915,0 0.27093,-0.0546 0.37778,-0.14912 0.0945,-0.0944 0.14915,-0.23114 0.14915,-0.38026 v -2.59719 c 0,-0.14914 -0.0544,-0.28334 -0.14915,-0.37777 -0.10685,-0.0945 -0.22863,-0.14913 -0.37778,-0.14913 h -1.98827 c -0.14915,0 -0.28584,0.0546 -0.38024,0.14913 -0.0945,0.0944 -0.14915,0.22863 -0.14915,0.37777 z m 12.24474,-3.12409 h -2.86812 c -0.14909,0 -0.27093,0.0546 -0.36532,0.14913 -0.10692,0.0944 -0.16161,0.22863 -0.16161,0.37777 v 4.96573 h -2.17965 v -7.33428 h 2.17965 v 1.12338 l 1.32471,-1.12338 h 2.07034 z m 6.2382,-1.84165 c 0.24361,0 0.4747,0.0422 0.70339,0.1367 0.23109,0.0944 0.42001,0.22865 0.59648,0.4051 0.17393,0.17647 0.31063,0.36535 0.40509,0.59649 0.0945,0.22866 0.14915,0.45979 0.14915,0.71578 v 3.62613 c 0,0.24358 -0.0398,0.47471 -0.1367,0.70336 -0.0945,0.23114 -0.22869,0.42003 -0.39023,0.59649 -0.17646,0.17646 -0.36532,0.31067 -0.59647,0.40511 -0.23109,0.0944 -0.4747,0.14912 -0.73071,0.14912 h -3.7603 c -0.24361,0 -0.47471,-0.0547 -0.70586,-0.14912 -0.22863,-0.0944 -0.41755,-0.21622 -0.58155,-0.39269 -0.174,-0.17646 -0.3107,-0.36534 -0.40516,-0.59399 -0.10685,-0.21623 -0.16154,-0.45979 -0.16154,-0.71828 v -3.62613 c 0,-0.24355 0.0544,-0.47221 0.14915,-0.70335 0.0945,-0.22865 0.21623,-0.42003 0.3927,-0.59399 0.17393,-0.16404 0.36532,-0.29825 0.59401,-0.40761 0.21617,-0.0944 0.45971,-0.14912 0.71825,-0.14912 z m -0.338,2.36855 c 0,-0.14914 -0.0544,-0.28334 -0.14909,-0.37777 -0.10938,-0.0945 -0.23116,-0.14913 -0.37778,-0.14913 h -2.03057 c -0.14908,0 -0.27086,0.0546 -0.36532,0.14913 -0.10938,0.0944 -0.16154,0.22863 -0.16154,0.37777 v 2.59719 c 0,0.14912 0.0519,0.28581 0.16154,0.38026 0.0945,0.0945 0.21624,0.14912 0.36532,0.14912 h 2.03057 c 0.14662,0 0.2684,-0.0546 0.37778,-0.14912 0.0944,-0.0944 0.14909,-0.23114 0.14909,-0.38026 z m 6.07608,-0.64869 c -0.13669,0 -0.24354,0.0398 -0.32555,0.12179 -0.0821,0.0795 -0.12183,0.18888 -0.12183,0.32309 v 0.24357 c 0,0.13669 0.0398,0.24356 0.12183,0.32558 0.082,0.0944 0.18886,0.1342 0.32555,0.1342 h 2.88052 c 0.25847,0 0.48716,0.0546 0.71831,0.14913 0.22863,0.0944 0.42001,0.23114 0.59395,0.39269 0.16407,0.17646 0.29824,0.36535 0.3927,0.59649 0.0945,0.22864 0.14915,0.45978 0.14915,0.71577 v 0.75803 c 0,0.25849 -0.0544,0.48714 -0.14915,0.71828 -0.0945,0.22865 -0.22863,0.41753 -0.3927,0.58157 -0.17394,0.17646 -0.36532,0.31067 -0.59395,0.40511 -0.23115,0.0944 -0.45984,0.14912 -0.71831,0.14912 h -3.53168 c -0.256,0 -0.48709,-0.0547 -0.71578,-0.14912 -0.23116,-0.0944 -0.42001,-0.22865 -0.59648,-0.40511 -0.174,-0.16404 -0.31069,-0.35292 -0.40515,-0.58157 -0.0944,-0.23114 -0.14909,-0.45979 -0.14909,-0.71828 v -0.43244 h 2.11005 v 0.12178 c 0,0.13421 0.0424,0.24356 0.13669,0.32558 0.0795,0.0795 0.18892,0.12179 0.31069,0.12179 h 2.13742 c 0.12178,0 0.2311,-0.0422 0.32556,-0.12179 0.0795,-0.082 0.12177,-0.19137 0.12177,-0.32558 v -0.24356 c 0,-0.13422 -0.0424,-0.24357 -0.12177,-0.32559 -0.0945,-0.0795 -0.20378,-0.12178 -0.32556,-0.12178 h -2.88051 c -0.25847,0 -0.50208,-0.0522 -0.71831,-0.14912 -0.22863,-0.0944 -0.42001,-0.24357 -0.59401,-0.41754 -0.17647,-0.17647 -0.29824,-0.36535 -0.3927,-0.59648 -0.0944,-0.22866 -0.14909,-0.47222 -0.14909,-0.7307 v -0.7307 c 0,-0.25599 0.0544,-0.48712 0.14909,-0.71578 0.0945,-0.23114 0.21623,-0.42002 0.3927,-0.59649 0.174,-0.16154 0.36538,-0.29823 0.59401,-0.39268 0.21623,-0.0944 0.45984,-0.14912 0.71831,-0.14912 h 3.39499 c 0.25593,0 0.48709,0.0546 0.71824,0.14912 0.22869,0.0944 0.41755,0.23114 0.59401,0.39268 0.17647,0.17647 0.31063,0.36535 0.40509,0.59649 0.0969,0.22866 0.14915,0.45979 0.14915,0.71578 v 0.43246 h -2.1101 v -0.12179 c 0,-0.13421 -0.0398,-0.24356 -0.12178,-0.32309 -0.082,-0.082 -0.18885,-0.12179 -0.32555,-0.12179 z m 11.67558,-1.71986 c 0.24355,0 0.47471,0.0422 0.70333,0.1367 0.23116,0.0944 0.42007,0.22865 0.59654,0.4051 0.17393,0.17647 0.31063,0.36535 0.40509,0.59649 0.0945,0.22866 0.14909,0.45979 0.14909,0.71578 v 3.62613 c 0,0.24358 -0.0398,0.47471 -0.1367,0.70336 -0.0944,0.23114 -0.22862,0.42003 -0.39017,0.59649 -0.17646,0.17646 -0.36532,0.31067 -0.59647,0.40511 -0.23116,0.0944 -0.4747,0.14912 -0.73071,0.14912 h -3.76037 c -0.24354,0 -0.4747,-0.0547 -0.70579,-0.14912 -0.22869,-0.0944 -0.41754,-0.21622 -0.58162,-0.39269 -0.17393,-0.17646 -0.31063,-0.36534 -0.40509,-0.59399 -0.10685,-0.21623 -0.16154,-0.45979 -0.16154,-0.71828 v -3.62613 c 0,-0.24355 0.0544,-0.47221 0.14915,-0.70335 0.0944,-0.22865 0.21617,-0.42003 0.3927,-0.59399 0.17393,-0.16404 0.36532,-0.29825 0.59395,-0.40761 0.21623,-0.0944 0.45978,-0.14912 0.71824,-0.14912 z m -0.338,2.36855 c 0,-0.14914 -0.0544,-0.28334 -0.14915,-0.37777 -0.10932,-0.0945 -0.23109,-0.14913 -0.37778,-0.14913 h -2.0305 c -0.14915,0 -0.27093,0.0546 -0.36539,0.14913 -0.10932,0.0944 -0.16154,0.22863 -0.16154,0.37777 v 2.59719 c 0,0.14912 0.0525,0.28581 0.16154,0.38026 0.0945,0.0945 0.21624,0.14912 0.36539,0.14912 h 2.0305 c 0.14669,0 0.26846,-0.0546 0.37778,-0.14912 0.0945,-0.0944 0.14915,-0.23114 0.14915,-0.38026 z m 8.17121,-0.5269 h -1.65027 v 5.49263 h -2.19211 v -5.49263 h -1.23019 v -1.84165 h 1.23019 v -1.08113 c 0,-0.25848 0.0544,-0.50204 0.14915,-0.73069 0.0945,-0.23114 0.23116,-0.42003 0.40762,-0.59649 0.16154,-0.17397 0.36532,-0.31067 0.59395,-0.41754 0.23115,-0.0969 0.47476,-0.14912 0.74562,-0.14912 h 2.02804 v 1.83917 h -1.20287 c -0.14915,0 -0.28585,0.0547 -0.38025,0.14911 -0.0944,0.0944 -0.14915,0.22866 -0.14915,0.37778 v 0.60891 h 1.65027 z m 3.96478,3.12409 c 0,0.14912 0.0544,0.28581 0.14915,0.38026 0.0944,0.0945 0.23109,0.14912 0.38024,0.14912 h 1.5558 v 1.83916 h -2.4232 c -0.256,0 -0.48715,-0.0547 -0.71578,-0.14912 -0.23115,-0.0944 -0.42001,-0.21622 -0.58162,-0.39269 -0.1764,-0.17646 -0.31063,-0.36534 -0.40755,-0.59399 -0.0945,-0.21623 -0.14662,-0.45979 -0.14662,-0.71828 v -3.63855 h -1.21786 v -1.84165 h 1.21786 v -1.71738 h 2.18958 v 1.71738 h 2.15234 v 1.84165 h -2.15234 z m 0,0"
       style="fill:#1d8bf2;fill-opacity:1;fill-rule:nonzero;stroke:none;stroke-width:0.212084"
       aria-label="Maiprosoft" /><path
       id="path90"
       d="m -506.10784,90.942571 v 4.68176 h -4.70851 v -4.68176 h -4.78868 v -4.70846 h 4.78868 4.70851 z"
       style="fill:#ffcc00;fill-opacity:1;fill-rule:evenodd;stroke:none;stroke-width:0.212084" /><path
       id="path91"
       d="m -517.13794,92.638571 h 4.78868 v 4.68177 h -4.78868 z"
       style="fill:#696b6b;fill-opacity:1;fill-rule:evenodd;stroke:none;stroke-width:0.213272" /></g></svg>
