<?xml version="1.0" encoding="UTF-8" standalone="no"?>
<!-- Created with Inkscape (http://www.inkscape.org/) -->

<svg
   width="151.1413mm"
   height="88.403389mm"
   viewBox="0 0 151.1413 88.403389"
   version="1.1"
   id="svg1"
   xml:space="preserve"
   inkscape:version="1.3.2 (091e20e, 2023-11-25, custom)"
   sodipodi:docname="maiprosoft parntners.svg"
   xmlns:inkscape="http://www.inkscape.org/namespaces/inkscape"
   xmlns:sodipodi="http://sodipodi.sourceforge.net/DTD/sodipodi-0.dtd"
   xmlns="http://www.w3.org/2000/svg"
   xmlns:svg="http://www.w3.org/2000/svg"><sodipodi:namedview
     id="namedview1"
     pagecolor="#ffffff"
     bordercolor="#eeeeee"
     borderopacity="1"
     inkscape:showpageshadow="0"
     inkscape:pageopacity="0"
     inkscape:pagecheckerboard="0"
     inkscape:deskcolor="#d1d1d1"
     inkscape:document-units="mm"
     inkscape:zoom="0.70822812"
     inkscape:cx="6362.3568"
     inkscape:cy="-1695.0753"
     inkscape:window-width="1920"
     inkscape:window-height="991"
     inkscape:window-x="-9"
     inkscape:window-y="-9"
     inkscape:window-maximized="1"
     inkscape:current-layer="layer1"
     showguides="true"><sodipodi:guide
       position="-1169.7443,-354.05531"
       orientation="1,0"
       id="guide64"
       inkscape:locked="false" /><sodipodi:guide
       position="-1288.6377,-352.23409"
       orientation="1,0"
       id="guide71"
       inkscape:locked="false" /><sodipodi:guide
       position="-1283.5009,-352.63102"
       orientation="1,0"
       id="guide72"
       inkscape:locked="false" /><sodipodi:guide
       position="-1290.1554,-354.35885"
       orientation="0,-1"
       id="guide73"
       inkscape:locked="false" /><sodipodi:guide
       position="-181.65899,13.995884"
       orientation="0,-1"
       id="guide78"
       inkscape:locked="false" /><sodipodi:guide
       position="-103.95329,-54.743746"
       orientation="0,-1"
       id="guide79"
       inkscape:locked="false" /><sodipodi:guide
       position="-425.35729,-457.54964"
       orientation="0,-1"
       id="guide91"
       inkscape:locked="false" /></sodipodi:namedview><defs
     id="defs1" /><g
     inkscape:label="Layer 1"
     inkscape:groupmode="layer"
     id="layer1"
     transform="translate(-1751.4627,472.78526)"><rect
       style="fill:#ffffff;stroke-width:0.332999"
       id="rect31"
       width="151.14122"
       height="88.403366"
       x="1751.4628"
       y="-472.78525"
       rx="6.0599079"
       ry="6.0599079"
       inkscape:export-filename="..\Client Logos\KAEC\KAEC.png"
       inkscape:export-xdpi="300"
       inkscape:export-ydpi="300" /><g
       id="g58"
       transform="matrix(1.2156942,0,0,1.2156942,163.88715,-238.51269)"
       inkscape:export-filename="Boomi\Bhoomi.svg"
       inkscape:export-xdpi="300"
       inkscape:export-ydpi="300"><circle
         class="st0"
         cx="1417.6682"
         cy="-170.61382"
         r="2.3630059"
         id="circle31"
         style="fill:#ff7c66;stroke-width:0.352687" /><path
         class="st1"
         d="m 1348.5415,-165.11189 c 5.255,-0.10584 9.6283,4.02064 9.7693,9.31095 0.1412,5.25504 -4.0206,9.62837 -9.2756,9.76944 -0.1764,0 -0.3174,0 -0.4937,0 -5.2551,0.14107 -9.6285,-4.02063 -9.7695,-9.27567 -0.1411,-5.25504 4.0207,-9.66363 9.2757,-9.80472 0.1762,0 0.3174,0 0.4938,0 z m 0,15.51825 c 3.2094,0.0705 5.8898,-2.4688 5.9603,-5.71353 0,-0.10584 0,-0.17634 0,-0.28216 0,-3.27998 -2.6451,-5.96042 -5.9252,-5.96042 -3.2799,0 -5.9603,2.64516 -5.9603,5.92515 0,0 0,0 0,0 -0.1053,3.20946 2.4335,5.88989 5.643,5.99569 0.071,0.0353 0.1763,0.0353 0.2822,0.0353 z"
         id="path32"
         style="fill:#033d58;stroke-width:0.352687" /><path
         class="st1"
         d="m 1370.1964,-165.11189 c 5.2551,0.10584 9.452,4.44386 9.3462,9.6989 -0.071,5.29032 -4.4438,9.48731 -9.6989,9.38149 -5.1845,-0.10584 -9.3462,-4.33804 -9.3462,-9.52256 -0.035,-5.21977 4.1265,-9.48729 9.3462,-9.52256 0.1411,-0.0353 0.2469,-0.0353 0.3527,-0.0353 z m 0,15.51825 c 3.2095,0.0705 5.8899,-2.4688 5.9604,-5.71353 0,-0.10584 0,-0.17634 0,-0.28216 0,-3.27998 -2.6451,-5.96042 -5.9252,-5.96042 -3.2799,0 -5.9603,2.64516 -5.9603,5.92515 0,0 0,0 0,0 -0.1053,3.20946 2.4335,5.88989 5.6429,5.99569 0.1054,0.0353 0.2117,0.0353 0.2822,0.0353 z"
         id="path33"
         style="fill:#033d58;stroke-width:0.352687" /><path
         class="st1"
         d="m 1415.7637,-146.84267 v -17.84599 c 0,-0.24689 0.1762,-0.42323 0.4232,-0.42323 v 0 h 2.9273 c 0.2115,0 0.4232,0.17634 0.4232,0.42323 0,0 0,0 0,0 v 17.84599 c 0,0.21161 -0.1764,0.42322 -0.4232,0.42322 h -2.9273 c -0.2117,0 -0.4232,-0.17634 -0.4232,-0.42322 z"
         id="path34"
         style="fill:#033d58;stroke-width:0.352687" /><path
         class="st1"
         d="m 1404.7599,-165.11189 c -2.61,-0.0705 -5.0787,1.23441 -6.5248,3.42107 -1.1639,-2.11612 -3.3858,-3.42107 -6.5247,-3.42107 -3.1389,0 -4.973,1.76344 -5.5372,2.68043 v -2.89204 c 0,-0.21161 -0.1764,-0.42323 -0.388,-0.42323 -0.071,0 -0.1763,0.0353 -0.2468,0.0705 l -3.0684,1.76344 c -0.071,0.0353 -0.1053,0.10584 -0.1053,0.17634 v 16.85846 c 0,0.24688 0.1763,0.42322 0.4232,0.42322 h 2.9626 c 0.2468,0 0.4232,-0.17634 0.4232,-0.42322 v -9.83998 c 0,-3.03311 2.2219,-4.79655 4.9377,-4.79655 2.7157,0 4.3027,1.76344 4.3027,4.79655 v 9.91052 c 0,0.21161 0.1764,0.42322 0.4232,0.42322 h 2.9626 c 0.2116,0 0.4232,-0.17634 0.4232,-0.42322 v -10.1574 c 0.1053,-2.89204 2.2925,-4.54967 4.9729,-4.54967 2.6805,0 4.3028,1.76344 4.3028,4.79655 v 9.91052 c 0,0.21161 0.1763,0.42322 0.4232,0.42322 h 2.9626 c 0.2116,0 0.4232,-0.17634 0.4232,-0.42322 v -10.72171 c -0.035,-4.44386 -2.6804,-7.58278 -7.5474,-7.58278 z"
         id="path35"
         style="fill:#033d58;stroke-width:0.352687" /><path
         class="st1"
         d="m 1326.6043,-165.11189 c -2.5042,-0.0353 -4.9024,0.88172 -6.7364,2.57462 v -12.6262 c 0,-0.24689 -0.1763,-0.42323 -0.4233,-0.42323 -0.071,0 -0.141,0.0353 -0.2115,0.0705 l -3.0331,1.76344 c -0.071,0.0353 -0.1053,0.10584 -0.1053,0.17634 v 26.73371 c 0,0.21161 0.1764,0.42323 0.4232,0.42323 0,0 0,0 0,0 h 2.9626 c 0.2117,0 0.4232,-0.17634 0.4232,-0.42323 v 0 -1.76344 c 1.834,1.6929 4.2676,2.60989 6.7363,2.57462 5.2551,0.14107 9.6285,-4.02064 9.7695,-9.27568 0.1053,-5.29031 -4.0559,-9.66363 -9.311,-9.80471 -0.1763,0 -0.3173,0 -0.4937,0 z m 0,15.51825 c -3.2095,0.0705 -5.89,-2.4688 -5.9605,-5.71353 0,-0.10584 0,-0.17634 0,-0.28216 0,-3.27998 2.6452,-5.96042 5.9605,-5.96042 3.3153,0 5.9603,2.64516 5.9603,5.96042 0.1053,3.20946 -2.4335,5.88988 -5.6429,5.99569 -0.1053,0 -0.2116,0 -0.3174,0 z"
         id="path36"
         style="fill:#033d58;stroke-width:0.352687" /><path
         class="st1"
         d="m 1349.67,-139.29517 v 1.09334 h -0.5643 v -3.59742 h 1.6224 c 0.6348,-0.0705 1.1992,0.38796 1.2697,1.02279 0,0.0705 0,0.14109 0,0.21162 0.035,0.67011 -0.4938,1.19914 -1.1639,1.2344 -0.035,0 -0.071,0 -0.1053,0 z m 0,-1.97504 v 1.48129 h 0.9523 c 0.388,0.0353 0.7406,-0.28216 0.7759,-0.67011 0,-0.0353 0,-0.0353 0,-0.0705 0.035,-0.38796 -0.2822,-0.74064 -0.6701,-0.74064 -0.036,0 -0.071,0 -0.1053,0 z"
         id="path37"
         style="fill:#033d58;stroke-width:0.352687" /><path
         class="st1"
         d="m 1353.6907,-140.81173 c 0.7406,0 1.3048,0.59958 1.3048,1.34022 0,0.74065 -0.5994,1.30495 -1.3402,1.30495 -0.7052,0 -1.3048,-0.59957 -1.3048,-1.30495 0,-0.70538 0.5642,-1.30495 1.3048,-1.30495 0,-0.0353 0,-0.0353 0.035,-0.0353 z m 0,2.1514 c 0.4584,0 0.8464,-0.35268 0.8464,-0.81118 0,-0.4585 -0.3527,-0.84645 -0.8112,-0.84645 -0.4585,0 -0.8465,0.35268 -0.8465,0.81118 0,0 0,0 0,0.0353 0,0.42323 0.3527,0.81118 0.8113,0.81118 z"
         id="path38"
         style="fill:#033d58;stroke-width:0.352687" /><path
         class="st1"
         d="m 1358.1698,-138.73086 0.5642,-2.01032 h 0.5644 l -0.7407,2.53935 h -0.7053 l -0.5291,-1.7987 -0.529,1.7987 h -0.7406 l -0.7406,-2.53935 h 0.5642 l 0.5643,2.01032 0.5995,-1.97505 h 0.5644 z"
         id="path39"
         style="fill:#033d58;stroke-width:0.352687" /><path
         class="st1"
         d="m 1362.0141,-138.41345 c -0.2822,0.17634 -0.6349,0.24689 -0.9523,0.24689 -0.7054,0.0705 -1.3755,-0.4585 -1.4108,-1.19914 0,-0.0353 0,-0.0705 0,-0.14108 -0.035,-0.70537 0.5291,-1.30495 1.1992,-1.30495 0,0 0.035,0 0.035,0 0.6701,-0.0353 1.2344,0.49377 1.2697,1.16388 0,0.10584 0,0.21161 -0.036,0.31741 h -1.9749 c 0.1053,0.42323 0.4937,0.67011 0.8816,0.63484 0.3174,0 0.5996,-0.0705 0.8818,-0.24687 z m -0.388,-1.26967 c 0,-0.35268 -0.2822,-0.63484 -0.6348,-0.63484 -0.035,0 -0.071,0 -0.071,0 -0.3879,-0.0353 -0.7053,0.24688 -0.7758,0.63484 z"
         id="path40"
         style="fill:#033d58;stroke-width:0.352687" /><path
         class="st1"
         d="m 1363.2838,-140.3885 c 0.1053,-0.24687 0.3526,-0.38796 0.6348,-0.38796 0.1053,0 0.2469,0.0353 0.3527,0.0705 l -0.071,0.49377 c -0.1053,-0.0353 -0.2116,-0.0705 -0.3175,-0.0705 -0.282,0 -0.6347,0.14107 -0.6347,0.70538 v 1.37548 h -0.4938 v -2.53935 h 0.5291 z"
         id="path41"
         style="fill:#033d58;stroke-width:0.352687" /><path
         class="st1"
         d="m 1364.7297,-141.58763 c 0,-0.17635 0.1412,-0.31742 0.3175,-0.31742 0.1764,0 0.3174,0.14107 0.3174,0.31742 0,0.17634 -0.141,0.31742 -0.3174,0.31742 -0.1763,0 -0.3175,-0.10584 -0.3175,-0.31742 0,0.0353 0,0 0,0 z m 0.035,3.35052 v -2.53935 h 0.529 v 2.53935 z"
         id="path42"
         style="fill:#033d58;stroke-width:0.352687" /><path
         class="st1"
         d="m 1368.4682,-139.75366 v 1.51655 h -0.4937 v -1.41074 c 0.036,-0.31743 -0.2116,-0.59957 -0.5291,-0.63484 -0.035,0 -0.071,0 -0.1053,0 -0.3527,-0.0353 -0.6701,0.21161 -0.7054,0.5643 0,0.0353 0,0.0353 0,0.0705 v 1.41075 h -0.5291 v -2.53935 h 0.5291 v 0.31742 c 0.1763,-0.24688 0.4585,-0.38795 0.7759,-0.38795 0.5291,-0.0353 0.9875,0.35268 1.0228,0.88171 0.035,0.10584 0.035,0.17635 0.035,0.21161 z"
         id="path43"
         style="fill:#033d58;stroke-width:0.352687" /><path
         class="st1"
         d="m 1369.0678,-139.50678 c -0.035,-0.70537 0.5291,-1.26968 1.2345,-1.30495 0,0 0.035,0 0.035,0 0.3527,-0.0353 0.6701,0.14109 0.8818,0.38797 v -0.3527 h 0.5291 v 2.36301 c 0,0.70538 -0.5644,1.26968 -1.2697,1.26968 -0.035,0 -0.1053,0 -0.1412,0 -0.3527,0 -0.7052,-0.0705 -1.0228,-0.21161 l 0.071,-0.4585 c 0.2822,0.14108 0.5996,0.21161 0.9171,0.21161 0.5642,0 0.9169,-0.28214 0.9169,-0.77591 v -0.21161 c -0.2116,0.28216 -0.5643,0.42323 -0.8817,0.38796 -0.7053,0 -1.2697,-0.5643 -1.2697,-1.23441 0,0 0,-0.0353 0,-0.0705 z m 1.3402,-0.81118 c -0.4232,0 -0.8111,0.35268 -0.8111,0.77591 0,0 0,0.0353 0,0.0353 -0.035,0.4585 0.3173,0.84645 0.7759,0.84645 0,0 0.035,0 0.035,0 0.4585,0 0.8464,-0.38795 0.8464,-0.84645 0,0 0,0 0,-0.0353 0,-0.45848 -0.3526,-0.81118 -0.8111,-0.84645 0,0.0705 -0.035,0.0705 -0.035,0.0705 z"
         id="path44"
         style="fill:#033d58;stroke-width:0.352687" /><path
         class="st1"
         d="m 1374.5697,-140.31796 v 1.26968 c -0.035,0.21161 0.1412,0.38795 0.3174,0.38795 0.036,0 0.071,0 0.071,0 0.141,0 0.282,-0.0353 0.4232,-0.0705 l 0.071,0.45849 c -0.1763,0.0705 -0.3527,0.0705 -0.5644,0.0705 -0.4232,0.0353 -0.8111,-0.24688 -0.8464,-0.67011 0,-0.0353 0,-0.10584 0,-0.14107 v -1.34021 h -0.4584 v -0.42323 h 0.4584 v -0.81118 h 0.4939 v 0.81118 h 0.7406 v 0.42323 h -0.7054 z"
         id="path45"
         style="fill:#033d58;stroke-width:0.352687" /><path
         class="st1"
         d="m 1378.3082,-139.75366 v 1.51655 h -0.529 v -1.41074 c 0.035,-0.31743 -0.2116,-0.59957 -0.529,-0.63484 -0.036,0 -0.071,0 -0.1053,0 -0.3527,-0.0353 -0.6701,0.21161 -0.7054,0.5643 0,0.0353 0,0.0353 0,0.0705 v 1.41075 h -0.5291 v -3.66794 h 0.5291 v 1.48128 c 0.1764,-0.24688 0.4586,-0.38796 0.7759,-0.38796 0.5291,-0.0705 1.0228,0.31742 1.058,0.84645 0.035,0.0705 0.035,0.14108 0.035,0.21161 z"
         id="path46"
         style="fill:#033d58;stroke-width:0.352687" /><path
         class="st1"
         d="m 1381.3061,-138.41345 c -0.2822,0.17634 -0.6349,0.24689 -0.9523,0.24689 -0.7054,0.0705 -1.3755,-0.4585 -1.4107,-1.19914 0,-0.0353 0,-0.0705 0,-0.14108 -0.036,-0.70537 0.529,-1.30495 1.1991,-1.30495 0.035,0 0.071,0 0.071,0 0.6701,0 1.2344,0.52904 1.2344,1.19915 0,0.10584 0,0.21161 -0.036,0.28214 h -1.975 c 0.1053,0.42323 0.4937,0.67011 0.8816,0.63484 0.3176,0 0.5996,-0.0705 0.8818,-0.24687 z m -0.3527,-1.26967 c 0,-0.35268 -0.2822,-0.63484 -0.6349,-0.63484 -0.035,0 -0.071,0 -0.071,0 -0.3879,-0.0353 -0.7055,0.24688 -0.776,0.63484 z"
         id="path47"
         style="fill:#033d58;stroke-width:0.352687" /><path
         class="st1"
         d="m 1384.974,-141.79925 c 0.9876,0 1.7987,0.81118 1.7987,1.79872 0,0.98752 -0.8111,1.7987 -1.7987,1.7987 h -1.5166 v -3.59742 z m 1.1992,1.79872 c 0.071,-0.63484 -0.388,-1.19915 -0.9875,-1.26968 -0.1053,0 -0.1764,0 -0.2822,0 h -0.8817 v 2.57461 h 0.8817 c 0.5996,0.0705 1.1991,-0.35268 1.2697,-0.95225 0.035,-0.10584 0.035,-0.24688 0,-0.35268 z"
         id="path48"
         style="fill:#033d58;stroke-width:0.352687" /><path
         class="st1"
         d="m 1387.2665,-139.50678 c -0.035,-0.70537 0.529,-1.26968 1.2345,-1.30495 0,0 0.035,0 0.035,0 0.3527,-0.0353 0.6701,0.14109 0.8818,0.38797 v -0.3527 h 0.5291 v 2.53935 h -0.5291 v -0.35268 c -0.2117,0.28216 -0.5644,0.42323 -0.8818,0.38796 -0.7053,0 -1.2697,-0.5643 -1.2697,-1.26968 -0.035,0.0353 0,0 0,-0.0353 z m 1.305,-0.81118 c -0.4233,0 -0.8113,0.35268 -0.8113,0.77591 0,0 0,0.0353 0,0.0353 -0.035,0.4585 0.3175,0.84645 0.7759,0.84645 0,0 0.035,0 0.035,0 0.4584,0 0.8465,-0.38795 0.8465,-0.84645 0,0 0,0 0,-0.0353 0,-0.45848 -0.3528,-0.81118 -0.8113,-0.84645 0,0.0705 0,0.0705 -0.035,0.0705 z"
         id="path49"
         style="fill:#033d58;stroke-width:0.352687" /><path
         class="st1"
         d="m 1391.4282,-140.31796 v 1.26968 c -0.035,0.21161 0.141,0.38795 0.3174,0.38795 0.035,0 0.071,0 0.071,0 0.1412,0 0.2822,-0.0353 0.4233,-0.0705 l 0.071,0.45849 c -0.1763,0.0705 -0.3527,0.0705 -0.5644,0.0705 -0.4232,0.0353 -0.8111,-0.24688 -0.8464,-0.67011 0,-0.0353 0,-0.10584 0,-0.14107 v -1.34021 h -0.4584 v -0.42323 h 0.4584 v -0.81118 h 0.4937 v 0.81118 h 0.7408 v 0.42323 h -0.7055 z"
         id="path50"
         style="fill:#033d58;stroke-width:0.352687" /><path
         class="st1"
         d="m 1392.6274,-139.50678 c -0.035,-0.70537 0.529,-1.26968 1.2343,-1.30495 0,0 0.036,0 0.036,0 0.3527,-0.0353 0.6701,0.14109 0.8816,0.38797 v -0.3527 h 0.5291 v 2.53935 h -0.5291 v -0.35268 c -0.2115,0.28216 -0.5642,0.42323 -0.8816,0.38796 -0.7054,0 -1.2697,-0.5643 -1.2697,-1.26968 0,0.0353 0,0 0,-0.0353 z m 1.3402,-0.81118 c -0.4233,0 -0.8112,0.35268 -0.8112,0.77591 0,0 0,0.0353 0,0.0353 -0.035,0.4585 0.3174,0.84645 0.7758,0.84645 0,0 0,0 0,0 0.4586,0 0.8465,-0.38795 0.8465,-0.84645 0,0 0,0 0,-0.0353 0,-0.38796 -0.3526,-0.77591 -0.8111,-0.77591 0,0 -0.035,0 0,0 z"
         id="path51"
         style="fill:#033d58;stroke-width:0.352687" /><path
         class="st1"
         d="m 1400.1396,-138.23711 h -2.6452 v -3.56214 h 2.5747 v 0.49377 h -2.0457 v 0.98752 h 1.7635 v 0.49377 h -1.7635 v 1.09333 h 2.081 v 0.49375 z"
         id="path52"
         style="fill:#033d58;stroke-width:0.352687" /><path
         class="st1"
         d="m 1402.0088,-140.81173 c 0.2469,0 0.5291,0.0705 0.7406,0.17636 l -0.071,0.45848 c -0.2116,-0.10584 -0.4584,-0.14107 -0.7054,-0.14107 -0.4584,-0.0353 -0.8465,0.28216 -0.917,0.74065 0,0.0352 0,0.0352 0,0.0705 0,0.45849 0.388,0.84645 0.8465,0.81118 0,0 0.036,0 0.036,0 0.2469,0 0.4938,-0.0705 0.7055,-0.14108 l 0.071,0.4585 c -0.2469,0.10584 -0.5291,0.17634 -0.7759,0.17634 -0.7406,0.0353 -1.3402,-0.49376 -1.4107,-1.2344 -0.035,-0.74065 0.4937,-1.34022 1.2343,-1.41075 0.1053,0.0353 0.1764,0.0353 0.2469,0.0353 z"
         id="path53"
         style="fill:#033d58;stroke-width:0.352687" /><path
         class="st1"
         d="m 1404.5129,-140.81173 c 0.7407,0 1.305,0.59958 1.305,1.34022 0,0.74065 -0.5996,1.30495 -1.3402,1.30495 -0.7055,0 -1.305,-0.59957 -1.305,-1.30495 0,-0.70538 0.5644,-1.30495 1.305,-1.30495 0,-0.0353 0,-0.0353 0.035,-0.0353 z m 0,2.1514 c 0.4585,0 0.8464,-0.35268 0.8464,-0.81118 0,-0.4585 -0.3526,-0.84645 -0.8111,-0.84645 -0.4586,0 -0.8465,0.35268 -0.8465,0.81118 0,0 0,0 0,0.0353 0,0.42323 0.3527,0.81118 0.8112,0.81118 z"
         id="path54"
         style="fill:#033d58;stroke-width:0.352687" /><path
         class="st1"
         d="m 1408.8509,-139.75366 v 1.51655 h -0.529 v -1.41074 c 0.035,-0.31743 -0.2116,-0.59957 -0.529,-0.63484 -0.035,0 -0.071,0 -0.1053,0 -0.3527,-0.0353 -0.6701,0.21161 -0.7054,0.5643 0,0.0353 0,0.0353 0,0.0705 v 1.41075 h -0.5289 v -2.53935 h 0.5289 v 0.31742 c 0.1764,-0.24688 0.4586,-0.38795 0.776,-0.38795 0.529,-0.0705 1.0228,0.31741 1.0581,0.84645 0.035,0.10584 0.035,0.17634 0.035,0.24687 z"
         id="path55"
         style="fill:#033d58;stroke-width:0.352687" /><path
         class="st1"
         d="m 1410.7907,-140.81173 c 0.7408,0 1.305,0.59958 1.305,1.34022 0,0.74065 -0.5996,1.30495 -1.3402,1.30495 -0.7054,0 -1.305,-0.59957 -1.305,-1.30495 0,-0.70538 0.5643,-1.30495 1.305,-1.30495 0,-0.0353 0,-0.0353 0.035,-0.0353 z m 0,2.1514 c 0.4586,0 0.8465,-0.35268 0.8465,-0.81118 0,-0.4585 -0.3527,-0.84645 -0.8112,-0.84645 -0.4585,0 -0.8464,0.35268 -0.8464,0.81118 0,0 0,0 0,0.0353 0,0.42323 0.3527,0.81118 0.8111,0.81118 z"
         id="path56"
         style="fill:#033d58;stroke-width:0.352687" /><path
         class="st1"
         d="m 1414.9524,-140.31796 c 0.2117,-0.31741 0.5291,-0.49377 0.8818,-0.4585 0.529,-0.0353 0.9875,0.3527 1.0228,0.88173 0,0.0705 0,0.10584 0,0.17634 v 1.51656 h -0.4938 v -1.41075 c 0,-0.42322 -0.2116,-0.63484 -0.5995,-0.63484 -0.3527,-0.0353 -0.6349,0.24689 -0.6702,0.59957 0,0 0,0.0353 0,0.0353 v 1.44602 h -0.529 v -1.44602 c 0,-0.42322 -0.2116,-0.63483 -0.5995,-0.63483 -0.3527,-0.0353 -0.6701,0.24688 -0.6701,0.56429 0,0 0,0.0353 0,0.0353 v 1.41074 h -0.5291 v -2.53935 h 0.5291 v 0.31743 c 0.1763,-0.24689 0.4584,-0.38796 0.7759,-0.38796 0.3526,0 0.7053,0.21162 0.8816,0.52903 z"
         id="path57"
         style="fill:#033d58;stroke-width:0.352687" /><path
         class="st1"
         d="m 1419.4316,-140.74118 h 0.5644 l -1.1992,2.85677 c -0.2117,0.45848 -0.4232,0.77591 -1.0228,0.77591 -0.1412,0 -0.2822,-0.0353 -0.4232,-0.10584 l 0.071,-0.42323 c 0.1053,0.0353 0.2116,0.0705 0.3527,0.0705 0.3527,0 0.4584,-0.17634 0.5996,-0.4585 l 0.035,-0.14107 -1.0934,-2.53935 h 0.5644 l 0.7758,1.93979 z"
         id="path58"
         style="fill:#033d58;stroke-width:0.352687" /></g></g></svg>
