<?xml version="1.0" encoding="UTF-8" standalone="no"?>
<!-- Created with Inkscape (http://www.inkscape.org/) -->

<svg
   width="22.694427"
   height="22.698687"
   viewBox="0 0 6.0045672 6.0056941"
   version="1.1"
   id="svg1"
   xml:space="preserve"
   inkscape:version="1.3.2 (091e20e, 2023-11-25, custom)"
   sodipodi:docname="Expertise ERP icon.svg"
   xmlns:inkscape="http://www.inkscape.org/namespaces/inkscape"
   xmlns:sodipodi="http://sodipodi.sourceforge.net/DTD/sodipodi-0.dtd"
   xmlns="http://www.w3.org/2000/svg"
   xmlns:svg="http://www.w3.org/2000/svg"><sodipodi:namedview
     id="namedview1"
     pagecolor="#ffffff"
     bordercolor="#eeeeee"
     borderopacity="1"
     inkscape:showpageshadow="0"
     inkscape:pageopacity="0"
     inkscape:pagecheckerboard="0"
     inkscape:deskcolor="#d1d1d1"
     inkscape:document-units="mm"
     inkscape:zoom="1.4164562"
     inkscape:cx="319.45922"
     inkscape:cy="438.06507"
     inkscape:window-width="1920"
     inkscape:window-height="991"
     inkscape:window-x="-9"
     inkscape:window-y="-9"
     inkscape:window-maximized="1"
     inkscape:current-layer="layer1" /><defs
     id="defs1" /><g
     inkscape:label="Layer 1"
     inkscape:groupmode="layer"
     id="layer1"
     transform="translate(-107.9622,-1.2991827)"><path
       style="fill:#1d8bf2;fill-opacity:1;stroke-width:0.0494337"
       d="m 112.3648,7.293469 c -0.275,-0.02672 -0.52674,-0.1245179 -0.74649,-0.2899981 -0.61591,-0.4637918 -0.76727,-1.3222226 -0.34756,-1.971033 0.1309,-0.2023434 0.36897,-0.4117336 0.58938,-0.5183645 0.77971,-0.3772224 1.70922,-0.00372 2.01537,0.8098735 0.30267,0.8042859 -0.17609,1.716538 -1.01297,1.9302143 -0.0932,0.023794 -0.32509,0.054508 -0.38001,0.050331 -0.0108,-8.194e-4 -0.0638,-0.00578 -0.11772,-0.011023 z m 0.25014,-0.5942012 c 0.0872,-0.059217 0.0899,-0.075191 0.0899,-0.5174335 0,-0.3392576 -0.003,-0.4013543 -0.0215,-0.4402504 -0.0661,-0.1393358 -0.27654,-0.1477889 -0.35788,-0.014377 -0.0245,0.040154 -0.026,0.066539 -0.026,0.4546273 0,0.388089 0.001,0.4144738 0.026,0.4546274 0.0587,0.096201 0.19634,0.1260765 0.28945,0.062806 z m 0.009,-1.2486047 c 0.096,-0.04925 0.14662,-0.1331253 0.14662,-0.2431127 0,-0.087241 -0.031,-0.155242 -0.0972,-0.213356 -0.15764,-0.1384107 -0.41208,-0.038882 -0.4462,0.1745388 -0.0173,0.1082351 0.0452,0.2255857 0.14967,0.2807752 0.0636,0.033628 0.18266,0.034187 0.24707,0.00115 z m -4.3562,1.5365963 c -0.14011,-0.057614 -0.23477,-0.1574056 -0.28016,-0.2953301 -0.0337,-0.1025199 -0.0339,-0.6306202 -2.4e-4,-0.7586027 0.0557,-0.2117931 0.2167,-0.4538577 0.40986,-0.6163065 0.48213,-0.4054835 1.23133,-0.6504989 2.15642,-0.7052313 0.20452,-0.0121 0.62265,-0.00736 0.67023,0.0076 0.01,0.0031 -0.0186,0.04856 -0.0719,0.1151974 -0.49202,0.6141004 -0.5238,1.4401098 -0.0804,2.0887776 0.042,0.061499 0.0913,0.1257963 0.10951,0.1428831 0.0182,0.017087 0.0331,0.035926 0.0331,0.041866 0,0.00594 -0.64596,0.010659 -1.43546,0.010489 l -1.43546,-3.1e-4 z m 2.28167,-2.6431661 c -0.54146,-0.098096 -1.00348,-0.499215 -1.17922,-1.0237858 -0.15752,-0.4701682 -0.0719,-1.0145062 0.2207,-1.4025197 0.0824,-0.1092882 0.2733,-0.2926614 0.37415,-0.3594017 0.17816,-0.1178994 0.40132,-0.2071593 0.60819,-0.2432592 0.12148,-0.021201 0.39637,-0.021272 0.5101,-1.333e-4 0.32582,0.060557 0.62888,0.2224237 0.8509,0.4544782 0.57806,0.6041902 0.56908,1.5513132 -0.0203,2.1436533 -0.22483,0.225952 -0.48507,0.3652954 -0.79507,0.4257287 -0.1514,0.029515 -0.42172,0.032004 -0.56943,0.00524 z"
       id="path10" /></g></svg>
