<?xml version="1.0" encoding="UTF-8" standalone="no"?>
<!-- Created with Inkscape (http://www.inkscape.org/) -->

<svg
   width="7.2352171mm"
   height="7.2352014mm"
   viewBox="0 0 7.2352172 7.2352014"
   version="1.1"
   id="svg1"
   inkscape:version="1.3.2 (091e20e, 2023-11-25, custom)"
   sodipodi:docname="Exprtise Zoho Menu Webpage.svg"
   xml:space="preserve"
   xmlns:inkscape="http://www.inkscape.org/namespaces/inkscape"
   xmlns:sodipodi="http://sodipodi.sourceforge.net/DTD/sodipodi-0.dtd"
   xmlns="http://www.w3.org/2000/svg"
   xmlns:svg="http://www.w3.org/2000/svg"><sodipodi:namedview
     id="namedview1"
     pagecolor="#505050"
     bordercolor="#eeeeee"
     borderopacity="1"
     inkscape:showpageshadow="0"
     inkscape:pageopacity="0"
     inkscape:pagecheckerboard="0"
     inkscape:deskcolor="#d1d1d1"
     inkscape:document-units="mm"
     inkscape:zoom="1.0447106"
     inkscape:cx="646.59055"
     inkscape:cy="27.280282"
     inkscape:window-width="1920"
     inkscape:window-height="991"
     inkscape:window-x="-9"
     inkscape:window-y="-9"
     inkscape:window-maximized="1"
     inkscape:current-layer="layer1"
     showguides="true"><sodipodi:guide
       position="162.72013,304.23726"
       orientation="0,-1"
       id="guide15"
       inkscape:locked="false" /><sodipodi:guide
       position="52.891175,193.89367"
       orientation="1,0"
       id="guide126"
       inkscape:locked="false" /><sodipodi:guide
       position="-11.473334,212.15483"
       orientation="1,0"
       id="guide134"
       inkscape:locked="false" /><sodipodi:guide
       position="112.43856,196.20272"
       orientation="1,0"
       id="guide135"
       inkscape:locked="false" /><sodipodi:guide
       position="158.68163,268.13629"
       orientation="1,0"
       id="guide151"
       inkscape:locked="false" /><inkscape:page
       x="6.9139368e-08"
       y="-1.4032772e-05"
       width="7.2352171"
       height="7.2352009"
       id="page1"
       margin="0"
       bleed="0" /></sodipodi:namedview><defs
     id="defs1" /><g
     inkscape:label="Layer 1"
     inkscape:groupmode="layer"
     id="layer1"
     transform="translate(-274.73469,-168.20309)"><circle
       style="fill:#ffffff;stroke-width:0.0526406"
       id="circle1"
       cx="278.35229"
       cy="171.82069"
       r="3.6176021" /><path
       style="fill:#0078d4;fill-opacity:1;stroke-width:0.133223"
       d="m 276.65959,173.67582 c -0.15818,-0.0508 -0.23691,-0.22358 -0.17257,-0.37869 0.015,-0.0351 0.22159,-0.25035 0.7359,-0.76514 l 0.71567,-0.71633 -0.0218,-0.0742 c -0.0305,-0.10397 -0.0272,-0.2549 0.008,-0.34807 0.0553,-0.14807 0.25197,-0.28852 0.45078,-0.32205 0.1856,-0.0313 0.19614,-0.002 0.0702,0.19461 -0.0964,0.15089 -0.11583,0.20193 -0.10147,0.2671 0.0211,0.0965 0.17527,0.20526 0.29329,0.20704 0.0793,0.001 0.13592,-0.0321 0.18406,-0.10804 0.14788,-0.23311 0.16451,-0.25172 0.20347,-0.22715 0.0331,0.0208 0.0691,0.13847 0.0759,0.24804 0.0126,0.17954 -0.0431,0.33268 -0.15833,0.44559 -0.14459,0.14161 -0.28987,0.20286 -0.42269,0.1783 -0.0384,-0.007 -0.0962,-0.0246 -0.12829,-0.0388 l -0.0584,-0.0259 -0.71573,0.7145 c -0.39367,0.39297 -0.73275,0.72296 -0.75355,0.7333 -0.0578,0.0287 -0.1434,0.0354 -0.2041,0.0158 z m 0.1823,-0.2279 c 0.0843,-0.0943 -0.0398,-0.2207 -0.13951,-0.14221 -0.0252,0.0198 -0.0331,0.0372 -0.0331,0.0729 0,0.10485 0.10361,0.14649 0.17253,0.0693 z m 1.10736,0.10633 c -0.17777,-0.0533 -0.25653,-0.28948 -0.1419,-0.42562 0.0175,-0.0208 0.0364,-0.0576 0.0417,-0.0818 0.009,-0.0411 0.008,-0.0451 -0.0296,-0.0616 -0.0867,-0.0387 -0.0908,-0.0301 0.10336,-0.22476 l 0.18051,-0.18102 0.0704,0.0245 c 0.0388,0.0135 0.11557,0.0284 0.17082,0.0332 0.41792,0.0365 0.77697,-0.18747 0.92578,-0.57755 0.038,-0.0995 0.0397,-0.11161 0.04,-0.29204 4.1e-4,-0.17447 -10e-4,-0.19578 -0.0351,-0.29168 -0.0862,-0.25148 -0.29642,-0.46362 -0.54377,-0.54908 -0.12978,-0.0449 -0.27202,-0.0605 -0.39633,-0.0435 -0.21984,0.03 -0.36732,0.10366 -0.5243,0.26187 -0.11835,0.11917 -0.19273,0.24828 -0.23235,0.4028 -0.0261,0.10169 -0.0292,0.28027 -0.008,0.39344 l 0.017,0.086 -0.18032,0.18063 c -0.0991,0.0994 -0.18425,0.18064 -0.18904,0.18064 -0.005,0 -0.0113,-0.0111 -0.0166,-0.0246 -0.006,-0.02 -0.0152,-0.0233 -0.0478,-0.0171 -0.0219,0.004 -0.0515,0.0174 -0.0652,0.0295 -0.0812,0.071 -0.20934,0.0878 -0.30307,0.0398 -0.0938,-0.048 -0.15492,-0.14907 -0.15492,-0.25565 0,-0.0672 0.0604,-0.17345 0.12338,-0.21717 0.0473,-0.0329 0.0663,-0.038 0.14788,-0.04 0.0515,-0.001 0.10991,-0.006 0.12994,-0.0103 l 0.0364,-0.008 v -0.12385 -0.12384 l -0.0364,-0.008 c -0.02,-0.004 -0.0779,-0.009 -0.12875,-0.0103 -0.0773,-0.002 -0.10071,-0.008 -0.14399,-0.0365 -0.14892,-0.0986 -0.16782,-0.29767 -0.0405,-0.42504 0.10071,-0.10072 0.23364,-0.10983 0.35649,-0.0245 0.0959,0.0667 0.10588,0.0634 0.17425,-0.0583 0.0587,-0.10422 0.0597,-0.10786 0.0376,-0.13244 -0.0126,-0.0139 -0.0452,-0.0351 -0.0728,-0.0471 -0.10223,-0.0444 -0.16884,-0.14593 -0.16884,-0.25726 0,-0.29652 0.40693,-0.37413 0.52639,-0.10038 0.0126,0.0276 0.0334,0.0604 0.0471,0.0728 0.0245,0.022 0.0283,0.0209 0.13248,-0.0377 0.12174,-0.0684 0.12502,-0.0783 0.0583,-0.17424 -0.086,-0.12369 -0.0764,-0.25568 0.0261,-0.3581 0.068,-0.068 0.13757,-0.0931 0.22436,-0.0812 0.0759,0.0104 0.15796,0.0612 0.19907,0.12333 0.0287,0.0433 0.0345,0.0667 0.0365,0.14404 10e-4,0.0508 0.006,0.1089 0.0101,0.1291 l 0.008,0.0367 0.12376,-1.4e-4 0.12363,-1.3e-4 0.008,-0.0366 c 0.005,-0.0201 0.009,-0.0787 0.0101,-0.13009 10e-4,-0.0815 0.008,-0.10046 0.0399,-0.14788 0.0437,-0.063 0.14998,-0.12339 0.21716,-0.12339 0.24043,0 0.37209,0.27936 0.21589,0.45801 -0.0126,0.0138 -0.0251,0.042 -0.0287,0.0627 -0.006,0.0361 -0.003,0.0402 0.0998,0.0988 0.10424,0.0597 0.10739,0.0606 0.12994,0.0377 0.0135,-0.0129 0.0393,-0.0546 0.0589,-0.0925 0.0278,-0.0537 0.051,-0.0782 0.10424,-0.11065 0.0626,-0.038 0.0758,-0.0412 0.15144,-0.0373 0.0986,0.005 0.16734,0.0438 0.22025,0.12374 0.0399,0.0602 0.0525,0.161 0.0292,0.23195 -0.0201,0.0613 -0.10336,0.15113 -0.15578,0.16845 -0.0225,0.007 -0.0539,0.0272 -0.0694,0.0438 l -0.0285,0.0302 0.0611,0.10491 c 0.0599,0.103 0.0618,0.10476 0.1011,0.0966 0.022,-0.005 0.057,-0.0225 0.0778,-0.04 0.0457,-0.0386 0.14847,-0.0651 0.20481,-0.053 0.1123,0.0242 0.19892,0.10507 0.22383,0.20886 0.0288,0.12022 -0.0215,0.23645 -0.12979,0.29944 -0.0564,0.0329 -0.0764,0.0377 -0.14683,0.0356 -0.0448,-0.001 -0.0971,0.002 -0.11608,0.007 l -0.0345,0.01 v 0.12313 0.12312 l 0.0373,0.008 c 0.0205,0.004 0.0788,0.009 0.12964,0.0104 0.0773,0.002 0.10084,0.008 0.144,0.0365 0.17248,0.11424 0.15993,0.38187 -0.0223,0.47338 -0.0977,0.049 -0.20915,0.0401 -0.28859,-0.023 -0.0242,-0.0192 -0.0622,-0.0386 -0.0846,-0.043 -0.0393,-0.008 -0.0421,-0.006 -0.0781,0.0638 -0.0205,0.0395 -0.0471,0.0872 -0.0591,0.10588 -0.0213,0.0331 -0.0209,0.035 0.008,0.0659 0.0165,0.0175 0.0365,0.0318 0.0444,0.0318 0.008,0 0.0407,0.0173 0.0726,0.0385 0.16295,0.10794 0.1604,0.35011 -0.005,0.45947 -0.11872,0.0785 -0.29412,0.0409 -0.37437,-0.0803 -0.021,-0.032 -0.0384,-0.0646 -0.0384,-0.0726 0,-0.008 -0.015,-0.0279 -0.0319,-0.0444 -0.0308,-0.0289 -0.0329,-0.0292 -0.066,-0.008 -0.0188,0.0118 -0.0661,0.0395 -0.10538,0.0615 -0.067,0.0376 -0.0709,0.0424 -0.0642,0.0784 0.005,0.0211 0.017,0.0496 0.029,0.0634 0.094,0.10758 0.0871,0.28556 -0.015,0.37811 -0.0913,0.0828 -0.22527,0.0985 -0.32776,0.0384 -0.0329,-0.0194 -0.0754,-0.0584 -0.0941,-0.0868 -0.0287,-0.0433 -0.0345,-0.0667 -0.0365,-0.14404 -10e-4,-0.0508 -0.006,-0.1091 -0.0101,-0.12958 l -0.008,-0.0372 h -0.12313 -0.12301 l -0.009,0.0345 c -0.006,0.019 -0.009,0.0712 -0.008,0.11607 10e-4,0.0705 -0.003,0.0904 -0.0356,0.14686 -0.0632,0.10868 -0.19677,0.16293 -0.31422,0.1277 z"
       id="path10"
       sodipodi:nodetypes="ccscsssccscccssscssccssssscsccscscsscsssscccscscssssccccccssscccscccssssscccccccsccscsccsssccsscssssccccsccsscsccscscscsscccscsccccccccc" /><circle
       style="fill:none;stroke:#0078d4;stroke-width:0.152929;stroke-dasharray:none;stroke-opacity:1"
       id="circle16"
       cx="278.35229"
       cy="171.82069"
       r="3.248013" /></g></svg>
