<?xml version="1.0" encoding="UTF-8" standalone="no"?>
<!-- Created with Inkscape (http://www.inkscape.org/) -->

<svg
   width="7.2351847mm"
   height="7.2352014mm"
   viewBox="0 0 7.2351848 7.2352014"
   version="1.1"
   id="svg1"
   inkscape:version="1.3.2 (091e20e, 2023-11-25, custom)"
   sodipodi:docname="Exprtise Zoho Menu Webpage.svg"
   xml:space="preserve"
   xmlns:inkscape="http://www.inkscape.org/namespaces/inkscape"
   xmlns:sodipodi="http://sodipodi.sourceforge.net/DTD/sodipodi-0.dtd"
   xmlns="http://www.w3.org/2000/svg"
   xmlns:svg="http://www.w3.org/2000/svg"><sodipodi:namedview
     id="namedview1"
     pagecolor="#505050"
     bordercolor="#eeeeee"
     borderopacity="1"
     inkscape:showpageshadow="0"
     inkscape:pageopacity="0"
     inkscape:pagecheckerboard="0"
     inkscape:deskcolor="#d1d1d1"
     inkscape:document-units="mm"
     inkscape:zoom="1.0447106"
     inkscape:cx="646.59055"
     inkscape:cy="27.280282"
     inkscape:window-width="1920"
     inkscape:window-height="991"
     inkscape:window-x="-9"
     inkscape:window-y="-9"
     inkscape:window-maximized="1"
     inkscape:current-layer="layer1"
     showguides="true"><sodipodi:guide
       position="101.21036,304.23726"
       orientation="0,-1"
       id="guide15"
       inkscape:locked="false" /><sodipodi:guide
       position="-8.6186012,193.89367"
       orientation="1,0"
       id="guide126"
       inkscape:locked="false" /><sodipodi:guide
       position="-72.98311,212.15483"
       orientation="1,0"
       id="guide134"
       inkscape:locked="false" /><sodipodi:guide
       position="50.928789,196.20272"
       orientation="1,0"
       id="guide135"
       inkscape:locked="false" /><sodipodi:guide
       position="97.171859,268.13629"
       orientation="1,0"
       id="guide151"
       inkscape:locked="false" /><inkscape:page
       x="-6.3187035e-06"
       y="-1.4032772e-05"
       width="7.2351847"
       height="7.2352009"
       id="page1"
       margin="0"
       bleed="0" /></sodipodi:namedview><defs
     id="defs1" /><g
     inkscape:label="Layer 1"
     inkscape:groupmode="layer"
     id="layer1"
     transform="translate(-336.24446,-168.20309)"><circle
       style="fill:#ffffff;stroke-width:0.0526406"
       id="circle3"
       cx="339.86206"
       cy="171.82069"
       r="3.6176021" /><path
       style="fill:#0078d4;fill-opacity:1;stroke-width:0.0994054"
       d="m 338.71231,173.81619 c -0.11262,-0.0202 -0.19243,-0.0465 -0.29152,-0.0959 -0.26516,-0.13231 -0.45039,-0.36967 -0.52001,-0.66634 -0.0167,-0.0709 -0.0188,-0.0951 -0.019,-0.21206 -2.9e-4,-0.17437 0.0209,-0.27454 0.0893,-0.42051 0.0299,-0.0639 0.10863,-0.18726 0.13438,-0.21046 l 0.0154,-0.0139 0.0323,0.0323 0.0323,0.0323 -0.04,0.0529 c -0.0439,0.058 -0.10827,0.18359 -0.13124,0.25621 -0.04,0.12597 -0.0514,0.3114 -0.0266,0.43161 0.0643,0.31037 0.26294,0.55092 0.54976,0.66554 0.16396,0.0655 0.33262,0.08 0.51001,0.0436 0.0661,-0.0135 0.0682,-0.0135 0.0856,-6e-4 0.0209,0.0156 0.0263,0.0484 0.0109,0.0682 -0.0274,0.0355 -0.3067,0.0594 -0.43188,0.037 z m 1.15573,-0.15678 v -0.0813 l -0.0661,-0.0317 c -0.0362,-0.0174 -0.0799,-0.0434 -0.097,-0.0577 -0.017,-0.0143 -0.0373,-0.026 -0.0453,-0.026 -0.007,0 -0.0416,0.0161 -0.0749,0.0356 -0.0333,0.0196 -0.0632,0.0357 -0.0666,0.0357 -0.006,0 -0.0783,-0.12134 -0.0783,-0.13016 0,-0.002 0.0289,-0.0203 0.0643,-0.0407 0.0354,-0.0204 0.0672,-0.0426 0.0707,-0.0492 0.004,-0.008 0.004,-0.0331 -9.6e-4,-0.0665 -0.006,-0.0384 -0.006,-0.0687 -3.9e-4,-0.10327 0.004,-0.0269 0.005,-0.0554 0.002,-0.0632 -0.004,-0.008 -0.033,-0.0298 -0.0668,-0.0488 -0.0338,-0.0189 -0.0631,-0.0371 -0.065,-0.0404 -0.004,-0.005 0.0598,-0.12246 0.0712,-0.1341 9.6e-4,-9.5e-4 0.0302,0.0145 0.0645,0.0348 0.0343,0.0203 0.0698,0.037 0.0788,0.037 0.008,0 0.0302,-0.0111 0.0471,-0.0248 0.0338,-0.0273 0.0698,-0.0477 0.12195,-0.0694 0.0189,-0.008 0.0359,-0.019 0.0381,-0.0248 0.002,-0.006 0.005,-0.0436 0.005,-0.084 l 9.6e-4,-0.0734 0.0767,-0.002 0.0766,-0.002 v 0.072 c 0,0.0396 0.004,0.0782 0.007,0.0857 0.004,0.008 0.0319,0.0251 0.062,0.039 0.0301,0.0139 0.0725,0.0387 0.0942,0.055 0.0217,0.0164 0.0462,0.0292 0.0544,0.0286 0.008,-7e-4 0.0431,-0.0175 0.0777,-0.0374 0.0345,-0.0199 0.0636,-0.0352 0.0645,-0.0341 0.0156,0.0198 0.0743,0.1295 0.0716,0.13389 -0.002,0.003 -0.0312,0.0215 -0.0649,0.0404 -0.0337,0.0189 -0.0639,0.0394 -0.0673,0.0456 -0.004,0.007 -0.004,0.0357 0.002,0.0668 0.006,0.0404 0.006,0.0694 -1e-4,0.10665 -0.01,0.065 -0.007,0.0696 0.0724,0.1142 0.034,0.0191 0.0616,0.0362 0.0616,0.0383 0,0.009 -0.0735,0.13046 -0.0787,0.13046 -0.004,0 -0.0329,-0.0161 -0.0661,-0.0357 -0.0333,-0.0196 -0.0671,-0.0356 -0.0749,-0.0356 -0.007,0 -0.0283,0.0117 -0.0453,0.0261 -0.017,0.0144 -0.0605,0.04 -0.0967,0.057 -0.0758,0.0356 -0.0764,0.0366 -0.0723,0.13694 l 0.002,0.0582 -0.0802,-1e-5 -0.0802,-2e-5 z m 0.17671,-0.25385 c 0.0489,-0.0212 0.10295,-0.0796 0.12035,-0.1302 0.0472,-0.13783 -0.0346,-0.27804 -0.17771,-0.30424 -0.177,-0.0324 -0.32129,0.15206 -0.24817,0.31734 0.0161,0.0362 0.0661,0.0922 0.0963,0.10807 0.0659,0.0343 0.14297,0.0376 0.20918,0.009 z m -0.14462,-0.0746 c -0.0593,-0.0218 -0.10355,-0.0948 -0.0928,-0.15278 0.0144,-0.0771 0.0666,-0.12226 0.14119,-0.12226 0.14099,0 0.19575,0.1771 0.0799,0.25842 -0.0355,0.0249 -0.0875,0.0316 -0.12836,0.0166 z m 0.76692,-0.0874 c -0.0413,-0.008 -0.0569,-0.0522 -0.0285,-0.0807 0.0138,-0.0138 0.0239,-0.0143 0.34421,-0.0144 0.3283,-9e-5 0.33009,-2e-4 0.35775,-0.0161 0.0574,-0.0329 0.0542,0.004 0.0542,-0.61581 v -0.55016 l -0.0161,-0.0236 c -0.008,-0.013 -0.0251,-0.0303 -0.0361,-0.0385 -0.0201,-0.015 -0.0208,-0.015 -0.83782,-0.0169 -0.74584,-0.002 -0.81881,-0.003 -0.83059,-0.0136 -0.0169,-0.0152 -0.0168,-0.0537 3e-4,-0.0691 0.0122,-0.011 0.076,-0.0118 0.84359,-0.01 l 0.83043,0.002 0.0285,0.0153 c 0.0387,0.0209 0.0778,0.0613 0.0976,0.10133 l 0.0164,0.0331 v 0.57123 0.57123 l -0.0215,0.0421 c -0.0233,0.0453 -0.0694,0.0865 -0.11636,0.10341 -0.0202,0.008 -0.10162,0.01 -0.34724,0.011 -0.17659,7.9e-4 -0.32906,-4e-5 -0.33887,-0.002 z m -1.56779,-0.64889 c -0.0237,-0.0117 -0.066,-0.0545 -0.066,-0.0669 0,-0.004 0.0481,-0.007 0.12128,-0.007 0.0831,0 0.12128,0.003 0.12128,0.008 0,0.016 -0.0307,0.05 -0.0574,0.0637 -0.0336,0.0171 -0.0871,0.0182 -0.11926,0.002 z m -0.15851,-0.17548 c -0.0301,-0.0153 -0.064,-0.051 -0.0561,-0.0589 0.002,-0.002 0.12697,-0.003 0.27756,-0.002 l 0.27379,0.002 -0.0272,0.0302 c -0.0163,0.0181 -0.0377,0.0331 -0.0534,0.0374 -0.0144,0.004 -0.10597,0.008 -0.20469,0.008 -0.17121,3e-5 -0.17992,-6e-4 -0.21002,-0.016 z m -0.0715,-0.1944 v -0.0392 h 0.28538 0.28535 v 0.0392 0.0392 h -0.28535 -0.28538 z m -0.65978,-0.0606 c -0.0507,-0.0508 -0.0906,-0.0935 -0.0889,-0.0949 0.006,-0.005 0.24581,-0.0671 0.25001,-0.0649 0.005,0.003 -0.0565,0.23887 -0.064,0.24694 -0.004,0.003 -0.0463,-0.0364 -0.097,-0.0871 z m 0.65978,-0.11033 c 0,-0.12374 -0.0393,-0.32004 -0.0881,-0.43944 -0.0376,-0.0923 -0.0678,-0.144 -0.16648,-0.28548 -0.11261,-0.16142 -0.14455,-0.24109 -0.14485,-0.36068 -5e-4,-0.21129 0.10464,-0.421 0.2743,-0.54691 0.17351,-0.12878 0.3847,-0.16996 0.58998,-0.11501 0.26993,0.0722 0.47746,0.31353 0.50404,0.58605 0.0149,0.15261 -0.0109,0.25161 -0.0991,0.37729 -0.14886,0.21262 -0.1886,0.28329 -0.23086,0.41055 -0.0369,0.11106 -0.0489,0.1798 -0.0652,0.37148 l -0.004,0.0482 h -0.2848 -0.2848 z m 2.61946,-0.37002 c -0.0238,-0.0254 -0.019,-0.0431 0.0246,-0.092 0.20793,-0.23215 0.28209,-0.53019 0.20626,-0.82906 -0.0732,-0.28837 -0.29742,-0.52707 -0.58315,-0.62067 -0.13224,-0.0433 -0.28852,-0.0568 -0.41277,-0.0355 l -0.0254,0.005 -0.0124,-0.0444 c -0.007,-0.0245 -0.0109,-0.0455 -0.01,-0.0469 0.008,-0.008 0.11237,-0.0169 0.18712,-0.017 0.14458,-1.9e-4 0.27971,0.0291 0.40599,0.0882 0.36897,0.17242 0.58916,0.53354 0.57255,0.93898 -0.01,0.23696 -0.0974,0.45338 -0.25108,0.61932 -0.0528,0.0571 -0.0742,0.0644 -0.10198,0.0348 z m -3.54364,-0.60739 c -0.023,-0.023 -0.0225,-0.0489 9.6e-4,-0.0676 0.0169,-0.0132 0.0284,-0.0148 0.11104,-0.0148 0.0985,0 0.1166,0.005 0.12731,0.0329 0.008,0.0229 -0.007,0.0563 -0.0305,0.0624 -0.008,0.003 -0.0558,0.005 -0.10404,0.005 -0.0837,9e-5 -0.0885,-7e-4 -0.10524,-0.0174 z m 2.19783,4.9e-4 c -0.0234,-0.0235 -0.0233,-0.0492 7.9e-4,-0.0681 0.0168,-0.0132 0.0285,-0.0148 0.10875,-0.0147 0.10646,9e-5 0.12466,0.007 0.12777,0.0429 0.004,0.0483 -0.006,0.053 -0.11902,0.0556 -0.0992,0.002 -0.10053,0.002 -0.11829,-0.0157 z m -1.95516,-0.53665 c -0.10114,-0.0568 -0.11963,-0.0809 -0.0901,-0.11738 0.021,-0.026 0.047,-0.0201 0.13309,0.0303 0.0854,0.05 0.10392,0.0708 0.0886,0.1002 -0.0202,0.0383 -0.0443,0.0358 -0.13145,-0.0131 z m 1.81267,0.0241 c -0.0134,-0.0191 -0.0144,-0.0416 -0.002,-0.0571 0.01,-0.0123 0.15186,-0.0955 0.16943,-0.0991 0.0228,-0.005 0.0497,0.009 0.0541,0.0258 0.01,0.0381 -5.9e-4,0.0499 -0.0853,0.099 -0.0889,0.0516 -0.11733,0.0582 -0.13615,0.0312 z m 0.50839,-0.38332 c -0.0655,-0.0178 -0.12083,-0.0343 -0.12297,-0.0365 -0.002,-0.002 0.0361,-0.0456 0.0851,-0.0963 0.0659,-0.0684 0.0906,-0.0898 0.0952,-0.0827 0.008,0.0129 0.0672,0.2347 0.0642,0.24209 -9.4e-4,0.003 -0.0559,-0.009 -0.12145,-0.0266 z m -1.89413,0.0122 c -0.0239,-0.0265 -0.095,-0.15705 -0.095,-0.17455 0,-0.0347 0.0453,-0.0568 0.0735,-0.0359 0.0227,0.0168 0.0997,0.15726 0.10005,0.18275 8e-4,0.0422 -0.0495,0.0599 -0.0787,0.0277 z m 1.01547,0.003 c -0.0192,-0.0212 -0.014,-0.0427 0.0285,-0.11847 0.0489,-0.0871 0.0632,-0.10389 0.0888,-0.10389 0.0251,0 0.0517,0.0317 0.046,0.0547 -0.005,0.0177 -0.0785,0.14842 -0.0955,0.16825 -0.014,0.0165 -0.0528,0.0162 -0.0679,-5.9e-4 z m -0.50795,-0.13713 c -0.0121,-0.0128 -0.0132,-0.0275 -0.0137,-0.11334 -2.9e-4,-0.0873 9.4e-4,-0.10045 0.0132,-0.11379 0.0187,-0.0208 0.0569,-0.0203 0.0717,8e-4 0.008,0.0125 0.0109,0.0368 0.0109,0.11415 0,0.0888 -9.5e-4,0.0997 -0.0144,0.11255 -0.0185,0.0185 -0.0512,0.0183 -0.068,-4e-4 z"
       id="path12"
       sodipodi:nodetypes="cssccscccsccssscccccsssssssccccscssssccccccssssssccssccssssssssccccccssccccsssccsssssccsccsccsscccccssscssscccccccscscccccccccccscccssccssssscscccccccssccccscscccccsccccccsscccssscssccccsccsccccsscsscccssscsssccccsccc" /><circle
       style="fill:none;stroke:#0078d4;stroke-width:0.152929;stroke-dasharray:none;stroke-opacity:1"
       id="circle14"
       cx="339.86209"
       cy="171.82069"
       r="3.248013" /></g></svg>
