<?xml version="1.0" encoding="UTF-8" standalone="no"?>
<!-- Created with Inkscape (http://www.inkscape.org/) -->

<svg
   width="7.2351847mm"
   height="7.2352014mm"
   viewBox="0 0 7.2351848 7.2352014"
   version="1.1"
   id="svg1"
   inkscape:version="1.3.2 (091e20e, 2023-11-25, custom)"
   sodipodi:docname="Exprtise Zoho Menu Webpage.svg"
   xml:space="preserve"
   xmlns:inkscape="http://www.inkscape.org/namespaces/inkscape"
   xmlns:sodipodi="http://sodipodi.sourceforge.net/DTD/sodipodi-0.dtd"
   xmlns="http://www.w3.org/2000/svg"
   xmlns:svg="http://www.w3.org/2000/svg"><sodipodi:namedview
     id="namedview1"
     pagecolor="#505050"
     bordercolor="#eeeeee"
     borderopacity="1"
     inkscape:showpageshadow="0"
     inkscape:pageopacity="0"
     inkscape:pagecheckerboard="0"
     inkscape:deskcolor="#d1d1d1"
     inkscape:document-units="mm"
     inkscape:zoom="1.0447106"
     inkscape:cx="646.59055"
     inkscape:cy="27.280282"
     inkscape:window-width="1920"
     inkscape:window-height="991"
     inkscape:window-x="-9"
     inkscape:window-y="-9"
     inkscape:window-maximized="1"
     inkscape:current-layer="layer1"
     showguides="true"><sodipodi:guide
       position="131.90894,304.23726"
       orientation="0,-1"
       id="guide15"
       inkscape:locked="false" /><sodipodi:guide
       position="22.079984,193.89367"
       orientation="1,0"
       id="guide126"
       inkscape:locked="false" /><sodipodi:guide
       position="-42.284525,212.15483"
       orientation="1,0"
       id="guide134"
       inkscape:locked="false" /><sodipodi:guide
       position="81.627374,196.20272"
       orientation="1,0"
       id="guide135"
       inkscape:locked="false" /><sodipodi:guide
       position="127.87044,268.13629"
       orientation="1,0"
       id="guide151"
       inkscape:locked="false" /><inkscape:page
       x="-4.6500195e-06"
       y="-1.4032772e-05"
       width="7.2351847"
       height="7.2352009"
       id="page1"
       margin="0"
       bleed="0" /></sodipodi:namedview><defs
     id="defs1" /><g
     inkscape:label="Layer 1"
     inkscape:groupmode="layer"
     id="layer1"
     transform="translate(-305.54588,-168.20309)"><circle
       style="fill:#ffffff;stroke-width:0.0526406"
       id="circle2"
       cx="309.16348"
       cy="171.82069"
       r="3.6176021" /><path
       style="fill:#0078d4;fill-opacity:1;stroke-width:0.0353437"
       d="m 308.33591,174.12242 c -0.0895,-0.0408 -0.13747,-0.11241 -0.13747,-0.20524 0,-0.0889 0.0402,-0.15721 0.11974,-0.20386 l 0.0411,-0.0241 v -0.39041 c 0,-0.36636 9.7e-4,-0.39138 0.0171,-0.4059 0.0145,-0.0131 0.0414,-0.0155 0.17768,-0.0155 h 0.16058 v -0.0926 -0.0926 l -0.0881,-0.003 c -0.0974,-0.004 -0.12217,-0.0148 -0.16197,-0.0733 -0.0197,-0.029 -0.0211,-0.0406 -0.0211,-0.18637 v -0.15545 l -0.0556,-0.0145 -0.0556,-0.0145 -0.003,0.2049 c -0.004,0.26085 0.0136,0.24062 -0.20493,0.24062 h -0.15792 v 0.20937 c 0,0.2665 0.009,0.25225 -0.14296,0.25663 -0.10128,0.003 -0.10779,0.004 -0.11701,0.0246 -0.0162,0.0356 -0.0681,0.0892 -0.10385,0.10735 -0.11347,0.0575 -0.25209,0.009 -0.30592,-0.10631 -0.0515,-0.11058 -0.006,-0.24077 0.10263,-0.29719 0.0541,-0.0279 0.14624,-0.0282 0.1986,-7e-4 0.0404,0.0213 0.0919,0.0739 0.10888,0.11128 0.01,0.02 0.0161,0.0222 0.0694,0.0222 h 0.0594 v -0.2104 c 0,-0.19794 9.6e-4,-0.21152 0.0188,-0.22911 0.0172,-0.0172 0.0312,-0.0187 0.17768,-0.0187 h 0.15897 v -0.19563 -0.19563 l -0.0544,-0.0545 c -0.16656,-0.16689 -0.20642,-0.41034 -0.10263,-0.62714 0.0429,-0.0896 0.15715,-0.20389 0.24613,-0.24622 l 0.0656,-0.0312 0.0151,-0.0771 c 0.01,-0.0463 0.031,-0.10979 0.0547,-0.15907 0.0556,-0.11484 0.16632,-0.22623 0.28037,-0.28207 0.10711,-0.0524 0.17085,-0.0671 0.2908,-0.0671 0.16712,0 0.30991,0.0547 0.42769,0.1637 l 0.0548,0.0507 0.0459,-0.0173 c 0.1875,-0.0707 0.40614,0.0181 0.49093,0.19924 0.0288,0.0617 0.0505,0.16357 0.042,0.19744 -0.004,0.0156 0.005,0.0252 0.0449,0.0492 0.0273,0.0164 0.0757,0.0575 0.10735,0.0913 0.20175,0.21568 0.19969,0.54021 -0.005,0.75131 l -0.0501,0.0518 v 0.19919 0.19918 h 0.1622 c 0.15295,0 0.16321,0.001 0.18001,0.0197 0.0162,0.0179 0.018,0.0387 0.0208,0.22911 l 0.003,0.20945 h 0.0545 0.0546 l 0.0248,-0.0425 c 0.0609,-0.10386 0.18957,-0.14254 0.29439,-0.0885 0.0771,0.0397 0.122,0.11389 0.122,0.20109 0,0.22983 -0.30044,0.31049 -0.41682,0.1119 l -0.0244,-0.0418 h -0.0931 c -0.0966,0 -0.14018,-0.0122 -0.15181,-0.0425 -0.003,-0.008 -0.006,-0.10737 -0.006,-0.2201 v -0.20496 h -0.15304 c -0.14066,0 -0.15502,-0.001 -0.17768,-0.0194 l -0.0246,-0.0194 v -0.20615 -0.20614 l -0.0211,0.006 c -0.0116,0.003 -0.041,0.0108 -0.0654,0.0167 l -0.0444,0.0107 v 0.15599 c 0,0.14636 -9.6e-4,0.15789 -0.0211,0.1869 -0.0393,0.0577 -0.065,0.0697 -0.1573,0.0733 l -0.0835,0.003 v 0.0926 0.0926 h 0.16221 c 0.15299,0 0.1632,0.001 0.18,0.0197 0.0168,0.0186 0.0179,0.0413 0.0204,0.40948 l 0.003,0.38982 0.0329,0.0177 c 0.0871,0.0469 0.13574,0.14897 0.11609,0.24357 -0.0361,0.17353 -0.24858,0.2403 -0.3772,0.11849 -0.0676,-0.064 -0.0882,-0.17977 -0.0463,-0.25959 0.022,-0.0419 0.0829,-0.10146 0.11385,-0.11125 0.0196,-0.006 0.0196,-0.008 0.0196,-0.35164 v -0.34537 h -0.15732 c -0.20762,0 -0.19802,0.009 -0.19802,-0.18061 v -0.13733 h -0.12625 -0.12624 v 0.42927 0.42927 l 0.0424,0.0249 c 0.10383,0.0609 0.1424,0.18908 0.0886,0.29452 -0.0682,0.13382 -0.24694,0.16559 -0.354,0.063 -0.11123,-0.10661 -0.0913,-0.28038 0.0409,-0.35789 l 0.0418,-0.0245 v -0.42928 -0.42927 h -0.12624 -0.12624 v 0.13991 c 0,0.18788 0.011,0.17804 -0.19815,0.17804 h -0.1572 v 0.34486 0.34487 l 0.0273,0.0113 c 0.0357,0.0148 0.0886,0.0682 0.11,0.11112 0.0244,0.049 0.0223,0.1438 -0.004,0.19443 -0.0547,0.1046 -0.18604,0.15367 -0.28744,0.10745 z m 0.12744,-0.1281 c 0.033,-0.0171 0.0553,-0.0632 0.0483,-0.10001 -0.006,-0.0321 -0.0525,-0.0724 -0.0833,-0.0724 -0.0304,0 -0.0753,0.0237 -0.0874,0.0462 -0.0235,0.0438 -0.002,0.10857 0.0417,0.12773 0.0369,0.0161 0.0471,0.0159 0.0809,-0.002 z m 1.4952,5.2e-4 c 0.0338,-0.0174 0.0466,-0.0403 0.0466,-0.0829 0,-0.0464 -0.0317,-0.0804 -0.0814,-0.0871 -0.0348,-0.005 -0.0425,-0.002 -0.0678,0.0232 -0.0458,0.0458 -0.0379,0.11694 0.0162,0.14629 0.0328,0.0178 0.0527,0.0179 0.0865,5.2e-4 z m -0.72888,-0.16283 c 0.0493,-0.0493 0.0318,-0.13204 -0.0315,-0.14844 -0.041,-0.0106 -0.0673,-0.004 -0.0951,0.0238 -0.0539,0.0538 -0.0115,0.15198 0.0652,0.15198 0.0253,0 0.0414,-0.007 0.0615,-0.0273 z m -1.66811,-0.67788 c 0.0217,-0.0187 0.0262,-0.03 0.0262,-0.0663 0,-0.0363 -0.004,-0.0475 -0.0262,-0.0663 -0.0491,-0.0422 -0.12222,-0.0257 -0.14654,0.033 -0.0363,0.0877 0.0735,0.16232 0.14654,0.0996 z m 3.34201,-0.005 c 0.0203,-0.0202 0.0273,-0.0362 0.0273,-0.0615 0,-0.0484 -0.0414,-0.0888 -0.0907,-0.0888 -0.0452,0 -0.0732,0.0192 -0.0866,0.0595 -0.0302,0.0917 0.0814,0.15939 0.14991,0.0909 z m -1.15316,-0.94287 0.003,-0.34834 h -0.29728 c -0.25065,0 -0.30045,-0.002 -0.31754,-0.0142 -0.0112,-0.008 -0.0405,-0.0499 -0.0652,-0.0936 l -0.0449,-0.0794 -0.22443,0.002 -0.22444,0.002 -0.003,0.43016 c -0.002,0.23659 -3.4e-4,0.43546 0.002,0.44193 0.004,0.009 0.12595,0.0112 0.58689,0.009 l 0.58239,-0.002 z m -1.30697,-0.3189 c 0,-0.23597 5.2e-4,-0.24251 0.0213,-0.27331 0.0117,-0.0173 0.0355,-0.0411 0.0528,-0.0528 0.0311,-0.0209 0.0361,-0.0213 0.3044,-0.0213 0.31606,0 0.28241,-0.011 0.35063,0.11456 l 0.0394,0.0725 h 0.28485 c 0.3176,0 0.32062,5.2e-4 0.36312,0.0631 0.023,0.0337 0.0236,0.0395 0.0236,0.18809 v 0.1533 l 0.0303,-0.006 c 0.14051,-0.0277 0.27043,-0.17416 0.29757,-0.33545 0.028,-0.16618 -0.071,-0.3567 -0.22242,-0.42812 -0.0828,-0.0391 -0.0873,-0.0467 -0.0806,-0.13942 0.005,-0.0704 0.003,-0.0868 -0.0145,-0.12663 -0.0314,-0.071 -0.0613,-0.10356 -0.12392,-0.13485 -0.0474,-0.0237 -0.069,-0.0289 -0.12102,-0.0289 -0.0542,0 -0.0724,0.005 -0.12607,0.0327 -0.0344,0.018 -0.0687,0.0327 -0.0757,0.0327 -0.008,0 -0.0478,-0.0353 -0.0906,-0.0784 -0.11222,-0.11323 -0.22818,-0.16477 -0.37075,-0.16477 -0.26177,0 -0.47967,0.20126 -0.50185,0.4635 -0.008,0.0797 -0.0188,0.0957 -0.091,0.11959 -0.18573,0.0616 -0.30984,0.26421 -0.27718,0.45246 0.0136,0.0781 0.037,0.13222 0.0841,0.19464 0.0381,0.0504 0.11631,0.10842 0.17575,0.13025 0.0727,0.0267 0.0678,0.0429 0.0678,-0.22755 z m -1.56551,-0.0379 c -0.0141,-0.0157 -0.0158,-0.0371 -0.0132,-0.18074 0.003,-0.15997 0.003,-0.16367 0.0287,-0.20189 0.0383,-0.0579 0.0868,-0.0858 0.16753,-0.0965 0.16527,-0.022 0.22758,-0.0467 0.30378,-0.12025 0.0886,-0.0856 0.13412,-0.1916 0.13412,-0.31256 0,-0.1116 -0.0373,-0.20791 -0.11239,-0.29002 -0.054,-0.059 -0.0693,-0.0952 -0.0697,-0.16424 -1.7e-4,-0.0494 0.004,-0.0687 0.0246,-0.10286 0.0358,-0.0606 0.37004,-0.38873 0.41547,-0.40796 0.0477,-0.0202 0.13215,-0.0195 0.173,0.002 0.0175,0.009 0.0529,0.034 0.0786,0.0555 0.0802,0.067 0.14821,0.098 0.24569,0.11176 0.0628,0.009 0.15891,-0.0104 0.23123,-0.0462 0.14553,-0.0722 0.22203,-0.188 0.23846,-0.36095 0.01,-0.0931 0.0307,-0.14325 0.0798,-0.18376 0.0547,-0.0451 0.0831,-0.049 0.35977,-0.049 0.27659,0 0.30505,0.004 0.35978,0.049 0.0492,0.0405 0.0708,0.0906 0.0798,0.18376 0.0166,0.17543 0.0984,0.29632 0.24782,0.36661 0.0648,0.0305 0.16426,0.0487 0.22187,0.0405 0.0974,-0.0138 0.16551,-0.0447 0.24569,-0.11176 0.0257,-0.0215 0.0611,-0.0465 0.0786,-0.0555 0.0412,-0.0212 0.1253,-0.0217 0.17387,-0.001 0.0441,0.0187 0.39471,0.36525 0.42177,0.41695 0.0234,0.0446 0.0233,0.14269 -1.8e-4,0.18702 -0.01,0.018 -0.0329,0.0498 -0.0521,0.0707 -0.075,0.0821 -0.11236,0.17841 -0.11236,0.29001 0,0.12097 0.0455,0.227 0.1341,0.31256 0.0762,0.0736 0.13852,0.0982 0.30378,0.12025 0.0808,0.0108 0.12918,0.0387 0.16752,0.0965 0.0253,0.0382 0.0258,0.0419 0.0287,0.2019 0.003,0.14363 9.6e-4,0.16507 -0.0132,0.18074 -0.0154,0.017 -0.0361,0.0178 -0.48199,0.0178 h -0.46591 l -0.0133,-0.021 c -0.008,-0.0117 -0.0161,-0.0604 -0.0197,-0.10988 -0.0218,-0.30205 -0.1207,-0.55011 -0.30954,-0.77688 -0.19211,-0.23072 -0.48735,-0.39652 -0.792,-0.44477 -0.11532,-0.0183 -0.36806,-0.013 -0.46973,0.01 -0.28718,0.0644 -0.55105,0.22164 -0.72761,0.43367 -0.19,0.22816 -0.2887,0.47547 -0.31063,0.77819 -0.004,0.0495 -0.0123,0.0982 -0.0196,0.10988 l -0.0133,0.021 h -0.4659 c -0.44597,0 -0.4666,-7e-4 -0.48199,-0.0178 z m 0.85415,-0.20899 c 0.0294,-0.24204 0.11988,-0.47674 0.26064,-0.67519 0.11785,-0.16615 0.33625,-0.35381 0.51932,-0.44622 0.3015,-0.1522 0.66052,-0.19418 0.98617,-0.11533 0.59865,0.14496 1.03837,0.65188 1.10116,1.26947 l 0.006,0.0631 h 0.36361 0.36362 v -0.0939 c 0,-0.0873 -0.002,-0.0956 -0.023,-0.11689 -0.0168,-0.0169 -0.033,-0.023 -0.0612,-0.023 -0.056,0 -0.16924,-0.0253 -0.22622,-0.0506 -0.2286,-0.10148 -0.36668,-0.36312 -0.32225,-0.61065 0.0171,-0.0954 0.0645,-0.19489 0.12727,-0.26761 0.038,-0.0441 0.0472,-0.0611 0.0472,-0.0888 0,-0.032 -0.0118,-0.0461 -0.17994,-0.21432 -0.21248,-0.21269 -0.20224,-0.20835 -0.30233,-0.12826 -0.18939,0.15152 -0.40366,0.17551 -0.61911,0.0693 -0.1266,-0.0624 -0.22944,-0.18002 -0.27817,-0.31815 -0.008,-0.0217 -0.0181,-0.0764 -0.0232,-0.12156 -0.0115,-0.10113 -0.0144,-0.10893 -0.0473,-0.12598 -0.0388,-0.02 -0.48365,-0.02 -0.52234,0 -0.0329,0.0171 -0.0359,0.0248 -0.0473,0.12598 -0.005,0.0451 -0.0155,0.0998 -0.0232,0.12156 -0.0488,0.13813 -0.15156,0.25575 -0.27816,0.31815 -0.21545,0.1062 -0.42972,0.0822 -0.61911,-0.0693 -0.10014,-0.0801 -0.0899,-0.0844 -0.30234,0.12826 -0.16808,0.16824 -0.17993,0.18235 -0.17993,0.21432 0,0.0276 0.01,0.0447 0.0471,0.0888 0.0874,0.1012 0.13472,0.22915 0.13418,0.36312 -9.6e-4,0.22095 -0.12633,0.4194 -0.32419,0.51294 -0.0546,0.0258 -0.17289,0.0528 -0.2312,0.0528 -0.0282,0 -0.0444,0.006 -0.0612,0.023 -0.0214,0.0213 -0.023,0.0296 -0.023,0.11689 v 0.0939 h 0.36324 0.36326 z"
       id="path11" /><circle
       style="fill:none;stroke:#0078d4;stroke-width:0.152929;stroke-dasharray:none;stroke-opacity:1"
       id="circle15"
       cx="309.16348"
       cy="171.82069"
       r="3.248013" /></g></svg>
