<?xml version="1.0" encoding="UTF-8" standalone="no"?>
<!-- Created with Inkscape (http://www.inkscape.org/) -->

<svg
   version="1.1"
   id="svg1"
   width="892.89722"
   height="194.85178"
   viewBox="0 0 892.89722 194.85178"
   sodipodi:docname="new KAEC-Logo.svg"
   inkscape:version="1.3.2 (091e20e, 2023-11-25, custom)"
   xml:space="preserve"
   xmlns:inkscape="http://www.inkscape.org/namespaces/inkscape"
   xmlns:sodipodi="http://sodipodi.sourceforge.net/DTD/sodipodi-0.dtd"
   xmlns:xlink="http://www.w3.org/1999/xlink"
   xmlns="http://www.w3.org/2000/svg"
   xmlns:svg="http://www.w3.org/2000/svg"><defs
     id="defs1"><linearGradient
       id="a"
       gradientTransform="matrix(0,-44.88966,-44.88966,0,64.32,85.382)"
       gradientUnits="userSpaceOnUse"
       x2="1"><stop
         offset="0"
         stop-color="#007348"
         id="stop1-6" /><stop
         offset=".6"
         stop-color="#8dc9ab"
         id="stop2-9" /><stop
         offset="1"
         stop-color="#00925b"
         id="stop3-9" /></linearGradient><linearGradient
       id="b"
       gradientTransform="matrix(0,-50.44363,-50.44363,0,64.253,94.9)"
       gradientUnits="userSpaceOnUse"
       x2="1"><stop
         offset="0"
         stop-color="#00925b"
         id="stop4-3" /><stop
         offset=".3"
         stop-color="#8dc9ab"
         id="stop5-9" /><stop
         offset=".55"
         stop-color="#00925b"
         id="stop6-0" /><stop
         offset=".835"
         stop-color="#007348"
         id="stop7-0" /><stop
         offset="1"
         stop-color="#009c6d"
         id="stop8-8" /></linearGradient><linearGradient
       id="d"
       gradientTransform="matrix(0,32.643,32.643,0,72.333,47.242)"
       gradientUnits="userSpaceOnUse"
       x2="1"
       xlink:href="#c" /><linearGradient
       id="c"><stop
         offset="0"
         stop-color="#00a678"
         id="stop9-6" /><stop
         offset="1"
         stop-color="#00925b"
         id="stop10-5" /></linearGradient><linearGradient
       id="e"
       gradientTransform="matrix(0,32.65286,32.65286,0,52.08,47.24)"
       gradientUnits="userSpaceOnUse"
       x2="1"
       xlink:href="#c" /><linearGradient
       id="f"
       gradientTransform="matrix(0,32.6314,32.6314,0,58.389,47.247)"
       gradientUnits="userSpaceOnUse"
       x2="1"
       xlink:href="#c" /><linearGradient
       id="g"
       gradientTransform="matrix(0,32.64264,32.64264,0,63.843,47.243)"
       gradientUnits="userSpaceOnUse"
       x2="1"
       xlink:href="#c" /></defs><sodipodi:namedview
     id="namedview1"
     pagecolor="#505050"
     bordercolor="#eeeeee"
     borderopacity="1"
     inkscape:showpageshadow="0"
     inkscape:pageopacity="0"
     inkscape:pagecheckerboard="0"
     inkscape:deskcolor="#d1d1d1"
     showgrid="false"
     showguides="true"
     inkscape:zoom="0.37112088"
     inkscape:cx="1731.2419"
     inkscape:cy="-467.50267"
     inkscape:window-width="1920"
     inkscape:window-height="991"
     inkscape:window-x="-9"
     inkscape:window-y="-9"
     inkscape:window-maximized="1"
     inkscape:current-layer="g1"><sodipodi:guide
       position="-2248.7888,201.88428"
       orientation="0,-1"
       id="guide7"
       inkscape:locked="false" /><sodipodi:guide
       position="-2453.6115,5.635555"
       orientation="0,-1"
       id="guide8"
       inkscape:locked="false" /></sodipodi:namedview><g
     inkscape:groupmode="layer"
     inkscape:label="Image"
     id="g1"
     transform="translate(-3643.4885,-3.7422709)"><g
       transform="matrix(4.6596304,0,0,-4.6596304,3442.8542,396.72152)"
       id="g59"
       inkscape:export-filename="g59.png"
       inkscape:export-xdpi="300"
       inkscape:export-ydpi="300"><path
         d="M 43.058,42.52 H 85.582 V 84.337 H 43.058 Z"
         fill="url(#a)"
         id="path44-4"
         style="fill:url(#a)" /><path
         d="m 46.38,83.588 c -0.825,0 -1.364,-0.696 -1.492,-1.672 -0.128,-0.976 -1.062,-5.582 -1.062,-17.435 0,-11.859 1.062,-19.618 1.062,-19.618 0.098,-0.938 0.667,-1.671 1.492,-1.671 h 36.807 c 0.822,0 1.476,0.652 1.49,1.671 0.014,1.019 -0.409,9.088 -0.409,17.964 0,8.877 0.409,19.089 0.409,19.089 0.02,0.908 -0.668,1.672 -1.49,1.672 z"
         fill="url(#b)"
         id="path45-2"
         style="fill:url(#b)" /><path
         d="m 67.051,79.322 c 1.161,-0.487 5.827,-3.01 6.399,-3.816 -2.348,-0.31 -6.953,-1.509 -9.433,-2.716 l -0.145,-0.292 c 2.735,0.602 6.558,0.917 9.194,1.06 -0.984,-1.444 -1.636,-2.132 -3.133,-3.766 l -0.139,-0.317 c 2.853,1.714 3.656,1.837 6.286,3.377 0.993,-1.469 1.232,-4.854 1.27,-7.537 0.856,1.702 1.895,8.114 1.463,9.273 1.744,1.197 1.98,2.161 1.98,2.161 -1.599,-0.138 -2.481,-0.165 -3.343,-0.437 -2.043,1.253 -6.728,2.906 -10.264,3.306 z"
         fill="url(#d)"
         id="path46-1"
         style="fill:url(#d)" /><path
         d="M 49.631,59.396 C 49.4,57.26 49.307,55.732 49.613,54.023 48.748,53.784 47.99,53.75 47.293,53.453 L 47.16,53.16 c 1.109,-0.684 2.012,-1.208 3.266,-1.793 0.671,-1.441 1.364,-2.413 2.488,-3.523 l 0.137,0.297 c -0.202,0.819 -0.464,1.496 -0.365,2.391 1.394,-0.406 2.59,-0.621 4.179,-0.669 l 0.134,0.297 c -1.397,0.542 -2.793,0.969 -3.923,2.035 0.355,0.988 0.762,1.763 1.426,2.743 l 0.14,0.3 c -1.2,-0.181 -2.288,-0.62 -3.326,-0.822 -0.818,1.438 -1.136,3.405 -1.548,5.279 z"
         fill="url(#e)"
         id="path47-0"
         style="fill:url(#e)" /><path
         d="m 56.751,69.145 c 0,0 -0.898,0.086 -2.384,0.041 -1.256,-0.058 -3.129,-0.17 -4.04,-0.438 l -0.133,-0.292 c 1.448,-0.062 3.432,-0.451 4.191,-1.213 0.759,-0.762 -2.198,-1.983 -4.377,-6.323 -2.179,-4.34 3.95,3.706 5.662,4.625 1.712,0.919 0.896,-2.984 1.518,-4.478 l 0.137,0.298 c 0.172,0.96 0.601,3.564 1.329,5.157 0.728,1.593 0.258,0.157 1.521,0.28 1.266,0.113 3.056,0.18 6.455,-0.417 l 0.138,0.292 c -0.776,0.458 -3.869,1.784 -7.143,2.225 h 0.107 c 0.449,1.322 1.011,2.319 1.011,2.319 -0.694,-0.098 -2.67,-1.022 -3.992,-2.076"
         fill="url(#f)"
         id="path48-2"
         style="fill:url(#f)" /><path
         d="M 65.025,50.836 A 40.07,40.07 0 0 0 64.91,52.56 32.87,32.87 0 0 0 62.878,50.044 C 62.077,49.821 61.161,49.83 60.326,49.839 A 22.6,22.6 0 0 1 59.384,49.837 L 59.249,49.54 c 0.777,-0.4 1.54,-0.646 2.354,-0.813 -0.66,-0.601 -1.542,-1.058 -2.162,-1.477 l -0.136,-0.292 c 1.328,0.314 3.077,0.878 4.38,1.647 0.678,-0.03 1.311,0.015 1.776,0.107 0.465,0.092 0.139,0.303 0.139,0.296 -0.085,0.3 -0.352,0.483 -0.43,0.903 1.221,0.948 2.106,1.812 3.127,2.839 l 0.142,0.298 C 67.43,52.352 66.205,51.395 65.025,50.836"
         fill="url(#g)"
         id="path57-6"
         style="fill:url(#g)" /><path
         d="m 76.215,73.152 c -2.624,-1.543 -3.428,-1.673 -6.282,-3.381 1.662,1.803 2.24,2.571 3.268,4.08 -2.631,-0.14 -6.454,-0.456 -9.184,-1.061 2.376,1.269 7.087,2.68 9.574,3.016 -0.577,0.796 -5.244,3.324 -6.405,3.811 3.695,-0.287 8.211,-1.668 10.401,-3.007 0.861,0.269 1.757,0.282 3.36,0.425 -0.408,-0.701 -0.426,-1.107 -1.999,-2.15 0.436,-1.165 -0.605,-7.574 -1.465,-9.271 -0.031,2.681 -0.265,6.067 -1.268,7.538 M 56.999,50.16 c -1.508,0.559 -2.594,1.21 -3.79,2.328 0.358,0.988 0.767,1.76 1.433,2.75 a 78.468,78.468 0 0 1 -3.186,-0.521 c -0.86,1.504 -1.25,2.957 -1.688,4.978 -0.234,-2.142 -0.323,-3.672 -0.021,-5.377 -0.97,-0.27 -1.656,-0.505 -2.454,-0.864 1.118,-0.684 2.02,-1.211 3.269,-1.793 0.67,-1.44 1.364,-2.411 2.49,-3.52 -0.264,0.945 -0.334,1.696 -0.226,2.687 1.395,-0.406 2.589,-0.62 4.173,-0.668 m 3.926,21.315 c -0.47,-0.61 -1.015,-1.746 -1.162,-2.274 3.887,-0.528 7.006,-2.524 7.006,-2.524 -3.4,0.603 -5.19,0.528 -6.458,0.414 -1.26,-0.118 -1.52,-0.266 -1.52,-0.266 -0.916,-2.01 -1.466,-5.46 -1.466,-5.46 -0.618,1.491 -1.512,4.477 -1.512,4.477 -1.715,-0.916 -5.66,-4.627 -5.66,-4.627 2.169,4.343 4.37,6.32 4.37,6.32 -0.757,0.767 -2.743,1.15 -4.196,1.214 0.754,0.308 2.689,0.668 4.175,0.736 1.488,0.043 2.388,-0.042 2.388,-0.042 1.327,1.048 3.34,1.93 4.035,2.033 m 4.123,-18.623 a 32.128,32.128 0 0 0 -2.037,-2.513 12.514,12.514 0 0 0 -3.627,-0.503 9.017,9.017 0 0 1 2.358,-0.817 16.44,16.44 0 0 0 -2.3,-1.77 c 1.329,0.315 3.076,0.879 4.377,1.648 0.68,-0.026 1.315,0.018 1.78,0.11 -0.121,0.394 -0.195,0.688 -0.294,1.2 1.225,0.949 2.114,1.808 3.134,2.84 a 21.112,21.112 0 0 0 -3.277,-1.915 33.166,33.166 0 0 0 -0.114,1.72"
         fill="#ffffff"
         id="path58-6" /><path
         d="m 101.094,68.309 c 2.603,-0.022 3.556,-0.551 3.556,-1.968 0,-0.391 -0.12,-0.738 -0.35,-1.003 -0.499,-0.6 -1.47,-0.91 -2.708,-0.832 h -0.064 l -0.727,-1.894 h 0.727 c 1.437,0.04 2.686,-0.412 3.328,-1.196 0.296,-0.357 0.445,-0.787 0.445,-1.225 0,-1.482 -1.305,-2.247 -3.879,-2.247 -0.433,0 -1.138,0 -1.576,0.014 a 189.78,189.78 0 0 0 -0.107,5.46 c 0,0.934 0.061,3.014 0.107,4.79 0.297,0.062 0.79,0.1 1.248,0.1 m -4.82,1.363 c 0.08,-1.405 0.161,-4.957 0.161,-6.252 0,-1.194 0,-5.19 -0.21,-6.913 l -0.013,-0.135 h 6.243 c 3.07,0 6.314,0.954 6.314,3.68 0,1.705 -1.235,2.966 -3.545,3.656 1.714,0.46 2.855,1.63 2.855,2.97 0,2.225 -2.555,3.062 -4.957,3.12 h -6.885 z m 26.904,0.126 h -3.038 l 0.123,-3.386 c 0.06,-1.673 0.116,-3.394 0.234,-5.065 -0.196,0.524 -0.379,0.793 -1.303,2.137 -0.003,0.047 -3.16,4.904 -4.257,6.283 l -0.03,0.031 h -3.526 v -0.126 c 0.112,-1.405 0.157,-4.958 0.157,-6.253 0,-1.194 0,-5.189 -0.168,-6.912 l -0.03,-0.136 h 3.141 v 0.136 c -0.179,3.277 -0.179,6.584 -0.179,9.792 0.11,-0.389 0.248,-0.723 0.743,-1.456 0.041,-0.087 5.452,-7.964 5.715,-8.415 l 0.027,-0.057 h 2.517 l -0.004,0.136 c -0.192,1.723 -0.208,5.718 -0.208,6.912 0,1.295 0.086,4.848 0.168,6.253 l 0.04,0.126 z m 8.24,-1.62 c 1.75,0.032 2.973,-0.322 3.554,-1.057 0.266,-0.316 0.413,-0.733 0.413,-1.211 0,-1.943 -2.186,-2.365 -4.013,-2.365 l -0.742,0.042 -0.305,0.03 c -0.013,0.45 -0.013,1.042 -0.013,1.706 0,0.845 0,1.848 0.039,2.777 a 8.25,8.25 0 0 0 1.067,0.078 m -4.607,1.494 c 0.123,-1.405 0.17,-4.957 0.17,-6.253 0,-1.193 0,-5.19 -0.184,-6.912 V 56.37 h 3.737 l -0.016,0.136 c -0.128,1.24 -0.193,3.604 -0.206,5.41 l 0.706,-0.035 0.528,-0.011 c 4.916,0 7.307,1.3 7.307,4.039 0,3.115 -3.354,3.83 -6.15,3.888 h -5.892 z m 23.776,-1.494 c 1.755,0.032 2.976,-0.322 3.564,-1.057 0.27,-0.316 0.405,-0.733 0.405,-1.211 0,-1.943 -2.183,-2.365 -3.987,-2.365 l -0.74,0.042 c 0,0 -0.196,0.017 -0.31,0.03 -0.02,0.45 -0.02,1.045 -0.02,1.706 0,0.853 0,1.848 0.034,2.777 0.234,0.034 0.638,0.078 1.054,0.078 m -4.6,1.494 c 0.118,-1.405 0.186,-4.957 0.186,-6.253 0,-1.193 -0.012,-5.19 -0.206,-6.912 V 56.37 h 3.74 l -0.022,0.136 c -0.119,1.24 -0.187,3.604 -0.187,5.41 0.174,-0.008 0.673,-0.035 0.673,-0.035 l 0.542,-0.011 c 4.914,0 7.326,1.3 7.326,4.039 0,3.115 -3.373,3.83 -6.18,3.888 h -5.872 z m 17.96,-3.828 c 0.297,-0.64 1.069,-2.425 1.937,-4.555 -0.134,-0.006 -0.302,-0.006 -0.302,-0.006 l -1.635,-0.022 c 0,0 -1.692,0.022 -1.975,0.028 0.706,1.703 1.405,3.242 1.975,4.555 m -0.909,3.954 h -0.049 l -0.026,-0.067 c -0.696,-1.911 -5.179,-11.694 -5.889,-13.192 l -0.059,-0.168 h 3.183 l 0.027,0.074 c 0.28,0.921 0.657,1.959 1.067,3.067 0.127,0 2.655,0.038 2.655,0.038 l 2.199,-0.016 c 0,0 0.354,-0.022 0.46,-0.022 0.566,-1.443 1.001,-2.531 1.19,-3.084 l 0.036,-0.057 h 3.689 l -5.959,13.427 h -0.074 z m 9.982,-0.126 c 0.107,-1.405 0.161,-4.958 0.161,-6.253 0,-1.194 0,-5.189 -0.204,-6.912 V 56.37 h 3.76 l -0.016,0.136 c -0.199,1.735 -0.213,5.718 -0.213,6.912 0,0.933 0.03,3.013 0.122,4.695 0.286,0.02 0.72,0.064 1.014,0.064 1.74,0.032 2.97,-0.327 3.544,-1.057 0.276,-0.317 0.4,-0.743 0.4,-1.21 0,-1.552 -1.447,-2.338 -2.796,-2.408 -0.452,-0.019 -0.788,0.04 -0.788,0.04 l -0.262,0.044 0.144,-0.246 c 1.335,-1.947 3.331,-5.318 4.156,-6.913 l 0.023,-0.057 h 4.017 l -0.1,0.181 c -0.164,0.226 -2.78,4.077 -3.892,5.722 0,0 -0.048,0.047 -0.097,0.1 2.06,0.618 3.055,1.77 3.055,3.536 0,3.092 -3.354,3.828 -6.186,3.888 h -5.853 z m 18.378,0.126 h -3.58 l 0.02,-0.126 c 0.092,-1.405 0.164,-4.958 0.164,-6.253 0,-1.188 -0.016,-5.177 -0.185,-6.912 l -0.014,-0.136 h 3.712 l -0.019,0.136 c -0.143,1.735 -0.187,5.724 -0.187,6.912 0,1.295 0.09,4.848 0.187,6.253 v 0.126 z m 8.32,-1.488 c 2.622,-0.022 3.576,-0.551 3.576,-1.968 0,-0.391 -0.12,-0.738 -0.359,-1.003 -0.473,-0.6 -1.482,-0.91 -2.712,-0.832 h -0.06 l -0.723,-1.894 h 0.722 c 1.442,0.04 2.68,-0.412 3.321,-1.196 0.313,-0.357 0.462,-0.787 0.462,-1.225 0,-1.482 -1.31,-2.247 -3.899,-2.247 -0.415,0 -1.115,0 -1.553,0.014 -0.107,1.978 -0.107,4.654 -0.107,5.46 0,0.934 0.033,3.014 0.107,4.79 0.283,0.062 0.774,0.1 1.225,0.1 m -4.819,1.363 c 0.107,-1.405 0.172,-4.957 0.172,-6.252 0,-1.194 0,-5.19 -0.188,-6.913 l -0.03,-0.135 h 6.253 c 3.057,0 6.313,0.954 6.313,3.68 0,1.705 -1.238,2.966 -3.568,3.656 1.717,0.46 2.872,1.63 2.872,2.97 0,2.225 -2.56,3.062 -4.94,3.12 h -6.9 z m 20.169,-3.821 c 0.3,-0.625 1.067,-2.413 1.936,-4.548 -0.132,0 -0.294,-0.014 -0.294,-0.014 l -1.642,-0.022 c 0,0 -1.712,0.036 -1.966,0.036 a 126.435,126.435 0 0 0 1.966,4.548 m 1.545,3.947 h -2.514 l -0.015,-0.06 c -0.751,-2.033 -5.487,-12.332 -5.885,-13.186 l -0.07,-0.18 h 3.2 l 0.02,0.08 c 0.267,0.92 0.639,1.952 1.055,3.082 0.102,0 2.644,0.04 2.644,0.04 l 2.203,-0.035 0.468,-0.005 c 0.578,-1.443 1.007,-2.54 1.194,-3.083 l 0.034,-0.08 h 3.702 l -5.955,13.427 z m 7.083,-3.472 c 0,-2.359 2.363,-3.308 4.455,-4.176 1.63,-0.649 3.333,-1.332 3.333,-2.457 0,-0.34 -0.067,-0.626 -0.257,-0.827 -0.392,-0.462 -1.185,-0.656 -2.444,-0.586 -1.246,0.05 -2.652,0.443 -4.234,1.172 l -0.62,0.298 v -2.925 l 0.422,-0.108 0.246,-0.042 c 0.781,-0.194 2.29,-0.549 3.788,-0.549 3.944,0 6.297,1.573 6.297,4.173 0,2.442 -2.43,3.391 -4.576,4.247 -1.581,0.641 -3.218,1.276 -3.218,2.323 0,0.302 0,1.183 2.043,1.183 1.505,0 2.968,-0.613 3.799,-0.93 l 0.758,-0.318 -0.005,0.504 v 2.432 l -0.753,0.136 c -0.766,0.155 -2.044,0.41 -3.36,0.41 -3.402,0 -5.673,-1.607 -5.673,-3.96"
         id="path59-0" /></g></g></svg>
