<?xml version="1.0" encoding="UTF-8" standalone="no"?>
<!-- Created with Inkscape (http://www.inkscape.org/) -->

<svg
   width="20.939499"
   height="21.295746"
   viewBox="0 0 5.5402423 5.6344994"
   version="1.1"
   id="svg1"
   xml:space="preserve"
   inkscape:version="1.3.2 (091e20e, 2023-11-25, custom)"
   sodipodi:docname="Expertise ERP icon.svg"
   xmlns:inkscape="http://www.inkscape.org/namespaces/inkscape"
   xmlns:sodipodi="http://sodipodi.sourceforge.net/DTD/sodipodi-0.dtd"
   xmlns="http://www.w3.org/2000/svg"
   xmlns:svg="http://www.w3.org/2000/svg"><sodipodi:namedview
     id="namedview1"
     pagecolor="#ffffff"
     bordercolor="#eeeeee"
     borderopacity="1"
     inkscape:showpageshadow="0"
     inkscape:pageopacity="0"
     inkscape:pagecheckerboard="0"
     inkscape:deskcolor="#d1d1d1"
     inkscape:document-units="mm"
     inkscape:zoom="2.5573507"
     inkscape:cx="288.77541"
     inkscape:cy="35.388185"
     inkscape:window-width="1920"
     inkscape:window-height="991"
     inkscape:window-x="-9"
     inkscape:window-y="-9"
     inkscape:window-maximized="1"
     inkscape:current-layer="layer1" /><defs
     id="defs1" /><g
     inkscape:label="Layer 1"
     inkscape:groupmode="layer"
     id="layer1"
     transform="translate(-61.47698,-37.232769)"><path
       style="fill:#1d8bf2;fill-opacity:1;stroke-width:0.0415929"
       d="m 66.161334,42.419266 -0.448499,-0.448006 -0.04153,0.02469 c -0.309003,0.183711 -0.620866,0.247903 -0.938942,0.193265 -0.450519,-0.07739 -0.838737,-0.392187 -0.99824,-0.809455 l -0.04119,-0.107764 -0.635529,-2.12e-4 -0.635528,-2.12e-4 v -0.09354 -0.09354 l 0.613519,-3e-6 0.613519,-4e-6 3.64e-4,-0.200834 c 3.64e-4,-0.206297 0.0099,-0.268541 0.06521,-0.425212 0.01431,-0.04057 0.01694,-0.127077 0.01694,-0.558348 v -0.510338 h 0.09354 0.09354 v 0.346177 0.346178 l 0.09323,-0.09582 0.09323,-0.09582 3.14e-4,-0.343901 3.12e-4,-0.343901 h 0.09354 0.09354 v 0.276038 c 0,0.15182 0.0041,0.274386 0.009,0.272369 0.005,-0.002 0.04706,-0.021 0.09353,-0.04219 l 0.0845,-0.03851 1.3e-5,-0.184331 1.1e-5,-0.184331 h 0.09354 0.09354 v 0.154742 0.154742 l 0.05227,-0.0075 c 0.02875,-0.0041 0.07208,-0.01077 0.09629,-0.01473 l 0.04402,-0.0072 0.003,-0.327093 0.0029,-0.327092 h 0.08771 0.08771 l 0.003,0.327092 0.003,0.327093 0.04402,0.0072 c 0.02421,0.004 0.06754,0.01059 0.09629,0.01473 l 0.05227,0.0075 V 39.17583 38.740465 h 0.09354 0.09354 l 1.2e-5,0.464953 1.3e-5,0.464955 0.08449,0.03851 c 0.04647,0.02119 0.08856,0.04017 0.09353,0.04219 0.005,0.002 0.009,-0.140357 0.009,-0.316388 v -0.320056 h 0.09354 0.09354 l 3.13e-4,0.387919 3.12e-4,0.38792 0.09323,0.09582 0.09323,0.09582 v -0.296656 -0.296655 h 0.09354 0.09354 v 0.460818 c 0,0.386692 0.0027,0.468541 0.01694,0.508825 0.05528,0.156672 0.06483,0.218916 0.06521,0.425213 l 3.9e-4,0.200834 0.05227,4e-6 0.05227,4e-6 v 0.09354 0.09354 h -0.07438 -0.07438 l -0.02493,0.06878 c -0.01371,0.03783 -0.0387,0.09701 -0.05553,0.131505 l -0.0306,0.06272 0.444265,0.443497 c 0.244347,0.243923 0.451655,0.457418 0.460687,0.474434 0.02811,0.05296 0.0058,0.08888 -0.152659,0.245892 -0.150393,0.14902 -0.17614,0.168866 -0.219058,0.168866 -0.01847,0 -0.144596,-0.119293 -0.473671,-0.448006 z m 0.563574,0.145224 0.07104,-0.07168 -0.398907,-0.398774 -0.398907,-0.398775 -0.0706,0.07704 -0.0706,0.07704 0.392586,0.393422 c 0.215922,0.216383 0.395231,0.393423 0.398464,0.393423 0.0032,0 0.03785,-0.03226 0.07692,-0.07168 z m -1.595847,-0.556113 c 0.241156,-0.03829 0.472345,-0.160517 0.640219,-0.338472 0.128169,-0.135866 0.210856,-0.280618 0.269761,-0.472238 0.02746,-0.08933 0.02977,-0.111708 0.03032,-0.294754 5.47e-4,-0.174181 -0.0024,-0.209376 -0.02493,-0.291627 -0.08613,-0.315515 -0.29871,-0.576671 -0.587689,-0.721989 -0.494852,-0.248847 -1.098514,-0.09837 -1.423951,0.354961 -0.06438,0.08967 -0.139848,0.251344 -0.171339,0.367028 -0.02236,0.08214 -0.02539,0.117681 -0.02485,0.291627 5.73e-4,0.183046 0.0029,0.205427 0.03032,0.294754 0.03897,0.126771 0.0832,0.222834 0.146306,0.317759 0.177683,0.267273 0.460008,0.445918 0.785684,0.497151 0.05853,0.0092 0.262019,0.0066 0.330144,-0.0042 z m -0.352154,-0.191388 c -0.324283,-0.06874 -0.577371,-0.278996 -0.696265,-0.578429 -0.07572,-0.190697 -0.08372,-0.433862 -0.02065,-0.627274 0.102426,-0.314084 0.357456,-0.551085 0.674899,-0.627187 0.124776,-0.02991 0.311408,-0.02991 0.436184,0 0.317132,0.07602 0.570572,0.311322 0.675553,0.627187 0.03279,0.09865 0.03479,0.114161 0.03551,0.27512 6.51e-4,0.146707 -0.0028,0.182788 -0.02451,0.257862 -0.05284,0.182475 -0.170803,0.363325 -0.31261,0.479259 -0.08064,0.06593 -0.258215,0.155337 -0.36092,0.181723 -0.0969,0.02489 -0.315397,0.03119 -0.407178,0.01174 z m 0.335646,-0.187751 c 0.160946,-0.03368 0.338485,-0.147367 0.434687,-0.278363 l 0.05419,-0.0738 -0.324226,-0.003 c -0.178324,-0.0016 -0.470128,-0.0016 -0.648452,0 l -0.324226,0.003 0.05419,0.0738 c 0.06703,0.09127 0.15419,0.161557 0.271466,0.218906 0.150153,0.07343 0.317186,0.09402 0.482359,0.05946 z m 0.572552,-0.564004 c 0.01838,-0.04339 0.01866,-0.260155 4.43e-4,-0.338398 -0.02746,-0.117901 -0.09602,-0.245929 -0.180626,-0.337335 l -0.07322,-0.0791 -0.0055,0.290752 -0.0055,0.290753 -0.09063,0.0032 -0.09064,0.0032 -0.0029,-0.349845 -0.0029,-0.349846 -0.05502,-0.01823 c -0.03026,-0.01003 -0.07236,-0.01993 -0.09354,-0.02201 l -0.03851,-0.0038 -0.0029,0.371413 -0.0029,0.371413 h -0.0879 -0.08775 l -0.0029,-0.371413 -0.0029,-0.371413 -0.03851,0.0038 c -0.02119,0.0021 -0.06328,0.01198 -0.09354,0.02201 l -0.05502,0.01823 -0.0029,0.349846 -0.0029,0.349845 -0.09063,-0.0032 -0.09063,-0.0032 -0.0055,-0.290753 -0.0055,-0.290752 -0.07322,0.0791 c -0.08459,0.09141 -0.153143,0.219434 -0.180607,0.337335 -0.01822,0.07825 -0.01795,0.295007 4.42e-4,0.338398 0.0077,0.01806 0.05307,0.01926 0.732121,0.01926 0.679045,0 0.72447,-0.0012 0.732121,-0.01926 z m -3.252224,0.854241 c -0.140647,-0.02281 -0.277928,-0.127141 -0.344066,-0.261488 l -0.0356,-0.07232 v -1.629176 -1.629175 l 0.03661,-0.07438 c 0.06668,-0.135428 0.194095,-0.232558 0.341849,-0.26058 0.03888,-0.0073 0.71195,-0.01117 1.95881,-0.01104 2.068017,2.07e-4 1.986346,-0.0022 2.103622,0.06164 0.104513,0.05688 0.194093,0.17378 0.226694,0.295821 0.02168,0.08116 0.02171,3.154071 3.5e-5,3.235417 -0.01571,0.05895 -0.04107,0.113588 -0.07539,0.162387 -0.02426,0.0345 -0.02408,0.03457 -0.111455,-0.04271 l -0.05132,-0.0454 0.03026,-0.05365 0.03025,-0.05365 0.0029,-1.571306 0.0029,-1.571306 -0.0234,-0.05441 c -0.01288,-0.02993 -0.04475,-0.07407 -0.07084,-0.09812 -0.09118,-0.08405 0.06334,-0.07849 -2.091102,-0.07524 l -1.925256,0.0029 -0.05967,0.03302 c -0.06333,0.03504 -0.11157,0.09134 -0.135092,0.157687 -0.0115,0.03244 -0.01432,0.347006 -0.01432,1.597581 0,1.555906 1.9e-5,1.557222 0.02298,1.606827 0.02928,0.06324 0.08423,0.118198 0.147471,0.147471 0.04828,0.02234 0.06729,0.02307 0.690676,0.02615 l 0.641031,0.0032 v 0.09312 0.09312 l -0.619022,-0.0013 c -0.340462,-7.03e-4 -0.646258,-0.0057 -0.679548,-0.0111 z m -0.663354,-0.779916 c -0.113045,-0.04334 -0.210653,-0.145208 -0.26391,-0.275414 l -0.02465,-0.06027 -0.0032,-1.55168 c -0.0023,-1.09427 3.64e-4,-1.57259 0.009,-1.622615 0.02359,-0.137921 0.104455,-0.257549 0.221376,-0.327523 0.122966,-0.07359 -0.0099,-0.06924 2.116884,-0.06924 2.079742,0 1.983511,-0.0026 2.098696,0.05619 0.06349,0.03239 0.153634,0.120493 0.188129,0.183873 0.03871,0.07112 0.0627,0.16754 0.0627,0.251967 v 0.06922 h -0.09213 -0.09213 l -0.0051,-0.08529 c -0.0073,-0.123305 -0.05706,-0.205362 -0.157343,-0.259578 l -0.04402,-0.0238 h -1.958868 -1.958857 l -0.04559,0.02438 c -0.02507,0.01341 -0.06364,0.04546 -0.08569,0.07124 -0.07711,0.09009 -0.073,-0.01072 -0.06974,1.70988 l 0.003,1.550972 0.02467,0.04615 c 0.03171,0.05931 0.0948,0.120438 0.141924,0.137477 0.02035,0.0073 0.03699,0.01756 0.03699,0.02266 0,0.01818 -0.03617,0.156999 -0.04279,0.164221 -0.0037,0.0041 -0.0304,-0.0017 -0.05932,-0.01281 z m 0.839431,-0.522771 v -0.280623 h 0.09354 0.09354 v 0.280623 0.280623 h -0.09354 -0.09354 z m 0.374164,-0.286571 v -0.567192 l 0.09079,0.0032 0.09079,0.0032 0.0029,0.563997 0.0029,0.563997 h -0.09367 -0.09364 z m 0.374164,0.143508 V 40.05004 h 0.09354 0.09354 v 0.423685 0.423686 h -0.09354 -0.09354 z m -0.93541,-2.025331 v -0.09399 l 0.09079,0.0032 0.09079,0.0032 0.0032,0.09079 0.0032,0.09079 h -0.09402 -0.09398 z m 0.374164,0 v -0.09399 l 0.09079,0.0032 0.09079,0.0032 0.0032,0.09079 0.0032,0.09079 h -0.09399 -0.09398 z m 0.374164,4.43e-4 v -0.09354 h 0.09354 0.09354 v 0.09354 0.09354 h -0.09354 -0.09354 z m -1.318272,-0.745577 0.0032,-0.09079 0.09079,-0.0032 0.09079,-0.0032 v 0.09398 0.09399 h -0.09398 -0.09399 z m 0.382862,-0.0032 v -0.09397 l 0.09079,0.0032 0.09079,0.0032 0.0032,0.09079 0.0032,0.09079 h -0.09402 -0.09399 z m 0.374164,4.44e-4 v -0.09354 h 0.09354 0.09354 v 0.09354 0.09354 h -0.09354 -0.09354 z"
       id="path13" /></g></svg>
