<?xml version="1.0" encoding="UTF-8" standalone="no"?>
<!-- Created with Inkscape (http://www.inkscape.org/) -->

<svg
   width="26.99173"
   height="26.657001"
   viewBox="0 0 7.1415617 7.0529983"
   version="1.1"
   id="svg1"
   xml:space="preserve"
   inkscape:version="1.3.2 (091e20e, 2023-11-25, custom)"
   sodipodi:docname="Expertise ERP icon.svg"
   xmlns:inkscape="http://www.inkscape.org/namespaces/inkscape"
   xmlns:sodipodi="http://sodipodi.sourceforge.net/DTD/sodipodi-0.dtd"
   xmlns="http://www.w3.org/2000/svg"
   xmlns:svg="http://www.w3.org/2000/svg"><sodipodi:namedview
     id="namedview1"
     pagecolor="#ffffff"
     bordercolor="#eeeeee"
     borderopacity="1"
     inkscape:showpageshadow="0"
     inkscape:pageopacity="0"
     inkscape:pagecheckerboard="0"
     inkscape:deskcolor="#d1d1d1"
     inkscape:document-units="mm"
     inkscape:zoom="1.4164562"
     inkscape:cx="319.45922"
     inkscape:cy="438.06507"
     inkscape:window-width="1920"
     inkscape:window-height="991"
     inkscape:window-x="-9"
     inkscape:window-y="-9"
     inkscape:window-maximized="1"
     inkscape:current-layer="layer1" /><defs
     id="defs1" /><g
     inkscape:label="Layer 1"
     inkscape:groupmode="layer"
     id="layer1"
     transform="translate(-95.676279,-0.96768797)"><path
       style="fill:#1d8bf2;fill-opacity:1;stroke-width:0.0562326"
       d="m 98.954171,7.9994608 c -0.06029,-0.026222 -0.08788,-0.081261 -0.0977,-0.1948885 -0.02062,-0.2385017 -0.213132,-0.420008 -0.461256,-0.4348878 -0.150445,-0.00902 -0.227487,0.013694 -0.350428,0.1033216 -0.07869,0.057372 -0.110954,0.07213 -0.157684,0.07213 -0.05548,0 -0.06986,-0.011028 -0.257965,-0.1977237 C 97.453129,7.172719 97.429032,7.1428249 97.422254,7.090763 c -0.0068,-0.052687 -5.3e-4,-0.068027 0.05943,-0.144879 0.09324,-0.1194232 0.121436,-0.2001863 0.120863,-0.3461581 -5.3e-4,-0.1529622 -0.04658,-0.254705 -0.163317,-0.3614013 -0.08892,-0.081269 -0.174255,-0.1173235 -0.312241,-0.1319319 -0.07004,-0.00741 -0.09799,-0.018241 -0.13018,-0.050435 -0.03831,-0.03832 -0.04096,-0.049247 -0.04096,-0.1677549 0,-0.1141297 0.0032,-0.129074 0.03307,-0.1499262 0.0284,-0.019894 0.106693,-0.023159 0.555087,-0.023159 0.423104,0 0.527397,0.00392 0.550407,0.020758 0.02045,0.01495 0.03529,0.05984 0.05304,0.1604815 0.0452,0.2561232 0.137514,0.4340038 0.319062,0.6147439 0.138441,0.1378287 0.237742,0.2007316 0.419612,0.2658025 0.125151,0.04478 0.139544,0.046619 0.360959,0.046148 0.210217,-4.496e-4 0.24114,-0.00403 0.34964,-0.040535 0.171954,-0.057848 0.296119,-0.136034 0.431464,-0.2716919 0.18179,-0.1822134 0.27346,-0.3590489 0.31853,-0.6144673 0.0178,-0.1006411 0.0326,-0.1455292 0.053,-0.1604815 0.023,-0.016826 0.12731,-0.020758 0.55041,-0.020758 0.44839,0 0.52669,0.00329 0.55509,0.023159 0.0298,0.020853 0.0331,0.035798 0.0331,0.1499262 0,0.1202717 -0.002,0.1289935 -0.0435,0.1702558 -0.0308,0.030843 -0.0581,0.043492 -0.0936,0.043492 -0.0276,0 -0.09,0.010286 -0.13877,0.022856 -0.23451,0.060446 -0.39424,0.2818842 -0.37513,0.5200334 0.009,0.1109421 0.05,0.2079536 0.13138,0.3100987 0.0544,0.068303 0.0604,0.083484 0.0534,0.1358234 -0.007,0.05194 -0.0315,0.082363 -0.2071,0.2566486 -0.1881,0.1866957 -0.20249,0.1977237 -0.25796,0.1977237 -0.0467,0 -0.079,-0.014759 -0.15769,-0.07213 -0.12294,-0.089628 -0.19998,-0.1123423 -0.35042,-0.1033206 -0.138265,0.00829 -0.233448,0.051574 -0.325827,0.148161 -0.08288,0.086654 -0.122629,0.1711465 -0.13796,0.2932487 -0.02469,0.1968058 -0.05008,0.2103808 -0.391292,0.2095604 -0.172592,-4.16e-4 -0.255877,-0.00651 -0.28964,-0.021192 z M 99.098267,6.319767 C 98.868548,6.257229 98.671479,6.0464123 98.642772,5.8324863 c -0.01606,-0.1195124 -0.02708,-0.1173682 0.604276,-0.1173682 0.631362,0 0.620317,-0.00212 0.604281,0.1173682 -0.01357,0.1010884 -0.08661,0.2375784 -0.173301,0.3238109 -0.155357,0.1545472 -0.379936,0.2178689 -0.579761,0.1634698 z M 95.715489,5.2676925 c -0.03858,-0.030339 -0.03921,-0.033794 -0.03921,-0.2146537 0,-0.1808604 5.3e-4,-0.184314 0.03921,-0.2146542 l 0.03922,-0.030837 h 3.492359 3.492372 l 0.0392,0.030837 c 0.0385,0.030244 0.0392,0.03425 0.0392,0.2089712 0,0.1692928 -0.002,0.1799473 -0.0365,0.2146537 l -0.0365,0.036519 h -3.495043 -3.495046 z m 0.566046,-0.678155 c -0.0056,-0.00556 -0.01012,-0.6651333 -0.01012,-1.4657041 V 1.6682506 h 0.491054 0.491054 l -0.0037,1.4617821 -0.0037,1.461782 -0.477138,0.00392 c -0.262435,0.00217 -0.481703,-6.36e-4 -0.487267,-0.0062 z m 1.190195,-6.15e-5 c -0.01547,-0.015485 -0.01214,-1.8320815 0.0032,-1.8416803 0.03339,-0.02062 1.391418,-0.3810277 1.409542,-0.3740728 0.01706,0.00654 0.01977,0.1886072 0.01653,1.1129543 l -0.0037,1.1051359 -0.70781,0.00386 c -0.389295,0.00212 -0.712336,-6.89e-4 -0.717869,-0.0062 z m 0.983411,-1.1719413 c 0.0032,-0.2034189 -4.5e-4,-0.2695646 -0.01489,-0.2787379 -0.02189,-0.0139 -0.473497,-0.016963 -0.508711,-0.00345 -0.02024,0.00776 -0.02353,0.045999 -0.02353,0.2727665 0,0.1450549 0.0048,0.2683489 0.01022,0.273987 0.0056,0.00564 0.127827,0.00843 0.271526,0.0062 l 0.261276,-0.00402 z m 0.667922,1.1718004 c -0.0055,-0.00546 -0.0099,-0.4207224 -0.0099,-0.922816 V 2.7536218 l 0.03349,-0.012517 c 0.01839,-0.00688 0.33656,-0.094471 0.706995,-0.1946361 0.546462,-0.147762 0.677682,-0.1786687 0.695552,-0.1638308 0.0191,0.015845 0.022,0.1620687 0.022,1.0939182 0,0.5915964 -0.004,1.0862201 -0.009,1.0991639 -0.008,0.021007 -0.0853,0.023535 -0.719113,0.023535 -0.390546,0 -0.714546,-0.00445 -0.720005,-0.00992 z m 0.983947,-0.9155045 c 0.0124,-0.012421 0.0179,-0.091347 0.0179,-0.2593054 0,-0.1996644 -0.004,-0.2454984 -0.0234,-0.2648318 -0.0193,-0.019332 -0.0652,-0.023381 -0.264833,-0.023381 -0.167954,0 -0.246883,0.00544 -0.259305,0.017853 -0.01924,0.019263 -0.02666,0.5188965 -0.008,0.5375982 0.01871,0.018702 0.518338,0.01133 0.537598,-0.00793 z m 0.6667,0.9020312 c -0.005,-0.013021 -0.009,-0.4246851 -0.009,-0.9148075 V 2.7699229 l 0.0335,-0.020748 c 0.0184,-0.011409 0.33685,-0.1024263 0.70764,-0.2022576 0.5381,-0.1448817 0.67848,-0.1779108 0.69564,-0.1636718 0.0185,0.01531 0.0209,0.1730654 0.0177,1.1132043 l -0.004,1.0953654 -0.71622,0.00387 c -0.64346,0.00345 -0.71716,0.00143 -0.72532,-0.019814 z m 0.99927,-1.1500277 c 0.003,-0.1779654 -0.001,-0.2648105 -0.013,-0.2789663 -0.021,-0.025331 -0.47417,-0.029819 -0.52026,-0.00514 -0.0267,0.014287 -0.0288,0.033455 -0.0288,0.2648317 0,0.1766771 0.005,0.2547337 0.0182,0.2676134 0.0132,0.01327 0.0887,0.017091 0.27897,0.014134 l 0.26078,-0.00403 z M 96.271413,1.2323199 c 0,-0.1572128 0.0055,-0.23315977 0.01786,-0.24549037 0.02554,-0.025522 0.920731,-0.025522 0.946253,0 0.01235,0.012331 0.01786,0.088277 0.01786,0.24549037 v 0.2276362 h -0.49098 -0.49098 z"
       id="path9" /></g></svg>
