<?xml version="1.0" encoding="UTF-8" standalone="no"?>
<!-- Created with Inkscape (http://www.inkscape.org/) -->

<svg
   width="151.1413mm"
   height="88.403389mm"
   viewBox="0 0 151.1413 88.403389"
   version="1.1"
   id="svg1"
   xml:space="preserve"
   inkscape:version="1.3.2 (091e20e, 2023-11-25, custom)"
   sodipodi:docname="maiprosoft parntners.svg"
   xmlns:inkscape="http://www.inkscape.org/namespaces/inkscape"
   xmlns:sodipodi="http://sodipodi.sourceforge.net/DTD/sodipodi-0.dtd"
   xmlns="http://www.w3.org/2000/svg"
   xmlns:svg="http://www.w3.org/2000/svg"><sodipodi:namedview
     id="namedview1"
     pagecolor="#ffffff"
     bordercolor="#eeeeee"
     borderopacity="1"
     inkscape:showpageshadow="0"
     inkscape:pageopacity="0"
     inkscape:pagecheckerboard="0"
     inkscape:deskcolor="#d1d1d1"
     inkscape:document-units="mm"
     inkscape:zoom="0.17705703"
     inkscape:cx="9008.397"
     inkscape:cy="-804.82544"
     inkscape:window-width="1920"
     inkscape:window-height="991"
     inkscape:window-x="-9"
     inkscape:window-y="-9"
     inkscape:window-maximized="1"
     inkscape:current-layer="layer1"
     showguides="true"><sodipodi:guide
       position="-984.24931,-354.05531"
       orientation="1,0"
       id="guide64"
       inkscape:locked="false" /><sodipodi:guide
       position="-1103.1427,-352.23409"
       orientation="1,0"
       id="guide71"
       inkscape:locked="false" /><sodipodi:guide
       position="-1098.0059,-352.63102"
       orientation="1,0"
       id="guide72"
       inkscape:locked="false" /><sodipodi:guide
       position="-1104.6604,-354.35885"
       orientation="0,-1"
       id="guide73"
       inkscape:locked="false" /><sodipodi:guide
       position="3.8360085,13.995884"
       orientation="0,-1"
       id="guide78"
       inkscape:locked="false" /><sodipodi:guide
       position="81.541708,-54.743746"
       orientation="0,-1"
       id="guide79"
       inkscape:locked="false" /><sodipodi:guide
       position="-239.86229,-457.54964"
       orientation="0,-1"
       id="guide91"
       inkscape:locked="false" /></sodipodi:namedview><defs
     id="defs1"><clipPath
       id="B"><path
         id="use1"
         d="M 4.6,3.7 H 1100.2 V 327 H 4.6 Z" /></clipPath></defs><g
     inkscape:label="Layer 1"
     inkscape:groupmode="layer"
     id="layer1"
     transform="translate(-1565.9677,472.78526)"><rect
       style="fill:#ffffff;stroke-width:0.332999"
       id="rect11"
       width="151.14122"
       height="88.403366"
       x="1565.9677"
       y="-472.78525"
       rx="6.0599079"
       ry="6.0599079"
       inkscape:export-filename="..\Client Logos\KAEC\KAEC.png"
       inkscape:export-xdpi="300"
       inkscape:export-ydpi="300" /><g
       id="g31"
       transform="matrix(1.4328637,0,0,1.4328637,-139.19041,-235.47497)"
       inkscape:export-filename="Mulesoft\Mulesoft.svg"
       inkscape:export-xdpi="300"
       inkscape:export-ydpi="300"><g
         transform="matrix(0.08665022,0,0,0.08665022,1195.9936,-149.09869)"
         id="g30"><defs
           id="defs28" /><clipPath
           id="clipPath29"><path
             id="path29"
             d="M 4.6,3.7 H 1100.2 V 327 H 4.6 Z" /></clipPath><path
           d="M 166.9,314.5 C 85.1,314.5 18.8,248.2 18.8,166.4 18.7,84.5 85,18.2 166.9,18.2 248.7,18.2 315,84.5 315,166.3 315,248.1 248.7,314.5 166.9,314.5 Z M 166.8,3.7 C 77.3,3.7 4.5,76.2 4.5,165.3 4.5,254.5 77.3,327 166.8,327 256.3,327 329.2,254.5 329.2,165.4 329.2,76.2 256.4,3.7 166.8,3.7 Z"
           clip-path="url(#B)"
           fill="#00a1df"
           id="path30" /></g><path
         d="m 1206.8857,-128.48481 c -2.1225,-0.99681 -3.5961,-3.2494 -3.5961,-5.85785 0,-1.37802 0.4074,-2.65147 1.1092,-3.69131 l 4.6273,6.89855 h 2.8001 l 4.6272,-6.89855 c 0.7019,1.03984 1.1093,2.32256 1.1093,3.69131 0,2.43473 -1.282,4.54899 -3.1712,5.65041 l 0.8921,3.41385 c 3.3972,-1.74994 5.7097,-5.28609 5.7097,-9.36703 0,-3.85575 -2.0712,-7.21901 -5.1554,-9.05498 l -5.3721,8.29261 -5.3131,-8.32719 c -3.1205,1.82838 -5.216,5.21608 -5.216,9.08956 0,4.22852 2.4878,7.87684 6.083,9.54919 z m 33.4302,-12.19136 h -1.7939 l -3.3867,7.36408 -3.4577,-7.36494 h -1.8047 v 11.83634 h 1.8022 v -7.91056 l 2.7896,5.77099 h 1.3343 l 2.7204,-5.77099 v 7.91056 h 1.7939 z m 6.7494,8.54477 c 0,1.29872 -0.7972,1.88065 -1.7416,1.88065 -0.9445,0 -1.6986,-0.56338 -1.6986,-1.88065 v -5.13851 h -1.6983 v 5.39739 c 0,0.95299 0.1976,1.74994 0.8492,2.38332 0.5026,0.47646 1.2128,0.76237 2.0798,0.76237 0.8491,0 1.6638,-0.31205 2.2433,-0.94453 v 0.84923 h 1.6645 v -8.43091 h -1.6983 z m 5.0177,0.86526 v -9.41003 h -1.7002 v 9.50448 c 0,1.24814 0.7019,2.331 2.3134,2.331 h 1.0484 v -1.44719 h -0.7456 c -0.6849,0 -0.9278,-0.33733 -0.9278,-0.97826 z m 3.8456,-2.47775 c 0.032,-0.51108 0.051,-0.76238 0.2168,-1.14356 0.2709,-0.63252 0.8838,-1.06601 1.681,-1.06601 0.7969,0 1.3948,0.43349 1.6639,1.06601 0.1657,0.38118 0.2167,0.63248 0.2326,1.14356 z m 1.8978,-3.62215 c -2.1576,0 -3.5699,1.57705 -3.5699,4.30611 0,3.2064 1.6807,4.32382 3.795,4.32382 1.4818,0 2.2965,-0.45035 3.1539,-1.3173 l -1.092,-1.0137 c -0.5903,0.59034 -1.1006,0.86612 -2.0451,0.86612 -1.3779,0 -2.1489,-0.91081 -2.1489,-2.35714 h 5.4674 v -0.74555 c 0,-2.40014 -1.2986,-4.06491 -3.5613,-4.06491 z m 11.9399,2.72147 c -0.5027,-0.45035 -1.1172,-0.71937 -2.2096,-0.88385 l -1.3435,-0.19889 c -0.5457,-0.0867 -1.0314,-0.28687 -1.3256,-0.54563 -0.3124,-0.28687 -0.4504,-0.67468 -0.4504,-1.10056 0,-1.04828 0.7624,-1.84524 2.1572,-1.84524 0.9971,0 1.8452,0.21675 2.5739,0.91081 l 1.1436,-1.12673 c -1.0136,-0.92767 -2.1059,-1.34344 -3.6735,-1.34344 -2.461,0 -3.9594,1.41261 -3.9594,3.4746 0,0.96139 0.2868,1.71535 0.866,2.26184 0.511,0.4849 1.282,0.81468 2.2433,0.94453 l 1.3949,0.1989 c 0.7015,0.0953 0.9967,0.21675 1.2988,0.50266 0.3124,0.27826 0.468,0.71934 0.468,1.23128 0,1.14355 -0.9024,1.81065 -2.4432,1.81065 -1.2128,0 -2.1573,-0.26997 -3.0243,-1.12673 l -1.1949,1.17901 c 1.1267,1.14359 2.4084,1.56019 4.194,1.56019 2.4792,0 4.2546,-1.29876 4.2546,-3.47457 0,-1.00529 -0.3203,-1.85538 -0.9699,-2.42631 z m 6.6894,3.89878 c -0.3123,0.31205 -0.7455,0.49418 -1.2482,0.49418 -0.5026,0 -0.9275,-0.182 -1.2313,-0.49418 -0.5195,-0.51107 -0.5801,-1.39489 -0.5801,-2.31331 0,-0.9184 0.07,-1.79377 0.5801,-2.31329 0.3124,-0.31205 0.728,-0.48491 1.2313,-0.48491 0.4944,0 0.9279,0.16448 1.2482,0.48491 0.511,0.51107 0.5802,1.39489 0.5802,2.31329 0,0.91081 -0.07,1.79379 -0.5802,2.31331 z m -1.2482,-6.62025 c -1.1436,0 -1.958,0.43346 -2.5129,0.99681 -0.7972,0.83154 -0.9971,1.89755 -0.9971,3.31013 0,1.42947 0.1976,2.4963 0.9971,3.32701 0.5453,0.56335 1.36,0.99681 2.5129,0.99681 1.1437,0 1.9759,-0.43346 2.5302,-0.99681 0.7969,-0.83154 0.9967,-1.89754 0.9967,-3.32701 0,-1.41258 -0.1976,-2.47942 -0.9967,-3.31013 -0.5549,-0.56335 -1.3865,-0.99681 -2.5302,-0.99681 z m 5.2348,-1.04829 v 1.29876 h -0.9614 v 1.29875 h 0.9614 v 6.98289 h 1.6986 v -6.98289 h 1.6807 v -1.29875 h -1.6807 v -1.21273 c 0,-0.61565 0.2964,-0.97829 0.9275,-0.97829 h 0.7455 v -1.4556 h -1.0658 c -1.5689,0 -2.3052,1.13514 -2.3052,2.34786 z m 7.0882,-1.26503 h -1.6986 v 2.55534 h -0.9613 v 1.29876 h 0.9613 v 4.63588 c 0,1.21272 0.728,2.34787 2.3135,2.34787 h 1.0145 v -1.4472 h -0.7018 c -0.6324,0 -0.9276,-0.36432 -0.9276,-0.97829 v -4.55826 h 1.6294 v -1.30717 h -1.6294 z"
         fill="#00a1df"
         id="path31"
         style="stroke-width:0.843343" /></g></g></svg>
