<?xml version="1.0" encoding="UTF-8" standalone="no"?>
<!-- Created with Inkscape (http://www.inkscape.org/) -->

<svg
   width="23.538147"
   height="20.628189"
   viewBox="0 0 6.2278013 5.457875"
   version="1.1"
   id="svg1"
   xml:space="preserve"
   inkscape:version="1.3.2 (091e20e, 2023-11-25, custom)"
   sodipodi:docname="Expertise ERP icon.svg"
   xmlns:inkscape="http://www.inkscape.org/namespaces/inkscape"
   xmlns:sodipodi="http://sodipodi.sourceforge.net/DTD/sodipodi-0.dtd"
   xmlns="http://www.w3.org/2000/svg"
   xmlns:svg="http://www.w3.org/2000/svg"><sodipodi:namedview
     id="namedview1"
     pagecolor="#ffffff"
     bordercolor="#eeeeee"
     borderopacity="1"
     inkscape:showpageshadow="0"
     inkscape:pageopacity="0"
     inkscape:pagecheckerboard="0"
     inkscape:deskcolor="#d1d1d1"
     inkscape:document-units="mm"
     inkscape:zoom="2.5573507"
     inkscape:cx="288.77541"
     inkscape:cy="35.388185"
     inkscape:window-width="1920"
     inkscape:window-height="991"
     inkscape:window-x="-9"
     inkscape:window-y="-9"
     inkscape:window-maximized="1"
     inkscape:current-layer="layer1" /><defs
     id="defs1" /><g
     inkscape:label="Layer 1"
     inkscape:groupmode="layer"
     id="layer1"
     transform="translate(-92.375315,-37.321102)"><path
       style="fill:#1d8bf2;fill-opacity:1;stroke-width:0.371611"
       d="m 95.360279,42.753341 c -0.15521,-0.04067 -0.293412,-0.120833 -0.413612,-0.239919 -0.161642,-0.160143 -0.252795,-0.350463 -0.272616,-0.569203 l -0.0089,-0.09796 -0.417417,-0.0058 c -0.36792,-0.0051 -0.42974,-0.009 -0.521375,-0.03273 -0.37708,-0.09757 -0.66995,-0.328671 -0.831611,-0.65621 -0.08665,-0.175574 -0.111674,-0.273126 -0.119958,-0.467756 -0.01021,-0.23996 0.02527,-0.421347 0.1189,-0.607752 0.0184,-0.03663 0.03344,-0.0705 0.03341,-0.07528 -2.7e-5,-0.0048 -0.0395,-0.02874 -0.08772,-0.05326 -0.119443,-0.06075 -0.291727,-0.233945 -0.356372,-0.358272 -0.0818,-0.157324 -0.107697,-0.263571 -0.107697,-0.441843 0,-0.126564 0.0057,-0.174307 0.03021,-0.253411 0.05129,-0.165537 0.113021,-0.267882 0.23537,-0.390229 0.11865,-0.118652 0.226316,-0.184917 0.370736,-0.228175 0.09716,-0.02911 0.110461,-0.03897 0.110461,-0.08195 0,-0.06226 0.05277,-0.226342 0.10517,-0.327081 0.243785,-0.468586 0.802188,-0.670037 1.292028,-0.466117 0.235455,0.09802 0.452447,0.315911 0.540337,0.542574 l 0.02862,0.07379 0.202754,3.26e-4 c 0.290399,4.83e-4 0.469494,0.04316 0.719727,0.171581 0.255585,0.131162 0.465706,0.326097 0.625009,0.579837 0.07531,0.119967 0.163122,0.328571 0.189549,0.450328 0.0086,0.03931 0.0176,0.07826 0.02015,0.08655 0.0032,0.01028 0.03058,0.0045 0.08607,-0.01782 0.0448,-0.01809 0.13728,-0.04448 0.205531,-0.05864 0.160198,-0.03324 0.411856,-0.02635 0.557186,0.01527 0.656465,0.187983 1.039682,0.871962 0.867917,1.549089 -0.06169,0.243224 -0.174492,0.446612 -0.34994,0.631007 l -0.09631,0.101227 0.02575,0.07147 c 0.03764,0.104449 0.04623,0.347085 0.01669,0.471639 -0.0804,0.338966 -0.33681,0.599085 -0.67511,0.684873 -0.09846,0.02497 -0.14339,0.02604 -1.065622,0.02535 -0.903762,-6.69e-4 -0.968625,-0.0023 -1.057311,-0.02548 z m -0.634623,-1.201877 c 0.08613,-0.237895 0.273482,-0.43534 0.502985,-0.530069 0.04574,-0.01889 0.108026,-0.04061 0.138402,-0.04828 0.05071,-0.0128 0.05523,-0.0174 0.05523,-0.05594 0,-0.06915 0.05029,-0.229184 0.10517,-0.33467 0.101009,-0.194151 0.265552,-0.354257 0.460539,-0.448121 0.154292,-0.07428 0.235508,-0.0905 0.44793,-0.0895 0.168375,7.73e-4 0.199499,0.0046 0.292396,0.03568 0.167282,0.05597 0.285258,0.129119 0.410532,0.254537 0.156065,0.156249 0.249399,0.332303 0.285222,0.538019 l 0.01456,0.08362 0.106177,0.03484 c 0.148703,0.04879 0.272022,0.126036 0.384067,0.240589 l 0.09595,0.0981 0.05755,-0.06483 c 0.378985,-0.426896 0.419007,-1.025066 0.09703,-1.450093 -0.195244,-0.25773 -0.479821,-0.400756 -0.798633,-0.401385 -0.16902,-3.34e-4 -0.292093,0.02931 -0.460686,0.110957 -0.08035,0.03892 -0.15459,0.07075 -0.164967,0.07075 -0.01038,0 -0.03411,-0.01316 -0.05274,-0.02923 -0.0277,-0.0239 -0.03628,-0.04704 -0.04702,-0.126706 -0.07948,-0.589369 -0.480912,-1.042985 -1.049623,-1.186069 -0.160286,-0.04033 -0.478996,-0.04049 -0.638298,-3.25e-4 -0.593591,0.149662 -1.017241,0.657919 -1.04869,1.258124 -0.0088,0.167641 0.01495,0.311298 0.07456,0.451392 0.05064,0.119015 0.101647,0.191651 0.2224,0.316742 0.11107,0.11506 0.121985,0.144815 0.07503,0.204512 -0.04399,0.05593 -0.107459,0.0478 -0.189918,-0.02434 -0.198617,-0.173745 -0.34086,-0.441713 -0.381307,-0.718328 l -0.0153,-0.104684 -0.04832,0.01704 c -0.338723,0.119508 -0.595156,0.41528 -0.665051,0.767074 -0.0191,0.09616 -0.01476,0.320512 0.0081,0.419849 0.02696,0.116992 0.119754,0.302824 0.200622,0.401782 0.156529,0.191546 0.410346,0.337541 0.661044,0.380234 0.03337,0.0057 0.235305,0.0095 0.448737,0.0086 l 0.38806,-0.0018 z"
       id="path18" /></g></svg>
