<?xml version="1.0" encoding="UTF-8" standalone="no"?>
<!-- Created with Inkscape (http://www.inkscape.org/) -->

<svg
   width="24.488617"
   height="24.46739"
   viewBox="0 0 6.4792798 6.4736636"
   version="1.1"
   id="svg1"
   xml:space="preserve"
   inkscape:version="1.3.2 (091e20e, 2023-11-25, custom)"
   sodipodi:docname="Expertise ERP icon.svg"
   xmlns:inkscape="http://www.inkscape.org/namespaces/inkscape"
   xmlns:sodipodi="http://sodipodi.sourceforge.net/DTD/sodipodi-0.dtd"
   xmlns="http://www.w3.org/2000/svg"
   xmlns:svg="http://www.w3.org/2000/svg"><sodipodi:namedview
     id="namedview1"
     pagecolor="#ffffff"
     bordercolor="#eeeeee"
     borderopacity="1"
     inkscape:showpageshadow="0"
     inkscape:pageopacity="0"
     inkscape:pagecheckerboard="0"
     inkscape:deskcolor="#d1d1d1"
     inkscape:document-units="mm"
     inkscape:zoom="1.4164562"
     inkscape:cx="319.45922"
     inkscape:cy="438.06507"
     inkscape:window-width="1920"
     inkscape:window-height="991"
     inkscape:window-x="-9"
     inkscape:window-y="-9"
     inkscape:window-maximized="1"
     inkscape:current-layer="layer1" /><defs
     id="defs1" /><g
     inkscape:label="Layer 1"
     inkscape:groupmode="layer"
     id="layer1"
     transform="translate(-73.749147,-0.95901591)"><path
       style="fill:#1d8bf2;fill-opacity:1;stroke-width:0.901435"
       d="M 74.791173,7.4246783 C 74.657994,7.4109823 74.519093,7.3702993 74.389562,7.3070504 74.152982,7.1915302 73.97831,7.0149854 73.867112,6.7790009 73.748779,6.527872 73.75544,6.653514 73.75544,4.6723053 V 2.9178999 h 3.234023 3.234025 l 0.0036,1.3085326 c 0.0033,1.2059265 0.0018,1.3078397 -0.01943,1.299697 -0.01266,-0.00486 -0.05059,-0.015777 -0.08428,-0.024261 l -0.06126,-0.015425 0.03379,-0.058301 c 0.157476,-0.2717654 0.05508,-0.6128872 -0.223029,-0.7430329 -0.157854,-0.073869 -0.35806,-0.064813 -0.489818,0.022156 -0.05368,0.035434 -0.06846,0.033577 -0.06846,-0.0086 0,-0.056213 -0.06149,-0.1840158 -0.119655,-0.248714 -0.09251,-0.1028961 -0.212895,-0.1616399 -0.347174,-0.1694133 -0.140224,-0.00812 -0.233266,0.015122 -0.336473,0.084041 -0.09809,0.065505 -0.185713,0.1869959 -0.211059,0.2926522 l -0.01705,0.071036 -0.05853,-0.033824 c -0.0786,-0.045422 -0.196583,-0.078507 -0.279954,-0.078507 -0.09034,0 -0.227765,0.047513 -0.308204,0.1065611 -0.212045,0.155655 -0.269777,0.4747281 -0.125914,0.6958897 l 0.04079,0.062708 -0.09021,0.022708 c -0.12082,0.030414 -0.231852,0.1086954 -0.300963,0.2121907 -0.06827,0.1022391 -0.09148,0.1956007 -0.08338,0.3354814 0.0078,0.1342795 0.06652,0.2546613 0.169414,0.3471744 0.0647,0.05817 0.192501,0.1196541 0.248714,0.1196541 0.04218,0 0.04404,0.014787 0.0086,0.068469 -0.01862,0.02822 -0.04437,0.09243 -0.05721,0.1426888 -0.06107,0.2390352 0.05757,0.4886676 0.282208,0.5937869 0.161109,0.075391 0.33968,0.066881 0.495881,-0.023632 l 0.05831,-0.033784 0.01542,0.061262 c 0.0085,0.033694 0.01939,0.071589 0.02423,0.084213 0.0081,0.02114 -0.129023,0.022774 -1.736537,0.020697 -0.959939,-0.00124 -1.767539,-0.00453 -1.794665,-0.00733 z m 0.85013,-2.2502048 c 0.09432,-0.039409 0.107564,-0.069933 0.361741,-0.8337101 0.272055,-0.8174929 0.267583,-0.7940098 0.170964,-0.8975899 -0.05584,-0.059868 -0.124504,-0.079148 -0.218837,-0.061451 -0.107438,0.020155 -0.112266,0.030702 -0.375304,0.81982 -0.210904,0.6327144 -0.241594,0.7359906 -0.236004,0.7941676 0.0078,0.081713 0.04241,0.131911 0.116662,0.1694586 0.06593,0.033338 0.11697,0.035965 0.180778,0.0093 z M 75.167866,4.9249797 C 75.247926,4.8641107 75.280055,4.775181 75.255336,4.682874 75.242426,4.634692 75.205916,4.589189 75.068547,4.4501054 L 74.897796,4.2772262 75.0709,4.1037051 c 0.188559,-0.1890135 0.212173,-0.2318367 0.1847,-0.334946 -0.03603,-0.1352156 -0.189935,-0.209121 -0.306597,-0.1472281 -0.04562,0.024204 -0.542714,0.5232562 -0.564984,0.5672103 -0.0086,0.016929 -0.0156,0.061951 -0.0156,0.1000499 0,0.091861 0.02422,0.1232691 0.319501,0.4142454 0.162671,0.1603024 0.251753,0.2380023 0.2801,0.2443128 0.02286,0.00509 0.04774,0.010758 0.05529,0.012597 0.02639,0.00643 0.119838,-0.016182 0.144545,-0.034967 z m 1.476685,0.00422 c 0.01532,-0.00839 0.14297,-0.1314502 0.283672,-0.2734686 0.285428,-0.2881013 0.304013,-0.317755 0.272502,-0.4347812 -0.01441,-0.053524 -0.05335,-0.099598 -0.265559,-0.3142398 -0.13677,-0.1383361 -0.27357,-0.2643359 -0.304001,-0.2799994 -0.107075,-0.055115 -0.245732,-0.011559 -0.295224,0.092737 -0.02639,0.055619 -0.02994,0.1516555 -0.0072,0.1963567 0.0086,0.016929 0.08922,0.1051691 0.179182,0.1960895 l 0.163557,0.1653097 -0.164286,0.1663356 c -0.09036,0.091484 -0.17099,0.1839651 -0.179182,0.2055124 -0.07651,0.2012426 0.128843,0.3829591 0.316589,0.2801467 z M 78.732368,7.414006 C 78.614071,7.371459 78.590625,7.326536 78.581816,7.1255419 l -0.007,-0.160757 -0.07046,-0.023917 c -0.03875,-0.013154 -0.104638,-0.041243 -0.146409,-0.062421 l -0.07595,-0.038504 -0.107241,0.1053546 c -0.122275,0.1201245 -0.148852,0.1366728 -0.219501,0.1366728 -0.150102,0 -0.254406,-0.1279974 -0.226317,-0.2777276 0.0075,-0.039742 0.03684,-0.079958 0.122651,-0.1678748 l 0.112847,-0.1156127 -0.04193,-0.089297 c -0.02307,-0.049114 -0.04951,-0.1130768 -0.05876,-0.1421407 l -0.01683,-0.052844 h -0.147321 c -0.163273,0 -0.216146,-0.015215 -0.275543,-0.079291 -0.09598,-0.1035453 -0.07231,-0.2701884 0.04887,-0.3440771 0.03782,-0.023064 0.07134,-0.027466 0.209459,-0.027511 l 0.164429,-5.27e-5 0.02999,-0.088073 c 0.0165,-0.048439 0.045,-0.1166081 0.06334,-0.1514848 L 77.97348,5.4825719 77.856139,5.3623225 C 77.766259,5.2702135 77.7365,5.229817 77.728974,5.1897003 c -0.02811,-0.1498422 0.07614,-0.2778386 0.226296,-0.2778386 0.07126,0 0.09711,0.0164 0.226534,0.1437184 l 0.114275,0.1124129 0.06892,-0.034521 c 0.0379,-0.018987 0.102208,-0.04542 0.142898,-0.05874 l 0.07398,-0.024219 5.3e-5,-0.1644439 c 4.4e-5,-0.1381335 0.0044,-0.1716489 0.02751,-0.209476 0.07389,-0.121181 0.240532,-0.144847 0.344077,-0.048865 0.06407,0.059395 0.07929,0.1122699 0.07929,0.2755421 V 5.050592 l 0.05284,0.016826 c 0.02906,0.00925 0.09303,0.035698 0.142141,0.058764 l 0.0893,0.041937 0.115613,-0.1128469 c 0.08792,-0.085813 0.128132,-0.1151955 0.167874,-0.1226512 0.14973,-0.02809 0.277728,0.076214 0.277728,0.2263175 0,0.070647 -0.01655,0.097225 -0.136673,0.2195002 l -0.105355,0.1072412 0.0385,0.07595 c 0.02117,0.041773 0.04926,0.1076559 0.06242,0.1464078 l 0.02392,0.070458 0.161486,0.00705 c 0.171774,0.00749 0.214626,0.022398 0.258961,0.090062 0.05937,0.090612 0.05282,0.193887 -0.01762,0.2775945 -0.05587,0.066397 -0.110362,0.083275 -0.268868,0.083275 h -0.139137 l -0.01755,0.059889 c -0.0096,0.032939 -0.03388,0.09674 -0.05386,0.14178 l -0.03631,0.081891 0.09938,0.1013002 c 0.114045,0.116251 0.13071,0.1434796 0.13071,0.2135595 0,0.1500449 -0.127998,0.2544068 -0.277604,0.2263406 -0.0391,-0.00734 -0.07929,-0.036205 -0.160737,-0.1154638 l -0.108598,-0.1056835 -0.103481,0.049134 c -0.05692,0.027023 -0.124089,0.053415 -0.149278,0.058649 l -0.0458,0.00952 v 0.138879 c 0,0.076384 -0.0068,0.1567303 -0.01503,0.1785484 -0.04285,0.113105 -0.176556,0.1783255 -0.285349,0.139195 z m 0.283335,-0.9308429 c 0.04425,-0.020176 0.113296,-0.069005 0.153433,-0.1085084 0.27212,-0.2678246 0.172322,-0.7208948 -0.188777,-0.8570249 -0.114728,-0.043251 -0.2873,-0.035103 -0.400118,0.018892 -0.0954,0.045659 -0.212686,0.1650952 -0.254348,0.259012 -0.04603,0.103764 -0.05158,0.2835326 -0.01199,0.3885489 0.04058,0.1076508 0.104003,0.1886444 0.198042,0.2529188 0.149341,0.1020722 0.34234,0.1197577 0.503754,0.046162 z M 73.753005,2.4516108 c -0.0048,-0.012353 -0.0051,-0.131265 -9.91e-4,-0.2642479 0.0091,-0.286993 0.03229,-0.4038036 0.115166,-0.5799859 0.110939,-0.2358289 0.285696,-0.4124932 0.522349,-0.5280494 0.265156,-0.1294732 0.06375,-0.12016457 2.599902,-0.12016457 2.521449,0 2.331407,-0.008208 2.585811,0.11167767 0.312044,0.147048 0.547084,0.4406855 0.621218,0.7760938 0.01842,0.083325 0.02519,0.1789005 0.02595,0.3663818 l 0.0011,0.253649 -3.230931,0.00355 c -2.945607,0.00324 -3.231694,0.00157 -3.239552,-0.018908 z m 3.552115,-0.462265 c 0.142384,-0.059492 0.172514,-0.2496181 0.05726,-0.361326 -0.04757,-0.046107 -0.05578,-0.048826 -0.147451,-0.048826 -0.09147,0 -0.09995,0.00279 -0.146914,0.048304 -0.06081,0.058941 -0.08409,0.1238516 -0.07138,0.1990796 0.02348,0.1389699 0.174597,0.2187068 0.308478,0.1627675 z m 0.835064,-0.00351 c 0.150119,-0.071236 0.159226,-0.2979439 0.01549,-0.3855814 -0.06498,-0.039618 -0.175322,-0.037936 -0.236171,0.0036 -0.09689,0.066137 -0.127854,0.2025995 -0.06659,0.2935046 0.07024,0.1042323 0.181719,0.1385664 0.287273,0.088478 z m 0.8373,-0.00889 c 0.104233,-0.070236 0.138567,-0.1817144 0.08848,-0.2872683 -0.07123,-0.1501194 -0.297943,-0.1592267 -0.385581,-0.015489 -0.0406,0.066589 -0.03787,0.1729773 0.0061,0.2376812 0.06556,0.096485 0.199844,0.1265164 0.291007,0.065082 z"
       id="path7" /></g></svg>
