<?xml version="1.0" encoding="UTF-8" standalone="no"?>
<!-- Created with Inkscape (http://www.inkscape.org/) -->

<svg
   width="26.37738"
   height="26.759981"
   viewBox="0 0 6.9790151 7.080245"
   version="1.1"
   id="svg1"
   xml:space="preserve"
   inkscape:version="1.3.2 (091e20e, 2023-11-25, custom)"
   sodipodi:docname="Expertise ERP icon.svg"
   xmlns:inkscape="http://www.inkscape.org/namespaces/inkscape"
   xmlns:sodipodi="http://sodipodi.sourceforge.net/DTD/sodipodi-0.dtd"
   xmlns="http://www.w3.org/2000/svg"
   xmlns:svg="http://www.w3.org/2000/svg"><sodipodi:namedview
     id="namedview1"
     pagecolor="#ffffff"
     bordercolor="#eeeeee"
     borderopacity="1"
     inkscape:showpageshadow="0"
     inkscape:pageopacity="0"
     inkscape:pagecheckerboard="0"
     inkscape:deskcolor="#d1d1d1"
     inkscape:document-units="mm"
     inkscape:zoom="1.4164562"
     inkscape:cx="319.45922"
     inkscape:cy="438.06507"
     inkscape:window-width="1920"
     inkscape:window-height="991"
     inkscape:window-x="-9"
     inkscape:window-y="-9"
     inkscape:window-maximized="1"
     inkscape:current-layer="layer1" /><defs
     id="defs1" /><g
     inkscape:label="Layer 1"
     inkscape:groupmode="layer"
     id="layer1"
     transform="translate(-85.109888,-0.58645934)"><path
       style="fill:#1d8bf2;fill-opacity:1;stroke-width:0.945118"
       d="m 89.532545,7.6449817 c -0.06242,-0.03254 -0.09128,-0.062425 -0.119342,-0.1235364 -0.02298,-0.050044 -0.02545,-0.098309 -0.02573,-0.501784 l -3.04e-4,-0.4464142 h -0.260491 c -0.305262,0 -0.36773,-0.013081 -0.463049,-0.096988 -0.03473,-0.030575 -0.07769,-0.085108 -0.09546,-0.121184 l -0.0323,-0.065591 -0.0039,-1.0208702 -0.0039,-1.0208703 h -0.201351 -0.201352 l -0.04046,-0.040461 c -0.0544,-0.054401 -0.0544,-0.1138376 0,-0.1682376 l 0.04046,-0.040461 h 0.201352 0.201351 l 0.0039,-1.0208702 0.0039,-1.0208703 0.0323,-0.065591 c 0.01777,-0.036075 0.06072,-0.090608 0.09546,-0.1211839 0.09532,-0.083908 0.157787,-0.096988 0.463049,-0.096988 h 0.260491 l 3.04e-4,-0.4464142 c 3.44e-4,-0.50389546 0.0038,-0.52353136 0.10439,-0.60028706 l 0.05234,-0.03992 h 0.458951 0.458951 l 0.05234,0.03992 c 0.05833,0.04449 0.103928,0.1309604 0.104389,0.1979587 4.18e-4,0.060483 0.02281,0.11459 0.06693,0.1617921 0.07194,0.076942 0.07997,0.077887 0.662197,0.077887 0.517835,0 0.53797,9.451e-4 0.596576,0.029365 0.03651,0.017674 0.07544,0.051698 0.09781,0.085477 l 0.03715,0.056121 0.0041,0.5407238 c 0.0036,0.4702831 0.0011,0.5483253 -0.0182,0.5990706 -0.02479,0.06492 -0.09789,0.1366953 -0.155702,0.1528728 -0.04893,0.013695 -2.296162,0.013884 -2.34495,2.042e-4 -0.05556,-0.015585 -0.122981,-0.078454 -0.151534,-0.1413147 -0.02092,-0.046056 -0.02546,-0.092026 -0.02572,-0.2601163 l -3.35e-4,-0.2041741 h -0.242685 c -0.289014,0 -0.328762,0.010444 -0.351501,0.092329 -0.0097,0.035111 -0.01474,0.3791209 -0.0148,1.018515 l -7.6e-5,0.9655014 h 0.303653 0.303653 l 0.0044,-0.3425981 c 0.0042,-0.3295929 0.0056,-0.3445409 0.03618,-0.393808 0.01751,-0.028165 0.05488,-0.065544 0.08306,-0.083057 0.05012,-0.031161 0.06033,-0.031936 0.477876,-0.036047 0.414247,-0.00406 0.428475,-0.00331 0.488854,0.025896 0.08134,0.039374 0.129574,0.1127734 0.142263,0.2164755 0.01206,0.098572 0.04214,0.1580379 0.101302,0.2002299 0.04514,0.0322 0.04588,0.032247 0.612731,0.039156 0.624962,0.00766 0.613518,0.00605 0.690098,0.097023 0.06319,0.075099 0.06636,0.1099144 0.06173,0.6793547 l -0.0044,0.5341363 -0.03775,0.054448 c -0.02076,0.029951 -0.05813,0.066782 -0.08306,0.081847 -0.0442,0.026728 -0.07395,0.027389 -1.221898,0.027389 H 89.56019 l -0.05121,-0.031839 c -0.02816,-0.017513 -0.06554,-0.054892 -0.08306,-0.083057 -0.03063,-0.049269 -0.03201,-0.064211 -0.03618,-0.393808 l -0.0043,-0.3425978 h -0.303653 -0.303653 l 7.7e-5,0.9655015 c 5.1e-5,0.6393941 0.005,0.9834066 0.0148,1.0185149 0.02274,0.081885 0.06249,0.092329 0.3515,0.092329 h 0.242686 V 6.1229238 c 0,-0.2142819 0.01238,-0.2710797 0.07333,-0.336358 0.06968,-0.074627 0.08756,-0.077812 0.466359,-0.083038 0.411938,-0.00567 0.507532,0.0017 0.570335,0.044014 0.05748,0.03874 0.105379,0.1096262 0.114681,0.1697366 0.004,0.025792 0.01062,0.068521 0.01473,0.094942 0.0097,0.06217 0.06675,0.1292156 0.1373,0.1612598 0.05115,0.02324 0.101892,0.025433 0.592883,0.025717 0.499226,2.825e-4 0.540548,0.00217 0.588298,0.02652 0.06344,0.03238 0.09257,0.063824 0.12004,0.1295757 0.03167,0.075798 0.03167,1.0799127 0,1.1557092 -0.02747,0.065752 -0.0566,0.0972 -0.12004,0.1295757 -0.04919,0.025102 -0.1003,0.026208 -1.211202,0.026123 -1.02474,-7.47e-5 -1.164678,-0.00265 -1.201341,-0.021719 z m 0.429709,-0.3859116 c 0.06602,-0.066016 0.03431,-0.1729916 -0.05814,-0.196198 -0.07437,-0.018666 -0.156717,0.063682 -0.138051,0.1380506 0.0232,0.092461 0.130182,0.1241639 0.196198,0.058144 z m 0.0097,-0.4931437 c 0.06007,-0.073502 0.0044,-0.1931443 -0.08934,-0.1922389 -0.05081,4.896e-4 -0.0816,0.019261 -0.105646,0.0644 -0.0262,0.049184 -0.01872,0.086932 0.02607,0.131723 0.03646,0.036463 0.04911,0.041056 0.09343,0.033958 0.02819,-0.00454 0.06217,-0.021549 0.07549,-0.037842 z m -0.03213,-2.053958 c 0.06724,-0.034771 0.0784,-0.1250797 0.02238,-0.1810912 -0.05601,-0.056008 -0.146324,-0.044846 -0.181091,0.02238 -0.03004,0.058087 -0.02488,0.093406 0.02021,0.1384976 0.04509,0.045092 0.08041,0.050242 0.138497,0.020207 z m 0.02522,-0.5097598 c 0.06166,-0.056433 0.03067,-0.163788 -0.05614,-0.19451 -0.0372,-0.013165 -0.118014,0.025981 -0.136245,0.065998 -0.02517,0.055242 5.3e-5,0.1208068 0.05759,0.1497 0.05336,0.026794 0.08839,0.021294 0.134801,-0.02119 z m 0.0025,-2.0811302 c 0.09475,-0.1204552 -0.07539,-0.26682 -0.175237,-0.1507463 -0.06751,0.078483 -0.01308,0.1872185 0.09372,0.1872185 0.04058,0 0.05948,-0.00841 0.08153,-0.036472 z m -0.0053,-0.4819846 c 0.06924,-0.069239 0.03189,-0.1809221 -0.06574,-0.1965496 -0.04433,-0.00709 -0.05698,-0.00246 -0.09343,0.033958 -0.02319,0.023193 -0.04217,0.055516 -0.04217,0.071829 0,0.1084022 0.126622,0.1654789 0.201342,0.09076 z M 86.161911,5.9495126 C 85.702941,5.9161311 85.280614,5.7931693 85.157717,5.6571375 l -0.04782,-0.052936 V 5.2789476 c 0,-0.1788901 0.0033,-0.3252548 0.0073,-0.3252548 0.0041,0 0.04296,0.017815 0.08652,0.039591 0.160839,0.080411 0.409919,0.1483211 0.702103,0.1914242 0.23597,0.034809 0.871414,0.034809 1.107384,0 0.292185,-0.043107 0.541264,-0.1110127 0.702103,-0.1914242 0.04356,-0.021776 0.08249,-0.039591 0.08652,-0.039591 0.0041,0 0.0073,0.1483145 0.0073,0.3295881 v 0.3295873 l -0.04443,0.045441 c -0.117932,0.1206219 -0.475285,0.2362533 -0.855325,0.2767639 -0.202286,0.021568 -0.555663,0.028391 -0.747485,0.014432 z M 85.538017,5.5701914 c 0.101341,-0.052407 0.06293,-0.2150673 -0.05078,-0.2150673 -0.06291,0 -0.09323,0.01825 -0.114118,0.068682 -0.02223,0.053664 0.0012,0.1173903 0.0536,0.1458781 0.04637,0.025197 0.0634,0.025282 0.111298,5.072e-4 z M 86.168833,4.9732331 C 85.643283,4.9212516 85.308091,4.8258977 85.160011,4.6862395 l -0.05011,-0.047265 V 4.3058332 3.9726923 l 0.100357,0.046292 c 0.05519,0.025461 0.150189,0.062274 0.211095,0.0818 0.658941,0.2113141 1.73906,0.1759081 2.273465,-0.074523 l 0.114333,-0.053579 v 0.3302554 0.3302555 l -0.03422,0.040678 c -0.09401,0.1117216 -0.435248,0.2284617 -0.817076,0.2795245 -0.113521,0.015179 -0.689627,0.029667 -0.789012,0.019838 z M 85.560401,4.5736627 c 0.04871,-0.048711 0.04748,-0.1333373 -0.0025,-0.1726533 -0.118071,-0.092877 -0.266125,0.075997 -0.152396,0.1738177 0.05005,0.04306 0.111131,0.042596 0.154892,-0.00113 z M 86.085778,3.9899341 C 85.669689,3.9476495 85.295743,3.8353383 85.170053,3.7149057 l -0.06016,-0.057643 V 3.3109348 2.9646058 l 0.134963,0.066706 c 0.632515,0.3126237 1.869668,0.3049106 2.463423,-0.015358 l 0.100865,-0.05441 v 0.3444228 0.3444227 l -0.03607,0.042861 C 87.679854,3.804032 87.40624,3.9054999 87.040891,3.964772 86.90771,3.986377 86.22721,4.004306 86.085772,3.989931 Z M 85.56234,3.5947377 c 0.06391,-0.060043 0.03173,-0.1770319 -0.05467,-0.1987158 -0.07573,-0.019006 -0.161334,0.065516 -0.14247,0.1406818 0.02165,0.08627 0.132378,0.1188703 0.197136,0.05803 z m 0.586992,-0.57907 c -0.335214,-0.028098 -0.64233,-0.09832 -0.818907,-0.1872421 -0.468509,-0.2359374 -0.144373,-0.5399233 0.679173,-0.6369519 0.202805,-0.023893 0.650372,-0.026974 0.858271,-0.00586 0.57695,0.058474 0.971473,0.2427083 0.935088,0.4366616 -0.03009,0.1604007 -0.370026,0.311166 -0.838191,0.3717499 -0.210443,0.027229 -0.619456,0.038107 -0.815434,0.021681 z"
       id="path8" /></g></svg>
