<?xml version="1.0" encoding="UTF-8" standalone="no"?>
<!-- Created with Inkscape (http://www.inkscape.org/) -->

<svg
   width="22.569992"
   height="22.570009"
   viewBox="0 0 5.9716436 5.9716482"
   version="1.1"
   id="svg1"
   xml:space="preserve"
   inkscape:version="1.3.2 (091e20e, 2023-11-25, custom)"
   sodipodi:docname="Expertise ERP icon.svg"
   xmlns:inkscape="http://www.inkscape.org/namespaces/inkscape"
   xmlns:sodipodi="http://sodipodi.sourceforge.net/DTD/sodipodi-0.dtd"
   xmlns="http://www.w3.org/2000/svg"
   xmlns:svg="http://www.w3.org/2000/svg"><sodipodi:namedview
     id="namedview1"
     pagecolor="#ffffff"
     bordercolor="#eeeeee"
     borderopacity="1"
     inkscape:showpageshadow="0"
     inkscape:pageopacity="0"
     inkscape:pagecheckerboard="0"
     inkscape:deskcolor="#d1d1d1"
     inkscape:document-units="mm"
     inkscape:zoom="1.4164562"
     inkscape:cx="319.45922"
     inkscape:cy="438.06507"
     inkscape:window-width="1920"
     inkscape:window-height="991"
     inkscape:window-x="-9"
     inkscape:window-y="-9"
     inkscape:window-maximized="1"
     inkscape:current-layer="layer1" /><defs
     id="defs1" /><g
     inkscape:label="Layer 1"
     inkscape:groupmode="layer"
     id="layer1"
     transform="translate(-63.258416,-1.5720784)"><path
       style="fill:#1d8bf2;fill-opacity:1;stroke-width:0.938213"
       d="m 64.839436,7.5171802 c -0.02166,-0.014599 -0.05134,-0.044274 -0.06594,-0.065938 L 64.746956,7.411847 V 6.7313449 6.0508393 l -0.452397,-0.00416 c -0.429636,-0.00394 -0.45579,-0.00542 -0.519823,-0.029402 -0.246663,-0.092363 -0.411135,-0.2603365 -0.494449,-0.5049659 -0.02097,-0.061567 -0.02187,-0.132013 -0.02187,-1.7103544 V 2.1558178 l 0.03366,-0.087561 c 0.0857,-0.2229275 0.240016,-0.3772672 0.462515,-0.4625975 l 0.08756,-0.033581 h 1.085754 c 1.030604,0 1.089015,0.00111 1.149965,0.021868 0.244544,0.083284 0.411554,0.2467342 0.505214,0.494445 0.02495,0.065978 0.02558,0.08172 0.02919,0.7332959 l 0.0037,0.6658704 -0.02708,0.040175 c -0.08223,0.1220107 -0.229946,0.1256361 -0.317315,0.00779 -0.0239,-0.032243 -0.02454,-0.046525 -0.03026,-0.6712995 l -0.0058,-0.6383558 -0.0305,-0.064211 C 66.16622,2.0799783 66.101216,2.0149802 66.019537,1.9761781 l -0.06421,-0.030504 h -1.021591 -1.021543 l -0.06421,0.030504 c -0.08168,0.038802 -0.146678,0.1038005 -0.18548,0.1854795 l -0.0305,0.064211 v 1.5819297 1.5819319 l 0.0305,0.064211 c 0.03881,0.081679 0.103801,0.1466774 0.18548,0.1854794 l 0.06421,0.030504 0.417373,0.00359 0.417373,0.00359 V 4.9017899 4.1264702 l 0.02654,-0.039392 c 0.0146,-0.021665 0.04427,-0.051337 0.06594,-0.065938 l 0.0394,-0.026546 h 2.10968 2.109682 l 0.0394,0.026546 c 0.02166,0.0146 0.05134,0.044272 0.06594,0.065938 l 0.02654,0.039392 v 1.6426902 1.6426903 l -0.02654,0.039396 c -0.0146,0.021663 -0.04427,0.051339 -0.06594,0.065938 l -0.0394,0.026542 H 66.988509 64.878828 Z M 68.856473,5.7691604 V 4.3681875 h -1.867964 -1.867964 v 1.4009729 1.4009728 h 1.867964 1.867964 z m -3.269851,1.000834 c -0.06051,-0.040777 -0.09248,-0.096182 -0.09248,-0.1602503 0,-0.064068 0.03197,-0.1194742 0.09248,-0.1602503 0.03782,-0.025489 0.04902,-0.026546 0.281109,-0.026546 0.232087,0 0.243286,0.00106 0.281108,0.026546 0.12422,0.083711 0.12422,0.2367891 0,0.3205006 -0.03782,0.025488 -0.04902,0.026546 -0.281108,0.026546 -0.232087,0 -0.243287,-0.00106 -0.281109,-0.026546 z m 1.120778,0 c -0.0605,-0.040777 -0.09248,-0.096182 -0.09248,-0.1602503 0,-0.064068 0.03198,-0.1194742 0.09248,-0.1602503 l 0.0394,-0.026546 h 0.802106 0.802106 l 0.0394,0.026546 c 0.124219,0.083711 0.124219,0.2367891 0,0.3205006 l -0.0394,0.026546 h -0.80211 -0.802106 z m -0.740103,-0.732788 c -0.210294,-0.036252 -0.366558,-0.1693379 -0.440448,-0.3751188 -0.02538,-0.070678 -0.02653,-0.089345 -0.0267,-0.4299668 -1.61e-4,-0.3355495 0.0011,-0.3583149 0.02317,-0.3948301 0.07057,-0.1171175 0.240729,-0.1182654 0.313106,-0.00211 0.02424,0.038898 0.02575,0.05713 0.0313,0.3794301 0.0066,0.379951 0.0084,0.3886409 0.09394,0.4367036 0.08517,0.047868 0.202804,0.019202 0.251521,-0.061293 0.02018,-0.033346 0.02286,-0.068976 0.02814,-0.3754111 0.0055,-0.3223 0.007,-0.3405319 0.0313,-0.3794301 0.03439,-0.055181 0.09036,-0.086213 0.155497,-0.086213 0.06514,0 0.121112,0.031032 0.155497,0.086213 0.02469,0.039626 0.02546,0.05145 0.02546,0.3911049 0,0.3794229 -0.0063,0.4271998 -0.0708,0.5372562 -0.116628,0.1990101 -0.351381,0.3115239 -0.57099,0.2736668 z m 0.972397,0.00106 c -0.09568,-0.02999 -0.151401,-0.128287 -0.126078,-0.222407 0.0065,-0.024187 0.07312,-0.1182894 0.163227,-0.2306026 L 67.129074,5.395516 66.983035,5.2134508 c -0.08912,-0.1111012 -0.15136,-0.1998259 -0.159691,-0.2276322 -0.03775,-0.1260287 0.08442,-0.2512059 0.215912,-0.221209 0.05635,0.012855 0.07843,0.033638 0.208283,0.1960726 0.05775,0.072238 0.109296,0.1313413 0.114547,0.1313413 0.0053,0 0.06786,-0.072996 0.139128,-0.1622138 0.142442,-0.1783139 0.18536,-0.2092295 0.268958,-0.1937409 0.10472,0.019402 0.15888,0.089885 0.150132,0.1953807 -0.0053,0.063507 -0.0094,0.070137 -0.165354,0.2647417 l -0.159952,0.1996036 0.13832,0.1720893 c 0.178785,0.2224336 0.180192,0.224731 0.180192,0.2940422 0,0.1057233 -0.07391,0.1802441 -0.178763,0.1802441 -0.03339,0 -0.06755,-0.00864 -0.08964,-0.022676 -0.01963,-0.012472 -0.0892,-0.08966 -0.154601,-0.1715297 -0.0654,-0.081869 -0.123191,-0.1488533 -0.128409,-0.1488533 -0.0053,0 -0.063,0.066984 -0.128409,0.1488533 -0.0654,0.081869 -0.132883,0.1576345 -0.149947,0.168367 -0.03941,0.02479 -0.103706,0.034579 -0.144052,0.021935 z M 64.420059,3.6044979 C 64.289914,3.5651665 64.189101,3.4969885 64.113798,3.3973799 64.009575,3.2595169 64.000073,3.2089202 63.999906,2.7909008 c -1.36e-4,-0.3402493 2.72e-4,-0.3462077 0.02641,-0.3849897 0.08371,-0.1242196 0.236789,-0.1242196 0.320501,0 0.02603,0.038613 0.02654,0.045772 0.02654,0.362085 0,0.3114273 9.16e-4,0.3245121 0.02627,0.3747851 0.02828,0.056074 0.102771,0.1046279 0.160528,0.1046279 0.05776,0 0.132251,-0.048553 0.160528,-0.1046279 0.02535,-0.050273 0.02627,-0.063358 0.02627,-0.3747851 0,-0.3163129 5.25e-4,-0.3234722 0.02654,-0.362085 0.08371,-0.1242196 0.236789,-0.1242196 0.320501,0 0.02614,0.038782 0.02654,0.044741 0.02641,0.3849897 -1.4e-4,0.3514122 -0.0049,0.3998999 -0.04919,0.5032075 -0.04887,0.113944 -0.187009,0.2434312 -0.312075,0.2925261 -0.0816,0.03203 -0.260948,0.041478 -0.339086,0.017864 z m 1.166563,-0.010042 c -0.02166,-0.014601 -0.05134,-0.044272 -0.06594,-0.065938 l -0.02654,-0.039392 V 2.9672146 2.4453028 l 0.02654,-0.039392 c 0.08371,-0.1242196 0.236789,-0.1242196 0.3205,0 l 0.02654,0.039392 v 0.5219118 0.5219118 l -0.02654,0.039392 c -0.04077,0.060508 -0.09618,0.092483 -0.16025,0.092483 -0.03779,0 -0.0672,-0.00827 -0.09431,-0.026546 z"
       id="path6"
       inkscape:export-filename="UXUI.svg"
       inkscape:export-xdpi="96"
       inkscape:export-ydpi="96" /></g></svg>
