<?xml version="1.0" encoding="UTF-8" standalone="no"?>
<svg
   enable-background="new 0 0 550 250"
   viewBox="77 83 91.806618 89.478371"
   version="1.1"
   id="svg20"
   sodipodi:docname="Elasticsearch_logo.svg"
   width="91.806618"
   height="89.478371"
   inkscape:version="1.3.2 (091e20e, 2023-11-25, custom)"
   inkscape:export-filename="Elasticsearch_logo.svg"
   inkscape:export-xdpi="96"
   inkscape:export-ydpi="96"
   xmlns:inkscape="http://www.inkscape.org/namespaces/inkscape"
   xmlns:sodipodi="http://sodipodi.sourceforge.net/DTD/sodipodi-0.dtd"
   xmlns="http://www.w3.org/2000/svg"
   xmlns:svg="http://www.w3.org/2000/svg">
  <defs
     id="defs20" />
  <sodipodi:namedview
     id="namedview20"
     pagecolor="#505050"
     bordercolor="#eeeeee"
     borderopacity="1"
     inkscape:showpageshadow="0"
     inkscape:pageopacity="0"
     inkscape:pagecheckerboard="0"
     inkscape:deskcolor="#d1d1d1"
     inkscape:zoom="3.8341463"
     inkscape:cx="178.52735"
     inkscape:cy="42.121501"
     inkscape:window-width="1920"
     inkscape:window-height="991"
     inkscape:window-x="-9"
     inkscape:window-y="-9"
     inkscape:window-maximized="1"
     inkscape:current-layer="svg20" />
  <g
     id="g20"
     transform="translate(-1.8007679,1.1424964)">
    <path
       d="m 141.8,114.97837 h -20.9 c 0.1,0.5 0.3,1 0.4,1.4 0.7,2.4 1.1,4.9 1.3,7.5 0.1,1 0.1,2.1 0.1,3.1 0,1 0,2.1 -0.1,3.1 -0.2,2.6 -0.6,5.1 -1.3,7.5 -0.1,0.5 -0.3,1 -0.4,1.4 h 20.9 c 6.6,0 11.9,-5.4 11.9,-12 0,-6.6 -5.3,-12 -11.9,-12 z"
       fill="#00a9e5"
       id="path15" />
    <path
       d="m 122.6,130.07837 c 0.1,-1 0.1,-2.1 0.1,-3.1 0,-1 0,-2.1 -0.1,-3.1 -0.2,-2.6 -0.6,-5.1 -1.3,-7.5 -0.1,-0.5 -0.3,-1 -0.4,-1.4 H 88.6 c -1.2,3.8 -1.8,7.8 -1.8,12 0,4.2 0.6,8.2 1.8,12 h 32.3 c 0.1,-0.5 0.3,-1 0.4,-1.4 0.7,-2.4 1.1,-4.9 1.3,-7.5 z"
       fill="#353535"
       id="path16" />
    <path
       d="m 145.4,142.97837 h -26 c -0.8,1.8 -1.7,3.5 -2.7,5.1 -1.5,2.5 -3.3,4.7 -5.3,6.8 -0.7,0.7 -1.4,1.3 -2.1,2 -1.4,1.3 -3,2.4 -4.6,3.5 6.3,4.2 13.9,6.6 22,6.6 13.9,0 26.1,-7.1 33.3,-17.8 -3.7,-3.8 -8.9,-6.2 -14.6,-6.2 z"
       fill="#00bfb3"
       id="path17" />
    <path
       d="m 116.7,148.07837 c 1,-1.6 1.9,-3.3 2.7,-5.1 H 90.1 c 3.1,7.1 8.2,13.2 14.7,17.4 1.6,-1.1 3.1,-2.2 4.6,-3.5 0.7,-0.6 1.4,-1.3 2.1,-2 1.9,-2 3.7,-4.3 5.2,-6.8 z"
       fill="#019b8f"
       id="path18" />
    <path
       d="m 111.4,99.078372 c -0.7,-0.7 -1.4,-1.3 -2.1,-2 -1.4,-1.3 -3,-2.4 -4.6,-3.5 -6.4,4.2 -11.5,10.299998 -14.7,17.399998 h 29.3 c -0.8,-1.8 -1.7,-3.5 -2.7,-5.1 -1.4,-2.5 -3.2,-4.8 -5.2,-6.799998 z"
       fill="#f9b110"
       id="path19" />
    <path
       d="m 126.7,86.978372 c -8.1,0 -15.7,2.4 -22,6.6 1.6,1.1 3.1,2.2 4.6,3.5 0.7,0.6 1.4,1.3 2.1,2 2,2.099998 3.8,4.299998 5.3,6.799998 1,1.6 1.9,3.3 2.7,5.1 h 26 c 5.7,0 10.9,-2.4 14.6,-6.2 -7.2,-10.699998 -19.4,-17.799998 -33.3,-17.799998 z"
       fill="#fed10a"
       id="path20" />
  </g>
</svg>
