<?xml version="1.0" encoding="UTF-8" standalone="no"?>
<!-- Created with Inkscape (http://www.inkscape.org/) -->

<svg
   version="1.1"
   id="svg1"
   width="263.00488"
   height="193.17033"
   viewBox="0 0 263.00488 193.17033"
   sodipodi:docname="new KAEC-Logo.svg"
   inkscape:version="1.3.2 (091e20e, 2023-11-25, custom)"
   xml:space="preserve"
   xmlns:inkscape="http://www.inkscape.org/namespaces/inkscape"
   xmlns:sodipodi="http://sodipodi.sourceforge.net/DTD/sodipodi-0.dtd"
   xmlns="http://www.w3.org/2000/svg"
   xmlns:svg="http://www.w3.org/2000/svg"><defs
     id="defs1" /><sodipodi:namedview
     id="namedview1"
     pagecolor="#505050"
     bordercolor="#eeeeee"
     borderopacity="1"
     inkscape:showpageshadow="0"
     inkscape:pageopacity="0"
     inkscape:pagecheckerboard="0"
     inkscape:deskcolor="#d1d1d1"
     showgrid="false"
     showguides="true"
     inkscape:zoom="0.37112088"
     inkscape:cx="1731.2419"
     inkscape:cy="-467.50267"
     inkscape:window-width="1920"
     inkscape:window-height="991"
     inkscape:window-x="-9"
     inkscape:window-y="-9"
     inkscape:window-maximized="1"
     inkscape:current-layer="g1"><sodipodi:guide
       position="-1802.2241,203.0885"
       orientation="0,-1"
       id="guide7"
       inkscape:locked="false" /><sodipodi:guide
       position="-2007.0468,6.8397725"
       orientation="0,-1"
       id="guide8"
       inkscape:locked="false" /></sodipodi:namedview><g
     inkscape:groupmode="layer"
     inkscape:label="Image"
     id="g1"
     transform="translate(-3196.9238,-4.9464884)"><g
       id="g44"
       transform="matrix(0.44486506,0,0,0.44486506,4044.1526,-357.91266)"
       inkscape:export-filename=".\SPS.png"
       inkscape:export-xdpi="300"
       inkscape:export-ydpi="300"><g
         id="g35"
         transform="rotate(180,-1617.2969,1032.7723)"><path
           id="path28"
           style="opacity:1;fill:#37bfe4;fill-opacity:0.109804;stroke:none;stroke-width:4.516;stroke-dasharray:none;stroke-opacity:1"
           d="m -1825.2715,840.01367 c -7.0381,-0.20463 -12.8958,1.13957 -17.2969,4.26953 -29.8296,28.21831 74.9725,149.5688 172.1348,220.8906 l 7.6602,-8.875 c -91.1096,-71 -183.7223,-172.32091 -159.0235,-196.80661 21.1198,-15.02008 76.4169,11.65994 134.8262,53.34961 -53.3842,-40.90259 -107.3003,-71.9268 -138.3008,-72.82813 z" /><path
           id="path35"
           style="opacity:1;fill:#37bfe4;fill-opacity:0.109804;stroke:none;stroke-width:4.516;stroke-dasharray:none;stroke-opacity:1"
           d="m -1868.916,815.67969 c -8.368,0.20886 -15.7048,2.18982 -21.7207,6.26562 -39.4659,34.94286 112.5298,207.08859 203.1562,264.27539 l 10.8457,-12.5664 c -87.894,-60.0767 -221.426,-209.65776 -193.6015,-237.24219 21.1198,-15.02008 86.0613,8.32205 144.4707,50.01172 -51.2755,-39.2869 -106.889,-71.64923 -143.1504,-70.74414 z" /></g><path
         style="opacity:1;fill:#35c0e2;fill-opacity:0.207843;stroke:none;stroke-width:4.516;stroke-dasharray:none;stroke-opacity:1"
         d="m -1757.8003,913.25883 c 42.8037,-28.36964 311.4869,216.55167 289.0325,234.47837 -42.4302,33.8745 -318.7765,-212.58053 -289.0325,-234.47837 z"
         id="path36"
         sodipodi:nodetypes="csc" /><path
         id="path37"
         style="opacity:1;fill:#2d9ac8;fill-opacity:1;stroke-width:4.22059"
         d="m -1610.9492,894.76367 c -143.5749,3.34855 -246.3028,67.40755 -246.3028,137.75003 0,77.3011 66.091,141.9182 248.6444,150.8203 1.1882,0.058 2.3598,0.036 3.5449,0.078 v -31.6914 c -168.3521,-11.1644 -229.1639,-57.3591 -229.1639,-126.9336 0,-65.14654 85.6426,-125.06727 223.2774,-130.02343 z"
         sodipodi:nodetypes="cssccsc" /><path
         id="path38"
         style="opacity:1;fill:#34346a;fill-opacity:1;stroke-width:5.15116"
         d="m -1904.4624,1060.4395 c 0,99.0657 71.2208,173.2087 294.0241,184.0736 1.4501,0.071 2.8801,0.044 4.3265,0.095 v -38.6788 c -205.4709,-13.626 -272.3467,-68.9567 -272.3467,-153.8712 0,-71.11715 91.363,-152.75096 269.3588,-158.42895 -39.5603,0.9085 -295.3627,24.62001 -295.3627,166.81035 z"
         sodipodi:nodetypes="ssccscs" /><g
         id="g40"><path
           id="path39"
           style="opacity:1;fill:#37bfe4;fill-opacity:0.109804;stroke:none;stroke-width:4.516;stroke-dasharray:none;stroke-opacity:1"
           d="m -1825.2715,840.01367 c -7.0381,-0.20463 -12.8958,1.13957 -17.2969,4.26953 -29.8296,28.21831 74.9725,149.5688 172.1348,220.8906 l 7.6602,-8.875 c -91.1096,-71 -183.7223,-172.32091 -159.0235,-196.80661 21.1198,-15.02008 76.4169,11.65994 134.8262,53.34961 -53.3842,-40.90259 -107.3003,-71.9268 -138.3008,-72.82813 z" /><path
           id="path40"
           style="opacity:1;fill:#37bfe4;fill-opacity:0.109804;stroke:none;stroke-width:4.516;stroke-dasharray:none;stroke-opacity:1"
           d="m -1868.916,815.67969 c -8.368,0.20886 -15.7048,2.18982 -21.7207,6.26562 -39.4659,34.94286 112.5298,207.08859 203.1562,264.27539 l 10.8457,-12.5664 c -87.894,-60.0767 -221.426,-209.65776 -193.6015,-237.24219 21.1198,-15.02008 86.0613,8.32205 144.4707,50.01172 -51.2755,-39.2869 -106.889,-71.64923 -143.1504,-70.74414 z" /></g><path
         d="m -1557.6654,1247.6134 c -19.0941,-1.7208 -24.1605,-6.3343 -26.072,-23.7417 l -0.6863,-6.25 h 9.6292 9.6291 l 0.056,3.25 c 0.031,1.7875 0.5935,4.825 1.25,6.75 1.659,4.8651 5.3076,5.8749 21.4756,5.9436 14.9633,0.064 19.5752,-1.1229 21.2243,-5.4603 1.1,-2.8932 1.3456,-13.4026 0.3724,-15.9385 -1.2635,-3.2926 -6.1305,-4.5533 -21.5836,-5.5909 -25.6555,-1.7225 -34.3932,-4.3287 -38.0242,-11.3415 -2.6545,-5.127 -3.6007,-19.3271 -1.8183,-27.2914 1.4992,-6.6993 6.6975,-12.5863 12.5473,-14.2099 17.1622,-4.763 50.0426,-3.3883 58.9771,2.4659 3.5598,2.3324 6.6901,9.6367 7.2801,16.9873 l 0.5166,6.4357 h -9.6369 -9.6369 v -2.5321 c 0,-4.2017 -2.7115,-9.4077 -5.4404,-10.4452 -8.2659,-3.1427 -28.9586,-1.8753 -33.1136,2.0281 -3.0938,2.9064 -4.0951,9.4965 -2.3035,15.1589 1.7654,5.5792 3.9647,6.2921 23.9357,7.7585 32.9848,2.4218 38.1036,6.0102 38.1036,26.7106 0,11.9983 -2.0438,19.1149 -6.6515,23.1605 -4.421,3.8817 -8.4023,4.998 -22.0303,6.1767 -12.1156,1.048 -16.14,1.0445 -28,-0.024 z m 188,0.056 c -19.4779,-1.9136 -24.8293,-6.6602 -26.2208,-23.257 l -0.5692,-6.7905 h 9.645 9.645 v 4.25 c 0,5.7278 2.88,10.2768 7.018,11.1044 5.3226,1.0645 28.4415,0.7287 31.8594,-0.4628 4.1308,-1.44 6.1188,-5.4347 6.1188,-12.2949 0,-6.5593 -1.3745,-9.9907 -4.5887,-11.4551 -1.3024,-0.5935 -9.2403,-1.5634 -17.6397,-2.1555 -8.3994,-0.5921 -18.6466,-1.7651 -22.7716,-2.6067 -14.7282,-3.005 -17.3129,-6.3629 -17.8554,-23.1969 -0.4268,-13.2439 0.9821,-18.3304 6.393,-23.0813 4.4216,-3.8822 8.422,-5.0025 22.7496,-6.3711 8.7879,-0.8393 14.6999,-0.8347 23.2341,0.018 12.3254,1.2319 18.4306,3.296 22.3459,7.555 2.4356,2.6495 5.0896,11.698 5.1172,17.4467 l 0.016,3.25 h -9.3864 -9.3865 l -0.6683,-4.4569 c -0.9912,-6.6093 -2.9734,-8.4192 -10.5588,-9.6406 -7.7256,-1.2441 -21.1966,-0.3056 -25.7026,1.7906 -3.9434,1.8345 -5.7204,6.5528 -5.0592,13.4336 0.8402,8.7444 1.6862,9.1023 25.7618,10.8992 17.6784,1.3195 27.067,3.3181 30.9549,6.5896 4.5543,3.8322 6.3347,10.7058 5.8859,22.7241 -0.6173,16.5291 -5.166,23.1398 -17.527,25.4721 -8.0118,1.5116 -29.1539,2.1848 -38.8138,1.2358 z m -117.5,-48.1343 v -48.0867 l 30.75,0.4157 c 25.9756,0.3511 31.6015,0.6919 36.234,2.195 6.8632,2.2268 11.4488,6.9137 13.4903,13.7883 1.8111,6.0986 2.0537,24.2141 0.426,31.8041 -1.2834,5.9844 -5.5406,11.3755 -10.6776,13.5219 -5.0674,2.1172 -18.6127,3.4309 -35.4727,3.4403 l -14.75,0.01 v 15.5 15.5 h -10 -10 z m 56.5206,0.2078 c 1.6614,-0.6362 3.6519,-2.1612 4.4235,-3.3888 1.8713,-2.9776 2.5632,-16.1699 1.1267,-21.4849 -1.92,-7.1042 -3.685,-7.6928 -24.2749,-8.0944 l -17.7959,-0.3471 v 17.7125 17.7125 l 16.75,-0.4766 c 9.2125,-0.2621 18.1093,-0.997 19.7706,-1.6332 z"
         style="fill:#34346a;fill-opacity:1"
         id="path44" /></g></g></svg>
